<?xml version="1.0" encoding="utf-8"?>
<!-- Generator: Adobe Illustrator 15.1.0, SVG Export Plug-In . SVG Version: 6.00 Build 0)  -->
<!DOCTYPE svg PUBLIC "-//W3C//DTD SVG 1.1//EN" "http://www.w3.org/Graphics/SVG/1.1/DTD/svg11.dtd">
<svg version="1.1" id="Ebene_1" xmlns="http://www.w3.org/2000/svg" xmlns:xlink="http://www.w3.org/1999/xlink" x="0px" y="0px"
	 width="208.292px" height="362px" viewBox="0 0 208.292 362" enable-background="new 0 0 208.292 362" xml:space="preserve">
<g>
	<g>
		<path fill-rule="evenodd" clip-rule="evenodd" fill="#C6C6C6" d="M213.64,153.566c0.046,0.032,0.109,0.04,0.199,0.015
			c-0.004-0.006-0.011-0.013-0.014-0.016L213.64,153.566z M153.781,157.243l0.744-0.727l-0.726-0.62L153.781,157.243z
			 M186.442,153.565l-1.87,0.001C185.226,154.321,185.811,154.027,186.442,153.565z M208.923,151.872l-0.213,0.139
			C208.741,152.595,208.819,152.364,208.923,151.872z M225.427,147.009l0.533-1.443l-1.161,0.002
			C224.966,146.179,225.016,147.135,225.427,147.009z M213.64,153.565l0.186-0.006c-0.129-0.291-0.069-2.273-0.776-1.393
			C213.864,151.932,213.318,153.342,213.64,153.565z M280.983,139.307l-0.039,0.003
			C280.727,139.844,280.855,139.581,280.983,139.307z M243.876,143.17l0.239-0.054l-0.36-2.718L243.876,143.17z M281.137,138.977
			c0,0-0.076,0.166-0.153,0.33l0.006,0C281.099,139.065,281.137,138.977,281.137,138.977z M156.446,131.544
			c0.18-0.161,0.354-0.356,0.523-0.592C156.727,130.888,156.604,131.079,156.446,131.544z M282.531,135.581l-0.204-0.261
			l-0.82-1.039l-1.699-2.035c-0.812-0.927-1.659-1.825-2.56-2.68h-0.001c-1.686-1.601-3.555-3.048-5.723-4.242
			c2.049-3.024,2.708-0.022,4.153-2.057c-2.331,1.844-1.389-0.418-3.46-1.491l0.293-0.332c-1.061-0.327,0.156-1.889-1.17-2.1
			l-0.598,0.499c-2.169,0.357,1.667-4.15-1.69-2.276l1.206-1.917c-3.311,1.251-0.128-1.932-3.135-1.208l0.564-0.248
			c0.018-0.258-0.035-0.464-0.14-0.628l-22.688,0l22.688-0.001c-0.81-1.276-4.709-0.174-3.157-2.08
			c-1.284-0.831-2.814-1.747-5.064-0.364c0.601-0.854,1.996-1.67,2.825-2.033c-4.306-3.465-7.416-8.647-13.195-10.276
			c0.304-0.53,0.845-0.568,1.395-0.805c-0.527-0.064-0.938-0.218-1.27-0.44h-0.009c-2.329-1.535-0.581-6.186-5.875-4.56
			l-2.461,0.885c0.337-1.142,1.753-2.155,2.102-3.104c-1.65,0.525-2.016-1.894-3.97-0.84c0.6-0.857,1.12-0.686,1.69-1.133
			c-0.43-1.403-4.278-0.467-4.437-1.978l1.121-0.337c-0.155-1.63-0.393-3.303-0.739-4.934l-10.718-0.003l10.718-0.004
			c-1.353-6.4-4.353-12.292-10.54-13.182c-1.6-0.621,1.866-2.354,1.581-2.811h-0.001c-0.012-0.02-0.03-0.037-0.058-0.051
			c-7.092-1.857-5.618-11.719-14.445-11.62c-3.951-2.189-11,1.542-11,1.542c3.797,2.845,6.439,6.272,8.453,10.129l15.914,0
			l-15.914,0.006c2.407,4.614,3.914,9.851,5.408,15.457c0.193,0.174,0.393,0.351,0.595,0.537h0.007
			c2.45,2.161,5.544,4.739,6.326,7.693c2.181,2.539,3.997,5.361,5.668,8.307h0.002c2.986,5.26,5.505,10.902,8.798,16
			c1.57,2.428,3.315,4.731,5.371,6.81c-12.251,1.705-24.28,4.743-36.885,6.418c-0.525,1.381-1.163,2.198-1.856,2.768h-0.004
			c-1.688,1.38-3.715,1.276-5.312,4.228l0.061-1.422c-2.021,2.193-2.75-0.181-5.628-1.716c0.091,1.63-1.022,0.529-0.435,3.177
			c-0.785,2.348-1.996-3.68-3.281-2.359c-0.113-0.901,0.151,1.598-0.202,0.778c-2.832,3.005-0.406-0.25-2.576-2.681h-0.002
			c-0.367-0.41-0.866-0.797-1.544-1.125c-1.321,0.31-2.645,0.701-3.968,1.119h-0.021c-4.845,1.509-9.695,3.292-14.497,2.353
			c0.311,0.251,0.52,1.971-0.023,2.043c-0.902-4.315-1.954,1.342-3.146-0.316c0.017-0.91,0.505-1.228,0.757-1.637
			c-2.857-1.589-4.947,1.23-7.661-0.458c-2.334,2.089-5.513-1.621-7.008,0.767c0.266-1.773-1.197-1.212-1.79-2.032
			c-1.353,5.102-4.65-0.883-6.676,1.771c0.437-0.968,0.956-1.707,1.932-2.485l-15.726-0.002l15.726-0.001
			c0.394-0.315,0.861-0.637,1.428-0.983c0.267-1.332-1.594-2.958-0.178-3.841c3.116,0.917,1.831-2.578,3.614-3.182
			c-2.452-1.156-3.217-3.921-1.428-4.517l2.91,2.455c0.229-2.171,1.602-4.012,3.075-5.928l-7.435-0.001h7.435
			c2.107-2.743,4.419-5.644,3.875-9.891l2.074,0.87c0.428-2.714,1.703-4.85,2.949-6.978l-23.869,0l23.869-0.001
			c1.59-2.718,3.135-5.425,2.814-9.312c1.806-0.587,3.732-2.154,4.532-3.373c-0.284-1.551-0.218-2.371-0.447-3.314
			c-0.17-0.706-0.506-1.48-1.278-2.683c0.235-0.74,1.961-0.15,2.771,0.038c1.861-1.78,5.772-2.091,3.919-5.713l1.62,0.969
			c-0.515-2.72-0.873-6.406,2.142-7.118c-0.33-0.449-0.491-0.976-0.628-1.493l-20.283-0.001l20.283-0.004
			c-0.302-1.155-0.488-2.291-2.13-2.528c0.146-0.966,2.974,1.267,1.787-0.593l1.823,2.212c3.344-3.842,4.499-8.181,5.958-13.052
			c1.766,0.302,2.319-0.748,2.829-2.032h0.001c0.497-1.25,0.951-2.721,2.447-3.37c-0.602-2.337,3.061-3.296,0.358-6.512l1.613,0.962
			c1.385-1.683,2.986-4.127,5.316-5.994c1.349-1.097-0.985-2.628-1.074-4.243l1.619,0.969c-0.184-1.837-2.416-3.756-3.715-5.246
			c1.681-0.217,0.621-1.061,2.293-1.281c0.279,1.458,1.495,3.342,3.241,5.339c1.636-1.025-1.408-5.127,1.626-4.43
			c1.332-0.824,1.407-2.11-0.279-3.473c0.596,0.236,1.487-0.027,1.881,1.032c0.544-0.948,0.781-1.638,0.286-2.753
			c-0.128,0.166-0.56,0.24-0.629,0.479c-1.304-1.498-0.618-2.345-3.143-3.72c0.317,0.872,0.677,1.148,0.096,1.622
			c-1.493-1.341-0.941-3.209,0.798-2.622c1.998,0.659,2.064,2.872,3.555,2.813l-2.184-4.682c0.092,0.78-1.242,0.714-2.461-0.37
			l0.373,1.68l-1.686-1.18c-0.492,2.09-3.002,2.114-2.767,4.761l2.188,0.498c-0.584,1.073,1.113,3.659-1.549,3.254
			c-0.335-0.878-1.431-1.125-2.408-1.75c0.165,0.443,0.676,1.152,0.217,1.258l-2.071-1.879c2.571,2.581-0.951,3.233-0.638,4.057
			l-0.449-0.504c-2.254,0.693,1.827,0.816,1.208,1.877c-1.049,0.56-3.436-1.786-5.192-1.785c-0.918,1.598-0.392,5.721-3.818,5.938
			c-0.377,1.715-0.31,3.927,0.23,6.045c-0.803,1.227-3.05-2.094-2.498,0.04c-0.937-0.804-2.133-1.347-3.194-1.884
			c0.978,0.915-1.699,2.168,1.566,2.912c-1.749,1.408-3.323,3.248-3.996,5.496c0.229-0.745-1.557-2.154-2.843-2.243
			c1.279,2.084,1.34,4.303-0.211,5.545c1.975,1.253,2.282,0.719,4.075,2.133c0.105,0.292,0.411,0.811,0.483,1.207l6.974,0.001
			l-6.974,0.002c0.035,0.199,0.013,0.369-0.121,0.468c-0.285-0.144-0.586-0.306-0.896-0.472l-11.505,0.002
			c1.319,1.533-1.053,0.495-1.302,2.157c1.673,1.779,0.223-0.753,2.206,0.504c1.886,1.024,1.286,2.089,1.124,3.048
			c-0.8,1.219-2.549-0.775-4.189-1.149c-0.168-0.439,0.175-1.557,1.247-0.712c-1.033-2.77-4.356-2.08-5.202-3.85l-0.229-0.002
			l0.229-0.002c-0.023-0.048-0.044-0.098-0.062-0.15c-0.188,0.039-0.333,0.087-0.443,0.149h-0.011
			c-0.993,0.528,0.894,1.804,1.195,2.743c0.495-0.116,1.872,1.502,2.728,1.702c4.056,5.519-4.751-1.285-5.069,1.249
			c3.694,1.84,3.128,5.71,7.806,6.777c0.311,0.865,0.727,1.966,0.049,2.207c-2.013-2.053-2.378-0.34-4.014-2.706l-0.481,0.684
			l-2.092-2.876c-2.115-0.28-4.535-0.028-5.912-0.34c0.37,1.685,2.451,1.156,2.261,2.703c-0.945-1.205-2.435-1.148-2.742-0.612
			c1.588-0.439,3.315,2.151,3.459,3.187c-0.629,1.058-3.364,0.436-3.811-0.072l-1.093-1.867c0.526,1.059-1.349-0.571-1.147,0.556
			c0.745,0.692,1.716,1.689,2.717,2.672h0.001c0.536,0.527,1.08,1.049,1.601,1.518c0.139,1.028-1.871,0.374-1.716,0.801
			l-0.729-1.962c-0.213,0.998-1.455,0.138-2.459-0.356l-0.446-0.002l0.446-0.001c-0.608-0.302-1.129-0.47-1.279-0.003h-0.003
			c-0.025,0.083-0.039,0.186-0.039,0.311l1.581,1.556c-0.369,0.067-1.012-0.166-1.516-0.616c0.591,0.826,0.031,1.367,0.241,1.932
			l-1.26-0.69c0.408,1.097,2.591,3.585-0.231,2.75c3.255,1.334,0.489-0.696,2.452-0.845c2.546,0.779,1.35,2.305,1.52,2.74
			c-3.051-2.092-1.27,1.325-1.771,2.007c-1.376-0.315-2.111-0.284-2.945-0.469l1.866,1.618c-4.145-2.341-0.006,2.011-1.768,2.002
			c-0.96-1.214-2.575-2.189-3.521-2.005c3.469,1.19,2.879,3.66,5.031,4.744c-1.98,0.753-3.549-2.805-5.904-3.742
			c1.823,2.212-2.532,0.622,0.114,3.033c1.239-0.344,1.628,0.699,2.292,1.682h13.133l-13.133,0c0.188,0.278,0.396,0.552,0.651,0.787
			c-0.908,0.958-1.11-0.418-2.115-0.788h-0.029c-0.197-0.066-0.422-0.097-0.691-0.062c0.002,0.021,0.006,0.044,0.009,0.062
			l0.328,0.003l-0.328,0.003c0.146,0.867,1.901,2.953,3.266,2.674c-1.134,0.342,1.138,3.059-1.241,2.72
			c-2.087-0.869,0.198-2.153-1.453-2.529c-1.378,1.688,3.976,3.905,3.492,5.998c1.473-0.064,4.295,2.774,4.878,4.314
			c-2.035,1.334-0.583-1.541-3.414-2.381l-0.131,0.976c-3.932-1.096-3.888-5.692-7.173-6.435l0.571,1.527
			c-0.801-0.78-2.291-2.127-3.395-2.377c2.124,1.686-0.675,2.251-0.241,2.746c1.786,1.41-0.124-1.018,1.285,0.093
			c-0.048,1.195,2.872,3.654,0.808,4.189c-0.853-1.594-2.782-1.429-3.67-2.438c-1.21,0.126,2.128,1.682,0.461,1.909l-1.07-0.849
			c-1.309,1.628-2.627,3.562-3.256,5.856c-0.612,2.237-0.568,4.816,0.78,7.787c-2.274-0.714-3.165,0.281-5.624,1.121
			c1.133-0.338,1.992,1.261,1.954,1.849l-2.752-0.629c-1.947,0.159-0.695,2.847-0.06,4.587c-0.539-0.121-1.171-0.461-1.794-0.802
			c-1.768-0.058,0.015,1.295,0.686,2.088h0.002c0.101,0.119,0.176,0.225,0.211,0.312l-1.376-0.312l-0.569-0.129l0.165,0.129
			l1.269,0.991c0.292,1.472-0.856,2.411-3.273,0.66c0.24,0.655,0.49,1.312,1.492,1.344c-2.033-0.056-3.628,2.379-3.838,4.53
			c1.126-0.343,1.842,0.217,3.445,1.177c2.502,1.97-0.737,0.034,0.386,1.691c-0.995-0.63-2.472-0.56-2.689-1.816
			c-4.8-0.087-4.031,4.692-6.477,6.933c0.013,0.197,0.055,0.353,0.118,0.49h0.002c0.2,0.417,0.609,0.62,1.005,1.165
			c-3.796-0.062-2.34,3.867-4.707,4.932c0.738,0.17,1.866,1.004,2.66,1.904h0.001c0.683,0.775,1.116,1.598,0.835,2.087
			c1.447,2.539-3.339-1.554-5.299-1.406c0.687,1.166,0.344,2.284-0.053,2.592l-0.358-0.281c0.767,1.377,0.799,2.781-0.695,2.844
			l-0.075-0.215l-0.272,0.146l-0.258,0.078c-0.583,0.317-0.94,1.125-1.121,2.15h-0.001c-0.708,4.014,1.309,11.31,3.159,5.069
			c0.603,0.729,0.853,1.832,1.268,2.935h0.001c0.317,0.842,0.732,1.683,1.479,2.35c0.584,0.523,3.94,0.254,4.601,0.807
			c0.984,0.824-0.683,2.488,0.47,3.377l0.621,0.569c0.417,0.385,0.834,0.714,1.199,0.578c0.155-2.465,2.076-1.097,2.358-3.299
			c0.11,0.265-0.014,0.455,0.223,0.965l-0.087-2.066l1.561,1.067c-0.261,0.837-0.272,1.747-0.643,2.337
			c1.676,1.313,0.39-1.956,1.137-3.137c0.994-1.572,1.082,0.475,1.675,1.313c-0.379,1.063-0.843-0.429-1.088-0.029
			c-0.508,1.691,0.713,0.62,0.82,1.794c0.24,0.055,0.161-2.466,1.001-2.037c0.718,0.184,2.309-0.586,2.275,1.688
			c0.253-0.614,0.545-1.95,0.801-3.021c2.426,2.445,1.753,0.448,2.095,0.021c0.097-0.12,0.188-0.243,0.277-0.368l0.141,0.308
			c0.276-1.748,1.364-1.717,2.218-2.18c0.209,2.302-0.317,4.913,1.375,5.335l1.248-2.437c0.732-0.271,0.963,0.229,0.948,1.603
			c2.65,1.097,2.157-6.538,4.313-4.651c-0.653,2.802,0.075,2.985,1.032,3.669c0.006-0.455,0.021-1.365,0.388-1.492
			c-0.349-1.229-0.394,1.938-1.219,0.153c-0.337-1.675,0.743-1.19,1.12-1.772c2.214,5.773,6.047,1.003,9.154,3.576
			c-0.438-3.276,1.227-1.053,1.73-2.308c0.071,3.449,1.589-0.734,2.53,1.297l-0.681-3.341c0.715,0.683,1.248,0.107,1.706-0.672h0
			c0.764-1.297,1.324-3.155,2.194-0.668c0.226,0.2,0.35,0.425,0.401,0.667h0c0.189,0.89-0.638,1.942-0.934,2.408
			c1.644,3.588,3.445-3.27,4.839,0.719c0.014-0.855-0.207-2.035-0.101-3.125c0.063-0.647,0.242-1.26,0.656-1.751
			c0.434,0.564,1.031,1.175,1.576,1.749h0.006c0.789,0.822,1.469,1.553,1.389,1.924c0.742-0.727,0.876-1.828,1.829-0.679
			c-0.013,0.892-0.38,1.037-0.625,1.445c1.44,0.786,2.434-0.778,3.548-2.114c0.929,2.514,3.254,1.035,4.928,2.349
			c0.65-3.211,2.607,1.001,2.476-2.899c0.036,0.406,0.236,0.854,0.342,1.067c0.121-0.297,0.229-0.679,0.335-1.091
			c0.33-1.29,0.629-2.872,1.184-3.064l-0.044,2.712c0.002,0.125,0.007,0.243,0.015,0.352c0.192,2.649,1.879,0.601,2.394,1.542
			c-0.521-1.659,0.809-0.002,0.862-1.536h0c0-0.002,0-0.004,0-0.006v0c0.001-0.074,0.001-0.155-0.002-0.245l0.817-0.932
			c1.354-0.808,0.068-1.35,1.774-1.857c0.97-0.225,0.559,3.104,0.198,2.785c0.065,0.094,0.129,0.177,0.192,0.249l1.87-0.006
			c0.181-0.134,0.367-0.283,0.558-0.425l-0.042-0.047l-0.083,0.068c-0.3,0.028-0.411-0.171-0.159-0.773
			c0.043,0.342,0.129,0.563,0.243,0.706c0.308-0.25,0.621-0.465,0.949-0.511l-0.008,0.155c-0.344,0.192-0.661,0.346-0.899,0.403
			c0.236,0.244,0.578,0.201,0.924,0.191c0.049,0.211,0.155,0.173,0.294,0.008c0.19,0.02,0.374,0.079,0.535,0.231
			c0.077,0.073,0.148,0.167,0.213,0.289l-0.083,2.133c0.454,0.041,1.385-1.329,1.795-2.417h0.002
			c0.144-0.383,0.223-0.729,0.193-0.964c2.478,1.599,6.251-0.153,7.794-1.433c-0.255,0.498-0.229,1.127,0.021,0.407
			c0.787-0.476,1.578-2.352,1.758-0.992c0.733-0.917,0.846,1.419,2.082,1.529c0.041,0.333,0.038-0.997-0.099-1.583
			c2.243,2.523,4.462-2.505,7.033-0.767c-0.192,0.136-0.394,1.393-0.542,2.104c1.821-1.193,3.56-2.2,5.079-4.883
			c-0.111,0.972,0.009,1.872-0.399,2.447c1.314-0.132,2.808-0.796,3.277-2.802c-0.971-0.92,0.022,1.161-0.592,1.097
			c-0.445-0.743-0.444-1.531-0.224-2.166l-56.474-0.002l56.474-0.002c0.312-0.911,1.067-1.518,1.601-1.258l0.061,0.45
			c1.314-0.15,1.289-1.312,2.603-1.444c0.878,1.153-0.646,0.647-0.231,1.943c0.018,0.111,0.039,0.216,0.06,0.312l2.75,0.001
			l-2.75,0.003c0.667,2.949,3.113,1.609,3.404,1.975c0.229-0.68,0.578-1.224,0.567-1.978v-0.001c0,0,0,0,0-0.001
			c-0.001-0.093-0.006-0.188-0.021-0.288c0.398-0.4,0.574-0.14,0.691,0.288l1.161,0l1.835-4.968
			c-0.034,0.923,1.128,2.793,0.353,3.996c2.113-0.591,3.042-4.613,4.214-6.816c0.297,0.224,0.84,0.063,1.417-0.208h0.008
			c0.748-0.348,1.549-0.874,1.943-0.984c0.417,1.536-0.372,0.322-0.608,0.974h-0.003c-0.033,0.088-0.053,0.209-0.061,0.375
			l1.232,2.01c-1.406,0.394,0.412,3.169-0.263,4.527c1.058-1.25,3.87-0.155,5.628,0.28c-1.47-3.801,2.163-2.031,1.839-5.461
			c1.964-0.779,1.206,2.711,2.021,3.415c1.988-1.508,4.046-0.686,5.917-1.214c0,0,0.062,0.468-0.024,0.711
			c1.666-1.185,4.568-0.361,6.088-3.599c-0.03,0.702,0.178,1.359-0.232,1.935c1.961,1.093,0.022-4.455,2.34-2.534l-0.377,1.746
			c0.823-1.18,1.769-0.171,2.71-0.217c-0.081,0.657-0.237,1.461-0.446,2.471c0.214,0.416,0.936-1.095,1.814-3.526
			c0.076,0.826-0.219,1.142-0.391,1.63c1.256-0.794,2.746-0.628,3.764-2.541l-11.046-0.002l11.046-0.001
			c0.076-0.14,0.147-0.292,0.217-0.455c0.038,0.153,0.067,0.304,0.089,0.458c0.136,0.905-0.011,1.721-0.437,2.43
			c1.489,1.227,1.289-3.157,2.636-2.129c0.324,0.101,0.95,1.144,0.981,1.494c0.435-1.106,1.605-1.43,2.422-1.795l-1.4-0.001l1.4,0
			c0.263-0.117,0.488-0.239,0.643-0.392c0.033,0.143,0.071,0.272,0.113,0.394h0.001c0.287,0.812,0.789,1.186,1.554,2.174l5.254-0.37
			l0.658-0.05l0.137-0.01c0.12-0.294,0.345-0.829,0.736-1.745l-6.116-0.001l6.116-0.004
			C281.905,137.033,282.185,136.382,282.531,135.581z M140.15,134.23l0.286-0.811c0.115,0.116,0.217,0.233,0.3,0.346L140.15,134.23z
			 M189.73,151.613c-0.178,0.102-0.395,0.238-0.629,0.386C189.328,151.698,189.55,151.502,189.73,151.613z M153.622,55.47
			c-1.498-1.335,0.015,1.398-1.081,1.153C153.993,57.152,153.505,55.847,153.622,55.47z M150.997,63.275
			c-0.16-0.435,0.099-0.382,0.305-0.53l-1.537-0.747C149.669,62.375,150.242,63.302,150.997,63.275z M157.474,52.954
			c0.219-0.181,0.25-0.404,0.17-0.65C157.496,52.338,157.427,52.527,157.474,52.954z M159.348,47.171l-1.167-1.065l0.106,1.625
			c1.337,0.902,3.515,1.996,3.849,0.875c0.427,0.402,0.735,0.716,0.947,0.96l11.505-0.002c-2.034-1.11-4.434-2.527-5.306-1.342
			c-2.921-2.455,1.981-2.145-1.571-3.555c-2.106-2.275-0.583-4.93,1.343-4.493c-1.875-3.026-0.967,0.78-3.451-1.184
			c-0.534,1.276,0.5,2.709-0.25,4.744c1.337,0.905,1.924,0.438,2.484,1.964c1.777,3.407-3.27,0.657-3.651,0.972
			c-0.168-0.437-0.052-0.812-0.212-1.247c-1.612,0.425-0.017,1.993-0.882,2.999c-3.814-2.07,0.742-2.025-1.214-3.885l-3.098-0.896
			C157.32,45.104,161.433,46.041,159.348,47.171z M163.301,42.267c-0.452-0.503-0.601-0.936-1.234-1.277
			C161.572,41.678,162,42.167,163.301,42.267z M164.053,44.636c-0.135-0.027-0.271-0.057-0.407-0.087
			C163.842,44.672,163.965,44.683,164.053,44.636z M207.726,14.362c1.02,0.033,0.504-0.686-0.291-1.472
			C205.256,13.798,208.107,12.654,207.726,14.362z M177.02,33.184c-0.436-0.493-1.075-0.841-0.956-1.222
			c-0.825-0.181,0.05,0.816-0.058,1.196C176.264,33.211,177.375,33.466,177.02,33.184z M165.593,44.39
			c-1.432-1.133-1.183,0.054-1.541,0.246C164.723,44.771,165.343,44.828,165.593,44.39z M206.902,16.179
			c-1.071-0.845-2.729-1.228-3.987-1.917C204.11,16.139,205.436,15.637,206.902,16.179z M174.271,32.879
			c-0.682,0.114-2.413-0.517-1.635,0.706c-0.824-0.183-1.579-1.56-2.168-1.092c1.042,1.438,3.787,2.062,5.11,1.563l0.204,0.063
			C175.139,33.756,174.597,33.367,174.271,32.879z M173.948,31.683c-0.024,0.464,0.097,0.854,0.323,1.196
			C174.633,32.818,174.702,32.548,173.948,31.683z M176.529,34.515c-0.15-0.141-0.388-0.273-0.747-0.396
			C176.019,34.254,176.271,34.384,176.529,34.515z M171.325,35.484c-0.405,0.916-0.421,2.907,0.643,3.747L171.325,35.484z
			 M201.042,14.459c-0.021-0.184-0.121-0.415-0.32-0.69L201.042,14.459z M202.333,20.137c0.084,0.151,0.156,0.294,0.216,0.431
			C202.623,20.472,202.597,20.345,202.333,20.137z"/>
	</g>
</g>
<g>
	<g>
		<path fill-rule="evenodd" clip-rule="evenodd" fill="#C6C6C6" d="M259.29,230.733l-1.869,0.002
			C258.073,231.489,258.659,231.196,259.29,230.733z M286.489,230.734c0.046,0.032,0.108,0.04,0.196,0.016
			c-0.004-0.006-0.008-0.014-0.012-0.017L286.489,230.734z M226.631,234.411l0.742-0.727l-0.726-0.619L226.631,234.411z
			 M286.489,230.733l0.185-0.006c-0.13-0.291-0.068-2.273-0.776-1.393C286.712,229.101,286.167,230.511,286.489,230.733z
			 M281.77,229.04l-0.212,0.14C281.591,229.764,281.667,229.532,281.77,229.04z M298.276,224.177l0.531-1.443l-1.16,0.002
			C297.814,223.348,297.862,224.303,298.276,224.177z M316.726,220.339l0.238-0.055l-0.361-2.718L316.726,220.339z M353.986,216.146
			c0,0-0.076,0.166-0.153,0.329h0.004C353.946,216.233,353.986,216.146,353.986,216.146z M353.833,216.475l-0.04,0.004
			C353.575,217.013,353.705,216.749,353.833,216.475z M355.378,212.749l-0.203-0.262l-0.819-1.039l-1.699-2.034
			c-0.812-0.927-1.659-1.825-2.559-2.681h-0.001c-1.687-1.601-3.557-3.048-5.724-4.242c2.048-3.024,2.708-0.022,4.154-2.057
			c-2.334,1.845-1.392-0.418-3.463-1.491l0.294-0.332c-1.06-0.326,0.154-1.889-1.168-2.1l-0.601,0.499
			c-2.167,0.356,1.669-4.15-1.688-2.276l1.205-1.916c-3.309,1.251-0.127-1.933-3.133-1.208l0.564-0.248
			c0.018-0.258-0.036-0.465-0.141-0.629h-30.25c1.57,2.428,3.316,4.73,5.371,6.811c-12.25,1.704-24.281,4.743-36.885,6.418
			c-0.527,1.382-1.163,2.198-1.857,2.769h-0.003c-1.688,1.38-3.713,1.276-5.312,4.228l0.061-1.423
			c-2.022,2.193-2.749-0.181-5.628-1.716c0.09,1.63-1.023,0.529-0.436,3.177c-0.784,2.349-1.997-3.68-3.281-2.359
			c-0.112-0.9,0.151,1.598-0.2,0.778c-2.833,3.005-0.407-0.25-2.577-2.682h-0.003c-0.368-0.41-0.866-0.797-1.542-1.125
			c-1.323,0.309-2.647,0.7-3.97,1.119h-0.02c-4.847,1.509-9.696,3.291-14.497,2.353c0.311,0.251,0.52,1.972-0.024,2.043
			c-0.9-4.314-1.953,1.343-3.146-0.315c0.017-0.91,0.505-1.228,0.755-1.637c-2.855-1.589-4.946,1.23-7.659-0.458
			c-2.334,2.089-5.514-1.621-7.008,0.767c0.267-1.773-1.196-1.212-1.791-2.032c-1.352,5.103-4.647-0.883-6.676,1.771
			c0.438-0.968,0.958-1.706,1.936-2.485l-15.727-0.001l15.727-0.002c0.393-0.315,0.859-0.637,1.427-0.983
			c0.267-1.332-1.593-2.959-0.18-3.842c3.117,0.917,1.83-2.578,3.614-3.182c-2.449-1.156-3.217-3.921-1.428-4.517l2.91,2.454
			c0.229-2.171,1.604-4.012,3.075-5.928l-9.913-0.001h9.913c2.107-2.743,4.42-5.643,3.875-9.891l2.074,0.87
			c0.429-2.714,1.701-4.85,2.946-6.978l-21.216,0l21.216,0c1.591-2.718,3.137-5.426,2.816-9.312
			c1.805-0.587,3.732-2.154,4.531-3.373c-0.285-1.555-0.219-2.375-0.448-3.314l-26.266,0.001c0.187,0.278,0.396,0.551,0.653,0.787
			c-0.908,0.958-1.112-0.418-2.117-0.788h-0.028c-0.197-0.066-0.422-0.097-0.691-0.062c0.003,0.022,0.005,0.044,0.008,0.062
			l0.343,0.003l-0.343,0.003c0.146,0.867,1.901,2.953,3.267,2.674c-1.135,0.343,1.138,3.06-1.241,2.72
			c-2.087-0.869,0.199-2.153-1.452-2.529c-1.378,1.688,3.975,3.905,3.492,5.998c1.472-0.064,4.294,2.774,4.879,4.315
			c-2.036,1.334-0.585-1.541-3.415-2.381l-0.132,0.976c-3.931-1.097-3.889-5.692-7.173-6.435l0.571,1.526
			c-0.801-0.78-2.291-2.127-3.395-2.377c2.124,1.686-0.676,2.251-0.24,2.747c1.785,1.409-0.124-1.018,1.283,0.092
			c-0.048,1.195,2.872,3.655,0.81,4.189c-0.854-1.594-2.783-1.429-3.671-2.438c-1.209,0.126,2.126,1.682,0.461,1.909l-1.069-0.849
			c-1.31,1.628-2.629,3.562-3.257,5.856c-0.611,2.237-0.568,4.817,0.782,7.787c-2.275-0.714-3.166,0.281-5.625,1.121
			c1.133-0.339,1.991,1.261,1.953,1.849l-2.751-0.63c-1.949,0.16-0.698,2.848-0.062,4.588c-0.539-0.121-1.172-0.462-1.794-0.802
			c-1.769-0.059,0.015,1.295,0.688,2.088h0.002c0.099,0.118,0.174,0.226,0.21,0.312l-1.378-0.312l-0.567-0.129l0.166,0.129
			l1.268,0.991c0.292,1.472-0.854,2.411-3.273,0.66c0.24,0.655,0.49,1.312,1.492,1.344c-2.033-0.056-3.627,2.379-3.837,4.53
			c1.125-0.344,1.843,0.217,3.444,1.177c2.503,1.971-0.735,0.034,0.39,1.691c-0.998-0.631-2.474-0.561-2.691-1.816
			c-4.799-0.087-4.031,4.692-6.475,6.933c0.012,0.197,0.054,0.354,0.118,0.49h0.002c0.199,0.417,0.609,0.619,1.006,1.165
			c-3.797-0.062-2.341,3.867-4.709,4.932c0.739,0.17,1.868,1.004,2.661,1.903h0.001c0.683,0.775,1.117,1.598,0.835,2.088
			c1.446,2.538-3.339-1.555-5.3-1.406c0.687,1.166,0.345,2.283-0.051,2.592l-0.359-0.281c0.767,1.377,0.799,2.781-0.694,2.844
			l-0.077-0.215l-0.272,0.146l-0.258,0.078c-0.582,0.318-0.939,1.126-1.12,2.15h-0.001c-0.708,4.014,1.309,11.311,3.158,5.069
			c0.603,0.729,0.852,1.831,1.268,2.935h0.001c0.318,0.842,0.733,1.683,1.479,2.35c0.585,0.523,3.941,0.255,4.6,0.808
			c0.984,0.824-0.682,2.487,0.47,3.376l0.622,0.57c0.417,0.385,0.834,0.714,1.199,0.578c0.156-2.466,2.077-1.098,2.358-3.299
			c0.11,0.265-0.015,0.455,0.223,0.965l-0.087-2.066l1.56,1.068c-0.262,0.837-0.271,1.746-0.642,2.337
			c1.675,1.313,0.39-1.955,1.137-3.137c0.993-1.572,1.081,0.476,1.676,1.313c-0.38,1.063-0.843-0.429-1.09-0.029
			c-0.507,1.691,0.715,0.62,0.821,1.794c0.239,0.056,0.16-2.466,1.001-2.036c0.717,0.184,2.309-0.587,2.275,1.688
			c0.254-0.613,0.544-1.95,0.8-3.021c2.429,2.445,1.754,0.448,2.096,0.022c0.097-0.12,0.188-0.243,0.277-0.369l0.14,0.308
			c0.276-1.747,1.364-1.717,2.22-2.18c0.209,2.303-0.318,4.913,1.375,5.335l1.247-2.437c0.732-0.271,0.963,0.229,0.948,1.604
			c2.65,1.097,2.155-6.538,4.312-4.651c-0.653,2.802,0.074,2.985,1.031,3.67c0.01-0.455,0.021-1.365,0.391-1.492
			c-0.35-1.229-0.396,1.938-1.22,0.153c-0.338-1.675,0.744-1.19,1.12-1.773c2.213,5.774,6.047,1.004,9.152,3.576
			c-0.436-3.276,1.229-1.053,1.73-2.308c0.071,3.448,1.589-0.734,2.529,1.297l-0.679-3.341c0.716,0.684,1.245,0.107,1.705-0.672
			h0.001c0.764-1.297,1.323-3.154,2.194-0.668c0.226,0.2,0.35,0.426,0.4,0.667c0.191,0.89-0.636,1.942-0.931,2.408
			c1.643,3.588,3.445-3.27,4.836,0.719c0.016-0.854-0.205-2.035-0.098-3.124c0.062-0.647,0.241-1.261,0.654-1.752
			c0.436,0.565,1.033,1.176,1.576,1.749h0.006c0.79,0.822,1.468,1.554,1.391,1.924c0.74-0.727,0.874-1.827,1.828-0.679
			c-0.014,0.892-0.38,1.036-0.626,1.445c1.441,0.785,2.434-0.777,3.55-2.113c0.929,2.513,3.252,1.034,4.928,2.348
			c0.648-3.211,2.605,1.001,2.475-2.898c0.035,0.405,0.236,0.854,0.344,1.066c0.12-0.298,0.229-0.68,0.333-1.092
			c0.33-1.289,0.629-2.872,1.187-3.064l-0.045,2.712c0.001,0.126,0.006,0.243,0.014,0.352c0.194,2.649,1.879,0.601,2.395,1.542
			c-0.522-1.658,0.808-0.003,0.86-1.535h0.001c0-0.002,0-0.004,0-0.006c0-0.001,0-0.001,0-0.001
			c0.002-0.074,0.001-0.155-0.003-0.245l0.817-0.932c1.354-0.809,0.067-1.351,1.774-1.857c0.971-0.225,0.56,3.104,0.198,2.786
			c0.064,0.094,0.129,0.177,0.191,0.248l1.869-0.006c0.182-0.134,0.366-0.282,0.558-0.425l-0.041-0.047l-0.083,0.068
			c-0.301,0.028-0.412-0.171-0.16-0.773c0.044,0.342,0.129,0.563,0.243,0.705c0.308-0.25,0.621-0.465,0.949-0.511l-0.008,0.155
			c-0.343,0.192-0.663,0.346-0.9,0.402c0.237,0.244,0.579,0.201,0.925,0.191c0.051,0.211,0.154,0.174,0.295,0.008
			c0.189,0.021,0.373,0.079,0.535,0.231c0.075,0.072,0.146,0.167,0.212,0.289l-0.083,2.133c0.453,0.04,1.386-1.329,1.797-2.417
			h0.002c0.144-0.383,0.225-0.729,0.192-0.964c2.478,1.599,6.25-0.154,7.794-1.433c-0.256,0.497-0.228,1.127,0.022,0.406
			c0.788-0.476,1.575-2.351,1.757-0.991c0.731-0.918,0.848,1.419,2.082,1.529c0.041,0.333,0.039-0.997-0.1-1.584
			c2.245,2.523,4.465-2.505,7.033-0.767c-0.191,0.137-0.392,1.394-0.542,2.104c1.821-1.192,3.562-2.199,5.079-4.883
			c-0.109,0.972,0.012,1.872-0.399,2.447c1.316-0.133,2.81-0.796,3.278-2.803c-0.971-0.92,0.024,1.161-0.591,1.097
			c-0.446-0.742-0.443-1.53-0.226-2.165l-56.473-0.002l56.473-0.002c0.314-0.91,1.07-1.518,1.602-1.258l0.061,0.45
			c1.313-0.15,1.288-1.312,2.602-1.444c0.881,1.153-0.644,0.647-0.231,1.943c0.021,0.111,0.04,0.217,0.062,0.312l2.837,0.001
			l-2.837,0.004c0.664,2.948,3.113,1.609,3.403,1.975c0.229-0.679,0.577-1.224,0.568-1.978v-0.001v-0.001
			c-0.001-0.093-0.008-0.188-0.021-0.287c0.399-0.399,0.575-0.14,0.691,0.287h1.16l1.836-4.969
			c-0.033,0.923,1.129,2.794,0.354,3.996c2.113-0.591,3.041-4.613,4.213-6.816c0.295,0.225,0.838,0.063,1.417-0.207h0.009
			c0.745-0.348,1.546-0.873,1.942-0.984c0.415,1.536-0.373,0.323-0.61,0.974h-0.003c-0.029,0.088-0.051,0.21-0.059,0.375l1.231,2.01
			c-1.406,0.394,0.414,3.169-0.262,4.528c1.056-1.25,3.868-0.156,5.626,0.279c-1.468-3.802,2.165-2.031,1.841-5.461
			c1.964-0.779,1.205,2.711,2.021,3.415c1.988-1.509,4.045-0.687,5.916-1.214c0,0,0.063,0.468-0.024,0.711
			c1.664-1.186,4.567-0.361,6.088-3.599c-0.03,0.701,0.178,1.359-0.232,1.935c1.962,1.093,0.022-4.455,2.339-2.534l-0.376,1.745
			c0.823-1.18,1.77-0.17,2.711-0.217c-0.083,0.657-0.239,1.461-0.446,2.471c0.213,0.416,0.935-1.095,1.814-3.526
			c0.074,0.827-0.222,1.143-0.393,1.63c1.258-0.794,2.745-0.627,3.767-2.541l-9.469-0.002l9.469-0.001
			c0.073-0.141,0.146-0.292,0.216-0.455c0.037,0.152,0.067,0.304,0.089,0.458c0.136,0.905-0.014,1.722-0.438,2.431
			c1.488,1.227,1.288-3.157,2.637-2.129c0.325,0.101,0.949,1.144,0.98,1.493c0.436-1.105,1.605-1.43,2.425-1.795l-1.4-0.001
			l1.4-0.001c0.261-0.117,0.485-0.239,0.64-0.392c0.033,0.143,0.071,0.271,0.114,0.394h0.001c0.288,0.812,0.79,1.186,1.554,2.175
			l5.254-0.37l0.658-0.049l0.137-0.011c0.12-0.295,0.344-0.829,0.735-1.745l-5.956-0.001l5.956-0.004
			C354.753,214.201,355.032,213.55,355.378,212.749z M212.998,211.398l0.286-0.811c0.115,0.116,0.218,0.233,0.301,0.347
			L212.998,211.398z M262.577,228.781c-0.176,0.102-0.392,0.237-0.628,0.386C262.175,228.866,262.398,228.67,262.577,228.781z
			 M229.294,208.713c0.18-0.161,0.354-0.356,0.524-0.593C229.575,208.057,229.45,208.247,229.294,208.713z M337.239,188.652
			c-1.283-0.83-2.814-1.747-5.065-0.364c0.604-0.854,1.997-1.67,2.827-2.033c-4.307-3.465-7.416-8.647-13.194-10.276
			c0.302-0.529,0.842-0.568,1.392-0.805c-0.525-0.064-0.938-0.218-1.268-0.44h-0.009c-2.329-1.536-0.581-6.186-5.876-4.56
			l-2.46,0.885c0.337-1.141,1.754-2.155,2.101-3.104c-1.651,0.525-2.014-1.894-3.969-0.839c0.601-0.857,1.119-0.686,1.689-1.133
			c-0.43-1.402-4.276-0.466-4.438-1.977l1.124-0.337c-0.157-1.63-0.396-3.303-0.741-4.935l-10.717-0.003l10.717-0.004
			c-1.351-6.4-4.351-12.292-10.538-13.182c-1.6-0.621,1.866-2.354,1.579-2.811h-0.001c-0.013-0.02-0.028-0.036-0.058-0.051
			c-7.091-1.857-5.617-11.719-14.445-11.621c-3.949-2.188-10.999,1.542-10.999,1.542c3.795,2.845,6.44,6.273,8.453,10.129l15.913,0
			l-15.913,0.006c2.405,4.615,3.912,9.851,5.408,15.457c0.192,0.174,0.392,0.35,0.596,0.536h0.007
			c2.449,2.161,5.543,4.739,6.324,7.693c2.182,2.54,3.998,5.361,5.669,8.307h0.002c2.986,5.26,5.506,10.903,8.798,16l30.25-0.001
			C339.589,189.456,335.687,190.558,337.239,188.652z M212.411,157.051c1.24-0.344,1.629,0.7,2.292,1.682l26.266-0.007
			c-0.173-0.704-0.508-1.478-1.278-2.676c0.236-0.739,1.965-0.149,2.773,0.038c1.861-1.78,5.772-2.091,3.92-5.713l1.619,0.969
			c-0.514-2.72-0.872-6.406,2.141-7.118c-0.329-0.449-0.49-0.976-0.627-1.494l-20.284-0.001l20.284-0.004
			c-0.302-1.155-0.486-2.291-2.131-2.527c0.148-0.966,2.975,1.266,1.788-0.594l1.823,2.212c3.343-3.842,4.497-8.181,5.959-13.051
			c1.765,0.302,2.319-0.749,2.828-2.032h0.001c0.496-1.25,0.951-2.721,2.447-3.37c-0.604-2.337,3.06-3.295,0.356-6.511l1.613,0.961
			c1.387-1.683,2.987-4.126,5.319-5.993c1.348-1.098-0.986-2.629-1.077-4.244l1.62,0.969c-0.184-1.838-2.416-3.756-3.716-5.247
			c1.683-0.217,0.621-1.061,2.293-1.281c0.279,1.458,1.494,3.342,3.242,5.339c1.636-1.025-1.407-5.127,1.627-4.43
			c1.332-0.823,1.406-2.11-0.281-3.473c0.598,0.236,1.488-0.027,1.881,1.032c0.545-0.948,0.783-1.638,0.287-2.753
			c-0.129,0.166-0.562,0.24-0.628,0.479c-1.306-1.498-0.62-2.345-3.144-3.719c0.316,0.872,0.677,1.148,0.097,1.622
			c-1.495-1.341-0.941-3.209,0.799-2.622c1.995,0.659,2.062,2.872,3.552,2.813l-2.183-4.682c0.091,0.78-1.242,0.714-2.46-0.37
			l0.371,1.68l-1.687-1.18c-0.492,2.09-3.001,2.114-2.765,4.762l2.188,0.498c-0.583,1.073,1.112,3.659-1.549,3.254
			c-0.334-0.878-1.43-1.125-2.407-1.75c0.165,0.443,0.674,1.152,0.216,1.257l-2.069-1.879c2.568,2.581-0.953,3.234-0.64,4.057
			l-0.449-0.505c-2.255,0.694,1.828,0.816,1.21,1.877c-1.052,0.561-3.438-1.785-5.194-1.785c-0.919,1.598-0.392,5.722-3.819,5.938
			c-0.376,1.714-0.31,3.927,0.231,6.044c-0.804,1.227-3.05-2.093-2.497,0.04c-0.936-0.805-2.133-1.347-3.194-1.884
			c0.978,0.915-1.698,2.168,1.566,2.911c-1.747,1.409-3.323,3.249-3.994,5.496c0.228-0.744-1.559-2.154-2.844-2.243
			c1.278,2.084,1.341,4.303-0.212,5.545c1.977,1.252,2.283,0.718,4.075,2.133c0.106,0.292,0.412,0.811,0.483,1.207l6.975,0.001
			l-6.975,0.002c0.034,0.199,0.013,0.37-0.12,0.469c-0.287-0.145-0.587-0.306-0.896-0.473l-11.504,0.002
			c1.319,1.533-1.052,0.495-1.304,2.157c1.674,1.779,0.225-0.753,2.207,0.504c1.888,1.024,1.284,2.089,1.123,3.047
			c-0.799,1.219-2.549-0.774-4.189-1.149c-0.167-0.439,0.176-1.557,1.247-0.712c-1.033-2.77-4.355-2.08-5.202-3.85l-0.23-0.002
			l0.23-0.002c-0.021-0.048-0.044-0.098-0.062-0.15c-0.188,0.038-0.333,0.087-0.445,0.149h-0.011
			c-0.992,0.528,0.896,1.804,1.195,2.743c0.498-0.116,1.873,1.502,2.729,1.702c4.057,5.519-4.751-1.285-5.067,1.249
			c3.691,1.84,3.126,5.71,7.805,6.777c0.31,0.866,0.726,1.967,0.049,2.207c-2.015-2.053-2.38-0.34-4.016-2.706l-0.479,0.684
			l-2.092-2.876c-2.116-0.28-4.535-0.027-5.913-0.34c0.37,1.685,2.45,1.156,2.261,2.703c-0.945-1.205-2.436-1.148-2.743-0.612
			c1.591-0.439,3.316,2.152,3.46,3.187c-0.627,1.058-3.364,0.437-3.811-0.072l-1.095-1.867c0.528,1.059-1.347-0.571-1.146,0.556
			c0.745,0.692,1.717,1.689,2.716,2.672h0.002c0.537,0.527,1.081,1.049,1.603,1.518c0.138,1.028-1.871,0.374-1.718,0.801
			l-0.73-1.962c-0.211,0.997-1.453,0.138-2.457-0.356l-0.428-0.002l0.428-0.001c-0.61-0.302-1.13-0.47-1.279-0.003h-0.003
			c-0.026,0.083-0.04,0.185-0.04,0.31l1.58,1.557c-0.368,0.067-1.011-0.166-1.515-0.617c0.591,0.826,0.029,1.367,0.241,1.932
			l-1.262-0.69c0.41,1.097,2.594,3.584-0.23,2.75c3.255,1.334,0.488-0.696,2.451-0.845c2.546,0.779,1.35,2.305,1.521,2.74
			c-3.052-2.092-1.271,1.325-1.771,2.007c-1.376-0.315-2.112-0.284-2.945-0.469l1.866,1.618c-4.146-2.341-0.007,2.011-1.768,2.002
			c-0.96-1.214-2.576-2.188-3.521-2.005c3.469,1.19,2.879,3.66,5.031,4.744c-1.979,0.754-3.549-2.805-5.904-3.742
			C214.12,156.23,209.765,154.641,212.411,157.051z M230.321,130.122c0.221-0.181,0.25-0.404,0.17-0.65
			C230.344,129.506,230.274,129.695,230.321,130.122z M223.847,140.443c-0.161-0.434,0.097-0.381,0.303-0.53l-1.538-0.747
			C222.516,139.543,223.091,140.471,223.847,140.443z M226.472,132.638c-1.499-1.334,0.015,1.398-1.082,1.153
			C226.843,134.32,226.354,133.016,226.472,132.638z M280.573,91.531c1.021,0.032,0.505-0.686-0.292-1.472
			C278.104,90.966,280.957,89.823,280.573,91.531z M232.194,124.339l-1.166-1.065l0.107,1.625c1.337,0.903,3.514,1.996,3.847,0.875
			c0.428,0.402,0.736,0.716,0.949,0.96l11.504-0.002c-2.033-1.11-4.435-2.527-5.306-1.342c-2.922-2.455,1.981-2.145-1.572-3.554
			c-2.105-2.276-0.582-4.93,1.342-4.493c-1.873-3.027-0.967,0.78-3.45-1.185c-0.534,1.277,0.499,2.709-0.25,4.744
			c1.336,0.905,1.924,0.438,2.485,1.964c1.775,3.407-3.271,0.657-3.65,0.973c-0.17-0.437-0.055-0.812-0.213-1.247
			c-1.611,0.424-0.018,1.993-0.882,2.998c-3.815-2.069,0.742-2.025-1.216-3.885l-3.097-0.896
			C230.169,122.272,234.281,123.208,232.194,124.339z M248.854,110.326c0.257,0.053,1.369,0.308,1.012,0.025
			c-0.435-0.493-1.074-0.841-0.953-1.222C248.087,108.949,248.964,109.946,248.854,110.326z M236.902,121.804
			c-0.135-0.027-0.271-0.057-0.407-0.087C236.69,121.84,236.814,121.852,236.902,121.804z M279.751,93.347
			c-1.073-0.845-2.729-1.228-3.99-1.918C276.958,93.307,278.285,92.806,279.751,93.347z M238.443,121.558
			c-1.432-1.132-1.184,0.054-1.541,0.247C237.571,121.939,238.191,121.996,238.443,121.558z M236.149,119.435
			c-0.451-0.502-0.602-0.936-1.234-1.277C234.42,118.847,234.848,119.335,236.149,119.435z M249.377,111.684
			c-0.149-0.141-0.387-0.274-0.746-0.396C248.868,111.422,249.119,111.553,249.377,111.684z M275.182,97.306
			c0.084,0.151,0.155,0.294,0.216,0.431C275.473,97.64,275.443,97.513,275.182,97.306z M244.173,112.653
			c-0.404,0.916-0.421,2.906,0.646,3.747L244.173,112.653z M273.891,91.627c-0.021-0.184-0.122-0.415-0.321-0.69L273.891,91.627z
			 M247.119,110.047c-0.683,0.114-2.413-0.517-1.636,0.707c-0.823-0.183-1.577-1.561-2.165-1.092
			c1.039,1.438,3.784,2.062,5.109,1.563l0.203,0.064C247.986,110.924,247.446,110.535,247.119,110.047z M246.796,108.852
			c-0.023,0.464,0.096,0.854,0.323,1.195C247.481,109.986,247.55,109.717,246.796,108.852z"/>
	</g>
</g>
<g>
	<g>
		<path fill-rule="evenodd" clip-rule="evenodd" fill="#C6C6C6" d="M101.12,217.338l-1.87,0.002
			C99.903,218.094,100.488,217.801,101.12,217.338z M68.458,221.016l0.745-0.727l-0.727-0.619L68.458,221.016z M128.317,217.339
			c0.046,0.032,0.109,0.04,0.197,0.016c-0.004-0.006-0.007-0.013-0.011-0.017L128.317,217.339z M123.6,215.645l-0.212,0.14
			C123.419,216.368,123.497,216.138,123.6,215.645z M128.317,217.338l0.186-0.005c-0.131-0.292-0.069-2.273-0.776-1.394
			C128.542,215.705,127.995,217.115,128.317,217.338z M140.104,210.781l0.533-1.443l-1.161,0.002
			C139.643,209.952,139.692,210.907,140.104,210.781z M158.553,206.943l0.239-0.055l-0.36-2.718L158.553,206.943z M195.814,202.75
			c0,0-0.076,0.166-0.152,0.329h0.005C195.774,202.838,195.814,202.75,195.814,202.75z M195.662,203.079l-0.042,0.004
			C195.402,203.617,195.533,203.354,195.662,203.079z M71.123,195.317c0.179-0.161,0.355-0.356,0.524-0.592
			C71.404,194.661,71.28,194.852,71.123,195.317z M197.206,199.354l-0.2-0.261l-0.82-1.04l-1.702-2.034
			c-0.811-0.927-1.658-1.824-2.559-2.681h-0.001c-1.686-1.601-3.557-3.048-5.722-4.241c2.047-3.025,2.707-0.023,4.153-2.057
			c-2.333,1.844-1.39-0.418-3.462-1.491l0.294-0.332c-1.058-0.327,0.155-1.889-1.168-2.1l-0.601,0.499
			c-2.167,0.357,1.67-4.15-1.689-2.276l1.207-1.917c-3.31,1.251-0.129-1.932-3.133-1.208l0.563-0.248
			c0.018-0.258-0.035-0.464-0.14-0.629l-20.166,0l20.166,0c-0.809-1.276-4.711-0.174-3.158-2.08
			c-1.282-0.831-2.813-1.747-5.065-0.364c0.603-0.854,1.998-1.67,2.828-2.034c-4.308-3.465-7.416-8.647-13.195-10.277
			c0.303-0.529,0.844-0.568,1.392-0.805c-0.525-0.064-0.938-0.218-1.269-0.44h-0.008c-2.33-1.536-0.582-6.186-5.875-4.56
			l-2.461,0.885c0.34-1.142,1.754-2.155,2.102-3.104c-1.652,0.525-2.014-1.895-3.969-0.84c0.601-0.857,1.119-0.686,1.69-1.133
			c-0.432-1.403-4.278-0.467-4.438-1.978l1.123-0.337c-0.156-1.63-0.394-3.303-0.739-4.935l-10.373-0.003l10.373-0.003
			c-1.351-6.401-4.351-12.292-10.54-13.182c-1.599-0.621,1.866-2.354,1.581-2.812h-0.001c-0.012-0.019-0.031-0.037-0.057-0.051
			c-7.093-1.857-5.619-11.719-14.448-11.621c-3.949-2.188-10.999,1.543-10.999,1.543c3.796,2.845,6.44,6.272,8.454,10.128
			l15.044,0.001l-15.044,0.006c2.406,4.615,3.913,9.85,5.409,15.457c0.193,0.174,0.392,0.351,0.595,0.536h0.007
			c2.45,2.162,5.542,4.74,6.324,7.694c2.181,2.539,3.998,5.361,5.669,8.306h0.001c2.986,5.259,5.505,10.903,8.799,16h0
			c1.569,2.428,3.314,4.731,5.371,6.811c-12.251,1.705-24.281,4.743-36.886,6.419c-0.527,1.381-1.163,2.197-1.855,2.768h-0.003
			c-1.69,1.381-3.716,1.276-5.314,4.228l0.06-1.423c-2.022,2.193-2.75-0.181-5.628-1.715c0.09,1.629-1.022,0.529-0.434,3.176
			c-0.786,2.349-1.997-3.68-3.281-2.359c-0.113-0.9,0.15,1.598-0.202,0.778c-2.833,3.005-0.405-0.25-2.578-2.682h-0.003
			c-0.367-0.41-0.865-0.797-1.542-1.125c-1.322,0.31-2.646,0.7-3.969,1.119h-0.02c-4.845,1.509-9.695,3.292-14.496,2.353
			c0.31,0.252,0.519,1.972-0.025,2.044c-0.9-4.315-1.953,1.342-3.146-0.316c0.017-0.909,0.505-1.228,0.757-1.636
			c-2.857-1.59-4.947,1.229-7.661-0.459c-2.335,2.089-5.514-1.62-7.007,0.767c0.266-1.773-1.198-1.212-1.792-2.032
			c-1.352,5.103-4.649-0.883-6.676,1.771c0.437-0.967,0.956-1.706,1.934-2.485l-15.726-0.002l15.726-0.001
			c0.394-0.314,0.861-0.637,1.428-0.983c0.266-1.332-1.594-2.958-0.18-3.842c3.117,0.917,1.831-2.577,3.615-3.182
			c-2.451-1.156-3.218-3.921-1.428-4.517l2.911,2.454c0.228-2.17,1.602-4.011,3.074-5.928l-8.497,0l8.497,0
			c2.107-2.743,4.419-5.643,3.874-9.891l2.076,0.87c0.428-2.714,1.701-4.85,2.947-6.978H44.075c-0.614,2.237-0.57,4.816,0.779,7.787
			c-2.274-0.714-3.165,0.281-5.623,1.121c1.131-0.339,1.991,1.261,1.953,1.849l-2.752-0.629c-1.947,0.16-0.697,2.847-0.06,4.587
			c-0.539-0.121-1.172-0.462-1.793-0.802c-1.77-0.058,0.013,1.295,0.685,2.088h0.002c0.101,0.119,0.177,0.225,0.211,0.312
			l-1.376-0.312l-0.568-0.128l0.165,0.128l1.269,0.991c0.293,1.472-0.854,2.412-3.273,0.661c0.24,0.655,0.491,1.312,1.492,1.344
			c-2.032-0.056-3.626,2.378-3.836,4.53c1.125-0.344,1.84,0.217,3.444,1.177c2.501,1.97-0.738,0.033,0.387,1.691
			c-0.996-0.63-2.473-0.56-2.691-1.816c-4.8-0.087-4.031,4.692-6.475,6.932c0.013,0.197,0.054,0.354,0.118,0.49h0.002
			c0.198,0.418,0.609,0.619,1.006,1.165c-3.797-0.062-2.341,3.867-4.709,4.932c0.739,0.17,1.868,1.004,2.661,1.903h0.001
			c0.683,0.775,1.117,1.598,0.835,2.088c1.447,2.538-3.338-1.554-5.3-1.406c0.688,1.166,0.345,2.283-0.052,2.592l-0.357-0.28
			c0.765,1.377,0.799,2.78-0.694,2.843l-0.076-0.214l-0.274,0.146l-0.258,0.079c-0.582,0.317-0.938,1.126-1.12,2.15h0
			c-0.708,4.014,1.309,11.31,3.158,5.068c0.604,0.729,0.853,1.832,1.268,2.935h0.001c0.317,0.843,0.733,1.684,1.478,2.351
			c0.584,0.522,3.94,0.254,4.601,0.807c0.984,0.824-0.681,2.487,0.47,3.377l0.62,0.569c0.418,0.386,0.836,0.714,1.2,0.578
			c0.156-2.466,2.077-1.097,2.358-3.299c0.11,0.265-0.015,0.455,0.222,0.965l-0.086-2.065l1.561,1.067
			c-0.262,0.837-0.272,1.746-0.643,2.337c1.676,1.313,0.391-1.955,1.136-3.137c0.995-1.572,1.083,0.476,1.677,1.313
			c-0.379,1.064-0.843-0.429-1.09-0.029c-0.506,1.691,0.714,0.62,0.821,1.794c0.24,0.056,0.16-2.466,1.001-2.036
			c0.718,0.185,2.309-0.587,2.274,1.688c0.254-0.613,0.545-1.949,0.802-3.021c2.427,2.445,1.752,0.448,2.095,0.022
			c0.097-0.12,0.189-0.243,0.277-0.368l0.14,0.307c0.276-1.747,1.364-1.717,2.218-2.18c0.209,2.303-0.317,4.914,1.375,5.335
			l1.248-2.437c0.731-0.271,0.964,0.229,0.948,1.604c2.651,1.097,2.157-6.538,4.313-4.65c-0.652,2.801,0.075,2.984,1.032,3.669
			c0.007-0.455,0.022-1.365,0.388-1.491c-0.35-1.229-0.395,1.937-1.22,0.152c-0.335-1.675,0.745-1.19,1.121-1.772
			c2.213,5.773,6.048,1.003,9.154,3.575c-0.437-3.276,1.227-1.053,1.729-2.308c0.072,3.449,1.589-0.734,2.53,1.297l-0.68-3.341
			c0.716,0.685,1.248,0.107,1.706-0.672h0c0.764-1.297,1.324-3.154,2.194-0.668c0.226,0.2,0.351,0.426,0.401,0.667h0
			c0.189,0.89-0.638,1.942-0.934,2.408c1.643,3.588,3.445-3.27,4.838,0.719c0.014-0.854-0.206-2.035-0.101-3.124
			c0.064-0.646,0.244-1.261,0.656-1.752c0.436,0.565,1.031,1.176,1.576,1.749h0.005c0.79,0.822,1.469,1.554,1.392,1.924
			c0.741-0.727,0.875-1.827,1.828-0.679c-0.014,0.892-0.379,1.036-0.625,1.445c1.441,0.785,2.433-0.777,3.549-2.113
			c0.928,2.514,3.253,1.035,4.927,2.349c0.65-3.212,2.606,1.001,2.476-2.899c0.035,0.405,0.236,0.854,0.341,1.066
			c0.122-0.297,0.231-0.679,0.336-1.092h0c0.329-1.289,0.627-2.871,1.183-3.064L93,216.987c0.002,0.125,0.008,0.242,0.017,0.351
			l0.407,0.001h-0.407c0.191,2.648,1.878,0.6,2.393,1.541c-0.521-1.658,0.809-0.003,0.862-1.535h0c0-0.002,0-0.004,0-0.006
			c0-0.001,0-0.001,0-0.001c0.002-0.074,0.002-0.155-0.002-0.245l0.816-0.932c1.355-0.808,0.068-1.351,1.774-1.857
			c0.972-0.225,0.561,3.104,0.2,2.786c0.063,0.094,0.128,0.177,0.191,0.248l1.87-0.005c0.181-0.135,0.365-0.283,0.557-0.426
			l-0.04-0.047l-0.083,0.068c-0.302,0.028-0.412-0.171-0.162-0.773c0.045,0.343,0.13,0.563,0.245,0.705
			c0.307-0.25,0.621-0.465,0.948-0.511l-0.008,0.155c-0.343,0.192-0.662,0.346-0.9,0.402c0.237,0.244,0.579,0.201,0.926,0.191
			c0.049,0.211,0.154,0.174,0.293,0.008c0.189,0.021,0.374,0.079,0.534,0.231c0.077,0.072,0.148,0.167,0.213,0.289l-0.082,2.133
			c0.453,0.041,1.385-1.329,1.794-2.417h0.002c0.146-0.383,0.225-0.729,0.194-0.964c2.477,1.599,6.25-0.153,7.793-1.433
			c-0.256,0.497-0.229,1.127,0.022,0.406c0.788-0.476,1.577-2.351,1.758-0.991c0.732-0.917,0.845,1.419,2.082,1.529
			c0.042,0.333,0.039-0.997-0.099-1.584c2.244,2.523,4.462-2.505,7.033-0.766c-0.191,0.136-0.394,1.393-0.542,2.104
			c1.821-1.192,3.561-2.199,5.079-4.883c-0.11,0.972,0.011,1.872-0.399,2.447c1.315-0.133,2.808-0.796,3.277-2.803
			c-0.969-0.92,0.022,1.161-0.591,1.098c-0.445-0.743-0.443-1.53-0.224-2.166l-56.473-0.002l56.473-0.001
			c0.313-0.911,1.07-1.519,1.602-1.259l0.059,0.45c1.314-0.15,1.289-1.312,2.603-1.444c0.879,1.154-0.645,0.647-0.231,1.944
			c0.019,0.11,0.04,0.216,0.062,0.312l2.837,0.001l-2.837,0.004c0.665,2.948,3.113,1.609,3.402,1.976
			c0.23-0.68,0.579-1.225,0.57-1.979v-0.001v-0.001c-0.002-0.092-0.009-0.188-0.021-0.287c0.398-0.399,0.574-0.14,0.691,0.287h1.161
			l1.835-4.969c-0.033,0.924,1.127,2.794,0.352,3.996c2.113-0.591,3.043-4.612,4.215-6.815c0.296,0.224,0.839,0.063,1.416-0.208
			h0.009c0.746-0.348,1.548-0.873,1.944-0.983c0.415,1.535-0.376,0.32-0.612,0.974h-0.003c-0.031,0.088-0.052,0.209-0.058,0.375
			l1.232,2.009c-1.406,0.394,0.413,3.17-0.265,4.528c1.059-1.25,3.871-0.156,5.629,0.279c-1.468-3.802,2.165-2.031,1.84-5.461
			c1.964-0.779,1.205,2.712,2.021,3.415c1.989-1.508,4.046-0.687,5.916-1.214c0,0,0.063,0.468-0.023,0.711
			c1.665-1.186,4.566-0.361,6.087-3.599c-0.03,0.701,0.178,1.359-0.232,1.935c1.963,1.093,0.022-4.455,2.34-2.534l-0.377,1.746
			c0.823-1.18,1.77-0.171,2.711-0.218c-0.083,0.657-0.238,1.461-0.445,2.471c0.213,0.416,0.936-1.095,1.814-3.526
			c0.074,0.827-0.22,1.143-0.394,1.631c1.258-0.795,2.746-0.628,3.767-2.542l-10.521-0.002l10.521-0.001
			c0.074-0.141,0.146-0.291,0.215-0.455c0.038,0.153,0.068,0.304,0.09,0.458h0c0.135,0.905-0.014,1.722-0.439,2.431
			c1.49,1.227,1.288-3.157,2.637-2.129c0.325,0.101,0.95,1.144,0.981,1.493c0.434-1.105,1.604-1.43,2.422-1.795l-0.8-0.001h0.8
			c0.261-0.117,0.487-0.239,0.641-0.393c0.034,0.143,0.071,0.271,0.114,0.394h0.001c0.289,0.812,0.789,1.186,1.554,2.175l5.254-0.37
			l0.659-0.049l0.134-0.011c0.12-0.295,0.345-0.829,0.736-1.745l-5.956-0.001l5.956-0.004
			C196.582,200.806,196.862,200.154,197.206,199.354z M54.827,198.003l0.287-0.811c0.117,0.116,0.218,0.233,0.299,0.346
			L54.827,198.003z M104.407,215.386c-0.178,0.102-0.395,0.237-0.629,0.386C104.005,215.471,104.227,215.275,104.407,215.386z
			 M78.715,152.025c1.805-0.587,3.732-2.154,4.531-3.373c-0.285-1.556-0.218-2.376-0.449-3.314l-26.266,0.001
			c0.188,0.278,0.396,0.551,0.653,0.787c-0.909,0.959-1.11-0.418-2.116-0.788l-0.029,0c-0.197-0.067-0.423-0.097-0.691-0.062
			c0.001,0.021,0.003,0.044,0.007,0.061l0.356,0.003l-0.356,0.003c0.147,0.866,1.902,2.953,3.268,2.674
			c-1.136,0.342,1.136,3.059-1.242,2.72c-2.086-0.869,0.197-2.153-1.453-2.529c-1.378,1.688,3.976,3.905,3.492,5.998
			c1.474-0.065,4.295,2.774,4.878,4.314c-2.034,1.334-0.583-1.541-3.415-2.381l-0.129,0.976c-3.932-1.096-3.889-5.692-7.173-6.435
			l0.57,1.526c-0.8-0.78-2.292-2.126-3.396-2.376c2.125,1.686-0.674,2.251-0.24,2.746c1.786,1.41-0.124-1.018,1.284,0.092
			c-0.047,1.196,2.871,3.655,0.809,4.189c-0.852-1.594-2.782-1.429-3.669-2.438c-1.21,0.126,2.126,1.682,0.46,1.909l-1.068-0.849
			c-1.31,1.628-2.629,3.562-3.256,5.856l31.824-0.001C77.49,158.619,79.034,155.912,78.715,152.025z M54.24,143.656
			c1.24-0.344,1.629,0.7,2.292,1.682l26.266-0.007c-0.171-0.704-0.508-1.478-1.277-2.676c0.235-0.74,1.963-0.15,2.772,0.038
			c1.861-1.78,5.772-2.091,3.92-5.713l1.619,0.969c-0.515-2.719-0.872-6.406,2.141-7.117c-0.33-0.449-0.49-0.976-0.626-1.494
			l-21.975-0.001l21.975-0.004c-0.303-1.155-0.489-2.29-2.131-2.527c0.146-0.966,2.975,1.267,1.787-0.593l1.823,2.211
			c3.343-3.842,4.499-8.181,5.958-13.051c1.765,0.301,2.319-0.748,2.829-2.032h0.001c0.496-1.251,0.951-2.721,2.447-3.37
			c-0.604-2.337,3.061-3.295,0.356-6.511l1.614,0.962c1.385-1.683,2.989-4.127,5.318-5.994c1.349-1.097-0.986-2.628-1.076-4.243
			l1.619,0.969c-0.183-1.837-2.415-3.756-3.713-5.247c1.681-0.217,0.62-1.061,2.292-1.281c0.279,1.458,1.494,3.342,3.241,5.339
			c1.638-1.024-1.407-5.127,1.625-4.43c1.333-0.823,1.407-2.11-0.278-3.473c0.596,0.236,1.488-0.027,1.881,1.032
			c0.543-0.948,0.781-1.637,0.287-2.752c-0.128,0.166-0.561,0.24-0.628,0.479c-1.306-1.497-0.62-2.345-3.144-3.719
			c0.316,0.872,0.678,1.148,0.096,1.622c-1.495-1.341-0.941-3.209,0.798-2.622c1.997,0.659,2.063,2.872,3.555,2.813l-2.182-4.682
			c0.09,0.78-1.242,0.714-2.461-0.37l0.371,1.68l-1.688-1.18c-0.492,2.09-3.001,2.114-2.765,4.762l2.189,0.498
			c-0.585,1.073,1.112,3.659-1.549,3.253c-0.335-0.878-1.43-1.125-2.408-1.75c0.165,0.443,0.676,1.152,0.216,1.257l-2.071-1.878
			c2.572,2.581-0.952,3.233-0.637,4.057l-0.451-0.504c-2.254,0.693,1.83,0.816,1.209,1.877c-1.051,0.56-3.437-1.786-5.194-1.785
			c-0.918,1.598-0.391,5.721-3.817,5.938c-0.378,1.715-0.311,3.927,0.23,6.045c-0.804,1.227-3.05-2.094-2.498,0.04
			c-0.936-0.804-2.133-1.347-3.193-1.884c0.976,0.915-1.701,2.168,1.564,2.911c-1.747,1.409-3.322,3.249-3.994,5.496
			c0.228-0.744-1.557-2.154-2.844-2.242c1.277,2.084,1.34,4.303-0.211,5.545c1.975,1.253,2.281,0.719,4.076,2.133
			c0.104,0.292,0.41,0.81,0.481,1.207l6.8,0.002l-6.8,0.002c0.037,0.199,0.014,0.369-0.12,0.468
			c-0.285-0.145-0.586-0.306-0.895-0.473l-11.505,0.003c1.318,1.533-1.053,0.495-1.303,2.157c1.674,1.779,0.223-0.753,2.205,0.504
			c1.887,1.024,1.286,2.089,1.124,3.047c-0.8,1.219-2.548-0.774-4.189-1.149c-0.168-0.439,0.176-1.557,1.247-0.712
			c-1.032-2.77-4.356-2.08-5.202-3.851l-0.229-0.002l0.229-0.002c-0.022-0.048-0.044-0.098-0.064-0.15
			c-0.187,0.039-0.331,0.087-0.442,0.149h-0.011c-0.994,0.529,0.895,1.804,1.195,2.743c0.496-0.116,1.873,1.503,2.727,1.703
			c4.056,5.519-4.751-1.285-5.069,1.249c3.693,1.84,3.127,5.71,7.806,6.776c0.31,0.865,0.727,1.967,0.049,2.207
			c-2.014-2.053-2.378-0.339-4.014-2.706l-0.482,0.684l-2.091-2.876c-2.114-0.28-4.534-0.027-5.912-0.34
			c0.371,1.685,2.451,1.156,2.259,2.703c-0.944-1.205-2.434-1.147-2.742-0.612c1.589-0.44,3.316,2.151,3.461,3.186
			c-0.629,1.058-3.366,0.437-3.812-0.072l-1.093-1.867c0.527,1.059-1.349-0.571-1.147,0.556c0.744,0.692,1.716,1.689,2.716,2.672
			h0.001c0.536,0.527,1.081,1.049,1.603,1.518c0.139,1.028-1.871,0.374-1.718,0.801l-0.73-1.963
			c-0.212,0.997-1.455,0.138-2.458-0.356l-0.428-0.002l0.428-0.001c-0.61-0.302-1.131-0.47-1.28-0.003h-0.003
			c-0.025,0.083-0.04,0.186-0.041,0.311l1.582,1.556c-0.368,0.067-1.011-0.166-1.516-0.616c0.59,0.826,0.03,1.367,0.241,1.932
			l-1.261-0.69c0.409,1.097,2.593,3.585-0.23,2.75c3.255,1.334,0.488-0.696,2.451-0.846c2.546,0.779,1.35,2.305,1.52,2.74
			c-3.051-2.092-1.27,1.325-1.772,2.006c-1.375-0.315-2.111-0.284-2.943-0.469l1.865,1.618c-4.144-2.341-0.007,2.011-1.768,2.003
			c-0.96-1.214-2.575-2.189-3.521-2.005c3.469,1.19,2.88,3.659,5.03,4.744c-1.979,0.754-3.548-2.804-5.904-3.741
			C55.949,142.835,51.593,141.245,54.24,143.656z M72.151,116.727c0.219-0.181,0.249-0.404,0.17-0.65
			C72.174,116.111,72.105,116.3,72.151,116.727z M65.673,127.048c-0.159-0.435,0.099-0.382,0.305-0.531l-1.537-0.747
			C64.346,126.148,64.919,127.075,65.673,127.048z M68.299,119.243c-1.499-1.335,0.016,1.398-1.082,1.153
			C68.671,120.925,68.182,119.62,68.299,119.243z M121.581,79.952c-1.073-0.845-2.73-1.228-3.99-1.917
			C118.788,79.912,120.114,79.41,121.581,79.952z M122.403,78.135c1.019,0.033,0.503-0.686-0.293-1.472
			C119.932,77.571,122.785,76.427,122.403,78.135z M77.977,106.04c-0.451-0.503-0.6-0.936-1.232-1.277
			C76.25,105.451,76.678,105.939,77.977,106.04z M80.271,108.162c-1.432-1.132-1.184,0.054-1.541,0.246
			C79.4,108.544,80.02,108.601,80.271,108.162z M91.696,96.957c-0.435-0.493-1.074-0.841-0.954-1.222
			c-0.825-0.181,0.05,0.816-0.059,1.196C90.941,96.984,92.053,97.239,91.696,96.957z M78.73,108.408
			c-0.134-0.027-0.27-0.056-0.406-0.086C78.52,108.445,78.643,108.456,78.73,108.408z M115.721,78.232
			c-0.021-0.184-0.123-0.415-0.323-0.69L115.721,78.232z M117.011,83.91c0.083,0.151,0.154,0.294,0.215,0.431
			C117.302,84.245,117.273,84.118,117.011,83.91z M86.003,99.257c-0.406,0.916-0.421,2.906,0.642,3.747L86.003,99.257z
			 M88.949,96.652c-0.683,0.114-2.414-0.517-1.636,0.706c-0.823-0.183-1.579-1.56-2.167-1.092c1.041,1.438,3.786,2.062,5.11,1.562
			l0.203,0.064C89.816,97.529,89.274,97.14,88.949,96.652z M91.208,98.288c-0.152-0.141-0.388-0.273-0.748-0.396
			C90.697,98.027,90.949,98.157,91.208,98.288z M74.024,110.944l-1.166-1.065l0.105,1.625c1.337,0.903,3.515,1.996,3.849,0.875
			c0.428,0.402,0.736,0.716,0.949,0.96l11.505-0.001c-2.035-1.11-4.435-2.528-5.307-1.342c-2.921-2.455,1.981-2.145-1.572-3.555
			c-2.106-2.275-0.582-4.93,1.344-4.493c-1.875-3.026-0.968,0.78-3.452-1.185c-0.532,1.277,0.5,2.709-0.249,4.745
			c1.336,0.905,1.924,0.438,2.483,1.964c1.776,3.407-3.271,0.656-3.65,0.972c-0.169-0.437-0.053-0.812-0.213-1.247
			c-1.611,0.425-0.017,1.993-0.882,2.998c-3.813-2.069,0.744-2.025-1.214-3.884l-3.099-0.896
			C71.998,108.876,76.109,109.813,74.024,110.944z M88.625,95.456c-0.024,0.464,0.098,0.854,0.324,1.196
			C89.312,96.591,89.38,96.321,88.625,95.456z"/>
	</g>
</g>
<g>
	<g>
		<path fill-rule="evenodd" clip-rule="evenodd" fill="#C6C6C6" d="M150.104,303.792c0.045,0.031,0.108,0.039,0.197,0.015
			c-0.004-0.005-0.007-0.013-0.012-0.016L150.104,303.792z M122.905,303.791l-1.87,0.002
			C121.688,304.546,122.273,304.253,122.905,303.791z M90.245,307.469l0.743-0.728l-0.726-0.619L90.245,307.469z M150.104,303.791
			l0.185-0.006c-0.13-0.291-0.069-2.273-0.776-1.393C150.328,302.158,149.781,303.567,150.104,303.791z M161.89,297.234l0.533-1.443
			l-1.161,0.002C161.43,296.404,161.479,297.36,161.89,297.234z M145.385,302.098l-0.212,0.14
			C145.206,302.82,145.283,302.59,145.385,302.098z M180.339,293.396l0.239-0.054l-0.361-2.719L180.339,293.396z M217.601,289.203
			c-0.001,0-0.077,0.166-0.153,0.329h0.005C217.562,289.291,217.602,289.203,217.601,289.203z M217.447,289.532l-0.04,0.003
			C217.189,290.069,217.318,289.807,217.447,289.532z M92.909,281.771c0.18-0.161,0.354-0.357,0.525-0.593
			C93.19,281.113,93.066,281.305,92.909,281.771z M218.994,285.806l-0.204-0.261l-0.82-1.039l-1.698-2.034
			c-0.813-0.927-1.66-1.825-2.561-2.681h-0.001c-1.685-1.602-3.555-3.049-5.723-4.242c2.049-3.024,2.709-0.022,4.153-2.057
			c-2.331,1.844-1.389-0.418-3.46-1.491l0.292-0.332c-1.058-0.327,0.155-1.889-1.169-2.1l-0.598,0.498
			c-2.168,0.357,1.667-4.149-1.69-2.275l1.206-1.917c-3.311,1.252-0.128-1.932-3.132-1.208l0.562-0.247
			c0.017-0.259-0.036-0.465-0.14-0.629l-20.166-0.001l20.166-0.001c-0.811-1.275-4.711-0.174-3.158-2.079
			c-1.283-0.83-2.814-1.747-5.064-0.364c0.601-0.854,1.996-1.67,2.825-2.033c-4.306-3.465-7.415-8.647-13.195-10.276
			c0.303-0.529,0.844-0.568,1.393-0.805c-0.526-0.064-0.938-0.218-1.269-0.44h-0.008c-2.33-1.535-0.582-6.187-5.875-4.56
			l-2.461,0.885c0.338-1.142,1.753-2.155,2.101-3.104c-1.651,0.525-2.014-1.894-3.968-0.839c0.601-0.857,1.119-0.686,1.689-1.134
			c-0.431-1.402-4.277-0.466-4.438-1.978l1.123-0.336c-0.156-1.631-0.394-3.303-0.74-4.935l-10.669-0.004l10.669-0.004
			c-1.351-6.4-4.351-12.291-10.54-13.181c-1.6-0.621,1.867-2.354,1.581-2.812l-17.05,0.007c2.407,4.614,3.913,9.851,5.408,15.457
			c0.193,0.174,0.392,0.35,0.597,0.536h0.008c2.449,2.162,5.541,4.739,6.322,7.693c2.181,2.539,3.998,5.361,5.67,8.307h0.001
			c2.986,5.259,5.503,10.902,8.799,16h0c1.569,2.428,3.314,4.73,5.369,6.81c-12.251,1.705-24.28,4.743-36.886,6.419
			c-0.526,1.381-1.163,2.198-1.856,2.769h-0.003c-1.688,1.38-3.714,1.275-5.313,4.228l0.061-1.423
			c-2.022,2.193-2.75-0.181-5.628-1.716c0.09,1.63-1.024,0.529-0.435,3.177c-0.785,2.348-1.997-3.681-3.281-2.359
			c-0.113-0.901,0.151,1.598-0.202,0.777c-2.832,3.006-0.407-0.25-2.577-2.681h-0.002c-0.367-0.41-0.865-0.797-1.543-1.126
			c-1.322,0.31-2.645,0.701-3.966,1.119h-0.022c-4.845,1.51-9.696,3.292-14.497,2.354c0.31,0.251,0.519,1.971-0.024,2.043
			c-0.9-4.315-1.954,1.343-3.146-0.315c0.017-0.91,0.504-1.228,0.756-1.637c-2.857-1.59-4.946,1.23-7.661-0.458
			c-2.334,2.089-5.513-1.621-7.007,0.767c0.266-1.773-1.198-1.213-1.791-2.032c-1.353,5.102-4.65-0.884-6.676,1.771
			c0.437-0.968,0.956-1.707,1.934-2.485l-15.726-0.002l15.726-0.001c0.393-0.315,0.86-0.637,1.427-0.983
			c0.267-1.332-1.595-2.959-0.179-3.842c3.116,0.917,1.831-2.578,3.615-3.183c-2.452-1.155-3.218-3.921-1.429-4.516l2.911,2.454
			c0.228-2.171,1.602-4.012,3.074-5.928l-7.435-0.001h7.435c2.107-2.743,4.42-5.644,3.875-9.892l2.075,0.87
			c0.429-2.714,1.702-4.85,2.948-6.978H81.773l15.912-0.001c1.591-2.719,3.135-5.426,2.815-9.312
			c1.805-0.588,3.732-2.154,4.531-3.373c-0.285-1.555-0.219-2.375-0.449-3.313l-26.265,0.001c0.188,0.277,0.397,0.551,0.654,0.787
			c-0.909,0.958-1.111-0.419-2.117-0.788h-0.029c-0.196-0.066-0.423-0.097-0.69-0.062c0.001,0.021,0.003,0.044,0.007,0.062
			l0.328,0.003l-0.328,0.003c0.146,0.867,1.902,2.953,3.267,2.675c-1.135,0.342,1.137,3.059-1.242,2.719
			c-2.086-0.868,0.198-2.152-1.453-2.528c-1.378,1.688,3.977,3.905,3.492,5.998c1.474-0.064,4.296,2.773,4.878,4.314
			c-2.034,1.334-0.582-1.541-3.414-2.381l-0.13,0.976c-3.932-1.097-3.889-5.691-7.173-6.435l0.571,1.526
			c-0.8-0.78-2.291-2.127-3.395-2.377c2.125,1.686-0.675,2.251-0.241,2.746c1.787,1.409-0.124-1.018,1.284,0.093
			c-0.047,1.195,2.872,3.654,0.809,4.188c-0.853-1.594-2.781-1.429-3.67-2.438c-1.21,0.126,2.127,1.683,0.461,1.909l-1.069-0.849
			c-1.31,1.627-2.627,3.561-3.256,5.855h0c-0.613,2.238-0.569,4.817,0.779,7.787c-2.274-0.714-3.165,0.281-5.624,1.121
			c1.133-0.339,1.992,1.261,1.954,1.849l-2.752-0.63c-1.947,0.159-0.696,2.848-0.059,4.587c-0.539-0.12-1.172-0.461-1.795-0.802
			c-1.768-0.058,0.015,1.296,0.687,2.089h0.002c0.101,0.119,0.176,0.225,0.21,0.312l-1.376-0.312l-0.568-0.129l0.165,0.129
			l1.269,0.99c0.292,1.472-0.855,2.411-3.274,0.661c0.24,0.654,0.491,1.311,1.493,1.344c-2.033-0.057-3.627,2.378-3.837,4.53
			c1.125-0.344,1.841,0.217,3.444,1.177c2.502,1.971-0.737,0.033,0.388,1.69c-0.996-0.63-2.474-0.56-2.69-1.815
			c-4.8-0.087-4.031,4.692-6.475,6.933c0.012,0.196,0.054,0.353,0.118,0.49h0.002c0.198,0.417,0.609,0.619,1.005,1.165
			c-3.796-0.062-2.34,3.866-4.708,4.932c0.738,0.17,1.867,1.003,2.66,1.903h0.001c0.683,0.774,1.118,1.598,0.836,2.087
			c1.447,2.539-3.339-1.554-5.3-1.406c0.688,1.167,0.344,2.284-0.053,2.592l-0.357-0.28c0.766,1.377,0.799,2.781-0.694,2.844
			l-0.077-0.215l-0.273,0.146l-0.258,0.078c-0.581,0.317-0.938,1.126-1.119,2.15h-0.001c-0.708,4.014,1.308,11.311,3.157,5.069
			c0.603,0.728,0.854,1.831,1.269,2.935h0.001c0.317,0.843,0.733,1.683,1.478,2.35c0.584,0.523,3.94,0.255,4.6,0.807
			c0.984,0.824-0.682,2.488,0.47,3.377l0.621,0.57c0.417,0.385,0.835,0.713,1.199,0.577c0.156-2.465,2.077-1.097,2.358-3.299
			c0.11,0.265-0.014,0.456,0.223,0.966l-0.087-2.066l1.562,1.068c-0.263,0.837-0.273,1.746-0.644,2.337
			c1.677,1.313,0.391-1.955,1.137-3.137c0.994-1.572,1.082,0.475,1.676,1.313c-0.38,1.063-0.844-0.43-1.089-0.029
			c-0.508,1.69,0.713,0.62,0.821,1.794c0.239,0.055,0.16-2.466,1.001-2.037c0.717,0.185,2.308-0.586,2.274,1.688
			c0.254-0.614,0.545-1.95,0.802-3.021c2.426,2.444,1.752,0.448,2.094,0.021c0.097-0.12,0.189-0.242,0.277-0.368l0.14,0.308
			c0.277-1.747,1.364-1.718,2.219-2.18c0.209,2.303-0.318,4.913,1.375,5.334l1.249-2.436c0.731-0.271,0.964,0.229,0.947,1.604
			c2.651,1.097,2.157-6.539,4.313-4.651c-0.652,2.802,0.075,2.985,1.032,3.67c0.007-0.456,0.022-1.365,0.389-1.492
			c-0.35-1.229-0.395,1.938-1.22,0.152c-0.336-1.675,0.744-1.19,1.121-1.772c2.213,5.773,6.047,1.004,9.153,3.576
			c-0.437-3.276,1.227-1.053,1.73-2.308c0.071,3.448,1.589-0.734,2.53,1.296l-0.68-3.34c0.715,0.684,1.247,0.106,1.706-0.672h0
			c0.763-1.298,1.324-3.155,2.194-0.668c0.227,0.2,0.35,0.426,0.401,0.667h0c0.19,0.889-0.638,1.942-0.933,2.408
			c1.642,3.588,3.445-3.27,4.838,0.719c0.014-0.855-0.207-2.037-0.101-3.125c0.063-0.646,0.243-1.26,0.656-1.751
			c0.435,0.564,1.031,1.175,1.576,1.749h0.006c0.79,0.821,1.468,1.553,1.391,1.924c0.74-0.727,0.875-1.827,1.828-0.679
			c-0.014,0.892-0.381,1.036-0.625,1.445c1.439,0.785,2.433-0.778,3.548-2.114c0.929,2.514,3.253,1.035,4.928,2.349
			c0.649-3.211,2.606,1.001,2.475-2.899c0.036,0.405,0.236,0.854,0.342,1.067c0.121-0.298,0.231-0.68,0.336-1.093h-0.001
			c0.33-1.29,0.629-2.871,1.185-3.063l-0.045,2.712c0.003,0.126,0.009,0.242,0.016,0.352c0.192,2.649,1.878,0.601,2.393,1.542
			c-0.522-1.659,0.809-0.002,0.862-1.536h0c0-0.002,0-0.004,0-0.005s0-0.001,0-0.001c0.001-0.074,0.002-0.155-0.002-0.245
			l0.817-0.933c1.355-0.808,0.068-1.35,1.773-1.856c0.972-0.226,0.561,3.104,0.199,2.785c0.065,0.094,0.129,0.178,0.191,0.249
			l1.87-0.006c0.182-0.135,0.366-0.282,0.558-0.425l-0.041-0.047l-0.083,0.068c-0.302,0.027-0.412-0.172-0.162-0.773
			c0.044,0.342,0.129,0.562,0.244,0.705c0.307-0.25,0.621-0.465,0.949-0.511l-0.009,0.155c-0.342,0.192-0.661,0.346-0.899,0.402
			c0.237,0.244,0.579,0.2,0.925,0.191c0.049,0.211,0.155,0.173,0.294,0.008c0.189,0.02,0.374,0.078,0.534,0.231h0.001
			c0.077,0.073,0.147,0.167,0.212,0.289l-0.083,2.133c0.454,0.04,1.385-1.33,1.795-2.417h0.002c0.145-0.383,0.225-0.729,0.193-0.965
			c2.478,1.6,6.251-0.153,7.794-1.433c-0.256,0.498-0.229,1.128,0.021,0.407c0.788-0.476,1.577-2.352,1.758-0.992
			c0.732-0.917,0.846,1.42,2.082,1.529c0.042,0.334,0.039-0.996-0.099-1.583c2.245,2.522,4.463-2.506,7.033-0.767
			c-0.192,0.136-0.393,1.393-0.542,2.104c1.822-1.192,3.561-2.199,5.079-4.883c-0.11,0.971,0.011,1.871-0.398,2.447
			c1.315-0.133,2.807-0.797,3.277-2.803c-0.97-0.92,0.022,1.161-0.592,1.097c-0.445-0.742-0.442-1.53-0.223-2.165l-56.473-0.002
			l56.473-0.002c0.312-0.911,1.07-1.519,1.601-1.258l0.06,0.45c1.314-0.15,1.289-1.312,2.603-1.444
			c0.878,1.153-0.646,0.646-0.231,1.943c0.018,0.111,0.039,0.217,0.062,0.312l2.647,0.001l-2.647,0.003
			c0.665,2.949,3.112,1.61,3.402,1.976c0.23-0.679,0.578-1.224,0.569-1.978v-0.001v-0.001c-0.002-0.094-0.008-0.188-0.022-0.287
			c0.398-0.4,0.575-0.14,0.691,0.287h1.161l1.835-4.969c-0.033,0.923,1.128,2.794,0.352,3.995c2.114-0.591,3.043-4.612,4.215-6.815
			c0.297,0.224,0.84,0.063,1.418-0.208h0.007c0.748-0.347,1.548-0.873,1.945-0.983c0.415,1.536-0.374,0.323-0.611,0.974h-0.003
			c-0.031,0.088-0.052,0.21-0.059,0.375l1.233,2.01c-1.406,0.394,0.413,3.169-0.265,4.527c1.059-1.25,3.871-0.155,5.628,0.279
			c-1.468-3.801,2.165-2.03,1.84-5.461c1.964-0.779,1.206,2.712,2.021,3.416c1.988-1.509,4.045-0.687,5.916-1.214
			c0,0,0.063,0.468-0.024,0.71c1.666-1.185,4.568-0.36,6.088-3.598c-0.031,0.701,0.178,1.358-0.231,1.934
			c1.962,1.093,0.021-4.454,2.339-2.533l-0.377,1.745c0.824-1.18,1.77-0.171,2.71-0.217c-0.081,0.657-0.237,1.461-0.445,2.471
			c0.214,0.415,0.937-1.096,1.815-3.526c0.075,0.826-0.221,1.143-0.393,1.63c1.256-0.795,2.744-0.628,3.765-2.541l-11.477-0.003
			l11.477-0.001c0.075-0.14,0.148-0.291,0.217-0.455c0.036,0.153,0.067,0.305,0.091,0.459c0.134,0.905-0.014,1.721-0.439,2.43
			c1.489,1.228,1.289-3.157,2.637-2.129c0.323,0.102,0.951,1.145,0.98,1.494c0.435-1.106,1.605-1.43,2.423-1.795l-1.4-0.002h1.4
			c0.262-0.117,0.486-0.239,0.641-0.392c0.033,0.142,0.071,0.271,0.116,0.394h0.001c0.285,0.812,0.788,1.186,1.551,2.175l5.255-0.37
			l0.66-0.05l0.135-0.011c0.12-0.294,0.345-0.828,0.736-1.744l-5.956-0.001l5.956-0.004
			C218.368,287.259,218.647,286.607,218.994,285.806z M76.613,284.455l0.286-0.81c0.117,0.115,0.218,0.232,0.3,0.346L76.613,284.455
			z M126.193,301.839c-0.177,0.102-0.394,0.237-0.628,0.385C125.791,301.923,126.013,301.728,126.193,301.839z M76.026,230.108
			c1.24-0.344,1.628,0.7,2.291,1.683l26.265-0.008c-0.17-0.704-0.507-1.478-1.276-2.676c0.235-0.739,1.963-0.149,2.771,0.038
			c1.862-1.78,5.772-2.091,3.92-5.713l1.619,0.969c-0.514-2.72-0.872-6.405,2.142-7.117c-0.33-0.449-0.49-0.976-0.627-1.493
			l-18.835-0.001l18.835-0.004c-0.303-1.155-0.489-2.291-2.131-2.527c0.146-0.967,2.975,1.266,1.787-0.594l1.823,2.212
			c3.344-3.843,4.498-8.182,5.958-13.052c1.766,0.303,2.32-0.748,2.828-2.032h0.001c0.497-1.25,0.953-2.721,2.449-3.369
			c-0.604-2.338,3.06-3.296,0.356-6.512l1.613,0.962c1.386-1.684,2.988-4.127,5.319-5.994c1.347-1.098-0.988-2.628-1.077-4.243
			l1.62,0.969c-0.183-1.837-2.416-3.756-3.715-5.246c1.683-0.217,0.621-1.061,2.293-1.281c0.28,1.458,1.494,3.342,3.241,5.339
			c1.638-1.024-1.407-5.127,1.626-4.429c1.333-0.824,1.407-2.11-0.278-3.474c0.595,0.236,1.487-0.027,1.88,1.032
			c0.543-0.948,0.781-1.637,0.287-2.752c-0.127,0.165-0.561,0.24-0.629,0.479c-1.304-1.498-0.619-2.345-3.143-3.72
			c0.317,0.872,0.678,1.148,0.096,1.622c-1.494-1.341-0.941-3.209,0.799-2.622c1.996,0.659,2.063,2.872,3.553,2.813l-2.181-4.682
			c0.091,0.78-1.242,0.714-2.461-0.37l0.371,1.68l-1.687-1.179c-0.492,2.089-3.001,2.113-2.765,4.761l2.188,0.498
			c-0.585,1.073,1.113,3.659-1.549,3.254c-0.334-0.878-1.43-1.125-2.407-1.75c0.165,0.443,0.674,1.153,0.215,1.257l-2.071-1.878
			c2.571,2.581-0.951,3.233-0.638,4.057l-0.449-0.504c-2.254,0.693,1.828,0.816,1.209,1.877c-1.051,0.56-3.437-1.786-5.194-1.785
			c-0.918,1.598-0.392,5.721-3.818,5.938c-0.377,1.715-0.31,3.928,0.231,6.045c-0.805,1.227-3.05-2.094-2.499,0.04
			c-0.937-0.804-2.133-1.347-3.194-1.884c0.978,0.915-1.699,2.168,1.566,2.912c-1.748,1.408-3.323,3.248-3.994,5.496
			c0.227-0.745-1.558-2.154-2.845-2.243c1.278,2.085,1.34,4.303-0.212,5.545c1.976,1.254,2.283,0.72,4.077,2.134
			c0.105,0.292,0.411,0.811,0.482,1.207l7.555,0.001l-7.555,0.003c0.035,0.199,0.013,0.369-0.121,0.468
			c-0.285-0.144-0.586-0.306-0.895-0.472l-11.505,0.002c1.319,1.533-1.052,0.495-1.302,2.157c1.672,1.779,0.222-0.753,2.205,0.504
			c1.886,1.024,1.286,2.09,1.124,3.049c-0.8,1.219-2.549-0.775-4.19-1.15c-0.167-0.438,0.176-1.557,1.247-0.712
			c-1.033-2.77-4.356-2.079-5.202-3.85l-0.229-0.002l0.229-0.002c-0.023-0.049-0.043-0.099-0.063-0.15
			c-0.188,0.038-0.332,0.088-0.443,0.149h-0.011c-0.993,0.528,0.896,1.804,1.195,2.743c0.497-0.116,1.873,1.503,2.728,1.702
			c4.056,5.519-4.751-1.285-5.07,1.249c3.694,1.84,3.128,5.71,7.806,6.776c0.311,0.865,0.727,1.967,0.05,2.207
			c-2.014-2.054-2.379-0.34-4.015-2.706l-0.481,0.684l-2.091-2.877c-2.115-0.279-4.536-0.027-5.913-0.34
			c0.371,1.685,2.452,1.155,2.26,2.703c-0.945-1.205-2.434-1.148-2.742-0.612c1.588-0.439,3.315,2.151,3.46,3.187
			c-0.628,1.058-3.365,0.436-3.811-0.072l-1.094-1.867c0.527,1.059-1.348-0.571-1.147,0.556c0.745,0.692,1.716,1.689,2.717,2.673
			h0.002c0.536,0.526,1.079,1.05,1.6,1.518c0.14,1.027-1.87,0.374-1.717,0.801l-0.729-1.962c-0.212,0.997-1.455,0.138-2.458-0.356
			l-0.467-0.003l0.467-0.001c-0.609-0.302-1.13-0.471-1.28-0.003h-0.003c-0.025,0.083-0.039,0.185-0.04,0.31l1.581,1.557
			c-0.368,0.067-1.01-0.165-1.516-0.616c0.591,0.826,0.031,1.367,0.242,1.932l-1.261-0.689c0.408,1.097,2.593,3.584-0.231,2.749
			c3.256,1.335,0.489-0.695,2.452-0.845c2.545,0.778,1.349,2.305,1.52,2.739c-3.052-2.092-1.271,1.325-1.772,2.007
			c-1.376-0.314-2.111-0.283-2.945-0.469l1.867,1.618c-4.146-2.341-0.007,2.011-1.768,2.003c-0.96-1.215-2.576-2.189-3.521-2.006
			c3.469,1.191,2.88,3.66,5.031,4.744c-1.98,0.754-3.548-2.804-5.904-3.741C77.735,229.288,73.38,227.698,76.026,230.108z
			 M93.937,203.18c0.219-0.181,0.25-0.404,0.17-0.65C93.96,202.563,93.891,202.753,93.937,203.18z M90.086,205.695
			c-1.499-1.334,0.014,1.398-1.082,1.153C90.458,207.378,89.969,206.073,90.086,205.695z M87.46,213.501
			c-0.159-0.435,0.099-0.382,0.305-0.53l-1.538-0.747C86.132,212.601,86.706,213.528,87.46,213.501z M149.504,204.12
			c-3.95-2.189-10.999,1.542-10.999,1.542c3.796,2.845,6.44,6.272,8.454,10.129h17.05c-0.012-0.02-0.032-0.036-0.058-0.052
			C156.858,213.883,158.333,204.021,149.504,204.12z M95.811,197.396l-1.167-1.065l0.106,1.625c1.337,0.902,3.515,1.995,3.849,0.874
			c0.427,0.402,0.735,0.716,0.948,0.961l11.505-0.002c-2.035-1.11-4.435-2.527-5.306-1.342c-2.922-2.455,1.98-2.145-1.572-3.555
			c-2.106-2.275-0.583-4.93,1.343-4.493c-1.875-3.026-0.967,0.779-3.451-1.185c-0.533,1.277,0.5,2.71-0.25,4.745
			c1.336,0.904,1.923,0.438,2.483,1.964c1.777,3.407-3.27,0.656-3.65,0.973c-0.169-0.438-0.053-0.812-0.213-1.247
			c-1.611,0.425-0.016,1.993-0.881,2.998c-3.813-2.069,0.742-2.025-1.214-3.885l-3.099-0.896
			C93.784,195.329,97.896,196.266,95.811,197.396z M144.188,164.588c1.02,0.033,0.504-0.686-0.292-1.472
			C141.719,164.023,144.571,162.88,144.188,164.588z M113.482,183.409c-0.436-0.493-1.076-0.841-0.956-1.222
			c-0.824-0.181,0.05,0.816-0.057,1.197C112.728,183.437,113.838,183.691,113.482,183.409z M102.058,194.615
			c-1.434-1.133-1.185,0.055-1.542,0.246C101.186,194.997,101.806,195.054,102.058,194.615z M99.764,192.492
			c-0.452-0.503-0.601-0.937-1.233-1.277C98.036,191.904,98.463,192.392,99.764,192.492z M100.516,194.861
			c-0.135-0.027-0.271-0.057-0.407-0.087C100.305,194.897,100.428,194.908,100.516,194.861z M143.366,166.404
			c-1.073-0.845-2.729-1.228-3.989-1.917C140.574,166.364,141.901,165.863,143.366,166.404z M138.797,170.363
			c0.084,0.151,0.155,0.294,0.215,0.431C139.088,170.698,139.059,170.571,138.797,170.363z M107.789,185.71
			c-0.405,0.916-0.422,2.906,0.643,3.746L107.789,185.71z M112.992,184.741c-0.15-0.141-0.387-0.273-0.747-0.396
			C112.483,184.479,112.733,184.61,112.992,184.741z M137.507,164.685c-0.022-0.184-0.122-0.415-0.323-0.69L137.507,164.685z
			 M110.411,181.909c-0.024,0.464,0.097,0.854,0.324,1.195C111.096,183.044,111.166,182.774,110.411,181.909z M110.735,183.104
			c-0.684,0.115-2.414-0.517-1.636,0.707c-0.823-0.183-1.579-1.56-2.167-1.092c1.04,1.438,3.785,2.062,5.11,1.563l0.202,0.063
			C111.603,183.981,111.06,183.593,110.735,183.104z"/>
	</g>
</g>
<g>
	<g>
		<path fill-rule="evenodd" clip-rule="evenodd" fill="#C6C6C6" d="M236.335,335.045l-1.87,0.002
			C235.118,335.8,235.702,335.507,236.335,335.045z M263.531,335.046c0.046,0.032,0.11,0.04,0.198,0.016
			c-0.004-0.006-0.008-0.014-0.012-0.017L263.531,335.046z M203.673,338.723l0.744-0.727l-0.727-0.62L203.673,338.723z
			 M263.531,335.045l0.187-0.006c-0.132-0.291-0.07-2.273-0.777-1.393C263.757,333.412,263.21,334.822,263.531,335.045z
			 M275.318,328.488l0.534-1.443l-1.163,0.002C274.857,327.659,274.906,328.614,275.318,328.488z M258.814,333.352l-0.212,0.14
			C258.634,334.075,258.711,333.844,258.814,333.352z M293.767,324.649l0.239-0.054l-0.359-2.718L293.767,324.649z M331.03,320.457
			c-0.001,0-0.077,0.166-0.154,0.329h0.006C330.989,320.545,331.03,320.457,331.03,320.457z M330.876,320.786l-0.041,0.004
			C330.617,321.324,330.747,321.061,330.876,320.786z M206.339,313.024c0.18-0.161,0.354-0.356,0.522-0.593
			C206.619,312.368,206.495,312.559,206.339,313.024z M332.421,317.061l-0.201-0.262l-0.82-1.039l-1.701-2.034
			c-0.811-0.927-1.658-1.825-2.559-2.681h-0.001c-1.687-1.602-3.557-3.048-5.722-4.242c2.048-3.024,2.706-0.022,4.152-2.057
			c-2.33,1.845-1.388-0.418-3.462-1.491l0.295-0.332c-1.059-0.327,0.155-1.889-1.17-2.1l-0.599,0.499
			c-2.168,0.356,1.669-4.15-1.69-2.276l1.208-1.917c-3.311,1.252-0.13-1.932-3.135-1.207l0.564-0.248
			c0.017-0.259-0.035-0.465-0.141-0.629h-30.247c1.568,2.427,3.312,4.731,5.37,6.811c-12.253,1.704-24.281,4.743-36.887,6.418
			c-0.527,1.382-1.164,2.198-1.855,2.769h-0.003c-1.688,1.38-3.716,1.276-5.313,4.228l0.061-1.423
			c-2.023,2.193-2.751-0.181-5.629-1.716c0.091,1.63-1.021,0.529-0.435,3.177c-0.784,2.349-1.996-3.68-3.28-2.359
			c-0.114-0.9,0.15,1.598-0.203,0.778c-2.832,3.005-0.406-0.251-2.576-2.682h-0.003c-0.367-0.41-0.866-0.797-1.542-1.126
			c-1.322,0.31-2.647,0.701-3.971,1.12h-0.02c-4.844,1.509-9.693,3.291-14.494,2.353c0.31,0.251,0.519,1.971-0.025,2.044
			c-0.901-4.315-1.955,1.342-3.146-0.316c0.018-0.91,0.506-1.228,0.757-1.637c-2.856-1.589-4.946,1.23-7.659-0.458
			c-2.337,2.089-5.514-1.621-7.008,0.767c0.264-1.773-1.197-1.212-1.791-2.032c-1.352,5.103-4.65-0.883-6.675,1.771
			c0.435-0.968,0.955-1.707,1.933-2.485l-15.727-0.002l15.727-0.001c0.393-0.315,0.861-0.637,1.428-0.983
			c0.266-1.332-1.595-2.959-0.181-3.842c3.116,0.917,1.832-2.578,3.616-3.182c-2.451-1.156-3.218-3.921-1.429-4.517l2.911,2.454
			c0.229-2.171,1.601-4.012,3.074-5.928l-7.436-0.001h7.436c2.107-2.743,4.42-5.644,3.873-9.891l2.076,0.869
			c0.427-2.714,1.701-4.85,2.947-6.978H179.29c-0.613,2.237-0.569,4.816,0.779,7.786c-2.274-0.714-3.165,0.281-5.624,1.121
			c1.132-0.339,1.991,1.261,1.952,1.849l-2.751-0.63c-1.947,0.159-0.697,2.848-0.06,4.588c-0.539-0.121-1.172-0.462-1.794-0.803
			c-1.769-0.058,0.015,1.296,0.685,2.089h0.002c0.102,0.119,0.177,0.226,0.21,0.312l-1.375-0.312l-0.569-0.129l0.165,0.129
			l1.269,0.991c0.293,1.472-0.854,2.411-3.273,0.66c0.24,0.655,0.49,1.311,1.492,1.344c-2.033-0.056-3.626,2.379-3.836,4.53
			c1.125-0.344,1.84,0.217,3.444,1.177c2.501,1.971-0.738,0.034,0.386,1.69c-0.995-0.63-2.472-0.56-2.689-1.815
			c-4.799-0.087-4.031,4.692-6.476,6.933c0.013,0.197,0.055,0.353,0.118,0.49h0.002c0.199,0.417,0.609,0.619,1.005,1.165
			c-3.796-0.062-2.34,3.867-4.708,4.932c0.739,0.17,1.868,1.004,2.661,1.903h0.001c0.683,0.775,1.117,1.598,0.835,2.087
			c1.446,2.539-3.338-1.554-5.3-1.406c0.688,1.167,0.345,2.284-0.053,2.592l-0.357-0.28c0.766,1.377,0.799,2.781-0.695,2.844
			l-0.076-0.215l-0.274,0.146l-0.258,0.078c-0.581,0.318-0.938,1.126-1.118,2.15h-0.001c-0.709,4.014,1.307,11.311,3.156,5.069
			c0.604,0.729,0.854,1.831,1.269,2.935h0.001c0.317,0.842,0.733,1.683,1.478,2.35c0.584,0.523,3.941,0.255,4.601,0.808
			c0.984,0.824-0.683,2.487,0.47,3.376l0.62,0.57c0.418,0.385,0.836,0.714,1.199,0.578c0.156-2.466,2.078-1.098,2.359-3.3
			c0.109,0.266-0.015,0.456,0.223,0.966l-0.087-2.066l1.561,1.068c-0.263,0.837-0.272,1.746-0.643,2.337
			c1.677,1.313,0.391-1.955,1.137-3.137c0.994-1.572,1.082,0.476,1.676,1.313c-0.38,1.063-0.843-0.429-1.089-0.029
			c-0.507,1.691,0.713,0.62,0.821,1.794c0.239,0.056,0.159-2.466,1-2.036c0.718,0.184,2.309-0.587,2.274,1.688
			c0.254-0.614,0.546-1.95,0.803-3.021c2.426,2.445,1.751,0.448,2.094,0.021c0.097-0.119,0.189-0.242,0.277-0.368l0.14,0.308
			c0.278-1.747,1.364-1.717,2.218-2.18c0.209,2.303-0.317,4.913,1.375,5.335l1.248-2.437c0.732-0.271,0.964,0.229,0.948,1.604
			c2.651,1.097,2.157-6.538,4.313-4.651c-0.652,2.802,0.075,2.985,1.032,3.67c0.006-0.455,0.021-1.365,0.388-1.492
			c-0.35-1.229-0.394,1.938-1.22,0.153c-0.335-1.676,0.744-1.19,1.12-1.772c2.215,5.773,6.047,1.003,9.154,3.575
			c-0.438-3.276,1.228-1.053,1.731-2.308c0.07,3.449,1.588-0.734,2.529,1.297l-0.68-3.341c0.715,0.684,1.246,0.106,1.705-0.672
			h0.001c0.765-1.297,1.325-3.154,2.194-0.668c0.227,0.2,0.35,0.426,0.401,0.667c0.188,0.89-0.637,1.942-0.934,2.408
			c1.642,3.588,3.444-3.27,4.839,0.719c0.014-0.854-0.206-2.035-0.102-3.124c0.063-0.647,0.244-1.261,0.657-1.752
			c0.435,0.564,1.03,1.175,1.576,1.749h0.006c0.789,0.822,1.47,1.553,1.391,1.924c0.741-0.727,0.875-1.827,1.827-0.679
			c-0.012,0.892-0.379,1.036-0.623,1.445c1.438,0.785,2.432-0.778,3.547-2.113c0.93,2.513,3.254,1.034,4.928,2.348
			c0.65-3.211,2.605,1.001,2.476-2.899c0.034,0.406,0.237,0.854,0.341,1.067c0.123-0.298,0.23-0.679,0.338-1.092
			c0.329-1.289,0.626-2.872,1.182-3.064l-0.044,2.712c0.003,0.126,0.009,0.243,0.017,0.352c0.191,2.649,1.877,0.601,2.392,1.542
			c-0.52-1.658,0.811-0.003,0.862-1.535h0.001c0-0.002,0-0.004,0-0.006c0-0.001,0-0.001,0-0.001
			c0.001-0.074,0.001-0.156-0.003-0.245l0.818-0.932c1.354-0.808,0.067-1.351,1.771-1.857c0.973-0.225,0.561,3.104,0.2,2.785
			c0.065,0.095,0.129,0.178,0.191,0.249l1.87-0.006c0.18-0.134,0.364-0.282,0.556-0.425l-0.039-0.047l-0.085,0.068
			c-0.302,0.028-0.41-0.171-0.16-0.773c0.045,0.342,0.13,0.563,0.245,0.705c0.308-0.25,0.618-0.465,0.946-0.511l-0.006,0.155
			c-0.344,0.192-0.661,0.346-0.901,0.402c0.239,0.244,0.578,0.201,0.927,0.191c0.048,0.211,0.155,0.174,0.294,0.008
			c0.19,0.021,0.372,0.078,0.534,0.231h0.001c0.076,0.073,0.147,0.167,0.211,0.289l-0.081,2.133
			c0.452,0.041,1.385-1.329,1.795-2.417h0.002c0.146-0.383,0.223-0.729,0.193-0.964c2.478,1.599,6.252-0.154,7.794-1.433
			c-0.257,0.497-0.229,1.127,0.021,0.406c0.788-0.476,1.579-2.352,1.759-0.992c0.733-0.917,0.846,1.42,2.081,1.529
			c0.043,0.334,0.039-0.996-0.098-1.583c2.245,2.523,4.462-2.505,7.033-0.767c-0.191,0.136-0.395,1.394-0.542,2.104
			c1.821-1.192,3.562-2.199,5.079-4.883c-0.109,0.972,0.01,1.872-0.399,2.447c1.316-0.133,2.806-0.796,3.277-2.803
			c-0.97-0.92,0.022,1.161-0.593,1.098c-0.445-0.743-0.443-1.531-0.223-2.166l-56.473-0.002l56.473-0.002
			c0.312-0.911,1.068-1.518,1.601-1.258l0.06,0.45c1.315-0.15,1.29-1.312,2.603-1.444c0.879,1.153-0.646,0.647-0.229,1.943
			c0.017,0.111,0.038,0.217,0.06,0.312l2.838,0.001l-2.838,0.004c0.666,2.948,3.114,1.609,3.403,1.975
			c0.229-0.679,0.578-1.224,0.57-1.978v-0.001v-0.001c-0.001-0.092-0.01-0.188-0.021-0.287c0.397-0.4,0.572-0.14,0.688,0.287h1.163
			l1.834-4.969c-0.031,0.923,1.128,2.794,0.353,3.996c2.113-0.591,3.042-4.613,4.214-6.816c0.297,0.225,0.839,0.063,1.417-0.207
			h0.009c0.748-0.348,1.549-0.874,1.944-0.984c0.416,1.536-0.376,0.321-0.611,0.975h-0.003c-0.031,0.088-0.053,0.209-0.06,0.374
			l1.233,2.01c-1.405,0.394,0.411,3.169-0.266,4.527c1.06-1.249,3.872-0.155,5.628,0.28c-1.467-3.802,2.166-2.031,1.841-5.461
			c1.966-0.78,1.205,2.711,2.021,3.415c1.99-1.509,4.047-0.687,5.917-1.214c0,0,0.062,0.468-0.023,0.711
			c1.665-1.186,4.565-0.361,6.086-3.599c-0.029,0.701,0.179,1.359-0.232,1.935c1.963,1.092,0.021-4.455,2.341-2.534l-0.378,1.745
			c0.823-1.18,1.771-0.171,2.712-0.217c-0.084,0.657-0.237,1.461-0.444,2.471c0.213,0.416,0.935-1.095,1.812-3.526
			c0.075,0.826-0.219,1.143-0.394,1.63c1.259-0.794,2.747-0.628,3.767-2.541l-10.521-0.002l10.521-0.001
			c0.074-0.141,0.146-0.292,0.216-0.455c0.038,0.153,0.067,0.304,0.091,0.458c0.135,0.905-0.013,1.722-0.439,2.431
			c1.49,1.227,1.289-3.157,2.637-2.129c0.325,0.101,0.95,1.144,0.982,1.493c0.434-1.105,1.604-1.43,2.422-1.795l-1.4-0.002h1.4
			c0.262-0.117,0.487-0.238,0.642-0.392c0.033,0.143,0.071,0.271,0.113,0.394h0.001c0.289,0.812,0.79,1.186,1.555,2.175l5.254-0.37
			l0.658-0.05l0.135-0.01c0.12-0.295,0.345-0.829,0.736-1.745l-5.956-0.001l5.956-0.004
			C331.798,318.513,332.077,317.861,332.421,317.061z M190.042,315.71l0.286-0.811c0.116,0.116,0.218,0.233,0.3,0.346
			L190.042,315.71z M239.622,333.093c-0.179,0.102-0.395,0.237-0.629,0.386C239.22,333.178,239.44,332.981,239.622,333.093z
			 M314.284,292.964c-1.283-0.83-2.815-1.747-5.066-0.364c0.602-0.854,1.998-1.67,2.826-2.033
			c-4.308-3.465-7.413-8.647-13.195-10.276c0.304-0.529,0.845-0.568,1.393-0.805c-0.525-0.064-0.938-0.218-1.269-0.44h-0.009
			c-2.328-1.535-0.581-6.186-5.874-4.56l-2.462,0.885c0.34-1.142,1.754-2.155,2.102-3.104c-1.651,0.524-2.014-1.895-3.968-0.84
			c0.6-0.857,1.119-0.686,1.69-1.133c-0.433-1.403-4.279-0.467-4.439-1.978l1.123-0.337c-0.154-1.631-0.393-3.303-0.738-4.935
			l-10.772-0.003l10.772-0.004c-1.353-6.4-4.353-12.292-10.541-13.182c-1.598-0.621,1.867-2.354,1.58-2.812h-0.001
			c-0.012-0.02-0.029-0.036-0.056-0.051c-7.094-1.857-5.619-11.719-14.447-11.62c-3.95-2.189-11,1.542-11,1.542
			c3.797,2.845,6.44,6.272,8.454,10.129l14.919,0.001l-14.919,0.006c2.407,4.615,3.913,9.851,5.409,15.457
			c0.193,0.174,0.391,0.351,0.595,0.536h0.007c2.451,2.161,5.543,4.739,6.324,7.693c2.182,2.539,4,5.361,5.669,8.307h0.002
			c2.988,5.26,5.505,10.902,8.801,16l30.246-0.002C316.632,293.768,312.729,294.869,314.284,292.964z M213.931,269.731
			c1.805-0.587,3.73-2.153,4.529-3.372c-0.285-1.556-0.217-2.376-0.449-3.314l-26.266,0.001c0.188,0.278,0.396,0.552,0.653,0.787
			c-0.908,0.959-1.108-0.418-2.115-0.788h-0.029c-0.198-0.066-0.423-0.097-0.691-0.062c0.001,0.021,0.004,0.044,0.008,0.062
			l0.329,0.003l-0.329,0.003c0.147,0.867,1.903,2.953,3.268,2.675c-1.137,0.342,1.137,3.059-1.242,2.72
			c-2.086-0.869,0.197-2.153-1.453-2.529c-1.378,1.688,3.977,3.905,3.492,5.998c1.475-0.064,4.295,2.774,4.877,4.314
			c-2.033,1.334-0.582-1.54-3.414-2.381l-0.129,0.976c-3.932-1.096-3.889-5.691-7.174-6.435l0.571,1.526
			c-0.799-0.78-2.291-2.127-3.396-2.377c2.125,1.686-0.675,2.252-0.24,2.746c1.786,1.41-0.124-1.018,1.284,0.093
			c-0.048,1.195,2.871,3.654,0.808,4.189c-0.852-1.595-2.78-1.43-3.669-2.438c-1.21,0.127,2.126,1.683,0.46,1.909l-1.069-0.849
			c-1.31,1.628-2.627,3.562-3.256,5.856l31.824-0.001C212.706,276.326,214.248,273.618,213.931,269.731z M189.456,261.363
			c1.239-0.345,1.628,0.699,2.29,1.682l26.266-0.007c-0.17-0.704-0.508-1.478-1.275-2.676c0.236-0.74,1.963-0.15,2.771,0.037
			c1.861-1.779,5.771-2.091,3.92-5.713l1.619,0.97c-0.515-2.72-0.872-6.406,2.143-7.118c-0.331-0.449-0.49-0.976-0.627-1.493
			l-21.974-0.001l21.974-0.004c-0.303-1.154-0.488-2.29-2.13-2.527c0.144-0.966,2.975,1.267,1.786-0.594l1.824,2.212
			c3.344-3.843,4.498-8.181,5.956-13.052c1.766,0.303,2.319-0.747,2.83-2.031h0.001c0.495-1.251,0.951-2.722,2.447-3.37
			c-0.604-2.337,3.061-3.296,0.355-6.512l1.613,0.962c1.386-1.683,2.99-4.127,5.319-5.993c1.349-1.098-0.987-2.629-1.078-4.243
			l1.62,0.969c-0.182-1.838-2.414-3.756-3.713-5.246c1.682-0.218,0.618-1.062,2.292-1.281c0.28,1.458,1.495,3.342,3.241,5.339
			c1.638-1.024-1.408-5.127,1.625-4.43c1.334-0.823,1.408-2.11-0.278-3.473c0.596,0.235,1.487-0.027,1.882,1.031
			c0.543-0.948,0.78-1.638,0.285-2.753c-0.127,0.165-0.56,0.24-0.627,0.479c-1.307-1.498-0.62-2.345-3.145-3.72
			c0.317,0.872,0.679,1.148,0.096,1.622c-1.493-1.341-0.941-3.209,0.799-2.622c1.996,0.659,2.063,2.872,3.555,2.813l-2.183-4.683
			c0.092,0.78-1.242,0.715-2.46-0.37l0.372,1.681l-1.688-1.18c-0.493,2.09-3.001,2.113-2.765,4.761l2.187,0.498
			c-0.584,1.073,1.112,3.659-1.548,3.255c-0.335-0.879-1.43-1.126-2.408-1.75c0.164,0.443,0.674,1.152,0.217,1.258l-2.071-1.879
			c2.572,2.58-0.952,3.233-0.638,4.057l-0.448-0.505c-2.255,0.694,1.827,0.816,1.206,1.877c-1.049,0.561-3.435-1.785-5.191-1.784
			c-0.919,1.598-0.393,5.721-3.818,5.938c-0.376,1.715-0.309,3.928,0.232,6.045c-0.807,1.227-3.051-2.094-2.5,0.04
			c-0.937-0.805-2.133-1.348-3.193-1.884c0.977,0.915-1.699,2.168,1.566,2.911c-1.748,1.408-3.322,3.248-3.994,5.496
			c0.229-0.744-1.558-2.154-2.844-2.242c1.277,2.084,1.34,4.303-0.211,5.545c1.975,1.253,2.28,0.719,4.076,2.133
			c0.104,0.293,0.408,0.811,0.479,1.207l6.478,0.002l-6.478,0.002c0.037,0.199,0.015,0.369-0.12,0.469
			c-0.284-0.145-0.585-0.306-0.895-0.473l-11.504,0.002c1.318,1.533-1.053,0.495-1.303,2.157c1.674,1.779,0.223-0.753,2.205,0.505
			c1.887,1.024,1.286,2.089,1.124,3.048c-0.8,1.219-2.549-0.775-4.188-1.149c-0.168-0.439,0.174-1.558,1.246-0.712
			c-1.032-2.771-4.357-2.08-5.203-3.851l-0.229-0.002l0.229-0.002c-0.021-0.048-0.043-0.098-0.062-0.149
			c-0.188,0.038-0.331,0.087-0.443,0.148h-0.011c-0.992,0.528,0.894,1.804,1.195,2.743c0.496-0.116,1.874,1.503,2.728,1.702
			c4.056,5.519-4.75-1.285-5.069,1.249c3.694,1.84,3.13,5.711,7.806,6.777c0.312,0.865,0.728,1.966,0.049,2.206
			c-2.013-2.053-2.378-0.34-4.013-2.706l-0.482,0.684l-2.092-2.876c-2.113-0.28-4.533-0.027-5.912-0.341
			c0.371,1.685,2.452,1.156,2.261,2.703c-0.945-1.204-2.434-1.147-2.742-0.612c1.589-0.439,3.316,2.151,3.46,3.187
			c-0.629,1.058-3.364,0.437-3.812-0.072l-1.093-1.866c0.525,1.059-1.35-0.571-1.146,0.556c0.745,0.691,1.716,1.688,2.717,2.672
			h0.001c0.536,0.527,1.079,1.049,1.601,1.519c0.14,1.027-1.871,0.373-1.717,0.8l-0.729-1.962c-0.211,0.997-1.455,0.138-2.458-0.356
			l-0.467-0.003l0.467-0.001c-0.609-0.302-1.132-0.471-1.281-0.003h-0.003c-0.025,0.083-0.038,0.186-0.039,0.311l1.581,1.556
			c-0.368,0.067-1.011-0.165-1.517-0.616c0.591,0.826,0.031,1.367,0.241,1.933l-1.259-0.69c0.407,1.097,2.59,3.585-0.232,2.749
			c3.256,1.335,0.49-0.695,2.451-0.845c2.547,0.779,1.35,2.305,1.52,2.74c-3.051-2.092-1.27,1.324-1.771,2.006
			c-1.376-0.314-2.11-0.283-2.944-0.469l1.867,1.618c-4.146-2.341-0.008,2.011-1.77,2.003c-0.961-1.215-2.575-2.189-3.521-2.005
			c3.468,1.19,2.88,3.659,5.03,4.744c-1.98,0.753-3.549-2.805-5.904-3.742C191.164,260.542,186.809,258.952,189.456,261.363z
			 M207.365,234.434c0.22-0.181,0.249-0.404,0.17-0.65C207.39,233.817,207.319,234.007,207.365,234.434z M203.515,236.95
			c-1.5-1.335,0.014,1.397-1.083,1.152C203.886,238.632,203.397,237.327,203.515,236.95z M200.888,244.755
			c-0.158-0.434,0.1-0.381,0.306-0.53l-1.537-0.747C199.561,243.854,200.134,244.782,200.888,244.755z M213.945,226.115
			c-0.135-0.027-0.271-0.057-0.407-0.087C213.733,226.151,213.857,226.162,213.945,226.115z M226.911,214.663
			c-0.436-0.493-1.075-0.841-0.955-1.222c-0.824-0.181,0.05,0.815-0.059,1.196C226.156,214.69,227.269,214.945,226.911,214.663z
			 M257.618,195.842c1.018,0.033,0.502-0.686-0.294-1.472C255.147,195.278,257.999,194.134,257.618,195.842z M215.485,225.869
			c-1.432-1.132-1.185,0.054-1.54,0.246C214.615,226.251,215.233,226.308,215.485,225.869z M256.795,197.658
			c-1.072-0.845-2.73-1.228-3.989-1.917C254.003,197.618,255.328,197.117,256.795,197.658z M213.192,223.746
			c-0.452-0.503-0.6-0.936-1.232-1.277C211.465,223.158,211.894,223.646,213.192,223.746z M250.936,195.938
			c-0.021-0.184-0.122-0.414-0.323-0.689L250.936,195.938z M209.239,228.65l-1.166-1.065l0.104,1.625
			c1.337,0.902,3.516,1.996,3.85,0.875c0.429,0.402,0.735,0.716,0.948,0.96l11.504-0.002c-2.035-1.109-4.435-2.527-5.306-1.342
			c-2.922-2.455,1.979-2.145-1.572-3.555c-2.106-2.275-0.583-4.93,1.343-4.493c-1.873-3.026-0.967,0.78-3.451-1.185
			c-0.533,1.277,0.501,2.71-0.249,4.745c1.337,0.904,1.923,0.438,2.483,1.964c1.777,3.407-3.271,0.656-3.65,0.973
			c-0.168-0.438-0.053-0.812-0.213-1.247c-1.612,0.425-0.017,1.993-0.883,2.998c-3.812-2.068,0.742-2.024-1.213-3.884l-3.1-0.896
			C207.212,226.584,211.325,227.521,209.239,228.65z M224.164,214.358c-0.685,0.114-2.415-0.517-1.636,0.706
			c-0.822-0.183-1.58-1.56-2.168-1.092c1.042,1.438,3.787,2.062,5.111,1.562l0.202,0.064
			C225.03,215.235,224.487,214.847,224.164,214.358z M221.219,216.964c-0.407,0.916-0.423,2.906,0.642,3.747L221.219,216.964z
			 M252.227,201.617c0.083,0.15,0.154,0.294,0.214,0.431C252.516,201.952,252.487,201.825,252.227,201.617z M223.84,213.163
			c-0.024,0.464,0.097,0.854,0.324,1.195C224.526,214.298,224.595,214.028,223.84,213.163z M226.421,215.995
			c-0.151-0.141-0.389-0.273-0.747-0.396C225.911,215.733,226.163,215.864,226.421,215.995z"/>
	</g>
</g>
<path fill="#E63027" d="M422.175,189.999"/>
</svg>
