<?xml version="1.0" encoding="utf-8"?>
<!-- Generator: Adobe Illustrator 15.1.0, SVG Export Plug-In . SVG Version: 6.00 Build 0)  -->
<!DOCTYPE svg PUBLIC "-//W3C//DTD SVG 1.1//EN" "http://www.w3.org/Graphics/SVG/1.1/DTD/svg11.dtd">
<svg version="1.1" id="Ebene_1" xmlns="http://www.w3.org/2000/svg" xmlns:xlink="http://www.w3.org/1999/xlink" x="0px" y="0px"
	 width="549.514px" height="205.593px" viewBox="-545.18 -286.438 549.514 205.593"
	 enable-background="new -545.18 -286.438 549.514 205.593" xml:space="preserve">
<g>
	<path fill="#010202" d="M-526.954-83.564c-10.924,0-11.411-12.733-11.411-21.428c0-9.604,0.769-21.496,11.411-21.496
		c10.778,0,11.266,12.733,11.266,21.496C-515.689-95.462-516.45-83.564-526.954-83.564 M-526.954-80.853
		c13.776,0,18.086-9.393,18.086-24.139c0-13.847-4.172-24.208-18.086-24.208c-13.847,0-18.226,9.318-18.226,24.208
		C-545.18-91.154-541.288-80.853-526.954-80.853"/>
	<path fill="#010202" d="M-495.029-121.067c0-4.034,0.354-4.659,5.92-4.659c6.188,0,10.011,2.58,10.011,9.468
		c0,8.97-6.463,9.388-12.934,9.388h-2.998L-495.029-121.067L-495.029-121.067z M-501.073-81.623h6.046v-22.539h3.135
		c8.488,0,19.617,0,19.617-12.098c0-12.178-10.504-12.178-18.918-12.178h-16.837v1.187c5.981,0.898,6.957,1.937,6.957,6.184V-81.623
		z"/>
	<path fill="#010202" d="M-462.827-81.623h6.053v-46.814l-13.01,1.599v1.188c4.803,0.55,6.957,0.337,6.957,5.146V-81.623z"/>
	<path fill="#010202" d="M-436.19-81.623h6.051v-44.104h6.266c5.982,0,5.982,2.511,6.4,6.744h2.181l-0.344-9.454h-35.05
		l-0.355,9.454h2.191c0.412-4.233,0.557-6.744,6.401-6.744h6.259V-81.623L-436.19-81.623z"/>
	<path fill="#010202" d="M-411.781-81.623h33.768l0.351-10.43h-2.18c-0.494,4.729-0.556,7.721-6.478,7.721h-17.462l25.062-41.116
		v-2.989h-31.395l-0.419,9.53h2.162c0.411-4.173,0.48-6.82,6.4-6.82h15.164l-24.975,41.044V-81.623z"/>
	<path fill="#010202" d="M-320.107-85.719c-0.837,0.276-5.151,1.735-9.255,1.735c-15.232,0-17.188-14.539-17.188-24.418
		c0-10.643,3.896-17.667,11.279-17.667c6.813,0,8,4.939,8.345,7.087h6.818c-0.486-4.722-4.246-10.218-14.751-10.218
		c-14.259,0-18.505,9.943-18.505,22.609c0,14.121,7.094,25.744,20.172,25.744c6.477,0,9.744-0.839,13.084-1.949L-320.107-85.719
		L-320.107-85.719z"/>
	<path fill="#010202" d="M-297.854-83.564c-10.924,0-11.41-12.733-11.41-21.428c0-9.604,0.77-21.496,11.41-21.496
		c10.779,0,11.268,12.733,11.268,21.496C-286.586-95.462-287.349-83.564-297.854-83.564 M-297.854-80.853
		c13.778,0,18.087-9.393,18.087-24.139c0-13.847-4.172-24.208-18.087-24.208c-13.847,0-18.224,9.318-18.224,24.208
		C-316.076-91.154-312.187-80.853-297.854-80.853"/>
	<path fill="#010202" d="M-271.486-81.623h3.617v-40.833h0.136l23.516,40.833h5.29v-46.814h-3.621v37.984h-0.134l-21.847-37.984
		h-13.92v1.187c5.989,0.968,6.963,1.454,6.963,7.026V-81.623L-271.486-81.623z"/>
	<path fill="#010202" d="M-207.55-128.089c-2.018-0.418-5.776-1.111-10.299-1.111c-9.257,0-15.164,4.173-15.164,11.755
		c0,14.614,22.334,12.872,22.334,24.625c0,5.914-3.622,8.836-9.75,8.836c-4.722,0-9.523-1.811-12.097-3.061v4.797
		c1.181,0.283,6.258,1.395,11.129,1.395c8.977,0,16.906-3.829,16.906-13.422c0-15.24-22.958-13.853-22.958-24.844
		c0-4.233,3.409-6.959,8.419-6.959c4.872,0,9.324,1.88,11.479,2.855V-128.089z"/>
	<path fill="#010202" d="M-164.557-128.436h-4.108v30.332c0,6.541,0,14.548-11.479,14.548c-10.086,0-10.086-10.031-10.086-15.103
		v-29.777l-13.01,1.599v1.188c4.729,0.55,6.958,0.349,6.958,5.146v21.847c0,9.668,1.117,17.812,16.075,17.812
		c15.65,0,15.65-9.543,15.65-18.088V-128.436z"/>
	<path fill="#010202" d="M-153.016-81.623h25.775l0.344-10.291h-2.18c-0.556,4.658-0.77,7.582-5.983,7.582h-6.188
		c-5.709,0-5.709-0.412-5.709-6.121v-37.984l-13.017,1.599v1.188c4.804,0.55,6.957,0.337,6.957,5.146V-81.623L-153.016-81.623z"/>
	<path fill="#010202" d="M-119.553-81.623h6.054v-44.104h6.271c5.978,0,5.978,2.511,6.401,6.744h2.18l-0.344-9.454h-35.056
		l-0.35,9.454h2.186c0.412-4.233,0.557-6.744,6.4-6.744h6.258V-81.623z"/>
	<path fill="#010202" d="M-89.437-81.623h6.045v-46.814l-13.002,1.599v1.188c4.804,0.55,6.957,0.337,6.957,5.146V-81.623
		L-89.437-81.623z"/>
	<path fill="#010202" d="M-70.455-81.623h3.622v-40.833h0.132l23.52,40.833h5.284v-46.814h-3.616v37.984h-0.138l-21.847-37.984
		h-13.914v1.187c5.988,0.968,6.957,1.454,6.957,7.026V-81.623z"/>
	<path fill="#010202" d="M4.334-107.64H-8.744v1.188c6.052,0.974,7.025,1.529,7.025,7.032v14.813
		c-1.947,0.486-3.06,0.623-5.358,0.623c-13.354,0-17.044-11.754-17.044-23.444c0-7.581,1.113-18.649,11.967-18.649
		c7.308,0,8.906,4.599,9.256,7.309h6.82C3.504-124.541-1.58-129.2-12.012-129.2c-14.612,0-18.924,9.044-18.924,22.334
		c0,16.414,6.401,26.013,20.66,26.013c6.333,0,12.598-1.53,14.608-2.018L4.334-107.64L4.334-107.64z"/>
	<path fill="#E84036" d="M-296.736-154.119c0.475-58.602,48.14-105.96,106.848-105.96h0.601l-0.063,6.938h-0.55
		c-54.896,0-99.452,44.284-99.896,99.078L-296.736-154.119z"/>
	<path fill="none" stroke="#010202" stroke-width="0.215" stroke-miterlimit="3.864" d="M-296.736-154.119
		c0.475-58.602,48.14-105.96,106.848-105.96h0.601l-0.063,6.938h-0.55c-54.896,0-99.452,44.284-99.896,99.078L-296.736-154.119z"/>
	<path fill="#FECB0D" d="M-281.745-154.125c0.475-50.327,41.432-90.969,91.864-90.969l0.6,0.006l-0.075,6.938l-0.544-0.007
		c-46.622,0-84.469,37.573-84.907,84.093L-281.745-154.125z"/>
	<path fill="none" stroke="#010202" stroke-width="0.215" stroke-miterlimit="3.864" d="M-281.745-154.125
		c0.475-50.327,41.432-90.969,91.864-90.969l0.6,0.006l-0.075,6.938l-0.544-0.007c-46.622,0-84.469,37.573-84.907,84.093
		L-281.745-154.125z"/>
	<path fill="#0F7CC1" d="M-266.721-154.132c0.477-42.022,34.688-75.938,76.819-75.938l0.563-0.007l0.044,6.945h-0.601
		c-38.322,0-69.449,30.853-69.888,69.076L-266.721-154.132z"/>
	<path fill="none" stroke="#010202" stroke-width="0.215" stroke-miterlimit="3.864" d="M-266.721-154.132
		c0.477-42.022,34.688-75.938,76.819-75.938l0.563-0.007l0.044,6.945h-0.601c-38.322,0-69.449,30.853-69.888,69.076
		L-266.721-154.132z"/>
	<path fill="#193153" d="M-337.836-154.288h134.928l-67.464-117.852L-337.836-154.288z M-349.803-147.348l79.431-138.766
		l79.429,138.766H-349.803z"/>
	<path fill="none" stroke="#193153" stroke-width="0.322" stroke-miterlimit="3.864" d="M-337.836-154.288h134.928l-67.464-117.852
		L-337.836-154.288z M-349.803-147.348l79.431-138.766l79.429,138.766H-349.803z"/>
</g>
</svg>
