<?xml version="1.0" standalone="no"?>
<!DOCTYPE svg PUBLIC "-//W3C//DTD SVG 1.1//EN" "http://www.w3.org/Graphics/SVG/1.1/DTD/svg11.dtd" >
<svg>
<metadata>
Created by FontForge 20090914 at Sat Jan 26 19:19:43 2013
 By www-data
Copyright 1988-1991 Adobe Systems Inc.
</metadata>
<defs>
<font id="RotisSemiSans-Italic" horiz-adv-x="1024" >
  <font-face 
    font-family="RotisSemiSans"
    font-weight="400"
    font-style="italic"
    font-stretch="normal"
    units-per-em="2048"
    panose-1="2 11 5 0 0 0 0 0 0 0"
    ascent="1638"
    descent="-410"
    x-height="975"
    cap-height="1413"
    bbox="-174.001 -481 2431.01 1933"
    underline-thickness="102"
    underline-position="-154"
    slope="-88"
    unicode-range="U+0020-U+F002"
  />
<missing-glyph 
d="M102 0v1092h820v-1092h-820zM204 102h616v888h-616v-888z" />
    <glyph glyph-name=".notdef" 
d="M102 0v1092h820v-1092h-820zM204 102h616v888h-616v-888z" />
    <glyph glyph-name="equal" unicode=" " horiz-adv-x="530" 
 />
    <glyph glyph-name="greater" unicode="!" horiz-adv-x="569" 
d="M373 383h129l227 1030h-186zM260 0h201l39 199h-201z" />
    <glyph glyph-name="question" unicode="&#x22;" horiz-adv-x="721" 
d="M340 973h117l120 440h-184zM641 973h117l121 440h-185z" />
    <glyph glyph-name="at" unicode="#" horiz-adv-x="1175" 
d="M201 0h131l198 438h168l-198 -438h131l198 438h207l49 113h-204l88 192h204l52 113h-205l201 442h-132l-200 -442h-168l201 442h-132l-200 -442h-197l-53 -113h199l-88 -192h-197l-51 -113h196zM668 743h170l-88 -192h-168z" />
    <glyph glyph-name="A" unicode="$" horiz-adv-x="1100" 
d="M461 -195l96 -0.00390625l33 172c120 0 227 36.333 321 109c96 72.667 145.333 178.334 148 317.001c0 57.333 -9.66699 105.333 -29 144c-20.667 38 -48 68.667 -82 92c-31.333 24.667 -66 44.334 -104 59.001c-37.333 14 -73 25.667 -107 35l105 543
c38 -4 67.333 -13.667 88 -29c20 -16 34.333 -34.333 43 -55c13.333 -44 19.333 -83.667 18 -119h180c0 36.667 -3.33301 72.334 -10 107.001c-9.33301 32.667 -25.666 62.667 -48.999 90c-22 27.333 -53.333 49.666 -94 66.999c-42.667 16.667 -95.334 27 -158.001 31
l29 152h-96l-29 -152c-114.667 -5.33301 -214.334 -41.666 -299.001 -108.999c-88.667 -68 -134.334 -170.333 -137.001 -307c0 -54.667 12.333 -99 37 -133c22.667 -36.667 50.334 -66 83.001 -88c34.667 -22 67.667 -38.333 99 -49
c32.667 -10.667 58.667 -20.334 78 -29.001l-113 -581c-38 8 -67.333 20.333 -88 37c-22 14.667 -38.333 31 -49 49c-10 18.667 -15.667 38.334 -17 59.001c-2.66699 20.667 -4 40.334 -4 59.001h-182c0 -38 4.66699 -74.667 14 -110c10 -34 25.667 -64.667 47 -92
c24.667 -26 58.334 -47.333 101.001 -64c40.667 -16 94 -27 160 -33zM647 765.996c-35.333 16 -67.334 40 -96.001 72c-31.333 28.667 -47.666 75 -48.999 139c4 168 85 267 243 297zM714.999 617.996c24.667 -6.66699 58.668 -28.333 102.001 -65
c19.333 -18 35.666 -40.667 48.999 -68c12.667 -26 19 -57.333 19 -94c-1.33301 -90 -27.333 -163 -78 -219s-117 -89.333 -199 -100z" />
    <glyph glyph-name="B" unicode="%" horiz-adv-x="1669" 
d="M461 408c76 0 139.334 21.668 190.001 65.001c49.333 42.667 87.666 95.334 114.999 158.001c28.667 64 49 131.333 61 202c10 70 15 133 15 189c-1.33301 199.333 -85.333 299 -252 299c-74 -1.33301 -135.667 -22 -185 -62c-50 -40.667 -89.333 -92.334 -118 -155.001
s-49.334 -128.334 -62.001 -197.001c-12 -68 -18 -130.667 -18 -188c-1.33301 -209.333 83.334 -313 254.001 -311v0zM334.001 700.001c0 34.667 4.00293 82.667 12.0029 144c6.66699 58.667 19 118.667 37 180s43.333 113.333 76 156c30 42 69.333 63.667 118 65
c53.333 -1.33301 89.666 -21 108.999 -59c19.333 -40 29 -92.667 29 -158c1.33301 -82 -15 -189 -49 -321c-18 -62 -43.333 -114 -76 -156c-16.667 -20.667 -33.667 -36.334 -51 -47.001c-20.667 -14 -43.334 -21 -68.001 -21c-54.667 1.33301 -91.667 24 -111 68
c-18.667 40.667 -27.334 90.334 -26.001 149.001v0zM1329 -22.999c76.667 2 140.332 24.0029 190.999 66.0029c48.667 42 86.667 95.333 114 160c28.667 65.333 49.334 132 62.001 200c9.33301 70 14 133 14 189c-1.33301 199.333 -85.333 299.666 -252 300.999
c-74 -1.33301 -135.333 -22 -184 -62c-50.667 -40.667 -90.334 -92.334 -119.001 -155.001s-49 -128.334 -61 -197.001c-12.667 -68 -19 -130.667 -19 -188c-1.33301 -209.333 83.334 -314 254.001 -314v0zM1202 272.004c0 34.667 4.00293 82.667 12.0029 144
c7.33301 58.667 19.666 118.667 36.999 180c18 61.333 43.333 113.333 76 156c30 42 69.667 63.667 119 65c53.333 -1.33301 89.333 -21.666 108 -60.999c19.333 -40 29 -92.667 29 -158c1.33301 -82 -15 -189.333 -49 -322c-18 -61.333 -43.333 -113 -76 -155
c-16.667 -20.667 -33.667 -36.334 -51 -47.001c-20.667 -14 -43.334 -21 -68.001 -21c-54.667 1.33301 -91.334 24 -110.001 68c-19.333 40.667 -28.333 91 -27 151v0zM565.005 0.00390625h115l678 1298h-115z" />
    <glyph glyph-name="C" unicode="&#x26;" horiz-adv-x="1327" 
d="M768 109c-14 -4.66699 -36.667 -11.666 -68 -20.999c-32.667 -10.667 -70.667 -16 -114 -16c-57.333 0 -110 15.667 -158 47c-49.333 31.333 -74.666 86.666 -75.999 165.999c4 264.667 127.667 395.667 371 393h326l-70 -367c-4 -26 -9.66699 -55.333 -17 -88
c-6.66699 -32.667 -10 -55.667 -10 -69c0 -64.667 20.667 -110 62 -136c39.333 -27.333 91.666 -41 156.999 -41c44 2 87 7.66699 129 17l19 96c-27.333 -12 -55.333 -18 -84 -18c-46.667 0 -78.667 10.667 -96 32c-19.333 20.667 -29 47.334 -29 80.001
c0 42.667 9 96.667 27 162l63 332h238l18 94h-238l89 455v0l-170 -99l-70 -356h-305c-57.333 -2.66699 -116 7 -176 29c-27.333 12 -50 31 -68 57c-20.667 26 -31 62.333 -31 109c0 80 27.333 150.333 82 211c52 61.333 123.667 92.666 215 93.999
c52 -1.33301 94.333 -7 127 -17c16.667 -4 31 -8.66699 43 -14c12.667 -5.33301 21.667 -10 27 -14l20 108c-21.333 6.66699 -50 13.667 -86 21c-34 6.66699 -75.667 10 -125 10c-150 -2.66699 -266.667 -44.334 -350 -125.001c-84.667 -79.333 -127 -175.666 -127 -288.999
c0 -40.667 7.66699 -74 23 -100c13.333 -27.333 30.333 -49.333 51 -66c22 -16 43.333 -28 64 -36c18.667 -10 35 -17 49 -21v-4c-86 -22 -160.667 -69.667 -224 -143c-64 -75.333 -96.667 -180 -98 -314c0 -64 14.333 -115 43 -153c27.333 -38.667 61 -68 101 -88
c39.333 -20.667 80 -33.667 122 -39c42.667 -7.33301 78.334 -11 107.001 -11c65.333 2 130.666 10.333 195.999 25z" />
    <glyph glyph-name="D" unicode="'" horiz-adv-x="418" 
d="M340 973h117l120 440h-184z" />
    <glyph glyph-name="E" unicode="(" horiz-adv-x="569" 
d="M459 -289l18 90.001c-35.333 18 -64 49 -86 93c-23.333 42 -35 101.333 -35 178c7.33301 281.333 73.666 643.666 198.999 1087c13.333 44 28.333 84.333 45 121c16.667 35.333 34.334 67.333 53.001 96c38.667 56 88.667 91 150 105l16 90
c-94 -8.66699 -175.333 -43.667 -244 -105c-68 -61.333 -118.333 -139.666 -151 -234.999c-68 -202 -122 -415 -162 -639c-42 -226.667 -63 -384.334 -63 -473.001c1.33301 -229.333 88 -365.333 260 -408v0z" />
    <glyph glyph-name="F" unicode=")" horiz-adv-x="569" 
d="M0 -289c96.667 8.66699 178.667 44.3311 246 106.998c68 61.333 118.333 138.333 151 231c70 203.333 124.667 418.333 164 645c39.333 224 59 379.667 59 467c-1.33301 230.667 -88 367.334 -260 410.001v0l-16 -92c35.333 -15.333 64 -44 86 -86
c22 -42.667 33 -103.667 33 -183c-6.66699 -282.667 -72.334 -645.667 -197.001 -1089c-24.667 -83.333 -56 -153.666 -94 -210.999c-39.333 -58.667 -90.666 -95.667 -153.999 -111z" />
    <glyph glyph-name="G" unicode="*" horiz-adv-x="645" 
d="M389 868l94 109l45 61v0l19 -76l47 -133v0l102 35l-49 133l-31 76l78 -20l135 -27l21 96l-137 27l-78 12l55 57l94 109l-80 70v0l-94 -111l-47 -63v0l-22 77l-47 136v0l-103 -35l49 -135l33 -74l-78 20l-137 27l-20 -98l137 -27l82 -10l-56 -60l-92 -106z" />
    <glyph glyph-name="H" unicode="+" horiz-adv-x="1175" 
d="M614 0h140v436h401v125h-401v401h-140v-401h-401v-125h401v-436z" />
    <glyph glyph-name="I" unicode="," horiz-adv-x="418" 
d="M63 -252h134l163 455h-186z" />
    <glyph glyph-name="J" unicode="-" horiz-adv-x="833" 
d="M190 436h625l27 144h-623z" />
    <glyph glyph-name="K" unicode="." horiz-adv-x="418" 
d="M106 0h205l39 203h-205z" />
    <glyph glyph-name="L" unicode="/" horiz-adv-x="606" 
d="M-18 -278h145l747 1836h-147z" />
    <glyph glyph-name="M" unicode="0" 
d="M543 -23c112 2 204 35.001 276 99.001c74 61.333 130.667 139 170 233c42.667 96 72.667 195 90 297c15.333 102.667 23 195.667 23 279c-2.66699 289.333 -125 434.666 -367 435.999c-110.667 -1.33301 -201.334 -32 -272.001 -92c-74 -58.667 -132 -134.667 -174 -228
c-80.667 -199.333 -119.667 -388.333 -117 -567c-1.33301 -306 122.334 -458.333 371.001 -457v0zM346 405.001c0 53.333 6.33398 124.333 19.001 213c10.667 89.333 29 179 55 269c26 92.667 63.333 170.334 112 233.001c49.333 62.667 110.333 94.667 183 96
c80.667 -1.33301 136.667 -32 168 -92c30 -61.333 45 -138.333 45 -231c1.33301 -122.667 -23.334 -283 -74.001 -481c-28.667 -90.667 -66.334 -167.334 -113.001 -230.001c-47.333 -65.333 -108 -98.666 -182 -99.999c-87.333 1.33301 -145.333 34.666 -174 99.999
c-13.333 31.333 -23.666 66.333 -30.999 105c-5.33301 38 -8 77.333 -8 118v0z" />
    <glyph glyph-name="N" unicode="1" 
d="M717 1147l-223 -1147h167l254 1298h-139l-299 -170l-29 -141v0l269 160v0z" />
    <glyph glyph-name="O" unicode="2" 
d="M115 0l775.999 -0.00195312l24 121h-589v4l184 141c79.333 62.667 162 135.667 248 219c86 84.667 159 173.667 219 267c60 92.667 90.667 183.334 92 272.001c0 194 -110.667 293 -332 297c-140.667 -2.66699 -244.334 -37 -311.001 -103
c-68 -65.333 -107 -135.333 -117 -210h187c4 38 21 81.667 51 131c16 22.667 38.333 41.667 67 57c27.333 13.333 61.666 20 102.999 20c62.667 -1.33301 108.334 -21.666 137.001 -60.999c27.333 -38 41 -83 41 -135c-1.33301 -75.333 -34.666 -159.333 -99.999 -252
c-67.333 -94 -146.666 -187 -237.999 -279c-200.667 -192 -340 -314.667 -418 -368z" />
    <glyph glyph-name="P" unicode="3" 
d="M491 1036c6 40 23.333 79.668 52 119.001c27.333 39.333 76.333 59.666 147 60.999c49.333 0 92.333 -14.333 129 -43c36.667 -30 55.667 -82.333 57 -157c-1.33301 -86 -25 -154.333 -71 -205c-46.667 -52 -102 -78 -166 -78h-74l-20 -108
c61.333 1.33301 114.333 -11 159 -37c23.333 -14 41.333 -36.667 54 -68c12 -30 18 -71 18 -123c0 -84.667 -24 -157 -72 -217c-47.333 -64 -115.333 -96.667 -204 -98c-42.667 0 -75.667 8 -99 24c-24 15.333 -41 33.333 -51 54c-9.33301 21.333 -15.333 42.333 -18 63
s-4 36.334 -4 47.001h-193c0 -31.333 4.66699 -63.333 14 -96c8.66699 -35.333 24.667 -67.333 48 -96c24 -28.667 59.333 -52 106 -70c45.333 -18.667 105.333 -29 180 -31c308.667 7.33301 464.334 155 467.001 443c0 44.667 -5.33301 83.667 -16 117
c-12.667 30 -28.334 55 -47.001 75c-19.333 20.667 -40 35.667 -62 45c-23.333 10 -45 17 -65 21v4c84.667 12 154.334 48 209.001 108c53.333 60.667 80.666 142.667 81.999 246c0 82 -25.333 149.667 -76 203c-52 53.333 -137.333 80.666 -256 81.999
c-124.667 -1.33301 -221 -30 -289 -86c-69.333 -56 -110.333 -122.333 -123 -199h184z" />
    <glyph glyph-name="Q" unicode="4" 
d="M618 0h168l72 369h211l23 120h-211l157 809h-194l-668 -809l-22 -120h536zM827 1094l4 -5l-118 -600h-379z" />
    <glyph glyph-name="R" unicode="5" 
d="M594 1178h495l23 120h-637l-176 -727h154c16 26 39.667 51.333 71 76c32.667 22 76.334 33.667 131.001 35c127.333 -2.66699 192.333 -78.334 195 -227.001c0 -92 -23.333 -176 -70 -252c-47.333 -79.333 -124.333 -119.666 -231 -120.999
c-42.667 0 -75.334 8 -98.001 24c-24.667 15.333 -42 33.333 -52 54c-9.33301 21.333 -15.333 42.333 -18 63s-4 36.334 -4 47.001h-193c0 -32.667 5 -66 15 -100c9.33301 -35.333 26.333 -67.333 51 -96c26 -28.667 62 -51.334 108 -68.001
c46.667 -19.333 106.334 -29 179.001 -29c155.333 3.33301 275.333 52 360 146c83.333 90 125.666 200 126.999 330c-5.33301 222 -111 333 -317 333c-63.333 -1.33301 -113.333 -10 -150 -26c-18 -6.66699 -32.333 -13.667 -43 -21c-12 -8 -21 -14.667 -27 -20l-4 4z" />
    <glyph glyph-name="S" unicode="6" 
d="M1135 1030c0 80.667 -23.9971 148.997 -71.9971 204.997c-52 56 -141.333 84.667 -268 86c-122 -1.33301 -220.333 -41 -295 -119c-75.333 -76.667 -132.666 -170 -171.999 -280c-40 -109.333 -66.667 -216 -80 -320c-15.333 -104 -23 -184 -23 -240
c1.33301 -137.333 37 -236 107 -296c65.333 -59.333 148.666 -89 249.999 -89c151.333 3.33301 266 52 344 146c76 92.667 114 212.667 114 360c0 84.667 -26 154.334 -78 209.001c-52.667 56 -130.334 84.667 -233.001 86c-45.333 0 -84.333 -4 -117 -12
c-32.667 -10.667 -60.667 -23.667 -84 -39c-21.333 -13.333 -39.666 -27.666 -54.999 -42.999c-16.667 -16.667 -29.667 -31 -39 -43l-4 4c1.33301 56 28.666 161 81.999 315c26 70 61.333 129.667 106 179c45.333 50 101.333 75.667 168 77
c41.333 0 73.666 -6.66699 96.999 -20c21.333 -15.333 37 -33.666 47 -54.999c9.33301 -20.667 14.666 -40.667 15.999 -60c1.33301 -20 2 -37 2 -51h187zM399.003 312.997c0 98.667 23.334 183.332 70.001 253.999c43.333 72.667 106.666 110.334 189.999 113.001
c72.667 -1.33301 126 -25.333 160 -72c31.333 -46 47 -96.333 47 -151c0 -97.333 -20.333 -182.666 -61 -255.999c-44 -78 -115.667 -117.667 -215 -119c-57.333 1.33301 -103 26.666 -137 75.999c-36 46 -54 97.667 -54 155v0z" />
    <glyph glyph-name="T" unicode="7" 
d="M233 0h187l708 1178l21 120h-764l-23 -120h580z" />
    <glyph glyph-name="U" unicode="8" 
d="M532 -23c146.667 3.33301 258.667 46.3291 336 128.996c76.667 82 115 181 115 297c0 42.667 -6 80.334 -18 113.001c-12.667 31.333 -28.667 57.333 -48 78c-18.667 22 -38.334 39 -59.001 51c-23.333 12.667 -44.333 21 -63 25v4c32.667 8 66.667 21 102 39
c32.667 16 62.667 38.333 90 67c60 54.667 91.333 139.334 94 254.001c-1.33301 106.667 -35.333 181.667 -102 225c-66.667 42.667 -144 63.334 -232 62.001c-129.333 -1.33301 -233 -39 -311 -113c-79.333 -73.333 -119.666 -168.666 -120.999 -285.999
c1.33301 -72.667 19.333 -128 54 -166c16 -20.667 33.667 -37 53 -49c16 -12.667 33.667 -23 53 -31v-4c-36.667 -5.33301 -72.667 -16.333 -108 -33c-36 -18 -69 -42.667 -99 -74c-28.667 -30 -51.667 -68 -69 -114c-19.333 -46.667 -29 -102.667 -29 -168
c1.33301 -97.333 36 -172 104 -224c66 -52.667 152 -80 258 -82v0zM489 916.996c0 84.667 21.998 155.668 65.998 213.001c42 56 100 84.667 174 86c62.667 -1.33301 108.334 -20.333 137.001 -57c27.333 -36.667 41 -79 41 -127c0 -88.667 -19.667 -161.667 -59 -219
c-40 -58.667 -97.333 -88.667 -172 -90c-44 -1.33301 -85 13 -123 43c-41.333 27.333 -62.666 77.666 -63.999 150.999v0zM343.998 308.997c0 84.667 25.333 157 76 217c46 60 108.667 90.667 188 92c68.667 -1.33301 119.334 -21 152.001 -59
c32.667 -39.333 49 -90.666 49 -153.999c0 -84 -21.333 -157.667 -64 -221c-42 -66.667 -107.333 -100.667 -196 -102c-68.667 1.33301 -119.334 23.666 -152.001 66.999c-34 42.667 -51.667 96 -53 160v0z" />
    <glyph glyph-name="V" unicode="9" 
d="M172 268c-1.33301 -77.333 23.998 -144.001 75.998 -200.001c50.667 -58.667 139.334 -89 266.001 -91c122.667 3.33301 222.334 43.666 299.001 120.999c75.333 75.333 132 168.333 170 279c39.333 109.333 66 217.666 80 324.999c12 108 18 194 18 258
c-1.33301 128.667 -35.333 221.667 -102 279c-65.333 54.667 -150 82 -254 82c-152.667 -1.33301 -268 -49 -346 -143c-78 -93.333 -117 -214.333 -117 -363c0 -82 27.333 -151 82 -207c53.333 -57.333 131 -86.666 233 -87.999c48 0 89 5.66699 123 17
c33.333 10.667 60.666 22.667 81.999 36c22 15.333 41.333 31 58 47c13.333 15.333 24 28.333 32 39l4 -4c0 -56 -25 -160.333 -75 -313c-26 -69.333 -61.667 -128.666 -107 -177.999c-46 -53.333 -103.333 -80.666 -172 -81.999c-38 0 -68.667 8 -92 24
c-22 15.333 -38.333 33.333 -49 54c-9.33301 21.333 -14.666 42.333 -15.999 63c-3.33301 19.333 -5 34.333 -5 45h-188zM435.998 841.999c0 98 22.001 184.666 66.001 259.999c42 74.667 113.667 112.667 215 114c57.333 -1.33301 103.666 -25 138.999 -71
c34 -48 51 -100.667 51 -158c0 -98 -21.667 -182.667 -65 -254c-44 -75.333 -108.333 -113.666 -193 -114.999c-74.667 1.33301 -128.667 26 -162 74c-16 23.333 -28 48 -36 74c-10 26 -15 51.333 -15 76v0z" />
    <glyph glyph-name="W" unicode=":" horiz-adv-x="530" 
d="M221 0h205l39 203h-205zM371 772h204l39 203h-204z" />
    <glyph glyph-name="X" unicode=";" horiz-adv-x="530" 
d="M162 -252h133l164 455h-187zM373 772h204l39 203h-204z" />
    <glyph glyph-name="Y" unicode="&#x3c;" horiz-adv-x="1175" 
d="M1196 0v129l-805 350l805 352v129v0l-946 -413v-129z" />
    <glyph glyph-name="Z" unicode="=" horiz-adv-x="1175" 
d="M211 311h946v125h-946v-125zM211 561h946v125h-946v-125z" />
    <glyph glyph-name="bracketleft" unicode="&#x3e;" horiz-adv-x="1175" 
d="M227 0l946 418v129l-946 413v0v-129l805 -352l-805 -350v-129z" />
    <glyph glyph-name="backslash" unicode="?" horiz-adv-x="833" 
d="M326 383l130.996 -0.00292969l10 43c10.667 60 26.334 107.667 47.001 143c20.667 34 59.667 75.667 117 125l119 105c42 35.333 81.333 72 118 110c38.667 41.333 69.334 84.333 92.001 129c23.333 45.333 35 94 35 146
c-2.66699 96.667 -39.334 163.334 -110.001 200.001c-70 34.667 -148 52 -234 52c-108 -3.33301 -198 -17.666 -270 -42.999l-33 -170v0c28.667 18.667 69 39 121 61s110.667 33.667 176 35c58.667 -1.33301 102.334 -15 131.001 -41c28.667 -27.333 43 -61.666 43 -102.999
c-1.33301 -61.333 -23.666 -117 -66.999 -167c-44 -50.667 -88 -96 -132 -136c-86 -77.333 -148.667 -137.333 -188 -180c-39.333 -42 -64.666 -93.667 -75.999 -155zM218.996 -0.00292969h199l39 199h-199z" />
    <glyph glyph-name="bracketright" unicode="@" horiz-adv-x="2048" 
d="M1765 29l-50.999 -39.0029c-28.667 -22 -68.334 -46 -119.001 -72c-48.667 -26 -109.334 -48.333 -182.001 -67c-70.667 -19.333 -153.334 -29.666 -248.001 -30.999c-221.333 2.66699 -394.666 59.334 -519.999 170.001c-126.667 108 -190.667 247.333 -192 418
c4 211.333 85.667 397 245 557c154.667 162 335 245 541 249c174.667 -1.33301 324 -49.666 448 -144.999c124.667 -98 188.334 -236 191.001 -414c-4 -174.667 -53.333 -309 -148 -403c-91.333 -97.333 -179.333 -146 -264 -146c-42 2 -62.333 20.667 -61 56
c1.33301 26 17 75 47 147l78 201l170 424h-176l-45 -111v0c-8.66699 24.667 -30 55.334 -64 92.001c-18 18 -41.333 32.333 -70 43c-28.667 11.333 -64 17 -106 17c-65.333 -1.33301 -129.666 -22 -192.999 -62c-64 -39.333 -120.667 -92.333 -170 -159
c-107.333 -140.667 -162.333 -290.334 -165 -449.001c1.33301 -95.333 27.666 -167.666 78.999 -216.999c52 -50.667 115.667 -76 191 -76c39.333 0 74 6.33301 104 19c31.333 10.667 58 23.667 80 39c23.333 14.667 42 29.667 56 45c12 13.333 20.667 23.333 26 30
c0 -27.333 9 -57.333 27 -90c18.667 -35.333 59.667 -53.666 123 -54.999c148.667 1.33301 280.334 64.666 395.001 189.999c117.333 122 177.333 277 180 465c-2.66699 199.333 -73.667 359.333 -213 480c-138 121.333 -314 182.666 -528 183.999
c-252.667 -4 -467 -95 -643 -273c-179.333 -176 -271 -389.667 -275 -641c2.66699 -202 82.667 -364.333 240 -487c154 -125.333 355.333 -188.666 604 -189.999c177.333 4 324.666 38.667 441.999 104c58.667 30 106.667 58.667 144 86c38 27.333 63 48.666 75 63.999z
M872.001 232.997c2.66699 113.333 48.0039 248.667 136.004 406c39.333 72 83.666 132.667 132.999 182c47.333 48 95.666 72.667 144.999 74c42.667 -1.33301 74 -15 94 -41c20.667 -26 31 -56 31 -90s-13.667 -99.667 -41 -197c-28.667 -98 -72.334 -197 -131.001 -297
c-15.333 -30 -40 -65.333 -74 -106c-17.333 -19.333 -38.333 -35 -63 -47c-24.667 -14 -53.334 -21 -86.001 -21c-41.333 0 -75 11 -101 33c-28.667 22 -43 56.667 -43 104v0z" />
    <glyph glyph-name="asciicircum" unicode="A" horiz-adv-x="1175" 
d="M18 0h154l233 451h510l66 -451h176l-201 1413h-188zM819 1253h4l78 -696h-440z" />
    <glyph glyph-name="underscore" unicode="B" horiz-adv-x="1100" 
d="M168 0l287 0.000976562c61.333 0 128 4 200 12c71.333 10 139 28.667 203 56c65.333 30 119.333 75 162 135c40.667 60 61.667 141.667 63 245c0 54.667 -8.66699 100.667 -26 138c-18 36.667 -40.667 66 -68 88c-26 23.333 -52 39.666 -78 48.999
c-27.333 9.33301 -50.333 16 -69 20v4c77.333 3.33301 146.333 34.333 207 93c62.667 57.333 94.667 146 96 266c0 74.667 -13 133.334 -39 176.001c-27.333 42 -63 72 -107 90c-43.333 19.333 -92.333 31.666 -147 36.999c-54.667 2.66699 -110 4 -166 4h-244zM590 1307h88
c39.333 0 77.666 -1 114.999 -3c35.333 -2.66699 68 -10.667 98 -24c28.667 -12.667 52.334 -34 71.001 -64c16.667 -30 25 -71.333 25 -124c0 -62 -11.667 -112 -35 -150c-24.667 -39.333 -56.667 -70 -96 -92c-39.333 -20.667 -81 -35 -125 -43
c-43.333 -8 -86.333 -12 -129 -12h-111zM471 688.001h88.001c48 0 93 -1.33301 135 -4c41.333 -5.33301 78.333 -16.333 111 -33c32.667 -16 58.667 -40.667 78 -74c17.333 -34 26 -78.333 26 -133c0 -68 -13 -124.667 -39 -170c-24.667 -44.667 -58 -79.334 -100 -104.001
c-40.667 -23.333 -86.334 -39.666 -137.001 -48.999c-52 -10 -104 -15 -156 -15h-119z" />
    <glyph glyph-name="grave" unicode="C" horiz-adv-x="1100" 
d="M1075 231c-40.667 -26 -88.3311 -52.3359 -142.998 -79.0029c-54.667 -30.667 -117 -46 -187 -46c-100.667 -1.33301 -181.667 31 -243 97c-62.667 65.333 -94 175 -94 329c0 74 7.33301 156 22 246c14 90 38 176.667 72 260c35.333 84.667 82.333 154.334 141 209.001
s131.667 82.667 219 84c78 -1.33301 135.333 -23 172 -65c34 -42.667 51 -94 51 -154c0 -28.667 -3.33301 -56 -10 -82h197c4 26 6.66699 51.333 8 76c-1.33301 100.667 -37 180.334 -107 239.001c-69.333 58.667 -161.333 89 -276 91
c-132.667 -2 -241.334 -33 -326.001 -93c-87.333 -61.333 -155.333 -139.666 -204 -234.999c-48 -94 -82.333 -193.667 -103 -299c-22 -106.667 -32.333 -207 -31 -301c-6.66699 -345.333 151.333 -522.333 474 -531c73.333 2 138.666 12.333 195.999 31
c57.333 18 104.333 37.333 141 58z" />
    <glyph glyph-name="a" unicode="D" horiz-adv-x="1214" 
d="M596 1307h59c156 1.33301 268 -24 336 -76c67.333 -54.667 101 -155 101 -301c1.33301 -200.667 -35.667 -385 -111 -553c-39.333 -80.667 -94 -145.667 -164 -195c-70.667 -50.667 -158 -76 -262 -76h-193zM174 0h383.001c131.333 0 242.666 28 333.999 84
c90 52 162.333 121.667 217 209c106.667 182.667 159.334 384 158.001 604c0 116 -13.667 209.667 -41 281c-28.667 68 -70.334 119 -125.001 153c-53.333 34 -117 56.667 -191 68c-74.667 9.33301 -158.667 14 -252 14h-209z" />
    <glyph glyph-name="b" unicode="E" horiz-adv-x="948" 
d="M172 0h704l23 117h-534l102 532h489l23 117h-490l105 530h516l22 117h-686z" />
    <glyph glyph-name="c" unicode="F" horiz-adv-x="872" 
d="M172 0h170l133 680h487l23 117h-487l96 499h516l22 117h-686z" />
    <glyph glyph-name="d" unicode="G" horiz-adv-x="1251" 
d="M1261 799l-495.001 -0.000976562l-23 -117h330l-100 -510c-23.333 -18 -55.666 -37 -96.999 -57c-40.667 -22 -86.334 -33 -137.001 -33c-102 -1.33301 -182.333 32 -241 100c-63.333 68.667 -95 181.334 -95 338.001c0 160 38.333 331.333 115 514
c38 86 88 156.333 150 211c60 56 129.333 84.667 208 86c90.667 -1.33301 155.667 -23 195 -65c39.333 -42.667 59 -94 59 -154c0 -28.667 -2.66699 -56 -8 -82h197c4 26 6.66699 51.333 8 76c-1.33301 100.667 -39.666 180.334 -114.999 239.001
c-74.667 58.667 -175 89 -301 91c-134.667 -2 -246 -33 -334 -93c-90 -61.333 -160 -140.333 -210 -237c-50.667 -96 -85.667 -197 -105 -303c-22 -109.333 -33 -211 -33 -305c-8 -338.667 149 -512.334 471 -521.001c96 2 180.667 15.667 254 41
c75.333 26 133.333 55.333 174 88z" />
    <glyph glyph-name="e" unicode="H" horiz-adv-x="1251" 
d="M174 0h170l131 674h565l-131 -674h170l275 1413h-170l-121 -623h-565l120 623h-170z" />
    <glyph glyph-name="f" unicode="I" horiz-adv-x="530" 
d="M180 0h170l275 1413h-170z" />
    <glyph glyph-name="g" unicode="J" horiz-adv-x="721" 
d="M840 1413h-169.999l-193 -983c-8 -42 -16.667 -83 -26 -123c-4.66699 -20.667 -10.334 -39.667 -17.001 -57c-5.33301 -18 -13.333 -35 -24 -51c-18 -31.333 -42 -56.666 -72 -75.999s-69.667 -29 -119 -29c-46.667 0 -85.667 11 -117 33
c-30 19.333 -53 35.666 -69 48.999l-33 -170l82 -14c38 -8 81.667 -13 131 -15c87.333 2 158.333 16.333 213 43c52 27.333 93 63 123 107c30 43.333 51.667 92.333 65 147c14 52 25.667 104 35 156z" />
    <glyph glyph-name="h" unicode="K" horiz-adv-x="1100" 
d="M174 0h170l133 690v0l414 -690h201l-451 756l672 657h-172l-641 -633l-4 4l122 629h-170z" />
    <glyph glyph-name="i" unicode="L" horiz-adv-x="833" 
d="M174 0h666l24 117h-497l251 1296h-170z" />
    <glyph glyph-name="j" unicode="M" horiz-adv-x="1630" 
d="M176 0h135l242 1261h4l174 -1261h150l661 1270l4 -4l-246 -1266h158l274 1413h-237l-635 -1212h-4l-166 1212h-239z" />
    <glyph glyph-name="k" unicode="N" horiz-adv-x="1290" 
d="M178 0h146l231 1212h4l358 -1212h199l277 1413h-148l-233 -1204h-4l-357 1204h-200z" />
    <glyph glyph-name="l" unicode="O" horiz-adv-x="1251" 
d="M661 -23c113.333 2 211.003 32.334 293.003 91.001c82 57.333 149.667 133 203 227c102.667 199.333 154 415.666 154 648.999c0 140.667 -32.333 257.334 -97 350.001c-66.667 92.667 -179.334 140 -338.001 142c-125.333 -2 -231 -36.333 -317 -103
c-84.667 -65.333 -152.334 -149.333 -203.001 -252c-48.667 -102 -83.334 -207.667 -104.001 -317c-22 -109.333 -33 -207 -33 -293c6.66699 -330.667 154 -495.334 442 -494.001v0zM393.003 467.001c0 62.667 7.66699 141 23 235c13.333 96 37 191 71 285
c34.667 96.667 82.667 178 144 244c60 65.333 135.667 98.666 227 99.999c181.333 -2.66699 274.333 -127 279 -373c0 -60 -5.66699 -137 -17 -231c-13.333 -96.667 -37 -194.334 -71 -293.001c-34.667 -96.667 -82 -178.667 -142 -246
c-61.333 -69.333 -139 -104.666 -233 -105.999c-83.333 -1.33301 -150.333 27.334 -201 86.001c-52 57.333 -78.667 157 -80 299v0z" />
    <glyph glyph-name="m" unicode="P" 
d="M172 0h170.001l123 643h110c66 -1.33301 134.333 2.66699 205 12c71.333 10 137.666 28.667 198.999 56c62.667 28.667 113 72.334 151 131.001c38.667 58.667 58.667 137.667 60 237c-1.33301 131.333 -44.333 220.666 -129 267.999c-86 45.333 -198 67.333 -336 66
h-279zM594.001 1307h74.0029c35.333 0 72.666 -1 111.999 -3c40 -2.66699 77.667 -10.667 113 -24c35.333 -14 64.666 -36 87.999 -66s35 -73 35 -129c0 -76 -12.333 -136.667 -37 -182c-24.667 -46.667 -59 -80.667 -103 -102c-40.667 -22 -88.334 -35.667 -143.001 -41
c-54.667 -6.66699 -112 -10 -172 -10h-76z" />
    <glyph glyph-name="n" unicode="Q" horiz-adv-x="1251" 
d="M1233 0l31.001 159.997v0c-90.667 -48 -193.334 -72 -308.001 -72l-4 4c230.667 124.667 349 401.334 355 830.001c1.33301 152.667 -31.667 276 -99 370c-69.333 94 -185.333 142 -348 144c-117.333 -2 -217 -32.333 -299 -91
c-82 -61.333 -147.333 -139.666 -196 -234.999c-48 -95.333 -83 -197.666 -105 -306.999c-22 -110.667 -33 -216 -33 -316c1.33301 -181.333 45 -308.333 131 -381c84.667 -72 192.667 -107.333 324 -106h551zM401.001 468.997c0 53.333 5.66895 126.33 17.002 218.997
c12 94 33.667 189.667 65 287c32.667 99.333 79.334 183.333 140.001 252c61.333 68 139.666 102.667 234.999 104c60 0 109 -11.667 147 -35c37.333 -23.333 64.666 -54.666 81.999 -93.999c19.333 -38 31.666 -81 36.999 -129s8 -96.333 8 -145
c2 -178 -31.333 -355.667 -100 -533c-35.333 -83.333 -81.666 -151.666 -138.999 -204.999c-58.667 -56 -130.334 -84.667 -215.001 -86c-56 0 -102.333 13 -139 39c-36 23.333 -64 53.333 -84 90c-19.333 38.667 -33 78.334 -41 119.001
c-8.66699 42.667 -13 81.667 -13 117v0z" />
    <glyph glyph-name="o" unicode="R" horiz-adv-x="1100" 
d="M590 1307l87.999 -0.00195312c39.333 0 79 -1 119 -3c38 -4 72.667 -12.667 104 -26c32.667 -14 59.334 -36.667 80.001 -68c19.333 -31.333 29 -75.666 29 -132.999c0 -66.667 -15 -122 -45 -166c-32 -43.333 -71 -77.333 -117 -102
c-46.667 -23.333 -94.667 -39.666 -144 -48.999c-50 -10 -95 -15 -135 -15h-86zM169.999 -0.00195312l170.002 -0.00195312l123 639h43c39.333 0 74 -0.666992 104 -2c31.333 -4 58 -8.66699 80 -14c44 -12.667 76.667 -32 98 -58
c37.333 -50.667 54.666 -142.667 51.999 -276v-289h170v356c1.33301 104 -11.667 184.667 -39 242c-28.667 54.667 -87.334 88.667 -176.001 102v4l55 11c20.667 4 41 9.33301 61 16c44 12.667 87 33.334 129 62.001c42.667 28.667 77.667 67.334 105 116.001
c26 49.333 39 110.333 39 183c-1.33301 125.333 -44.333 211.333 -129 258c-86 43.333 -199.333 64.333 -340 63h-271z" />
    <glyph glyph-name="p" unicode="S" horiz-adv-x="985" 
d="M1100 1397c-20.667 5.33301 -62.332 13.334 -124.999 24.001c-62.667 10 -134.334 15 -215.001 15c-124.667 0 -233.334 -32.333 -326.001 -97c-95.333 -64 -143.666 -166.333 -144.999 -307c0 -44.667 8.66699 -84.334 26 -119.001
c15.333 -35.333 35.333 -67.333 60 -96s52.667 -54 84 -76c31.333 -22.667 63.333 -44.334 96 -65.001c35.333 -19.333 68.666 -39.333 99.999 -60c31.333 -20 59.333 -41 84 -63s44.667 -47.333 60 -76c14.667 -30 22 -63.333 22 -100c0 -72.667 -29.333 -137 -88 -193
c-57.333 -58.667 -140 -88.667 -248 -90c-78.667 0 -146.667 13.667 -204 41c-57.333 24.667 -106 50.667 -146 78v0l-33 -178c24.667 -10 65.667 -21.667 123 -35c54.667 -13.333 127 -21 217 -23c362 8.66699 546.333 154.334 553 437.001
c-1.33301 102 -28.666 183 -81.999 243c-51.333 58.667 -112.666 106.667 -183.999 144l-96 61c-31.333 19.333 -59.333 39.333 -84 60c-24.667 21.333 -44.667 45 -60 71c-17.333 26 -26 55.333 -26 88c1.33301 79.333 29.333 139.333 84 180c53.333 38.667 120 58 200 58
c71.333 -1.33301 135.666 -11 192.999 -29c56 -20.667 99 -39.667 129 -57z" />
    <glyph glyph-name="q" unicode="T" horiz-adv-x="833" 
d="M332 0h170l252 1296h331l23 117h-834l-22 -117h332z" />
    <glyph glyph-name="r" unicode="U" horiz-adv-x="1251" 
d="M1366 1413l-169.998 -0.000976562l-172 -885c-9.33301 -56 -20.333 -109.667 -33 -161c-13.333 -52 -32.333 -100 -57 -144c-24.667 -40.667 -58.334 -74 -101.001 -100c-42 -27.333 -97 -41 -165 -41c-48 0 -88.333 7.33301 -121 22
c-32.667 15.333 -59.334 34 -80.001 56c-18 23.333 -31 50.666 -39 81.999c-9.33301 28.667 -14 59.334 -14 92.001c0 65.333 6.66699 130 20 194l172 885h-170l-172 -885c-17.333 -72 -26 -144.333 -26 -217c1.33301 -113.333 41.333 -197.333 120 -252
c76.667 -54.667 174.334 -82 293.001 -82c108 2 196 20.667 264 56c67.333 34 118.666 78.333 153.999 133c38 56 66 116 84 180c18 62.667 31.667 123.334 41 182.001z" />
    <glyph glyph-name="s" unicode="V" horiz-adv-x="1063" 
d="M434 0h195l743 1413h-156l-630 -1233h-4l-164 1233h-180z" />
    <glyph glyph-name="t" unicode="W" horiz-adv-x="1669" 
d="M317 0h189l553 1184h4l102 -1184h187l532 1413h-141l-441 -1202h-4l-108 1202h-146l-571 -1210l-4 4l22 1206h-165z" />
    <glyph glyph-name="u" unicode="X" horiz-adv-x="1063" 
d="M0 0h166l467 590v0l231 -590h189l-291 743l526 670h-166l-418 -532v0l-204 532h-189l269 -684z" />
    <glyph glyph-name="v" unicode="Y" 
d="M420 0h170l125 653l596 760h-162l-473 -604v0l-225 604h-187l283 -760z" />
    <glyph glyph-name="w" unicode="Z" horiz-adv-x="985" 
d="M49 0h932l24 117h-733l889 1179l33 117h-836l-22 -117h624l-888 -1179z" />
    <glyph glyph-name="x" unicode="[" horiz-adv-x="606" 
d="M145 -278h371l23 116h-217l311 1604h215l24 116h-368z" />
    <glyph glyph-name="y" unicode="\" horiz-adv-x="606" 
d="M504 -278h145l-336 1836h-147z" />
    <glyph glyph-name="z" unicode="]" horiz-adv-x="606" 
d="M-16 -278h370l357 1836h-371l-23 -116h217l-311 -1604h-219z" />
    <glyph glyph-name="braceleft" unicode="^" horiz-adv-x="758" 
d="M305 1089h125l133 215v0l129 -215h125l-194 324h-123z" />
    <glyph glyph-name="bar" unicode="_" 
d="M0 -256h1024v102h-1024v-102z" />
    <glyph glyph-name="braceright" unicode="`" horiz-adv-x="614" 
d="M453 1145h127l-33 274h-178z" />
    <glyph glyph-name="asciitilde" unicode="a" 
d="M713 0h150.997l187 975h-152l-27 -158h-4c-4 12.667 -10.667 29 -20 49c-10 19.333 -25 39.333 -45 60c-20.667 21.333 -46 38.333 -76 51c-31.333 13.333 -69.666 20 -114.999 20c-77.333 -1.33301 -143.333 -21.666 -198 -60.999
c-54.667 -41.333 -99.667 -95.333 -135 -162c-68.667 -140.667 -103 -290 -103 -448c-1.33301 -98.667 19.334 -180.667 62.001 -246c42 -66.667 111.333 -101 208 -103c45.333 0 84.333 7.66699 117 23c32.667 13.333 61.334 29.666 86.001 48.999
c24.667 22 44.667 43.333 60 64c13.333 20 24 38.333 32 55l4 -4zM343.997 336c0 116 23.334 237.333 70.001 364c22.667 58.667 52.667 107.334 90 146.001c34 38 75.667 57 125 57c38 0 69.333 -9.66699 94 -29c24.667 -18.667 43 -43 55 -73
c14 -28.667 23.667 -58 29 -88c2.66699 -31.333 4 -58.666 4 -81.999c0 -37.333 -3.33301 -86 -10 -146c-10 -61.333 -27 -123.333 -51 -186c-22 -62.667 -53.667 -115.334 -95 -158.001c-42 -46 -94.333 -69 -157 -69c-31.333 0 -57.333 8.66699 -78 26
c-20.667 16.667 -36.334 38.667 -47.001 66c-10 27.333 -17 56.666 -21 87.999c-5.33301 28.667 -8 56.667 -8 84v0z" />
    <glyph glyph-name="Adieresis" unicode="b" 
d="M563 1413l-151.003 0.00195312l-164 -858c-23.333 -95.333 -35.666 -185.333 -36.999 -270s22.667 -155.667 72 -213c48.667 -61.333 135.334 -93 260.001 -95c168 4.66699 292.667 73 374 205c82 130 123 281.667 123 455c0 105.333 -26 191.333 -78 258
c-51.333 66.667 -125.666 100.667 -222.999 102c-42 0 -78.667 -6 -110 -18c-32.667 -12.667 -60 -28.334 -82 -47.001c-22 -19.333 -40.667 -39.333 -56 -60c-16 -22.667 -28.667 -42.334 -38 -59.001l-5 4zM368.997 291.002c0 124 26.335 254.334 79.002 391.001
c27.333 64 61.666 117.333 102.999 160c40.667 39.333 89 59.666 145 60.999c37.333 0 67.333 -8 90 -24c23.333 -16.667 41.333 -38.667 54 -66c21.333 -57.333 32 -119.333 32 -186c0 -113.333 -23.667 -231.666 -71 -354.999c-24.667 -56 -58.334 -103 -101.001 -141
c-42 -39.333 -94.333 -59 -157 -59c-64.667 1.33301 -109.667 25.666 -135 72.999c-14 23.333 -23.667 48 -29 74c-6.66699 24.667 -10 48.667 -10 72v0z" />
    <glyph glyph-name="Aring" unicode="c" horiz-adv-x="872" 
d="M829 106c-57.333 -21.333 -115.333 -32.668 -174 -34.001c-57.333 0 -105 10.667 -143 32c-38 20.667 -68.667 48.667 -92 84c-45.333 71.333 -67.333 154 -66 248c0 132.667 28 243.334 84 332.001c53.333 88.667 122.333 133.667 207 135
c60 -1.33301 99.667 -17.666 119 -48.999c17.333 -31.333 25.333 -65.333 24 -102c-1.33301 -27.333 -4.66602 -53.333 -9.99902 -78h178c6 27.333 9 55.333 9 84c-3.33301 154 -103 233.667 -299 239c-157.333 -2.66699 -276.333 -63.334 -357 -182.001
c-82 -117.333 -123 -261.333 -123 -432c1.33301 -270.667 138.666 -406 411.999 -406c72.667 2 143.667 12.333 213 31z" />
    <glyph glyph-name="Ccedilla" unicode="d" 
d="M713 0h151l275 1413h-152l-113 -596h-4c-4 12.667 -10.667 29 -20 49c-9.33301 19.333 -24.333 39.333 -45 60c-20.667 21.333 -46 38.333 -76 51c-30 13.333 -69 20 -117 20c-77.333 -1.33301 -143.333 -21.666 -198 -60.999c-54.667 -41.333 -99.667 -95.333 -135 -162
c-71.333 -140.667 -106.333 -290 -105 -448c-1.33301 -98.667 20 -180.667 64 -246c42 -66.667 111.333 -101 208 -103c45.333 0 85 7.66699 119 23c32.667 13.333 60.667 29.666 84 48.999c24.667 22 44.667 43.333 60 64c13.333 20 24 38.333 32 55l4 -4zM342 338
c0 117.333 23.335 238 70.002 362c22.667 58.667 52.667 107.334 90 146.001c35.333 38 77.666 57 126.999 57c38 0 69.333 -9.66699 94 -29c24.667 -18.667 43 -42.334 55 -71.001c14 -28.667 23.667 -58 29 -88c2.66699 -31.333 4 -59.333 4 -84
c0 -38.667 -3.33301 -88 -10 -148c-10 -61.333 -27 -123.333 -51 -186c-22 -62.667 -53.667 -115.334 -95 -158.001c-42 -43.333 -94.333 -65.666 -157 -66.999c-33.333 0 -60 8.66699 -80 26c-20.667 16.667 -36.334 38.667 -47.001 66c-10 27.333 -17 56 -21 86
c-5.33301 30 -8 59.333 -8 88v0z" />
    <glyph glyph-name="Eacute" unicode="e" horiz-adv-x="909" 
d="M825 106c-53.333 -22.667 -108.666 -33.999 -165.999 -33.999c-198 4 -299.667 131.667 -305 383c0 48.667 5 97 15 145h573c6.66699 35.333 10 71.666 10 108.999c-2.66699 189.333 -105 285.333 -307 288c-152.667 -2.66699 -267.334 -62 -344.001 -178
s-115 -256.667 -115 -422c1.33301 -160.667 41 -271 119 -331c36.667 -32 79 -54.667 127 -68c46.667 -14 96.667 -21 150 -21c76 2 152.333 15 229 39zM389 694.001c8 38.667 29.999 82.334 65.999 131.001c17.333 23.333 40.333 42.666 69 57.999
c28.667 13.333 64.334 20 107.001 20c54.667 -1.33301 97.667 -17 129 -47c30 -30 45 -67.667 45 -113c-2.66699 -16 -4 -32.333 -4 -49h-412z" />
    <glyph glyph-name="Ntilde" unicode="f" horiz-adv-x="682" 
d="M242 0h151.001l170 881h281l18 94h-280l8 47l18 96c5.33301 35.333 15 70.333 29 105c14.667 34 37 62.667 67 86c30.667 21.333 71.667 32 123 32c42.667 -1.33301 77 -7.33301 103 -18c26 -14 45.667 -26.333 59 -37l21 109c-22 9.33301 -55.667 18 -101 26
c-44.667 10 -90.334 15 -137.001 15c-62.667 -2 -114.667 -16.333 -156 -43c-39.333 -30.667 -71.333 -67.667 -96 -111c-12 -20.667 -22.333 -42.667 -31 -66c-8 -22.667 -15.333 -45.667 -22 -69l-29 -129l-8 -43h-174l-18 -94h174z" />
    <glyph glyph-name="Odieresis" unicode="g" 
d="M1051 975l-151.997 -0.000976562l-31 -164h-4c-2.66699 14.667 -8 32.334 -16 53.001c-10 20.667 -23 41.334 -39 62.001c-16.667 21.333 -38.667 38.333 -66 51c-28.667 13.333 -63.334 20 -104.001 20c-174.667 -4 -295.667 -76.333 -363 -217
c-34 -64 -58.333 -135.667 -73 -215c-16.667 -79.333 -25 -157 -25 -233c0 -94.667 24 -172.667 72 -234c46 -64 109.333 -96.667 190 -98c94.667 1.33301 163.667 21 207 59c22 18 41 37.333 57 58c15.333 20 27.666 40.333 36.999 61l4 -4l-28 -145
c-2.66699 -30 -10.334 -65 -23.001 -105c-12 -39.333 -29 -79 -51 -119c-22 -39.333 -52 -72 -90 -98c-39.333 -26 -90 -39.667 -152 -41c-69.333 1.33301 -124.333 12.333 -165 33c-41.333 19.333 -79 44 -113 74v0l-33 -168c41.333 -12.667 81.666 -23 120.999 -31
c38 -8 96 -12 174 -12c98 1.33301 177.333 17.666 238 48.999c61.333 30 107.666 69 138.999 117c32.667 47.333 56.334 98.333 71.001 153c16.667 52 28.334 101.333 35.001 148zM346.003 359.999c0 50.667 5.33301 106.671 16 168.004c11.333 61.333 28 120 50 176
c24 57.333 56 105.333 96 144c38 35.333 85.667 53.666 143 54.999c35.333 0 64 -9.66699 86 -29c20.667 -20 37 -45.667 49 -77c12.667 -31.333 21 -65 25 -101c2.66699 -36.667 4 -72.667 4 -108c0 -34 -4.66699 -77.667 -14 -131
c-12.667 -54.667 -32 -109.334 -58 -164.001c-24 -54.667 -56.667 -100.334 -98 -137.001c-40.667 -40 -89.667 -60.667 -147 -62c-57.333 1.33301 -97 30.666 -119 87.999c-23.333 54.667 -34.333 114 -33 178v0z" />
    <glyph glyph-name="Udieresis" unicode="h" horiz-adv-x="1063" 
d="M168 0l151.001 -0.000976562l84 432c6 28.667 17 67 33 115c16.667 47.333 39.334 96.333 68.001 147s64.667 93 108 127c42.667 32.667 92.667 49.667 150 51c38 0 67.333 -11.333 88 -34c19.333 -24.667 29 -57.667 29 -99c-2 -46 -8.33301 -92.333 -19 -139l-117 -600
h152l131 674c6.66699 39.333 10 78 10 116c0 54.667 -17 102.667 -51 144c-36.667 40.667 -92 61.667 -166 63c-46 0 -89 -8.66699 -129 -26c-39.333 -19.333 -73.333 -42.666 -102 -69.999s-53.334 -56 -74.001 -86c-20.667 -28.667 -36.334 -54 -47.001 -76l-4 4l131 670
h-152z" />
    <glyph glyph-name="aacute" unicode="i" horiz-adv-x="494" 
d="M170 0h152l190 975h-152zM393 1229h184l35 184h-182z" />
    <glyph glyph-name="agrave" unicode="j" horiz-adv-x="494" 
d="M520 975l-151.001 0.00292969l-189 -975c-5.33301 -36.667 -13.333 -74.334 -24 -113.001c-10 -39.333 -23 -75.333 -39 -108c-16.667 -32.667 -38 -59.334 -64 -80.001s-60.667 -31.667 -104 -33c-34 0 -66.667 6.33301 -98 19l-25 -121
c40.667 -1.33301 81.667 -2 123 -2c74.667 1.33301 135.334 15.666 182.001 42.999c46.667 26 83 60.667 109 104c26 44 45.667 91.333 59 142c13.333 50 24.333 99.667 33 149zM402.999 1229h185l35 184h-185z" />
    <glyph glyph-name="acircumflex" unicode="k" horiz-adv-x="909" 
d="M164 0h151l99 506v0l297 -506h186l-320 543l463 432h-166l-448 -424l-4 4l168 858h-152z" />
    <glyph glyph-name="adieresis" unicode="l" horiz-adv-x="494" 
d="M172 0h152l274 1413h-152z" />
    <glyph glyph-name="atilde" unicode="m" horiz-adv-x="1554" 
d="M164 0l151 -0.000976562l84 430c14 83.333 48.333 175.666 103 276.999c27.333 47.333 60 86.666 98 117.999c38 30 81.667 45.667 131 47c34 0 60.667 -11.333 80 -34c19.333 -23.333 29 -52.666 29 -87.999c-1.33301 -46.667 -8.33301 -94 -21 -142l-119 -608h152
l84 430c6.66699 26 17 63 31 111c13.333 47.333 33 96.333 59 147c27.333 50.667 60 94.334 98 131.001c38.667 34 84.334 51.667 137.001 53c36 0 64 -10 84 -30c19.333 -20.667 29 -48.667 29 -84c0 -48 -6 -94.667 -18 -140l-119 -618h151l132 676
c8 43.333 12 86.333 12 129c-1.33301 62.667 -21.333 110.334 -60 143.001c-38 32.667 -83 49 -135 49c-44.667 0 -85.667 -8.66699 -123 -26c-38 -16.667 -71.333 -38 -100 -64c-28.667 -24.667 -52 -50 -70 -76c-20 -24 -34.333 -45.667 -43 -65h-4v37
c0 38 -14.333 79.667 -43 125c-14.667 21.333 -34.334 38.333 -59.001 51c-24.667 12 -54 18 -88 18c-49.333 0 -92.333 -8.66699 -129 -26c-38.667 -18 -72.334 -40.667 -101.001 -68c-25.333 -24.667 -47.666 -50 -66.999 -76l-43 -67l-4 4l43 211h-152z" />
    <glyph glyph-name="aring" unicode="n" horiz-adv-x="1063" 
d="M168 0l151.001 -0.000976562l82 432c7.33301 28.667 19 67 35 115c16.667 47.333 39.334 96.333 68.001 147s64.667 93 108 127c42.667 32.667 92.667 49.667 150 51c38 0 67.333 -11.333 88 -34c19.333 -24.667 29 -57.667 29 -99c-2 -46 -8.33301 -92.333 -19 -139
l-117 -600h152l131 674c6.66699 39.333 10 78 10 116c0 54.667 -17 102.667 -51 144c-36.667 40.667 -92 61.667 -166 63c-46 0 -89 -8.66699 -129 -26c-39.333 -19.333 -73.333 -42.666 -102 -69.999s-53.334 -56 -74.001 -86c-20.667 -28.667 -36.334 -54 -47.001 -76
l-4 4l45 232h-152z" />
    <glyph glyph-name="ccedilla" unicode="o" 
d="M528 -23c179.333 4.66699 309.666 72.334 390.999 203.001c79.333 127.333 119 276.333 119 447c1.33301 241.333 -116 364.666 -352 369.999c-177.333 -4 -306.333 -70.667 -387 -200c-80.667 -127.333 -121 -274.333 -121 -441c0 -110.667 28 -200.667 84 -270
c54.667 -70.667 143.334 -107 266.001 -109v0zM346 348c0 132.667 26.001 257.003 78.001 373.003c27.333 54.667 61.333 99 102 133c40 31.333 87.333 47.666 142 48.999c133.333 -2.66699 200.666 -85.334 201.999 -248.001c0 -129.333 -24.333 -256.333 -73 -381
c-26 -58.667 -59.667 -106.334 -101 -143.001c-40.667 -39.333 -89.667 -59 -147 -59c-74 1.33301 -126 28 -156 80c-31.333 50 -47 115.333 -47 196v0z" />
    <glyph glyph-name="eacute" unicode="p" 
d="M78 -438l151 0.00195312l113 596h4c6.66699 -11.333 15 -26.333 25 -45c10.667 -20.667 25 -41.334 43 -62.001c20 -18.667 45 -35 75 -49c30 -14.667 67.667 -23 113 -25c80.667 2 148.334 24 203.001 66c56 39.333 101 92.666 135 159.999
c66.667 140.667 100 289.334 100 446.001c0 100 -20.333 182.667 -61 248c-41.333 65.333 -111.666 98.666 -210.999 99.999c-42.667 0 -80.334 -6 -113.001 -18c-32.667 -12.667 -61.334 -29.667 -86.001 -51c-21.333 -19.333 -40.333 -40 -57 -62
c-16.667 -23.333 -29 -43 -37 -59l-4 4l33 164h-152zM403 344.002c0 40.667 5.00098 91.333 15.001 152c10.667 61.333 27 122.666 49 183.999c24.667 62.667 56.667 115.334 96 158.001c41.333 42 92.666 63.667 153.999 65c34 0 62 -7.33301 84 -22
c20 -16.667 35 -38.667 45 -66c12 -26 19.333 -54.667 22 -86s4 -61.333 4 -90c0 -116 -21.667 -237 -65 -363c-22 -58.667 -51.333 -107 -88 -145c-36.667 -39.333 -81 -59 -133 -59c-37.333 0 -67.333 10 -90 30c-24.667 19.333 -44 43.333 -58 72
c-12 30 -20.667 60.667 -26 92c-6 28.667 -9 54.667 -9 78v0z" />
    <glyph glyph-name="egrave" unicode="q" 
d="M627 -438h150.999l275 1413h-152l-29 -158h-4c-4 12.667 -10.667 29 -20 49c-10 19.333 -25 39.333 -45 60c-18 21.333 -42.667 38.333 -74 51c-30 13.333 -69 20 -117 20c-77.333 -1.33301 -143.333 -21.666 -198 -60.999c-54.667 -41.333 -99.667 -95.333 -135 -162
c-68.667 -140.667 -102.334 -290 -101.001 -448c-1.33301 -98.667 19.334 -180.667 62.001 -246c40.667 -66.667 109.334 -101 206.001 -103c45.333 0 85 7.66699 119 23c32.667 13.333 60.667 29.666 84 48.999c24.667 22 44.667 43.333 60 64c13.333 20 24 38.333 32 55
l4 -4zM345.999 338c0 117.333 23.334 238 70.001 362c21.333 58.667 50.666 107.334 87.999 146.001c34 38 75.667 57 125 57c38 0 69.333 -9.66699 94 -29c24.667 -18.667 43 -42.334 55 -71.001c14 -28.667 23.667 -58 29 -88c2.66699 -31.333 4 -59.333 4 -84
c0 -38.667 -3.33301 -88 -10 -148c-10 -61.333 -27 -123.333 -51 -186c-22 -62.667 -53.667 -115.334 -95 -158.001c-42 -43.333 -94.333 -65.666 -157 -66.999c-63.333 1.33301 -104.333 32 -123 92c-10 27.333 -17 56 -21 86c-5.33301 30 -8 59.333 -8 88v0z" />
    <glyph glyph-name="ecircumflex" unicode="r" horiz-adv-x="682" 
d="M178 0l152 -0.00195312l86 457c4 20 8.66699 41.667 14 65c4 20.667 8.66699 41.334 14 62.001c12.667 40.667 30.667 78.667 54 114c22.667 36 55.334 64.667 98.001 86c42 22 97.333 33 166 33h37l34 180c-96.667 -1.33301 -170.334 -21.666 -221.001 -60.999
c-52 -42.667 -97 -100 -135 -172l-4 4l41 207h-152z" />
    <glyph glyph-name="edieresis" unicode="s" horiz-adv-x="833" 
d="M862 950c-17.333 10 -46.0029 20.3311 -86.0029 30.998c-20.667 4 -43 8 -67 12c-24.667 2.66699 -52.667 4 -84 4c-44 0 -87 -4.66699 -129 -14c-44 -9.33301 -83.667 -26.333 -119 -51c-76.667 -46.667 -115.667 -122.667 -117 -228c1.33301 -60 22 -109 62 -147
c38 -38 81.667 -70.667 131 -98c48.667 -27.333 92.334 -56 131.001 -86c18.667 -15.333 33 -33.333 43 -54c9.33301 -20 14 -42.333 14 -67c0 -41.333 -16.333 -79.666 -49 -114.999c-35.333 -35.333 -96 -53.666 -182 -54.999c-54.667 0 -102.667 10.333 -144 31
c-42 16 -79.333 37.667 -112 65v0l-31 -147c86 -34 174 -52 264 -54c106.667 -1.33301 200.334 22 281.001 70c80 48 121.667 133.333 125 256c-2 68 -21.333 123.333 -58 166c-38 40.667 -81.667 74.667 -131 102s-93 54 -131 80c-39.333 26 -59.666 56.667 -60.999 92
c0 50.667 17 88.334 51 113.001c32.667 24.667 75 37 127 37c64 -1.33301 116.333 -13 157 -35c20.667 -10.667 38.667 -20.334 54 -29.001c12 -9.33301 21.333 -17.333 28 -24z" />
    <glyph glyph-name="iacute" unicode="t" horiz-adv-x="721" 
d="M680 88c-30 -10.667 -61.335 -16.002 -94.002 -16.002c-40 0 -73 8.66699 -99 26c-28.667 16.667 -43 43.334 -43 80.001c1.33301 84.667 13 168 35 250l94 453h263l20 94h-264l67 321v0l-172 -92l-47 -229h-170l-18 -94h170l-121 -586
c-9.33301 -39.333 -14 -79.666 -14 -120.999c-1.33301 -58.667 16.334 -105.667 53.001 -141s102.334 -54 197.001 -56c40.667 2 80.667 5 120 9z" />
    <glyph glyph-name="igrave" unicode="u" horiz-adv-x="1063" 
d="M741 0l152 0.000976562l188 975h-151l-84 -432c-4 -28.667 -13.667 -66.334 -29 -113.001c-16 -48 -37 -97 -63 -147c-26 -49.333 -59 -91 -99 -125c-40.667 -36 -89 -54.667 -145 -56c-92.667 1.33301 -139 46 -139 134c0 46 6 92.333 18 139l117 600h-152l-131 -674
c-8 -38 -12 -77 -12 -117c0 -53.333 20.333 -100.333 61 -141c38.667 -42 99 -64 181 -66c44.667 2 85.334 12.333 122.001 31c37.333 18 69.666 39.333 96.999 64c54.667 54.667 90 103 106 145l4 -4z" />
    <glyph glyph-name="icircumflex" unicode="v" horiz-adv-x="909" 
d="M403 0h142l538 975h-135l-426 -770v0l-155 770h-162z" />
    <glyph glyph-name="idieresis" unicode="w" horiz-adv-x="1403" 
d="M344 0h147l355 747h4l86 -747h147l424 975h-133l-330 -764h-4l-88 764h-112l-365 -770h-4l-53 770h-142z" />
    <glyph glyph-name="ntilde" unicode="x" horiz-adv-x="909" 
d="M18 0h164l346 391v0l183 -391h170l-246 510l411 465h-163l-303 -342v0l-162 342h-168l221 -465z" />
    <glyph glyph-name="oacute" unicode="y" horiz-adv-x="909" 
d="M190 -391h138l761 1366h-137l-428 -766v0l-153 766h-164l198 -981z" />
    <glyph glyph-name="ograve" unicode="z" horiz-adv-x="833" 
d="M63 0h746l22 104h-569l647 766l37 105h-657l-21 -105h463l-647 -766z" />
    <glyph glyph-name="ocircumflex" unicode="{" 
d="M922 -430c-75.333 20.667 -129.999 57.665 -163.999 110.998c-37.333 51.333 -56 107 -56 167c0 52 5 110.333 15 175c8 58.667 12.667 112.334 14 161.001c0 54.667 -11 102.667 -33 144c-22.667 40.667 -51.334 74.667 -86.001 102c-34 28.667 -68.667 52 -104 70
l-94 41c27.333 12 58.666 27 93.999 45c35.333 16 70 37.667 104 65c34.667 28.667 63.334 63 86.001 103c22 40.667 33 88.334 33 143.001c-1.33301 49.333 -6 103.333 -14 162c-10 64 -15 122 -15 174c0 61.333 18.667 118.666 56 171.999c34 52 88.667 87.333 164 106v52
c-106.667 -6 -203.667 -40.333 -291 -103c-41.333 -31.333 -75 -67.333 -101 -108c-27.333 -41.333 -41 -87.333 -41 -138c1.33301 -70.667 9.66602 -136 24.999 -196l23 -103c6.66699 -32.667 10 -62.667 10 -90c-1.33301 -66.667 -24 -122 -68 -166
c-43.333 -44.667 -95.666 -76 -156.999 -94v-49c61.333 -19.333 113.666 -50.666 156.999 -93.999c44 -46.667 66.667 -102 68 -166c-2.66699 -54.667 -13.667 -119 -33 -193c-15.333 -58.667 -23.666 -124 -24.999 -196c0 -49.333 13.667 -94.333 41 -135
c26 -41.333 59.667 -77.666 101 -108.999c87.333 -62.667 184.333 -97.334 291 -104.001v51z" />
    <glyph glyph-name="odieresis" unicode="|" horiz-adv-x="682" 
d="M311 -278h140v1836h-140v-1836z" />
    <glyph glyph-name="otilde" unicode="}" 
d="M322 -481c107.333 6.66699 205.334 41.335 294.001 104.002c89.333 62.667 135.333 144 138 244v55c-1.33301 16.667 -3.66602 33 -6.99902 49c-5.33301 31.333 -11.333 62 -18 92c-6.66699 37.333 -13.334 72.333 -20.001 105c-8.66699 32.667 -13 62 -13 88
c1.33301 64 25.333 119.333 72 166c43.333 43.333 94.666 74.666 153.999 93.999v49c-59.333 18 -110.666 49.333 -153.999 94c-46.667 44 -70.667 99.333 -72 166c1.33301 54.667 12.333 119 33 193c15.333 60 23.666 125.333 24.999 196
c-2.66699 101.333 -48.667 183.333 -138 246c-88.667 62.667 -186.667 97 -294 103v-52c74.667 -18.667 130.334 -54 167.001 -106c34.667 -53.333 52 -110.666 52 -171.999c0 -52 -5 -110 -15 -174c-9.33301 -58.667 -14 -112.667 -14 -162
c0 -54.667 12.333 -102.334 37 -143.001c23.333 -40 52 -74.333 86 -103c34 -27.333 68.667 -49 104 -65c34 -18 64 -33 90 -45l-90 -41c-35.333 -18 -70 -41.333 -104 -70c-34 -27.333 -62.667 -61.333 -86 -102c-24.667 -41.333 -37 -89.333 -37 -144
c0 -48.667 4.66699 -102.334 14 -161.001c10 -64.667 15 -123 15 -175c0 -60 -17.333 -115.667 -52 -167c-36.667 -53.333 -92.334 -90.333 -167.001 -111v-51z" />
    <glyph glyph-name="uacute" unicode="~" horiz-adv-x="1175" 
d="M176 330l122.999 0.000976562l8 73c2.66699 33.333 13 67.666 31 102.999c14.667 38 45.334 57.667 92.001 59c22 0 41.667 -5.33301 59 -16c16.667 -11.333 34 -25.666 52 -42.999l186 -164c19.333 -18 46 -35.667 80 -53c31.333 -19.333 66 -29 104 -29
c53.333 0 95.666 11 126.999 33c31.333 20.667 56 46.667 74 78s31 64 39 98l14 82l10 74h-122l-7 -64c-1.33301 -35.333 -9.33301 -73.666 -24 -114.999c-16.667 -44.667 -48 -67.667 -94 -69c-23.333 0 -45.333 8.66699 -66 26c-23.333 16.667 -43 31.667 -59 45l-183 158
c-20 19.333 -45.667 37.666 -77 54.999c-31.333 18 -66.333 27 -105 27c-46 0 -84.667 -9 -116 -27c-33.333 -18.667 -58.666 -42.334 -75.999 -71.001c-18 -27.333 -31 -56 -39 -86c-10 -31.333 -17 -59.333 -21 -84z" />
    <glyph glyph-name="uni00A0" unicode="&#xa0;" horiz-adv-x="530" 
 />
    <glyph glyph-name="fl" unicode="&#xa1;" horiz-adv-x="569" 
d="M61 -278h187l170 1030h-129zM289 936h200l39 199h-200z" />
    <glyph glyph-name="questiondown" unicode="&#xa2;" horiz-adv-x="909" 
d="M391 -190l88.001 -0.00292969l33 167c16.667 0 33 -0.666992 49 -2c57.333 1.33301 109.333 7 156 17c46 9.33301 77.333 16 94 20l16 84c-51.333 -17.333 -117.333 -26.666 -198 -27.999c-32.667 0 -65 2.66699 -97 8l160 827c26 -5.33301 50 -17.666 72 -36.999
c22 -20 33.667 -55.333 35 -106c0 -27.333 -3 -54.666 -9 -81.999h166c4 23.333 6 47.333 6 72c0 44.667 -6 82 -18 112c-14.667 31.333 -34.334 56 -59.001 74c-24.667 20.667 -51.334 35.667 -80.001 45c-31.333 8 -62.666 13.333 -93.999 16l30 158h-88l-30 -158
c-139.333 -17.333 -248.666 -84 -327.999 -200c-80.667 -116 -121.667 -263 -123 -441c1.33301 -124 28.666 -212.667 81.999 -266c26 -27.333 53.333 -49 82 -65c28.667 -16.667 58.667 -27.667 90 -33zM451.001 114.997c-27.333 22.667 -52 55.333 -74 98
c-24.667 39.333 -37 97.333 -37 174c1.33301 121.333 27.333 236 78 344c24.667 52 52.667 93.667 84 125s65.333 47 102 47z" />
    <glyph glyph-name="exclamdown" unicode="&#xa3;" horiz-adv-x="909" 
d="M203 0l699.999 0.00292969l25 125h-531l99 500h227l18 98h-227l39 194c8 37.333 17 75.666 27 114.999c8 40 20 77.667 36 113c16.667 35.333 38 64.666 64 87.999c27.333 23.333 60 35 98 35c34 0 61.333 -7.66699 82 -23c19.333 -18 33.666 -38.333 42.999 -61
c9.33301 -23.333 16.333 -45.333 21 -66c1.33301 -23.333 2 -40.333 2 -51h178c0 82 -23.333 151 -70 207c-50.667 56 -132.667 84.667 -246 86c-74.667 0 -136 -10.333 -184 -31c-48 -23.333 -86.333 -53.333 -115 -90c-27.333 -36.667 -47.666 -78.334 -60.999 -125.001
c-15.333 -46.667 -27.666 -95.667 -36.999 -147l-47 -244h-137l-19 -98h138z" />
    <glyph glyph-name="breve" unicode="&#xa4;" 
d="M938 373l135 -136.998v0l64 63l-138 137c15.333 16.667 34.666 48.667 57.999 96c10.667 23.333 20 50 28 80c7.33301 31.333 11 65.666 11 102.999c-1.33301 80.667 -13 144 -35 190c-10 23.333 -20.333 43.333 -31 60c-12 14.667 -22.333 26.667 -31 36l140 138l-66 63
v0l-135 -135v0c-26 20.667 -61.667 41.667 -107 63c-46 20.667 -105.333 31.667 -178 33c-72 -1.33301 -130.667 -12.333 -176 -33c-23.333 -9.33301 -43 -19.333 -59 -30c-18 -12.667 -34.333 -23.667 -49 -33v0l-138 135v0l-63 -63l137 -138l-26 -36
c-11.333 -16.667 -22.333 -36.667 -33 -60c-23.333 -46 -35.666 -109.333 -36.999 -190c1.33301 -76.667 15 -137.667 41 -183c10.667 -22.667 21.667 -42.334 33 -59.001c10.667 -16.667 18 -29 22 -37l-137 -137l63 -63v0l138 137v0c26 -18 61.333 -38.667 106 -62
c44 -23.333 103.333 -35.666 178 -36.999c75.333 1.33301 135.333 13.666 180 36.999c44 23.333 79 44 105 62v0zM303 715.002c1.33301 100.667 36.334 184.667 105.001 252c65.333 66.667 147 100.667 245 102c100 -1.33301 182.667 -35.333 248 -102
c65.333 -67.333 98.666 -151.333 99.999 -252c-1.33301 -98.667 -34.666 -180 -99.999 -244c-65.333 -66.667 -148 -100.667 -248 -102c-96.667 1.33301 -178.334 35.333 -245.001 102c-68.667 64 -103.667 145.333 -105 244v0z" />
    <glyph glyph-name="quotedblleft" unicode="&#xa5;" 
d="M524 653l-24 -123h-326l-18 -94h325l-84 -436h170l84 436h387l19 94h-387l24 123l88 113h310l18 94h-254l434 553h-164l-471 -604v0l-223 604h-188l204 -553h-223l-18 -94h276z" />
    <glyph glyph-name="glyph159" unicode="&#xa6;" horiz-adv-x="530" 
d="M311 -278h140v735h-140v-735zM311 823h140v735h-140v-735z" />
    <glyph glyph-name="logicalnot" unicode="&#xa7;" horiz-adv-x="948" 
d="M1014 1231l30.0059 155.002c-9.33301 4.66699 -42.666 13.667 -99.999 27c-58.667 13.333 -120.667 21 -186 23c-98.667 0 -188.334 -25.333 -269.001 -76c-38 -24.667 -68.667 -56 -92 -94c-24.667 -38.667 -37 -84 -37 -136c0 -38 8.33301 -67.333 25 -88
c13.333 -21.333 25.666 -38.333 36.999 -51c-32.667 -20.667 -72.334 -55.334 -119.001 -104.001c-22 -24.667 -40.333 -52 -55 -82c-16.667 -32.667 -25 -68.334 -25 -107.001c1.33301 -66.667 27.333 -117.667 78 -153c48 -38.667 102.667 -69.334 164 -92.001
c64 -23.333 119.333 -48.666 166 -75.999c47.333 -27.333 71.666 -64.333 72.999 -111c-1.33301 -46 -23.666 -87.667 -66.999 -125c-46.667 -38 -108 -57.667 -184 -59c-60.667 1.33301 -111.334 15 -152.001 41c-42 24.667 -76 47.667 -102 69v0l-35 -172
c16 -6.66699 46.667 -14.667 92 -24c22 -4 47.333 -8 76 -12c26 -4.66699 55.333 -7 88 -7c129.333 2 237.666 33.667 324.999 95c87.333 60 132 137.667 134 233c-2 42.667 -10.333 76 -25 100c-18 23.333 -35.667 42 -53 56c35.333 20 77.666 54.667 126.999 104
c22.667 24.667 41.667 52 57 82c15.333 31.333 23 64 23 98c-2 64.667 -26 116 -72 154c-48 36.667 -102.667 66.667 -164 90c-28.667 14 -56.667 27 -84 39c-28.667 12 -54.667 25 -78 39c-23.333 14.667 -41 31 -53 49c-15.333 16.667 -23 35.667 -23 57
c2 49.333 24.667 88.333 68 117c42.667 27.333 92.667 41 150 41c65.333 -1.33301 119.666 -13 162.999 -35c44 -23.333 77 -45 99 -65v0zM375.006 764.002c1.33301 48 16.332 87 44.999 117c26 31.333 47 53 63 65c27.333 -13.333 62.333 -28.333 105 -45
c42 -16.667 83 -35 123 -55c42 -20.667 76.667 -43.334 104 -68.001c26 -26 39.667 -56.667 41 -92c-1.33301 -45.333 -16.333 -83.666 -45 -114.999c-27.333 -31.333 -52 -54.333 -74 -69c-24.667 13.333 -56 29 -94 47c-39.333 16 -79.666 34.333 -120.999 55
c-39.333 20.667 -73.333 44.667 -102 72c-30 26 -45 55.333 -45 88v0z" />
    <glyph glyph-name="nonbreakingspace" unicode="&#xa8;" horiz-adv-x="614" 
d="M276 1167h183l35 180h-183zM639 1167h182l35 180h-182z" />
    <glyph glyph-name="guillemotleft" unicode="&#xa9;" 
d="M698 473c136.667 1.33301 250.667 49 342 143c92 89.333 138.667 202 140 338c-1.33301 136.667 -48 250.667 -140 342c-91.333 91.333 -205.333 138 -342 140c-134.667 -2 -247.334 -48.667 -338.001 -140c-94 -91.333 -141.667 -205.333 -143 -342
c1.33301 -136 49 -248.667 143 -338c90.667 -94 203.334 -141.667 338.001 -143v0zM289 954c1.33301 116 41.666 213 120.999 291c76 78 172 117.667 288 119c116 -1.33301 213 -41 291 -119s117.667 -175 119 -291c-1.33301 -116 -41 -212 -119 -288
c-78 -79.333 -175 -119.666 -291 -120.999c-116 1.33301 -212 41.666 -288 120.999c-79.333 76 -119.666 172 -120.999 288v0zM864 833c-10.667 -10.667 -27 -22.666 -49 -35.999c-23.333 -16.667 -56 -25 -98 -25c-41.333 0 -81.666 16.333 -120.999 49
c-41.333 31.333 -62.666 78.333 -63.999 141c1.33301 62 22.666 109.333 63.999 142c39.333 32.667 81.666 49 126.999 49c36.667 -1.33301 66.667 -9 90 -23c22 -13.333 39 -27 51 -41l53 68c-12 12 -33 28.333 -63 49c-30 19.333 -73.667 29.666 -131 30.999
c-74 -1.33301 -138.333 -26.666 -193 -75.999c-56 -50.667 -84.667 -117 -86 -199c1.33301 -78.667 29.333 -143.334 84 -194.001c53.333 -52 118.333 -78.667 195 -80c58.667 1.33301 103.667 13 135 35c16.667 9.33301 29.667 18.333 39 27c9.33301 8 16 14 20 18z" />
    <glyph glyph-name="Ydieresis" unicode="&#xaa;" horiz-adv-x="569" 
d="M512 588l82.001 0.000976562l102 536h-82l-14 -86h-4c-2.66699 15.333 -14.334 35.333 -35.001 60c-22 24.667 -56.667 37.667 -104 39c-42.667 0 -79 -11 -109 -33c-30 -23.333 -55.333 -53.333 -76 -90c-38 -76.667 -57 -158.667 -57 -246
c0 -54.667 11.667 -99.667 35 -135c24.667 -38.667 63 -58 115 -58c48.667 1.33301 86 15 112 41c26 23.333 41.667 44.666 47 63.999l4 -4zM307.001 774.001c0 65.333 13 132.999 39 202.999c12.667 34 29 61.333 49 82c20.667 18.667 44 28.667 70 30
c42 -1.33301 69.333 -19.666 82 -54.999c12 -35.333 18 -68 18 -98c0 -49.333 -11 -111.333 -33 -186c-12 -36 -29 -65.667 -51 -89c-24.667 -25.333 -54 -38 -88 -38c-35.333 1.33301 -58.333 19 -69 53c-11.333 31.333 -17 64 -17 98v0z" />
    <glyph glyph-name="Acircumflex" unicode="&#xab;" horiz-adv-x="721" 
d="M262 121h127l-47 379l195 385h-127l-246 -385zM530 121h127l-47 379l195 385h-127l-246 -385z" />
    <glyph glyph-name="daggerdbl" unicode="&#xac;" horiz-adv-x="1175" 
d="M1038 258h140v428h-947v-125h807v-303z" />
    <glyph glyph-name="uni00AD" unicode="&#xad;" horiz-adv-x="833" 
d="M190 436h625l27 144h-623z" />
    <glyph glyph-name="Delta" unicode="&#xae;" 
d="M698 473c136.667 1.33301 250.667 49 342 143c92 89.333 138.667 202 140 338c-1.33301 136.667 -48 250.667 -140 342c-91.333 91.333 -205.333 138 -342 140c-134.667 -2 -247.334 -48.667 -338.001 -140c-94 -91.333 -141.667 -205.333 -143 -342
c1.33301 -136 49 -248.667 143 -338c90.667 -94 203.334 -141.667 338.001 -143v0zM289 954c1.33301 116 41.666 213 120.999 291c76 78 172 117.667 288 119c116 -1.33301 213 -41 291 -119s117.667 -175 119 -291c-1.33301 -116 -41 -212 -119 -288
c-78 -79.333 -175 -119.666 -291 -120.999c-116 1.33301 -212 41.666 -288 120.999c-79.333 76 -119.666 172 -120.999 288v0zM518 713l90 0.000976562v204h111l78 -204h102l-92 219c17.333 6.66699 36.333 19 57 37c18 14.667 27.667 44 29 88c0 36.667 -5.66699 66 -17 88
c-12 23.333 -28.333 39.666 -49 48.999c-42 19.333 -89 28.333 -141 27h-168v-508zM608 1132h103c56 0 84.667 -22.333 86 -67c-2.66699 -44 -28.667 -66 -78 -66h-111v133z" />
    <glyph glyph-name="Gbreve" unicode="&#xaf;" horiz-adv-x="614" 
d="M246 1145h518l24 123h-518z" />
    <glyph glyph-name="oslash" unicode="&#xb0;" horiz-adv-x="682" 
d="M555 870c65.333 0 119.335 23.335 162.002 70.002c40.667 43.333 61.667 96.666 63 159.999c-1.33301 62.667 -23 115 -65 157c-42.667 41.333 -96 62.666 -160 63.999c-62.667 -1.33301 -115.334 -22.666 -158.001 -63.999c-46 -40.667 -69 -92.334 -69 -155.001
c1.33301 -66 23.666 -120 66.999 -162c42.667 -46.667 96 -70 160 -70v0zM422.002 1100c0 38 13.666 68.667 40.999 92c26 23.333 56.667 35 92 35s66 -11.667 92 -35s39 -54 39 -92c-1.33301 -37.333 -13.666 -69 -36.999 -95c-24.667 -26.667 -56 -40 -94 -40
c-36.667 0 -68 13.333 -94 40c-26 26 -39 57.667 -39 95v0z" />
    <glyph glyph-name="oe" unicode="&#xb1;" horiz-adv-x="1175" 
d="M225 -213h942v125h-942v-125zM627 0h139v436h401v125h-401v401h-139v-401h-402v-125h402v-436z" />
    <glyph glyph-name="uni00B2" unicode="&#xb2;" horiz-adv-x="721" 
d="M166 420l534 0.000976562l19 94h-387v4l119 90c50 42.667 103.667 92 161 148s106 116 146 180c39.333 62.667 59.666 124 60.999 184c0 130 -75.667 197 -227 201c-100 -1.33301 -171.667 -25.333 -215 -72c-22 -20.667 -39 -44.334 -51 -71.001
c-14 -26 -23.667 -52.667 -29 -80h137c2.66699 27.333 15 58 37 92c19.333 35.333 54.666 53.666 105.999 54.999c41.333 -1.33301 71 -13.666 89 -36.999c17.333 -26 26 -56 26 -90c-1.33301 -49.333 -23.666 -105.333 -66.999 -168
c-44 -62.667 -96.667 -124.667 -158 -186c-135.333 -130 -229.666 -214 -282.999 -252z" />
    <glyph glyph-name="uni00B3" unicode="&#xb3;" horiz-adv-x="721" 
d="M434 1118c2.66699 28.667 13.666 56.6689 32.999 84.002c18 27.333 49.333 41.666 94 42.999c34 0 62.667 -9.66699 86 -29c22 -20 33 -55.333 33 -106c0 -34 -4.66699 -62.667 -14 -86c-11.333 -24.667 -25 -43.667 -41 -57c-36 -27.333 -70.333 -41 -103 -41h-49
l-18 -82c44.667 1.33301 82 -5.66699 112 -21c30 -17.333 45.667 -60.333 47 -129c0 -58.667 -15 -107.667 -45 -147c-31.333 -42.667 -77 -64 -137 -64c-27.333 0 -49 6.33301 -65 19c-15.333 10.667 -27 23 -35 37c-5.33301 14.667 -9.66602 29.667 -12.999 45
c-1.33301 13.333 -2 23.333 -2 30h-137c-1.33301 -46 13 -91 43 -135c16.667 -20.667 41.334 -37 74.001 -49c30 -14.667 71.667 -22 125 -22c211.333 4 317.666 104.333 318.999 301c-1.33301 56 -12.666 96 -33.999 120c-22 24.667 -46.667 42.667 -74 54
c52 13.333 93.667 40.666 125 81.999c31.333 40.667 47.666 94.334 48.999 161.001c0 54.667 -17.667 101.334 -53 140.001c-37.333 35.333 -95.333 53.666 -174 54.999c-86 -1.33301 -152.333 -21.333 -199 -60c-48 -40.667 -76 -88.334 -84 -143.001h137z" />
    <glyph glyph-name="ellipsis" unicode="&#xb4;" horiz-adv-x="614" 
d="M440 1145h129l191 274h-180z" />
    <glyph glyph-name="quotedblright" unicode="&#xb5;" 
d="M82 -438l151 -0.000976562l97 508v0c18.667 -27.333 41.667 -49.333 69 -66c26 -16 60.333 -25 103 -27c44.667 2 82.667 10.333 114 25c32 15.333 58 34.333 78 57c22 23.333 39 46.666 51 69.999c12.667 20.667 21 38.334 25 53.001h4c-2.66699 -12 -4 -29.667 -4 -53
c0 -39.333 11.667 -74 35 -104s66.333 -46 129 -48c14.667 0 31 3 49 9l16 96c-20 0 -37.667 3.33301 -53 10c-16 5.33301 -24 18.333 -24 39c1.33301 35.333 7.33301 76.333 18 123l141 721h-151l-88 -449c-10 -73.333 -38 -162.666 -84 -267.999
c-24.667 -48 -54 -89 -88 -123c-36 -35.333 -78.333 -53 -127 -53c-49.333 0 -89 16.333 -119 49c-32.667 31.333 -49 73 -49 125c0 30 4 65.333 12 106l117 613h-152z" />
    <glyph glyph-name="florin" unicode="&#xb6;" 
d="M678 -438h76v1775h125v-1775h75v1775h119v76h-235c-150.667 1.33301 -288 -35.667 -412 -111c-130 -77.333 -197 -204 -201 -380c0 -82 16.333 -151.667 49 -209c30 -56 68.333 -102.667 115 -140c46.667 -34 96 -60.333 148 -79c50 -18 97 -30.333 141 -37v-895z" />
    <glyph glyph-name="scedilla" unicode="&#xb8;" horiz-adv-x="614" 
d="M322 -119l65 152.002h-88l-92 -223c16 1.33301 32.333 2 49 2c28.667 1.33301 56 -3 82 -13c24.667 -10.667 37.667 -33.667 39 -69c-1.33301 -34 -14.333 -60.667 -39 -80c-23.333 -20.667 -49.333 -31.667 -78 -33c-48 1.33301 -83.333 17.666 -106 48.999l-21 -104
c9.33301 -4 24.333 -9.66699 45 -17c20.667 -6.66699 46.667 -10 78 -10c70.667 1.33301 128 22.666 172 63.999c42 38 64 87 66 147c-2 53.333 -17.333 89.666 -46 108.999c-30 18.667 -65.333 27.334 -106 26.001h-20z" />
    <glyph glyph-name="uni00B9" unicode="&#xb9;" horiz-adv-x="721" 
d="M569 1175l-149 -755h123l174 878h-101l-204 -120l-21 -109v0l178 106v0z" />
    <glyph glyph-name="fraction" unicode="&#xba;" horiz-adv-x="569" 
d="M414 577c95.333 2 165.667 39 211 111c43.333 70 65 150.667 65 242c2.66699 133.333 -62 202.333 -194 207c-97.333 -3.33301 -168.333 -41 -213 -113c-44 -72.667 -66 -150.667 -66 -234c-1.33301 -62.667 13 -113 43 -151c30 -41.333 81.333 -62 154 -62v0z
M309.001 795c0 52.667 13.6689 114 41.002 184c15.333 31.333 33.666 58 54.999 80c23.333 18.667 52 28.667 86 30c32 -1.33301 58 -12.666 78 -33.999c19.333 -23.333 29 -50.666 29 -81.999c1.33301 -64.667 -9 -136.334 -31 -215.001
c-12 -38.667 -30.333 -69.334 -55 -92.001c-24.667 -27.333 -57.334 -41 -98.001 -41c-49.333 5.33301 -79.333 27 -90 65c-11.333 38 -16.333 73 -15 105v0z" />
    <glyph glyph-name="Ecircumflex" unicode="&#xbb;" horiz-adv-x="721" 
d="M381 121h127l246 387l-99 377h-127l47 -377zM113 121h127l245 387l-98 377h-127l47 -377z" />
    <glyph glyph-name="glyph154" unicode="&#xbc;" horiz-adv-x="1669" 
d="M1235 0h98l49 248h152l18 94h-153l106 545h-108l-459 -545l-16 -94h360zM1370 723l4 -4l-74 -377h-237zM428 1175l-149 -765h122l174 888h-100l-205 -120l-20 -109v0l178 106v0zM426 0h115l677 1298h-114z" />
    <glyph glyph-name="glyph161" unicode="&#xbd;" horiz-adv-x="1669" 
d="M428 1175l-149 -765h122l174 888h-100l-205 -120l-20 -109v0l178 106v0zM426 0h115l677 1298h-114zM911 0l535.002 0.000976562l16 94h-383v4l119 90c50.667 41.333 104.667 90 162 146s105.666 116 144.999 180c38.667 62.667 58.667 124 60 184
c0 131.333 -75.333 199 -226 203c-50 0 -93 -6 -129 -18c-36.667 -14 -66 -32.667 -88 -56c-22 -20 -39 -43 -51 -69s-21.667 -52.667 -29 -80h140c2.66699 27.333 14 58 34 92c19.333 35.333 55 53.666 107 54.999c40.667 0 70 -13 88 -39s27 -56 27 -90
c-1.33301 -47.333 -24 -102.666 -68 -165.999c-44 -62.667 -96.667 -125.334 -158 -188.001c-134.667 -130 -229.334 -213.333 -284.001 -250z" />
    <glyph glyph-name="glyph153" unicode="&#xbe;" horiz-adv-x="1669" 
d="M1372 0h100l50 248h151l19 94h-154l106 545h-110l-457 -545l-16 -94h360zM1509 723l4 -4l-73 -377h-238zM563 0h117l678 1298h-117zM434 1118c2.66699 28.667 13.666 56.6689 32.999 84.002c18 27.333 49.333 41.666 94 42.999c34 0 62.667 -9.66699 86 -29
c22 -20 33 -55.333 33 -106c0 -34 -4.66699 -62.667 -14 -86c-11.333 -24.667 -25 -43.667 -41 -57c-36 -27.333 -70.333 -41 -103 -41h-49l-18 -82c44.667 1.33301 82 -5.66699 112 -21c30 -17.333 45.667 -60.333 47 -129c0 -58.667 -15 -107.667 -45 -147
c-31.333 -42.667 -77 -64 -137 -64c-27.333 0 -49 6.33301 -65 19c-15.333 10.667 -27 23 -35 37c-5.33301 14.667 -9.66602 29.667 -12.999 45c-1.33301 13.333 -2 23.333 -2 30h-137c-1.33301 -46 13 -91 43 -135c16.667 -20.667 41.334 -37 74.001 -49
c30 -14.667 71.667 -22 125 -22c211.333 4 317.666 104.333 318.999 301c-1.33301 56 -12.666 96 -33.999 120c-22 24.667 -46.667 42.667 -74 54c52 13.333 93.667 40.666 125 81.999c31.333 40.667 47.666 94.334 48.999 161.001c0 54.667 -17.667 101.334 -53 140.001
c-37.333 35.333 -95.333 53.666 -174 54.999c-86 -1.33301 -152.333 -21.333 -199 -60c-48 -40.667 -76 -88.334 -84 -143.001h137z" />
    <glyph glyph-name="fi" unicode="&#xbf;" horiz-adv-x="833" 
d="M711 -88c-27.333 -18 -67.001 -37.666 -119.001 -58.999c-52 -23.333 -111.333 -35.666 -178 -36.999c-57.333 1.33301 -100.333 15.666 -129 42.999c-30 27.333 -45 60.666 -45 99.999c0 32.667 7.33301 63.334 22 92.001c12.667 28.667 29 55.334 49 80.001
c42.667 50.667 85 94.334 127 131.001c86 79.333 149 140 189 182c39.333 44 64.333 95.333 75 154l29 154h-129l-10 -43c-10 -60.667 -25 -107.334 -45 -140.001c-22 -35.333 -61.667 -78.333 -119 -129c-78 -62.667 -156.667 -133.667 -236 -213
c-36.667 -40.667 -66.667 -83.667 -90 -129c-26 -44.667 -39 -93.667 -39 -147c0 -46.667 11 -86.334 33 -119.001c20.667 -32.667 47.334 -59.334 80.001 -80.001c70 -35.333 147.333 -53 232 -53c107.333 2.66699 197.333 17 270 43zM601.999 936.001h199l39 199h-199z
" />
    <glyph glyph-name="Egrave" unicode="&#xc0;" horiz-adv-x="1175" 
d="M18 0h154l233 451h510l66 -451h176l-201 1413h-188zM819 1253h4l78 -696h-440zM815 1583h127l-33 274h-178z" />
    <glyph glyph-name="zcaron" unicode="&#xc1;" horiz-adv-x="1175" 
d="M18 0h154l233 451h510l66 -451h176l-201 1413h-188zM819 1253h4l78 -696h-440zM784 1583h129l191 274h-180z" />
    <glyph glyph-name="scaron" unicode="&#xc2;" horiz-adv-x="1175" 
d="M18 0h154l233 451h510l66 -451h176l-201 1413h-188zM819 1253h4l78 -696h-440zM625 1583h125l165 157v0l99 -157h125l-131 262h-150z" />
    <glyph glyph-name="Iacute" unicode="&#xc3;" horiz-adv-x="1175" 
d="M18 0h154l233 451h510l66 -451h176l-201 1413h-188zM819 1253h4l78 -696h-440zM696 1583c4.66699 14.667 11.6689 33.6689 21.002 57.002c8 23.333 22.333 35.666 43 36.999c10.667 0 24.334 -4.66699 41.001 -14c16 -10 33.667 -22.333 53 -37
c19.333 -12.667 39 -24.334 59 -35.001c20.667 -12 40.667 -18 60 -18c61.333 2.66699 103.666 32.667 126.999 90c12 26 20.667 51 26 75l15 60h-86c-1.33301 -16.667 -7 -36.667 -17 -60c-9.33301 -24 -25 -37 -47 -39c-12 0 -26.333 6.33301 -43 19
c-17.333 10.667 -35.666 23.667 -54.999 39c-19.333 14.667 -39 27.667 -59 39c-20.667 9.33301 -41.334 14 -62.001 14c-28.667 0 -51.667 -9 -69 -27c-20.667 -18.667 -37.334 -41 -50.001 -67c-12 -24.667 -20.667 -50 -26 -76
c-6.66699 -24.667 -12.334 -43.667 -17.001 -57h86z" />
    <glyph glyph-name="ucircumflex" unicode="&#xc4;" horiz-adv-x="1175" 
d="M18 0h154l233 451h510l66 -451h176l-201 1413h-188zM819 1253h4l78 -696h-440zM616 1605h183l35 180h-183zM979 1605h182l35 180h-182z" />
    <glyph glyph-name="udieresis" unicode="&#xc5;" horiz-adv-x="1175" 
d="M18 0h154l233 451h510l66 -451h176l-201 1413h-188zM819 1253h4l78 -696h-440zM889 1583c50.667 0 93 17.667 127 53c31.333 31.333 47.666 72.333 48.999 123c-1.33301 49.333 -17.666 91 -48.999 125c-34 31.333 -76.333 47.666 -127 48.999
c-48 -1.33301 -89 -17.666 -123 -48.999c-35.333 -34 -53 -75.667 -53 -125c0 -50.667 17.667 -91.667 53 -123c34 -35.333 75 -53 123 -53v0zM801 1759c0 23.333 8.66699 43.666 26 60.999c16.667 15.333 37.334 23.666 62.001 24.999c26 -1.33301 47 -9.66602 63 -24.999
c16.667 -17.333 25 -37.666 25 -60.999c0 -24.667 -8.33301 -45.334 -25 -62.001c-16 -17.333 -37 -26 -63 -26c-24.667 0 -45.334 8.66699 -62.001 26c-17.333 16.667 -26 37.334 -26 62.001v0z" />
    <glyph glyph-name="Atilde" unicode="&#xc6;" horiz-adv-x="1593" 
d="M2 0h154l471 620h378l-77 -620h594l22 117h-440l63 503h432l23 117h-440l71 559h502l23 117h-699zM1079 1237l4 -4l-63 -496h-303z" />
    <glyph glyph-name="dagger" unicode="&#xc7;" horiz-adv-x="1100" 
d="M469 -190c16.667 1.33301 33.002 1.99902 49.002 1.99902c28.667 1.33301 56 -3 82 -13c24.667 -10.667 37.667 -33.667 39 -69c-1.33301 -34 -14.333 -60.667 -39 -80c-23.333 -20.667 -49.333 -31.667 -78 -33c-47.333 1.33301 -82.666 17.666 -105.999 48.999
l-21 -104c10 -4 25 -9.66699 45 -17c20.667 -6.66699 46.667 -10 78 -10c71.333 1.33301 128.666 22.666 171.999 63.999c42.667 38 64.667 87 66 147c-1.33301 53.333 -16.333 89.666 -45 108.999c-30 18.667 -65.667 27.334 -107 26.001h-20l45 103
c23.333 -4.66699 49.333 -7 78 -7c73.333 2 138.666 12.333 195.999 31c57.333 18 104.333 37.333 141 58l31 165v0c-40.667 -26 -88.334 -52.333 -143.001 -79c-54.667 -30.667 -117 -46 -187 -46c-100.667 -1.33301 -181.667 31 -243 97c-62.667 65.333 -94 175 -94 329
c0 74 7.33301 156 22 246c14 90 38 176.667 72 260c35.333 84.667 82.333 154.334 141 209.001s131.667 82.667 219 84c78 -1.33301 135.333 -23 172 -65c34 -42.667 51 -94 51 -154c0 -28.667 -3.33301 -56 -10 -82h197c4 26 6.66699 51.333 8 76
c-1.33301 100.667 -37 180.334 -107 239.001c-69.333 58.667 -161.333 89 -276 91c-132.667 -2 -241.334 -33 -326.001 -93c-87.333 -61.333 -155.333 -139.666 -204 -234.999c-48 -94 -82.333 -193.667 -103 -299c-22 -106.667 -32.333 -207 -31 -301
c-1.33301 -134 23.334 -244.667 74.001 -332c48 -87.333 128 -146 240 -176z" />
    <glyph glyph-name="Eth" unicode="&#xc8;" horiz-adv-x="948" 
d="M172 0h704l23 117h-534l102 532h489l23 117h-490l105 530h516l22 117h-686zM748 1583h127l-33 274h-178z" />
    <glyph glyph-name="degree" unicode="&#xc9;" horiz-adv-x="948" 
d="M172 0h704l23 117h-534l102 532h489l23 117h-490l105 530h516l22 117h-686zM738 1583h129l191 274h-180z" />
    <glyph glyph-name="Zcaron" unicode="&#xca;" horiz-adv-x="948" 
d="M172 0h704l23 117h-534l102 532h489l23 117h-490l105 530h516l22 117h-686zM567 1583h125l165 157v0l99 -157h125l-131 262h-150z" />
    <glyph glyph-name="brokenbar" unicode="&#xcb;" horiz-adv-x="948" 
d="M172 0h704l23 117h-534l102 532h489l23 117h-490l105 530h516l22 117h-686zM559 1605h183l35 180h-183zM922 1605h182l35 180h-182z" />
    <glyph glyph-name="Thorn" unicode="&#xcc;" horiz-adv-x="530" 
d="M180 0h170l275 1413h-170zM480 1583h127l-33 274h-178z" />
    <glyph glyph-name="eth" unicode="&#xcd;" horiz-adv-x="530" 
d="M180 0h170l275 1413h-170zM470 1583h129l191 274h-180z" />
    <glyph glyph-name="Yacute" unicode="&#xce;" horiz-adv-x="530" 
d="M180 0h170l275 1413h-170zM287 1583h125l165 157v0l99 -157h125l-131 262h-150z" />
    <glyph glyph-name="yacute" unicode="&#xcf;" horiz-adv-x="530" 
d="M180 0h170l275 1413h-170zM279 1605h183l35 180h-183zM642 1605h182l35 180h-182z" />
    <glyph glyph-name="glyph160" unicode="&#xd0;" horiz-adv-x="1214" 
d="M174 0h383.001c131.333 0 242.666 28 333.999 84c90 52 162.333 121.667 217 209c106.667 182.667 159.334 384 158.001 604c0 116 -13.667 209.667 -41 281c-28.667 68 -70.334 119 -125.001 153c-53.333 34 -117 56.667 -191 68c-74.667 9.33301 -158.667 14 -252 14
h-209l-120 -616h-183l-20 -107h182zM475.001 690h285l22 107h-284l98 510h59c156 1.33301 268 -24 336 -76c67.333 -54.667 101 -155 101 -301c1.33301 -200.667 -35.667 -385 -111 -553c-39.333 -80.667 -94 -145.667 -164 -195c-70.667 -50.667 -158 -76 -262 -76h-193z
" />
    <glyph glyph-name="cent" unicode="&#xd1;" horiz-adv-x="1290" 
d="M178 0h146l231 1212h4l358 -1212h199l277 1413h-148l-233 -1204h-4l-357 1204h-200zM784 1583c4.66699 14.667 11.6689 33.6689 21.002 57.002c8 23.333 22.333 35.666 43 36.999c10.667 0 24.334 -4.66699 41.001 -14c16 -10 33.667 -22.333 53 -37
c19.333 -12.667 39 -24.334 59 -35.001c20.667 -12 40.667 -18 60 -18c61.333 2.66699 103.666 32.667 126.999 90c12 26 20.667 51 26 75l15 60h-86c-1.33301 -16.667 -7 -36.667 -17 -60c-9.33301 -24 -25 -37 -47 -39c-12 0 -26.333 6.33301 -43 19
c-17.333 10.667 -35.666 23.667 -54.999 39c-19.333 14.667 -39 27.667 -59 39c-20.667 9.33301 -41.334 14 -62.001 14c-28.667 0 -51.667 -9 -69 -27c-20.667 -18.667 -37.334 -41 -50.001 -67c-12 -24.667 -20.667 -50 -26 -76
c-6.66699 -24.667 -12.334 -43.667 -17.001 -57h86z" />
    <glyph glyph-name="onesuperior" unicode="&#xd2;" horiz-adv-x="1251" 
d="M661 -23c113.333 2 211.003 32.334 293.003 91.001c82 57.333 149.667 133 203 227c102.667 199.333 154 415.666 154 648.999c0 140.667 -32.333 257.334 -97 350.001c-66.667 92.667 -179.334 140 -338.001 142c-125.333 -2 -231 -36.333 -317 -103
c-84.667 -65.333 -152.334 -149.333 -203.001 -252c-48.667 -102 -83.334 -207.667 -104.001 -317c-22 -109.333 -33 -207 -33 -293c6.66699 -330.667 154 -495.334 442 -494.001v0zM393.003 467.001c0 62.667 7.66699 141 23 235c13.333 96 37 191 71 285
c34.667 96.667 82.667 178 144 244c60 65.333 135.667 98.666 227 99.999c181.333 -2.66699 274.333 -127 279 -373c0 -60 -5.66699 -137 -17 -231c-13.333 -96.667 -37 -194.334 -71 -293.001c-34.667 -96.667 -82 -178.667 -142 -246
c-61.333 -69.333 -139 -104.666 -233 -105.999c-83.333 -1.33301 -150.333 27.334 -201 86.001c-52 57.333 -78.667 157 -80 299v0zM819.003 1583h127l-33 274h-178z" />
    <glyph glyph-name="thorn" unicode="&#xd3;" horiz-adv-x="1251" 
d="M661 -23c113.333 2 211.003 32.334 293.003 91.001c82 57.333 149.667 133 203 227c102.667 199.333 154 415.666 154 648.999c0 140.667 -32.333 257.334 -97 350.001c-66.667 92.667 -179.334 140 -338.001 142c-125.333 -2 -231 -36.333 -317 -103
c-84.667 -65.333 -152.334 -149.333 -203.001 -252c-48.667 -102 -83.334 -207.667 -104.001 -317c-22 -109.333 -33 -207 -33 -293c6.66699 -330.667 154 -495.334 442 -494.001v0zM393.003 467.001c0 62.667 7.66699 141 23 235c13.333 96 37 191 71 285
c34.667 96.667 82.667 178 144 244c60 65.333 135.667 98.666 227 99.999c181.333 -2.66699 274.333 -127 279 -373c0 -60 -5.66699 -137 -17 -231c-13.333 -96.667 -37 -194.334 -71 -293.001c-34.667 -96.667 -82 -178.667 -142 -246
c-61.333 -69.333 -139 -104.666 -233 -105.999c-83.333 -1.33301 -150.333 27.334 -201 86.001c-52 57.333 -78.667 157 -80 299v0zM830.003 1583h129l191 274h-180z" />
    <glyph glyph-name="minus" unicode="&#xd4;" horiz-adv-x="1251" 
d="M661 -23c113.333 2 211.003 32.334 293.003 91.001c82 57.333 149.667 133 203 227c102.667 199.333 154 415.666 154 648.999c0 140.667 -32.333 257.334 -97 350.001c-66.667 92.667 -179.334 140 -338.001 142c-125.333 -2 -231 -36.333 -317 -103
c-84.667 -65.333 -152.334 -149.333 -203.001 -252c-48.667 -102 -83.334 -207.667 -104.001 -317c-22 -109.333 -33 -207 -33 -293c6.66699 -330.667 154 -495.334 442 -494.001v0zM393.003 467.001c0 62.667 7.66699 141 23 235c13.333 96 37 191 71 285
c34.667 96.667 82.667 178 144 244c60 65.333 135.667 98.666 227 99.999c181.333 -2.66699 274.333 -127 279 -373c0 -60 -5.66699 -137 -17 -231c-13.333 -96.667 -37 -194.334 -71 -293.001c-34.667 -96.667 -82 -178.667 -142 -246
c-61.333 -69.333 -139 -104.666 -233 -105.999c-83.333 -1.33301 -150.333 27.334 -201 86.001c-52 57.333 -78.667 157 -80 299v0zM636.003 1583h125l165 157v0l99 -157h125l-131 262h-150z" />
    <glyph glyph-name="Icircumflex" unicode="&#xd5;" horiz-adv-x="1251" 
d="M661 -23c113.333 2 211.003 32.334 293.003 91.001c82 57.333 149.667 133 203 227c102.667 199.333 154 415.666 154 648.999c0 140.667 -32.333 257.334 -97 350.001c-66.667 92.667 -179.334 140 -338.001 142c-125.333 -2 -231 -36.333 -317 -103
c-84.667 -65.333 -152.334 -149.333 -203.001 -252c-48.667 -102 -83.334 -207.667 -104.001 -317c-22 -109.333 -33 -207 -33 -293c6.66699 -330.667 154 -495.334 442 -494.001v0zM393.003 467.001c0 62.667 7.66699 141 23 235c13.333 96 37 191 71 285
c34.667 96.667 82.667 178 144 244c60 65.333 135.667 98.666 227 99.999c181.333 -2.66699 274.333 -127 279 -373c0 -60 -5.66699 -137 -17 -231c-13.333 -96.667 -37 -194.334 -71 -293.001c-34.667 -96.667 -82 -178.667 -142 -246
c-61.333 -69.333 -139 -104.666 -233 -105.999c-83.333 -1.33301 -150.333 27.334 -201 86.001c-52 57.333 -78.667 157 -80 299v0zM720.003 1583c4.66699 14.667 11.6689 33.6689 21.002 57.002c8 23.333 22.333 35.666 43 36.999c10.667 0 24.334 -4.66699 41.001 -14
c16 -10 33.667 -22.333 53 -37c19.333 -12.667 39 -24.334 59 -35.001c20.667 -12 40.667 -18 60 -18c61.333 2.66699 103.666 32.667 126.999 90c12 26 20.667 51 26 75l15 60h-86c-1.33301 -16.667 -7 -36.667 -17 -60c-9.33301 -24 -25 -37 -47 -39
c-12 0 -26.333 6.33301 -43 19c-17.333 10.667 -35.666 23.667 -54.999 39c-19.333 14.667 -39 27.667 -59 39c-20.667 9.33301 -41.334 14 -62.001 14c-28.667 0 -51.667 -9 -69 -27c-20.667 -18.667 -37.334 -41 -50.001 -67c-12 -24.667 -20.667 -50 -26 -76
c-6.66699 -24.667 -12.334 -43.667 -17.001 -57h86z" />
    <glyph glyph-name="sterling" unicode="&#xd6;" horiz-adv-x="1251" 
d="M661 -23c113.333 2 211.003 32.334 293.003 91.001c82 57.333 149.667 133 203 227c102.667 199.333 154 415.666 154 648.999c0 140.667 -32.333 257.334 -97 350.001c-66.667 92.667 -179.334 140 -338.001 142c-125.333 -2 -231 -36.333 -317 -103
c-84.667 -65.333 -152.334 -149.333 -203.001 -252c-48.667 -102 -83.334 -207.667 -104.001 -317c-22 -109.333 -33 -207 -33 -293c6.66699 -330.667 154 -495.334 442 -494.001v0zM393.003 467.001c0 62.667 7.66699 141 23 235c13.333 96 37 191 71 285
c34.667 96.667 82.667 178 144 244c60 65.333 135.667 98.666 227 99.999c181.333 -2.66699 274.333 -127 279 -373c0 -60 -5.66699 -137 -17 -231c-13.333 -96.667 -37 -194.334 -71 -293.001c-34.667 -96.667 -82 -178.667 -142 -246
c-61.333 -69.333 -139 -104.666 -233 -105.999c-83.333 -1.33301 -150.333 27.334 -201 86.001c-52 57.333 -78.667 157 -80 299v0zM628.003 1605h183l35 180h-183zM991.003 1605h182l35 180h-182z" />
    <glyph glyph-name="multiply" unicode="&#xd7;" horiz-adv-x="1175" 
d="M313 -6l371 377v0l381 -396v0l108 109l-380 395l372 395l-98 93v0l-367 -385v0l-366 385v0l-109 -109l367 -385l-369 -385z" />
    <glyph glyph-name="Otilde" unicode="&#xd8;" horiz-adv-x="1251" 
d="M184 -78l131 168v0l39 -31c16.667 -12 36 -24 58 -36c22.667 -12.667 50.667 -23 84 -31c32.667 -8 72 -13 118 -15c124.667 2 232 34.333 322 97c87.333 61.333 159.666 141 216.999 239c112 209.333 168 430.666 168 663.999
c-1.33301 88.667 -9.66602 156.334 -24.999 203.001c-17.333 44.667 -35.666 79.334 -54.999 104.001l125 162l-74 53v0l-117 -149c-9.33301 8 -21.333 17.333 -36 28c-14 10 -32.667 19 -56 27c-42 18.667 -103.333 29 -184 31c-138 -2 -252 -39.667 -342 -113
c-91.333 -72.667 -162.333 -164 -213 -274c-50.667 -109.333 -86 -219.333 -106 -330c-22 -112 -32.333 -207.667 -31 -287c0 -65.333 5.33301 -116.333 16 -153c11.333 -38.667 23.666 -74.334 36.999 -107.001l-149 -197zM1135 1145
c6.66699 -61.333 10.667 -123.667 12 -187c0 -164.667 -40.333 -347.334 -121 -548.001c-40.667 -93.333 -93.334 -170.666 -158.001 -231.999c-65.333 -62.667 -141.666 -94.667 -228.999 -96c-36.667 0 -68 5.33301 -94 16c-26 11.333 -47.333 24.333 -64 39
c-16 15.333 -29 31 -39 47c-12 15.333 -20.667 27 -26 35zM387 327.999l-3.99805 -0.000976562c-1.33301 32.667 -2 64 -2 94c0 60 7.33301 139.667 22 239c8.66699 49.333 19.667 100 33 152c12.667 50.667 27.667 100.334 45 149.001c38.667 104 90.667 191 156 261
c65.333 70.667 148 106.667 248 108c61.333 -1.33301 107.666 -13 138.999 -35c16.667 -9.33301 29.667 -19.333 39 -30c9.33301 -12.667 16.666 -23 21.999 -31z" />
    <glyph glyph-name="onehalf" unicode="&#xd9;" horiz-adv-x="1251" 
d="M1366 1413l-169.998 -0.000976562l-172 -885c-9.33301 -56 -20.333 -109.667 -33 -161c-13.333 -52 -32.333 -100 -57 -144c-24.667 -40.667 -58.334 -74 -101.001 -100c-42 -27.333 -97 -41 -165 -41c-48 0 -88.333 7.33301 -121 22
c-32.667 15.333 -59.334 34 -80.001 56c-18 23.333 -31 50.666 -39 81.999c-9.33301 28.667 -14 59.334 -14 92.001c0 65.333 6.66699 130 20 194l172 885h-170l-172 -885c-17.333 -72 -26 -144.333 -26 -217c1.33301 -113.333 41.333 -197.333 120 -252
c76.667 -54.667 174.334 -82 293.001 -82c108 2 196 20.667 264 56c67.333 34 118.666 78.333 153.999 133c38 56 66 116 84 180c18 62.667 31.667 123.334 41 182.001zM850.002 1583h127l-33 274h-178z" />
    <glyph glyph-name="twosuperior" unicode="&#xda;" horiz-adv-x="1251" 
d="M1366 1413l-169.998 -0.000976562l-172 -885c-9.33301 -56 -20.333 -109.667 -33 -161c-13.333 -52 -32.333 -100 -57 -144c-24.667 -40.667 -58.334 -74 -101.001 -100c-42 -27.333 -97 -41 -165 -41c-48 0 -88.333 7.33301 -121 22
c-32.667 15.333 -59.334 34 -80.001 56c-18 23.333 -31 50.666 -39 81.999c-9.33301 28.667 -14 59.334 -14 92.001c0 65.333 6.66699 130 20 194l172 885h-170l-172 -885c-17.333 -72 -26 -144.333 -26 -217c1.33301 -113.333 41.333 -197.333 120 -252
c76.667 -54.667 174.334 -82 293.001 -82c108 2 196 20.667 264 56c67.333 34 118.666 78.333 153.999 133c38 56 66 116 84 180c18 62.667 31.667 123.334 41 182.001zM818.002 1583h129l191 274h-180z" />
    <glyph glyph-name="threesuperior" unicode="&#xdb;" horiz-adv-x="1251" 
d="M1366 1413l-169.998 -0.000976562l-172 -885c-9.33301 -56 -20.333 -109.667 -33 -161c-13.333 -52 -32.333 -100 -57 -144c-24.667 -40.667 -58.334 -74 -101.001 -100c-42 -27.333 -97 -41 -165 -41c-48 0 -88.333 7.33301 -121 22
c-32.667 15.333 -59.334 34 -80.001 56c-18 23.333 -31 50.666 -39 81.999c-9.33301 28.667 -14 59.334 -14 92.001c0 65.333 6.66699 130 20 194l172 885h-170l-172 -885c-17.333 -72 -26 -144.333 -26 -217c1.33301 -113.333 41.333 -197.333 120 -252
c76.667 -54.667 174.334 -82 293.001 -82c108 2 196 20.667 264 56c67.333 34 118.666 78.333 153.999 133c38 56 66 116 84 180c18 62.667 31.667 123.334 41 182.001zM659.002 1583h125l165 157v0l99 -157h125l-131 262h-150z" />
    <glyph glyph-name="section" unicode="&#xdc;" horiz-adv-x="1251" 
d="M1366 1413l-169.998 -0.000976562l-172 -885c-9.33301 -56 -20.333 -109.667 -33 -161c-13.333 -52 -32.333 -100 -57 -144c-24.667 -40.667 -58.334 -74 -101.001 -100c-42 -27.333 -97 -41 -165 -41c-48 0 -88.333 7.33301 -121 22
c-32.667 15.333 -59.334 34 -80.001 56c-18 23.333 -31 50.666 -39 81.999c-9.33301 28.667 -14 59.334 -14 92.001c0 65.333 6.66699 130 20 194l172 885h-170l-172 -885c-17.333 -72 -26 -144.333 -26 -217c1.33301 -113.333 41.333 -197.333 120 -252
c76.667 -54.667 174.334 -82 293.001 -82c108 2 196 20.667 264 56c67.333 34 118.666 78.333 153.999 133c38 56 66 116 84 180c18 62.667 31.667 123.334 41 182.001zM649.002 1605h183l35 180h-183zM1012 1605h182l35 180h-182z" />
    <glyph glyph-name="glyph203" unicode="&#xdd;" 
d="M420 0h170l125 653l596 760h-162l-473 -604v0l-225 604h-187l283 -760zM719 1583h129l191 274h-180z" />
    <glyph glyph-name="glyph158" unicode="&#xde;" horiz-adv-x="1175" 
d="M172 0h168.001l65 336h226c65.333 0 133.666 4.66699 204.999 14c70.667 10 136.667 30.667 198 62c62.667 31.333 114 80.333 154 147c38 66.667 57.667 156.667 59 270c-1.33301 126 -44.333 212 -129 258c-86 44 -199.333 65.333 -340 64h-215l53 262h-170z
M543.001 1044l178.002 0.000976562c35.333 0 73.666 -0.666992 114.999 -2c39.333 -2.66699 76.666 -10 111.999 -22c36.667 -12.667 66.667 -33.334 90 -62.001c23.333 -30 35 -70.667 35 -122c0 -92 -12.333 -164 -37 -216c-24.667 -52.667 -58.667 -92 -102 -118
c-44 -26 -92.667 -42.333 -146 -49c-56 -7.33301 -114 -11 -174 -11h-188z" />
    <glyph glyph-name="approxequal" unicode="&#xdf;" horiz-adv-x="1063" 
d="M166 0l151.001 -0.00390625l189 967c9.33301 44.667 20.333 89.667 33 135c9.33301 43.333 23 83 41 119c18.667 38 43 67.333 73 88c28.667 21.333 65.667 32 111 32c50.667 0 91.667 -15.667 123 -47c31.333 -34 47.666 -88 48.999 -162
c0 -77.333 -19 -149.666 -57 -216.999c-19.333 -31.333 -45.333 -56.333 -78 -75c-32.667 -22 -71.667 -33 -117 -33h-23l-18 -92h29c140.667 0 211.667 -74.667 213 -224c0 -100.667 -22 -194 -66 -280c-46 -90 -123.667 -136.333 -233 -139c-36 0 -65.333 4 -88 12
c-24.667 6.66699 -43.334 12 -56.001 16l-20 -100l65 -12c30 -7.33301 63.667 -11 101 -11c168 4.66699 288 59.334 360 164.001c71.333 102.667 106.333 216.667 105 342c0 61.333 -7.66699 110.666 -23 147.999c-16.667 36.667 -37.667 64 -63 82
c-24.667 17.333 -50 30.333 -76 39c-27.333 8 -52.666 12.667 -75.999 14v4c83.333 19.333 152.333 58.333 207 117c53.333 58.667 80.666 141.334 81.999 248.001c0 88.667 -26 160.334 -78 215.001c-54.667 55.333 -142 84 -262 86c-79.333 0 -142.333 -11 -189 -33
c-47.333 -23.333 -85.333 -55.333 -114 -96c-27.333 -41.333 -48.666 -91.333 -63.999 -150c-14.667 -57.333 -29 -120.666 -43 -189.999z" />
    <glyph glyph-name="paragraph" unicode="&#xe0;" 
d="M713 0h150.997l187 975h-152l-27 -158h-4c-4 12.667 -10.667 29 -20 49c-10 19.333 -25 39.333 -45 60c-20.667 21.333 -46 38.333 -76 51c-31.333 13.333 -69.666 20 -114.999 20c-77.333 -1.33301 -143.333 -21.666 -198 -60.999
c-54.667 -41.333 -99.667 -95.333 -135 -162c-68.667 -140.667 -103 -290 -103 -448c-1.33301 -98.667 19.334 -180.667 62.001 -246c42 -66.667 111.333 -101 208 -103c45.333 0 84.333 7.66699 117 23c32.667 13.333 61.334 29.666 86.001 48.999
c24.667 22 44.667 43.333 60 64c13.333 20 24 38.333 32 55l4 -4zM343.997 336c0 116 23.334 237.333 70.001 364c22.667 58.667 52.667 107.334 90 146.001c34 38 75.667 57 125 57c38 0 69.333 -9.66699 94 -29c24.667 -18.667 43 -43 55 -73
c14 -28.667 23.667 -58 29 -88c2.66699 -31.333 4 -58.666 4 -81.999c0 -37.333 -3.33301 -86 -10 -146c-10 -61.333 -27 -123.333 -51 -186c-22 -62.667 -53.667 -115.334 -95 -158.001c-42 -46 -94.333 -69 -157 -69c-31.333 0 -57.333 8.66699 -78 26
c-20.667 16.667 -36.334 38.667 -47.001 66c-10 27.333 -17 56.666 -21 87.999c-5.33301 28.667 -8 56.667 -8 84v0zM666.998 1145h127l-33 274h-178z" />
    <glyph glyph-name="bullet" unicode="&#xe1;" 
d="M713 0h150.997l187 975h-152l-27 -158h-4c-4 12.667 -10.667 29 -20 49c-10 19.333 -25 39.333 -45 60c-20.667 21.333 -46 38.333 -76 51c-31.333 13.333 -69.666 20 -114.999 20c-77.333 -1.33301 -143.333 -21.666 -198 -60.999
c-54.667 -41.333 -99.667 -95.333 -135 -162c-68.667 -140.667 -103 -290 -103 -448c-1.33301 -98.667 19.334 -180.667 62.001 -246c42 -66.667 111.333 -101 208 -103c45.333 0 84.333 7.66699 117 23c32.667 13.333 61.334 29.666 86.001 48.999
c24.667 22 44.667 43.333 60 64c13.333 20 24 38.333 32 55l4 -4zM343.997 336c0 116 23.334 237.333 70.001 364c22.667 58.667 52.667 107.334 90 146.001c34 38 75.667 57 125 57c38 0 69.333 -9.66699 94 -29c24.667 -18.667 43 -43 55 -73
c14 -28.667 23.667 -58 29 -88c2.66699 -31.333 4 -58.666 4 -81.999c0 -37.333 -3.33301 -86 -10 -146c-10 -61.333 -27 -123.333 -51 -186c-22 -62.667 -53.667 -115.334 -95 -158.001c-42 -46 -94.333 -69 -157 -69c-31.333 0 -57.333 8.66699 -78 26
c-20.667 16.667 -36.334 38.667 -47.001 66c-10 27.333 -17 56.666 -21 87.999c-5.33301 28.667 -8 56.667 -8 84v0zM657.998 1145h129l191 274h-180z" />
    <glyph glyph-name="germandbls" unicode="&#xe2;" 
d="M713 0h150.997l187 975h-152l-27 -158h-4c-4 12.667 -10.667 29 -20 49c-10 19.333 -25 39.333 -45 60c-20.667 21.333 -46 38.333 -76 51c-31.333 13.333 -69.666 20 -114.999 20c-77.333 -1.33301 -143.333 -21.666 -198 -60.999
c-54.667 -41.333 -99.667 -95.333 -135 -162c-68.667 -140.667 -103 -290 -103 -448c-1.33301 -98.667 19.334 -180.667 62.001 -246c42 -66.667 111.333 -101 208 -103c45.333 0 84.333 7.66699 117 23c32.667 13.333 61.334 29.666 86.001 48.999
c24.667 22 44.667 43.333 60 64c13.333 20 24 38.333 32 55l4 -4zM343.997 336c0 116 23.334 237.333 70.001 364c22.667 58.667 52.667 107.334 90 146.001c34 38 75.667 57 125 57c38 0 69.333 -9.66699 94 -29c24.667 -18.667 43 -43 55 -73
c14 -28.667 23.667 -58 29 -88c2.66699 -31.333 4 -58.666 4 -81.999c0 -37.333 -3.33301 -86 -10 -146c-10 -61.333 -27 -123.333 -51 -186c-22 -62.667 -53.667 -115.334 -95 -158.001c-42 -46 -94.333 -69 -157 -69c-31.333 0 -57.333 8.66699 -78 26
c-20.667 16.667 -36.334 38.667 -47.001 66c-10 27.333 -17 56.666 -21 87.999c-5.33301 28.667 -8 56.667 -8 84v0zM495.998 1145h125l165 157v0l99 -157h125l-131 262h-150z" />
    <glyph glyph-name="copyright" unicode="&#xe3;" 
d="M713 0h150.997l187 975h-152l-27 -158h-4c-4 12.667 -10.667 29 -20 49c-10 19.333 -25 39.333 -45 60c-20.667 21.333 -46 38.333 -76 51c-31.333 13.333 -69.666 20 -114.999 20c-77.333 -1.33301 -143.333 -21.666 -198 -60.999
c-54.667 -41.333 -99.667 -95.333 -135 -162c-68.667 -140.667 -103 -290 -103 -448c-1.33301 -98.667 19.334 -180.667 62.001 -246c42 -66.667 111.333 -101 208 -103c45.333 0 84.333 7.66699 117 23c32.667 13.333 61.334 29.666 86.001 48.999
c24.667 22 44.667 43.333 60 64c13.333 20 24 38.333 32 55l4 -4zM343.997 336c0 116 23.334 237.333 70.001 364c22.667 58.667 52.667 107.334 90 146.001c34 38 75.667 57 125 57c38 0 69.333 -9.66699 94 -29c24.667 -18.667 43 -43 55 -73
c14 -28.667 23.667 -58 29 -88c2.66699 -31.333 4 -58.666 4 -81.999c0 -37.333 -3.33301 -86 -10 -146c-10 -61.333 -27 -123.333 -51 -186c-22 -62.667 -53.667 -115.334 -95 -158.001c-42 -46 -94.333 -69 -157 -69c-31.333 0 -57.333 8.66699 -78 26
c-20.667 16.667 -36.334 38.667 -47.001 66c-10 27.333 -17 56.666 -21 87.999c-5.33301 28.667 -8 56.667 -8 84v0zM569.998 1145c4.66699 14.667 11.6689 33.6689 21.002 57.002c8 23.333 22.333 35.666 43 36.999c10.667 0 24.334 -4.66699 41.001 -14
c16 -10 33.667 -22.333 53 -37c19.333 -12.667 39 -24.334 59 -35.001c20.667 -12 40.667 -18 60 -18c61.333 2.66699 103.666 32.667 126.999 90c12 26 20.667 51 26 75l15 60h-86c-1.33301 -16.667 -7 -36.667 -17 -60c-9.33301 -24 -25 -37 -47 -39
c-12 0 -26.333 6.33301 -43 19c-17.333 10.667 -35.666 23.667 -54.999 39c-19.333 14.667 -39 27.667 -59 39c-20.667 9.33301 -41.334 14 -62.001 14c-28.667 0 -51.667 -9 -69 -27c-20.667 -18.667 -37.334 -41 -50.001 -67c-12 -24.667 -20.667 -50 -26 -76
c-6.66699 -24.667 -12.334 -43.667 -17.001 -57h86z" />
    <glyph glyph-name="registered" unicode="&#xe4;" 
d="M713 0h150.997l187 975h-152l-27 -158h-4c-4 12.667 -10.667 29 -20 49c-10 19.333 -25 39.333 -45 60c-20.667 21.333 -46 38.333 -76 51c-31.333 13.333 -69.666 20 -114.999 20c-77.333 -1.33301 -143.333 -21.666 -198 -60.999
c-54.667 -41.333 -99.667 -95.333 -135 -162c-68.667 -140.667 -103 -290 -103 -448c-1.33301 -98.667 19.334 -180.667 62.001 -246c42 -66.667 111.333 -101 208 -103c45.333 0 84.333 7.66699 117 23c32.667 13.333 61.334 29.666 86.001 48.999
c24.667 22 44.667 43.333 60 64c13.333 20 24 38.333 32 55l4 -4zM343.997 336c0 116 23.334 237.333 70.001 364c22.667 58.667 52.667 107.334 90 146.001c34 38 75.667 57 125 57c38 0 69.333 -9.66699 94 -29c24.667 -18.667 43 -43 55 -73
c14 -28.667 23.667 -58 29 -88c2.66699 -31.333 4 -58.666 4 -81.999c0 -37.333 -3.33301 -86 -10 -146c-10 -61.333 -27 -123.333 -51 -186c-22 -62.667 -53.667 -115.334 -95 -158.001c-42 -46 -94.333 -69 -157 -69c-31.333 0 -57.333 8.66699 -78 26
c-20.667 16.667 -36.334 38.667 -47.001 66c-10 27.333 -17 56.666 -21 87.999c-5.33301 28.667 -8 56.667 -8 84v0zM487.998 1167h183l35 180h-183zM850.998 1167h182l35 180h-182z" />
    <glyph glyph-name="trademark" unicode="&#xe5;" 
d="M713 0h150.997l187 975h-152l-27 -158h-4c-4 12.667 -10.667 29 -20 49c-10 19.333 -25 39.333 -45 60c-20.667 21.333 -46 38.333 -76 51c-31.333 13.333 -69.666 20 -114.999 20c-77.333 -1.33301 -143.333 -21.666 -198 -60.999
c-54.667 -41.333 -99.667 -95.333 -135 -162c-68.667 -140.667 -103 -290 -103 -448c-1.33301 -98.667 19.334 -180.667 62.001 -246c42 -66.667 111.333 -101 208 -103c45.333 0 84.333 7.66699 117 23c32.667 13.333 61.334 29.666 86.001 48.999
c24.667 22 44.667 43.333 60 64c13.333 20 24 38.333 32 55l4 -4zM343.997 336c0 116 23.334 237.333 70.001 364c22.667 58.667 52.667 107.334 90 146.001c34 38 75.667 57 125 57c38 0 69.333 -9.66699 94 -29c24.667 -18.667 43 -43 55 -73
c14 -28.667 23.667 -58 29 -88c2.66699 -31.333 4 -58.666 4 -81.999c0 -37.333 -3.33301 -86 -10 -146c-10 -61.333 -27 -123.333 -51 -186c-22 -62.667 -53.667 -115.334 -95 -158.001c-42 -46 -94.333 -69 -157 -69c-31.333 0 -57.333 8.66699 -78 26
c-20.667 16.667 -36.334 38.667 -47.001 66c-10 27.333 -17 56.666 -21 87.999c-5.33301 28.667 -8 56.667 -8 84v0zM760.998 1145c50.667 0 93 17.667 127 53c31.333 31.333 47.666 72.333 48.999 123c-1.33301 49.333 -17.666 91 -48.999 125
c-34 31.333 -76.333 47.666 -127 48.999c-48 -1.33301 -89 -17.666 -123 -48.999c-35.333 -34 -53 -75.667 -53 -125c0 -50.667 17.667 -91.667 53 -123c34 -35.333 75 -53 123 -53v0zM672.998 1321c0 23.333 8.66699 43.666 26 60.999
c16.667 15.333 37.334 23.666 62.001 24.999c26 -1.33301 47 -9.66602 63 -24.999c16.667 -17.333 25 -37.666 25 -60.999c0 -24.667 -8.33301 -45.334 -25 -62.001c-16 -17.333 -37 -26 -63 -26c-24.667 0 -45.334 8.66699 -62.001 26
c-17.333 16.667 -26 37.334 -26 62.001v0z" />
    <glyph glyph-name="guilsinglleft" unicode="&#xe6;" horiz-adv-x="1517" 
d="M707 0l150.999 0.00195312l21 123v0c39.333 -54.667 87 -93 143 -115c54.667 -20.667 114 -31 178 -31c76.667 2 152.334 15 227.001 39l17 90c-54.667 -22.667 -110 -34 -166 -34c-98.667 1.33301 -177.334 32.666 -236.001 93.999c-60 57.333 -90.667 122 -92 194
c0 45.333 6.33301 90 19 134h571c8 31.333 15.667 63.333 23 96c4 31.333 6 62.666 6 93.999c-2.66699 206 -104.334 310.333 -305.001 313c-93.333 -1.33301 -170.666 -38 -231.999 -110l-4 4l16 84h-151l-29 -158h-4c-4 12.667 -10.667 29 -20 49
c-10 19.333 -25 39.333 -45 60c-18 21.333 -42.667 38.333 -74 51c-30 13.333 -69 20 -117 20c-78 -1.33301 -144.333 -21.666 -199 -60.999c-54 -41.333 -99 -95.333 -135 -162c-68 -140.667 -101.333 -290 -100 -448c-1.33301 -98.667 19 -180.667 61 -246
c42.667 -66.667 111.667 -101 207 -103c45.333 0 85 7.66699 119 23c32.667 13.333 60.667 29.666 84 48.999c24.667 22 44.334 43.333 59.001 64c14 20 25 38.333 33 55l4 -4zM337.999 336.002c0 116 23.3359 237.333 70.0029 364
c21.333 58.667 50.666 107.334 87.999 146.001c35.333 38 77.666 57 126.999 57c40.667 0 73.334 -9.66699 98.001 -29c24.667 -18.667 43.667 -43 57 -73c14 -28.667 23.667 -58 29 -88c2.66699 -31.333 4 -58.666 4 -81.999c1.33301 -86 -21.334 -196.667 -68.001 -332
c-24 -62.667 -56.667 -115.334 -98 -158.001c-42 -46 -94 -69 -156 -69c-62.667 1.33301 -103.334 32 -122.001 92c-10 27.333 -17 56.666 -21 87.999c-5.33301 28.667 -8 56.667 -8 84v0zM983.002 588.002c8 56 32 121.334 72 196.001c20 34.667 45.667 63.334 77 86.001
c32 22 71 33 117 33c53.333 -1.33301 95.666 -19 126.999 -53c30 -36.667 45 -80.334 45 -131.001c-1.33301 -42.667 -8.66602 -86.334 -21.999 -131.001h-416z" />
    <glyph glyph-name="acute" unicode="&#xe7;" horiz-adv-x="872" 
d="M336 -190c16 1.33301 32.332 2.00098 48.999 2.00098c28.667 1.33301 56 -3 82 -13c24.667 -10.667 37.667 -33.667 39 -69c-1.33301 -34 -14.333 -60.667 -39 -80c-23.333 -20.667 -49.333 -31.667 -78 -33c-48 1.33301 -83.333 17.666 -106 48.999l-21 -104
c9.33301 -4 24.333 -9.66699 45 -17c20.667 -6.66699 46.667 -10 78 -10c70.667 1.33301 128 22.666 172 63.999c42 38 64 87 66 147c-2 53.333 -17.333 89.666 -46 108.999c-30 18.667 -65.333 27.334 -106 26.001h-20l45 105c31.333 -6 65.333 -9 102 -9
c72.667 2 143.667 12.333 213 31l18 98c-57.333 -21.333 -115.333 -32.666 -174 -33.999c-57.333 0 -105 10.667 -143 32c-38 20.667 -68.667 48.667 -92 84c-45.333 71.333 -67.333 154 -66 248c0 132.667 28 243.334 84 332.001c53.333 88.667 122.333 133.667 207 135
c60 -1.33301 99.667 -17.666 119 -48.999c17.333 -31.333 25.333 -65.333 24 -102c-1.33301 -27.333 -4.66602 -53.333 -9.99902 -78h178c6 27.333 9 55.333 9 84c-3.33301 154 -103 233.667 -299 239c-157.333 -2.66699 -276.333 -63.334 -357 -182.001
c-82 -117.333 -123 -261.333 -123 -432c0 -200.667 76.667 -326.334 230 -377.001z" />
    <glyph glyph-name="notequal" unicode="&#xe8;" horiz-adv-x="909" 
d="M825 106c-53.333 -22.667 -108.666 -33.999 -165.999 -33.999c-198 4 -299.667 131.667 -305 383c0 48.667 5 97 15 145h573c6.66699 35.333 10 71.666 10 108.999c-2.66699 189.333 -105 285.333 -307 288c-152.667 -2.66699 -267.334 -62 -344.001 -178
s-115 -256.667 -115 -422c1.33301 -160.667 41 -271 119 -331c36.667 -32 79 -54.667 127 -68c46.667 -14 96.667 -21 150 -21c76 2 152.333 15 229 39zM389 694.001c8 38.667 29.999 82.334 65.999 131.001c17.333 23.333 40.333 42.666 69 57.999
c28.667 13.333 64.334 20 107.001 20c54.667 -1.33301 97.667 -17 129 -47c30 -30 45 -67.667 45 -113c-2.66699 -16 -4 -32.333 -4 -49h-412zM610.999 1145h127l-33 274h-178z" />
    <glyph glyph-name="dieresis" unicode="&#xe9;" horiz-adv-x="909" 
d="M825 106c-53.333 -22.667 -108.666 -33.999 -165.999 -33.999c-198 4 -299.667 131.667 -305 383c0 48.667 5 97 15 145h573c6.66699 35.333 10 71.666 10 108.999c-2.66699 189.333 -105 285.333 -307 288c-152.667 -2.66699 -267.334 -62 -344.001 -178
s-115 -256.667 -115 -422c1.33301 -160.667 41 -271 119 -331c36.667 -32 79 -54.667 127 -68c46.667 -14 96.667 -21 150 -21c76 2 152.333 15 229 39zM389 694.001c8 38.667 29.999 82.334 65.999 131.001c17.333 23.333 40.333 42.666 69 57.999
c28.667 13.333 64.334 20 107.001 20c54.667 -1.33301 97.667 -17 129 -47c30 -30 45 -67.667 45 -113c-2.66699 -16 -4 -32.333 -4 -49h-412zM598.999 1145h129l191 274h-180z" />
    <glyph glyph-name="AE" unicode="&#xea;" horiz-adv-x="909" 
d="M825 106c-53.333 -22.667 -108.666 -33.999 -165.999 -33.999c-198 4 -299.667 131.667 -305 383c0 48.667 5 97 15 145h573c6.66699 35.333 10 71.666 10 108.999c-2.66699 189.333 -105 285.333 -307 288c-152.667 -2.66699 -267.334 -62 -344.001 -178
s-115 -256.667 -115 -422c1.33301 -160.667 41 -271 119 -331c36.667 -32 79 -54.667 127 -68c46.667 -14 96.667 -21 150 -21c76 2 152.333 15 229 39zM389 694.001c8 38.667 29.999 82.334 65.999 131.001c17.333 23.333 40.333 42.666 69 57.999
c28.667 13.333 64.334 20 107.001 20c54.667 -1.33301 97.667 -17 129 -47c30 -30 45 -67.667 45 -113c-2.66699 -16 -4 -32.333 -4 -49h-412zM439.999 1145h125l165 157v0l99 -157h125l-131 262h-150z" />
    <glyph glyph-name="Oslash" unicode="&#xeb;" horiz-adv-x="909" 
d="M825 106c-53.333 -22.667 -108.666 -33.999 -165.999 -33.999c-198 4 -299.667 131.667 -305 383c0 48.667 5 97 15 145h573c6.66699 35.333 10 71.666 10 108.999c-2.66699 189.333 -105 285.333 -307 288c-152.667 -2.66699 -267.334 -62 -344.001 -178
s-115 -256.667 -115 -422c1.33301 -160.667 41 -271 119 -331c36.667 -32 79 -54.667 127 -68c46.667 -14 96.667 -21 150 -21c76 2 152.333 15 229 39zM389 694.001c8 38.667 29.999 82.334 65.999 131.001c17.333 23.333 40.333 42.666 69 57.999
c28.667 13.333 64.334 20 107.001 20c54.667 -1.33301 97.667 -17 129 -47c30 -30 45 -67.667 45 -113c-2.66699 -16 -4 -32.333 -4 -49h-412zM431.999 1167h183l35 180h-183zM794.999 1167h182l35 180h-182z" />
    <glyph glyph-name="plusminus" unicode="&#xec;" horiz-adv-x="494" 
d="M170 0h152l190 975h-152zM397 1145h127l-33 274h-178z" />
    <glyph glyph-name="infinity" unicode="&#xed;" horiz-adv-x="494" 
d="M170 0h152l190 975h-152zM388 1145h129l191 274h-180z" />
    <glyph glyph-name="lessequal" unicode="&#xee;" horiz-adv-x="494" 
d="M170 0h152l190 975h-152zM206 1145h125l165 157v0l99 -157h125l-131 262h-150z" />
    <glyph glyph-name="greaterequal" unicode="&#xef;" horiz-adv-x="494" 
d="M170 0h152l190 975h-152zM218 1167h183l35 180h-183zM581 1167h182l35 180h-182z" />
    <glyph glyph-name="glyph164" unicode="&#xf0;" 
d="M1014 1227l-29.001 76.999v0l-168 -65c-22 19.333 -48 39 -78 59h-274v-6c76.667 -30 146.334 -66 209.001 -108l-144 -58l29 -73v0l188 73v0c34.667 -31.333 62.667 -63.333 84 -96c22 -35.333 40.667 -71.333 56 -108l-4 -5c-10 16.667 -28.667 34 -56 52
c-27.333 17.333 -69.666 26.666 -126.999 27.999c-176 -4 -304.333 -70.667 -385 -200c-80 -127.333 -120 -274.333 -120 -441c0 -110.667 28 -200.667 84 -270c54 -70.667 142.667 -107 266 -109c177.333 4.66699 307.666 72.334 390.999 203.001
c79.333 127.333 119 276.333 119 447c0 133.333 -11.667 241.666 -35 324.999c-12.667 42.667 -29.667 82.334 -51 119.001c-22 36.667 -48.667 72.334 -80 107.001zM361.999 347.999c0 132.667 26 257.003 78 373.003c27.333 54.667 61.666 99 102.999 133
c39.333 31.333 86.333 47.666 141 48.999c134 -2.66699 201.667 -85.334 203 -248.001c0 -129.333 -24.667 -256.333 -74 -381c-26 -58.667 -59.333 -106.334 -100 -143.001c-41.333 -39.333 -90.666 -59 -147.999 -59c-73.333 1.33301 -125 28 -155 80
c-32 50 -48 115.333 -48 196v0z" />
    <glyph glyph-name="yen" unicode="&#xf1;" horiz-adv-x="1063" 
d="M168 0l151.001 -0.000976562l82 432c7.33301 28.667 19 67 35 115c16.667 47.333 39.334 96.333 68.001 147s64.667 93 108 127c42.667 32.667 92.667 49.667 150 51c38 0 67.333 -11.333 88 -34c19.333 -24.667 29 -57.667 29 -99c-2 -46 -8.33301 -92.333 -19 -139
l-117 -600h152l131 674c6.66699 39.333 10 78 10 116c0 54.667 -17 102.667 -51 144c-36.667 40.667 -92 61.667 -166 63c-46 0 -89 -8.66699 -129 -26c-39.333 -19.333 -73.333 -42.666 -102 -69.999s-53.334 -56 -74.001 -86c-20.667 -28.667 -36.334 -54 -47.001 -76
l-4 4l45 232h-152zM595.001 1145c4.66699 14.667 11.6689 33.6689 21.002 57.002c8 23.333 22.333 35.666 43 36.999c10.667 0 24.334 -4.66699 41.001 -14c16 -10 33.667 -22.333 53 -37c19.333 -12.667 39 -24.334 59 -35.001c20.667 -12 40.667 -18 60 -18
c61.333 2.66699 103.666 32.667 126.999 90c12 26 20.667 51 26 75l15 60h-86c-1.33301 -16.667 -7 -36.667 -17 -60c-9.33301 -24 -25 -37 -47 -39c-12 0 -26.333 6.33301 -43 19c-17.333 10.667 -35.666 23.667 -54.999 39c-19.333 14.667 -39 27.667 -59 39
c-20.667 9.33301 -41.334 14 -62.001 14c-28.667 0 -51.667 -9 -69 -27c-20.667 -18.667 -37.334 -41 -50.001 -67c-12 -24.667 -20.667 -50 -26 -76c-6.66699 -24.667 -12.334 -43.667 -17.001 -57h86z" />
    <glyph glyph-name="partialdiff" unicode="&#xf2;" 
d="M528 -23c179.333 4.66699 309.666 72.334 390.999 203.001c79.333 127.333 119 276.333 119 447c1.33301 241.333 -116 364.666 -352 369.999c-177.333 -4 -306.333 -70.667 -387 -200c-80.667 -127.333 -121 -274.333 -121 -441c0 -110.667 28 -200.667 84 -270
c54.667 -70.667 143.334 -107 266.001 -109v0zM346 348c0 132.667 26.001 257.003 78.001 373.003c27.333 54.667 61.333 99 102 133c40 31.333 87.333 47.666 142 48.999c133.333 -2.66699 200.666 -85.334 201.999 -248.001c0 -129.333 -24.333 -256.333 -73 -381
c-26 -58.667 -59.667 -106.334 -101 -143.001c-40.667 -39.333 -89.667 -59 -147 -59c-74 1.33301 -126 28 -156 80c-31.333 50 -47 115.333 -47 196v0zM669.001 1145h127l-33 274h-178z" />
    <glyph glyph-name="mu" unicode="&#xf3;" 
d="M528 -23c179.333 4.66699 309.666 72.334 390.999 203.001c79.333 127.333 119 276.333 119 447c1.33301 241.333 -116 364.666 -352 369.999c-177.333 -4 -306.333 -70.667 -387 -200c-80.667 -127.333 -121 -274.333 -121 -441c0 -110.667 28 -200.667 84 -270
c54.667 -70.667 143.334 -107 266.001 -109v0zM346 348c0 132.667 26.001 257.003 78.001 373.003c27.333 54.667 61.333 99 102 133c40 31.333 87.333 47.666 142 48.999c133.333 -2.66699 200.666 -85.334 201.999 -248.001c0 -129.333 -24.333 -256.333 -73 -381
c-26 -58.667 -59.667 -106.334 -101 -143.001c-40.667 -39.333 -89.667 -59 -147 -59c-74 1.33301 -126 28 -156 80c-31.333 50 -47 115.333 -47 196v0zM660.001 1145h129l191 274h-180z" />
    <glyph glyph-name="summation" unicode="&#xf4;" 
d="M528 -23c179.333 4.66699 309.666 72.334 390.999 203.001c79.333 127.333 119 276.333 119 447c1.33301 241.333 -116 364.666 -352 369.999c-177.333 -4 -306.333 -70.667 -387 -200c-80.667 -127.333 -121 -274.333 -121 -441c0 -110.667 28 -200.667 84 -270
c54.667 -70.667 143.334 -107 266.001 -109v0zM346 348c0 132.667 26.001 257.003 78.001 373.003c27.333 54.667 61.333 99 102 133c40 31.333 87.333 47.666 142 48.999c133.333 -2.66699 200.666 -85.334 201.999 -248.001c0 -129.333 -24.333 -256.333 -73 -381
c-26 -58.667 -59.667 -106.334 -101 -143.001c-40.667 -39.333 -89.667 -59 -147 -59c-74 1.33301 -126 28 -156 80c-31.333 50 -47 115.333 -47 196v0zM498.001 1145h125l165 157v0l99 -157h125l-131 262h-150z" />
    <glyph glyph-name="pi" unicode="&#xf5;" 
d="M528 -23c179.333 4.66699 309.666 72.334 390.999 203.001c79.333 127.333 119 276.333 119 447c1.33301 241.333 -116 364.666 -352 369.999c-177.333 -4 -306.333 -70.667 -387 -200c-80.667 -127.333 -121 -274.333 -121 -441c0 -110.667 28 -200.667 84 -270
c54.667 -70.667 143.334 -107 266.001 -109v0zM346 348c0 132.667 26.001 257.003 78.001 373.003c27.333 54.667 61.333 99 102 133c40 31.333 87.333 47.666 142 48.999c133.333 -2.66699 200.666 -85.334 201.999 -248.001c0 -129.333 -24.333 -256.333 -73 -381
c-26 -58.667 -59.667 -106.334 -101 -143.001c-40.667 -39.333 -89.667 -59 -147 -59c-74 1.33301 -126 28 -156 80c-31.333 50 -47 115.333 -47 196v0zM572.001 1145c4.66699 14.667 11.6689 33.6689 21.002 57.002c8 23.333 22.333 35.666 43 36.999
c10.667 0 24.334 -4.66699 41.001 -14c16 -10 33.667 -22.333 53 -37c19.333 -12.667 39 -24.334 59 -35.001c20.667 -12 40.667 -18 60 -18c61.333 2.66699 103.666 32.667 126.999 90c12 26 20.667 51 26 75l15 60h-86c-1.33301 -16.667 -7 -36.667 -17 -60
c-9.33301 -24 -25 -37 -47 -39c-12 0 -26.333 6.33301 -43 19c-17.333 10.667 -35.666 23.667 -54.999 39c-19.333 14.667 -39 27.667 -59 39c-20.667 9.33301 -41.334 14 -62.001 14c-28.667 0 -51.667 -9 -69 -27c-20.667 -18.667 -37.334 -41 -50.001 -67
c-12 -24.667 -20.667 -50 -26 -76c-6.66699 -24.667 -12.334 -43.667 -17.001 -57h86z" />
    <glyph glyph-name="product" unicode="&#xf6;" 
d="M528 -23c179.333 4.66699 309.666 72.334 390.999 203.001c79.333 127.333 119 276.333 119 447c1.33301 241.333 -116 364.666 -352 369.999c-177.333 -4 -306.333 -70.667 -387 -200c-80.667 -127.333 -121 -274.333 -121 -441c0 -110.667 28 -200.667 84 -270
c54.667 -70.667 143.334 -107 266.001 -109v0zM346 348c0 132.667 26.001 257.003 78.001 373.003c27.333 54.667 61.333 99 102 133c40 31.333 87.333 47.666 142 48.999c133.333 -2.66699 200.666 -85.334 201.999 -248.001c0 -129.333 -24.333 -256.333 -73 -381
c-26 -58.667 -59.667 -106.334 -101 -143.001c-40.667 -39.333 -89.667 -59 -147 -59c-74 1.33301 -126 28 -156 80c-31.333 50 -47 115.333 -47 196v0zM490.001 1167h183l35 180h-183zM853.001 1167h182l35 180h-182z" />
    <glyph glyph-name="Ugrave" unicode="&#xf7;" horiz-adv-x="1175" 
d="M211 436h944v125h-944v-125zM590 0h186v186h-186v-186zM590 811h186v186h-186v-186z" />
    <glyph glyph-name="guilsinglright" unicode="&#xf8;" 
d="M166 -100l121 152.997c12 -12 37 -27 75 -45c38.667 -18.667 92.667 -29 162 -31c172 4.66699 304.667 75 398 211c91.333 132.667 137 284.334 137 455.001c0 40.667 -3.33301 76.334 -10 107.001c-7.33301 28.667 -16.333 53 -27 73c-11.333 20.667 -22.333 37 -33 49
c-12 12.667 -23 23 -33 31l109 135l-62 45v0l-106 -135c-12 9.33301 -34.667 19.666 -68 30.999c-32.667 10.667 -76.334 16.667 -131.001 18c-174.667 -2.66699 -307 -70 -397 -202c-94 -131.333 -141 -285.666 -141 -462.999c0 -64 9.33301 -113.333 28 -148
c16.667 -35.333 30.334 -62.666 41.001 -81.999l-123 -155zM868 787.997c14 -35.333 21.666 -71.999 22.999 -109.999c0 -41.333 -5 -95.333 -15 -162c-10.667 -66.667 -30.334 -136.334 -59.001 -209.001c-26 -69.333 -62.667 -128 -110 -176
c-49.333 -50.667 -111.666 -76.667 -186.999 -78c-53.333 1.33301 -90.666 13 -111.999 35c-23.333 20.667 -40 39 -50 55zM333.999 232.998c-4 24.667 -6 50 -6 76c0 45.333 6 102 18 170c12.667 67.333 31.667 134.333 57 201c27.333 68 64.333 125.333 111 172
c46.667 44.667 105.334 68 176.001 70c41.333 -2 72.666 -8.33301 93.999 -19c20.667 -12 35.667 -25 45 -39z" />
    <glyph glyph-name="ordfeminine" unicode="&#xf9;" horiz-adv-x="1063" 
d="M741 0l152 0.000976562l188 975h-151l-84 -432c-4 -28.667 -13.667 -66.334 -29 -113.001c-16 -48 -37 -97 -63 -147c-26 -49.333 -59 -91 -99 -125c-40.667 -36 -89 -54.667 -145 -56c-92.667 1.33301 -139 46 -139 134c0 46 6 92.333 18 139l117 600h-152l-131 -674
c-8 -38 -12 -77 -12 -117c0 -53.333 20.333 -100.333 61 -141c38.667 -42 99 -64 181 -66c44.667 2 85.334 12.333 122.001 31c37.333 18 69.666 39.333 96.999 64c54.667 54.667 90 103 106 145l4 -4zM690 1145h127l-33 274h-178z" />
    <glyph glyph-name="integral" unicode="&#xfa;" horiz-adv-x="1063" 
d="M741 0l152 0.000976562l188 975h-151l-84 -432c-4 -28.667 -13.667 -66.334 -29 -113.001c-16 -48 -37 -97 -63 -147c-26 -49.333 -59 -91 -99 -125c-40.667 -36 -89 -54.667 -145 -56c-92.667 1.33301 -139 46 -139 134c0 46 6 92.333 18 139l117 600h-152l-131 -674
c-8 -38 -12 -77 -12 -117c0 -53.333 20.333 -100.333 61 -141c38.667 -42 99 -64 181 -66c44.667 2 85.334 12.333 122.001 31c37.333 18 69.666 39.333 96.999 64c54.667 54.667 90 103 106 145l4 -4zM681 1145h129l191 274h-180z" />
    <glyph glyph-name="ordmasculine" unicode="&#xfb;" horiz-adv-x="1063" 
d="M741 0l152 0.000976562l188 975h-151l-84 -432c-4 -28.667 -13.667 -66.334 -29 -113.001c-16 -48 -37 -97 -63 -147c-26 -49.333 -59 -91 -99 -125c-40.667 -36 -89 -54.667 -145 -56c-92.667 1.33301 -139 46 -139 134c0 46 6 92.333 18 139l117 600h-152l-131 -674
c-8 -38 -12 -77 -12 -117c0 -53.333 20.333 -100.333 61 -141c38.667 -42 99 -64 181 -66c44.667 2 85.334 12.333 122.001 31c37.333 18 69.666 39.333 96.999 64c54.667 54.667 90 103 106 145l4 -4zM519 1145h125l165 157v0l99 -157h125l-131 262h-150z" />
    <glyph glyph-name="Omega" unicode="&#xfc;" horiz-adv-x="1063" 
d="M741 0l152 0.000976562l188 975h-151l-84 -432c-4 -28.667 -13.667 -66.334 -29 -113.001c-16 -48 -37 -97 -63 -147c-26 -49.333 -59 -91 -99 -125c-40.667 -36 -89 -54.667 -145 -56c-92.667 1.33301 -139 46 -139 134c0 46 6 92.333 18 139l117 600h-152l-131 -674
c-8 -38 -12 -77 -12 -117c0 -53.333 20.333 -100.333 61 -141c38.667 -42 99 -64 181 -66c44.667 2 85.334 12.333 122.001 31c37.333 18 69.666 39.333 96.999 64c54.667 54.667 90 103 106 145l4 -4zM511 1167h183l35 180h-183zM874 1167h182l35 180h-182z" />
    <glyph glyph-name="glyph176" unicode="&#xfd;" horiz-adv-x="909" 
d="M190 -391h138l761 1366h-137l-428 -766v0l-153 766h-164l198 -981zM599 1145h129l191 274h-180z" />
    <glyph glyph-name="glyph167" unicode="&#xfe;" horiz-adv-x="985" 
d="M51 -438l152.001 0.00195312l114 596h5c4 -11.333 11.333 -26.333 22 -45c9.33301 -20.667 24.333 -41.334 45 -62.001c20.667 -18.667 46 -35 76 -49c30 -14.667 67.333 -23 112 -25c78 2 145 24 201 66c56 39.333 101 92.666 135 159.999
c67.333 140.667 101 289.334 101 446.001c0 100 -20.667 182.667 -62 248c-42 65.333 -111.667 98.666 -209 99.999c-43.333 0 -81.333 -6 -114 -18c-32.667 -12.667 -61.334 -29.667 -86.001 -51c-22 -19.333 -41.333 -40 -58 -62c-16 -23.333 -28.333 -43 -37 -59l-4 4
l119 602h-151zM377.001 344.002c0 40.667 4.66699 91.333 14 152c9.33301 61.333 26.333 122.666 51 183.999c24.667 62.667 57 115.334 97 158.001c40.667 42 91.667 63.667 153 65c34 0 62 -7.33301 84 -22c20.667 -16.667 35.667 -38.667 45 -66
c18 -56 26.333 -114.667 25 -176c0 -116 -22 -237 -66 -363c-22 -58.667 -51.333 -107 -88 -145c-36.667 -39.333 -81 -59 -133 -59c-36.667 0 -66.667 10 -90 30c-24.667 19.333 -43.667 43.333 -57 72c-12.667 30 -21.667 60.667 -27 92c-5.33301 28.667 -8 54.667 -8 78
v0z" />
    <glyph glyph-name="circumflex" unicode="&#xff;" horiz-adv-x="909" 
d="M190 -391h138l761 1366h-137l-428 -766v0l-153 766h-164l198 -981zM430 1167h183l35 180h-183zM793 1167h182l35 180h-182z" />
    <glyph glyph-name="onequarter" unicode="&#x131;" horiz-adv-x="494" 
d="M170 0h152l190 975h-152z" />
    <glyph glyph-name="glyph142" unicode="&#x141;" horiz-adv-x="833" 
d="M283 559l-109 -559h666l24 117h-497l114 596l309 221l25 129v0l-307 -217v0l110 567h-170l-139 -717l-192 -137l-25 -129v0l191 129v0z" />
    <glyph glyph-name="glyph148" unicode="&#x142;" horiz-adv-x="494" 
d="M295 641l-123 -641h152l149 770l182 129l23 119v0l-182 -131v0l102 526h-152l-127 -653l-198 -144l-25 -118v0l199 143v0z" />
    <glyph glyph-name="Idieresis" unicode="&#x152;" horiz-adv-x="1782" 
d="M393 467c0 62.667 7.66699 141 23 235c13.333 96 38.333 191 75 285c37.333 96.667 88 178 152 244c64 65.333 144 98.666 240 99.999c164.667 -2.66699 249.334 -127 254.001 -373c0 -60 -5.66699 -137 -17 -231c-13.333 -96.667 -38 -194.334 -74 -293.001
c-35.333 -96.667 -86.333 -178.667 -153 -246c-70 -69.333 -158.667 -104.666 -266 -105.999c-50.667 -1.33301 -101.334 27.334 -152.001 86.001c-23.333 30 -42.333 69.667 -57 119c-16.667 48.667 -25 108.667 -25 180v0zM991 0l738.999 0.000976562l25 117h-598l104 532
h547l23 117h-547l106 530h574l22 117h-720l-43 -229h-5c-57.333 164.667 -162.333 248.667 -315 252c-132.667 -2 -242.667 -36.333 -330 -103c-87.333 -65.333 -157.666 -149.333 -210.999 -252c-50 -102 -86 -207.667 -108 -317c-23.333 -109.333 -35 -207 -35 -293
c5.33301 -330.667 137 -495.334 395 -494.001c106.667 2 190 24.667 250 68c60 44 116 105.333 168 184l4 -4z" />
    <glyph glyph-name="Igrave" unicode="&#x153;" horiz-adv-x="1554" 
d="M1472 106c-54.667 -22.667 -109.667 -33.9971 -165 -33.9971c-96 1.33301 -173.333 31.333 -232 90c-60 57.333 -90 127 -90 209c0 39.333 4.66699 80.333 14 123h574c16 70.667 24.667 142.334 26 215.001c-2.66699 189.333 -105 285.333 -307 288
c-44.667 0 -84.334 -5.33301 -119.001 -16c-34 -12.667 -64.667 -28.334 -92 -47.001c-24.667 -18 -45 -36.333 -61 -55c-18 -19.333 -31.667 -35.333 -41 -48v0c-56 109.333 -155.667 164.666 -299 165.999c-176 -4 -304.333 -70.667 -385 -200
c-80.667 -127.333 -121 -274.333 -121 -441c0 -110.667 28 -200.667 84 -270c54.667 -70.667 143.334 -107 266.001 -109c153.333 3.33301 269.333 76.666 348 219.999v0c36 -80.667 85.333 -137.334 148 -170.001c62.667 -33.333 131.667 -50 207 -50
c78.667 2 155 15 229 39zM342 348.003c0 132.667 26.001 257.003 78.001 373.003c27.333 54.667 61.333 99 102 133c40 31.333 87.333 47.666 142 48.999c133.333 -2.66699 200.666 -85.334 201.999 -248.001c0 -129.333 -24.333 -256.333 -73 -381
c-26 -58.667 -59.667 -106.334 -101 -143.001c-40.667 -39.333 -89.667 -59 -147 -59c-74 1.33301 -126 28 -156 80c-31.333 50 -47 115.333 -47 196v0zM1020 588.006c9.33301 56 32.333 121.332 69 195.999c20.667 34.667 46 63.334 76 86.001c30 22 67.667 33 113 33
c56 -1.33301 99 -17 129 -47s45 -67.667 45 -113c-2.66699 -50 -9.66699 -101.667 -21 -155h-411z" />
    <glyph glyph-name="glyph208" unicode="&#x160;" horiz-adv-x="985" 
d="M1100 1397c-20.667 5.33301 -62.332 13.334 -124.999 24.001c-62.667 10 -134.334 15 -215.001 15c-124.667 0 -233.334 -32.333 -326.001 -97c-95.333 -64 -143.666 -166.333 -144.999 -307c0 -44.667 8.66699 -84.334 26 -119.001
c15.333 -35.333 35.333 -67.333 60 -96s52.667 -54 84 -76c31.333 -22.667 63.333 -44.334 96 -65.001c35.333 -19.333 68.666 -39.333 99.999 -60c31.333 -20 59.333 -41 84 -63s44.667 -47.333 60 -76c14.667 -30 22 -63.333 22 -100c0 -72.667 -29.333 -137 -88 -193
c-57.333 -58.667 -140 -88.667 -248 -90c-78.667 0 -146.667 13.667 -204 41c-57.333 24.667 -106 50.667 -146 78v0l-33 -178c24.667 -10 65.667 -21.667 123 -35c54.667 -13.333 127 -21 217 -23c362 8.66699 546.333 154.334 553 437.001
c-1.33301 102 -28.666 183 -81.999 243c-51.333 58.667 -112.666 106.667 -183.999 144l-96 61c-31.333 19.333 -59.333 39.333 -84 60c-24.667 21.333 -44.667 45 -60 71c-17.333 26 -26 55.333 -26 88c1.33301 79.333 29.333 139.333 84 180c53.333 38.667 120 58 200 58
c71.333 -1.33301 135.666 -11 192.999 -29c56 -20.667 99 -39.667 129 -57zM666.002 1583h149l234 262h-125l-164 -160v0l-100 160h-125z" />
    <glyph glyph-name="glyph181" unicode="&#x161;" horiz-adv-x="833" 
d="M862 950c-17.333 10 -46.0029 20.3311 -86.0029 30.998c-20.667 4 -43 8 -67 12c-24.667 2.66699 -52.667 4 -84 4c-44 0 -87 -4.66699 -129 -14c-44 -9.33301 -83.667 -26.333 -119 -51c-76.667 -46.667 -115.667 -122.667 -117 -228c1.33301 -60 22 -109 62 -147
c38 -38 81.667 -70.667 131 -98c48.667 -27.333 92.334 -56 131.001 -86c18.667 -15.333 33 -33.333 43 -54c9.33301 -20 14 -42.333 14 -67c0 -41.333 -16.333 -79.666 -49 -114.999c-35.333 -35.333 -96 -53.666 -182 -54.999c-54.667 0 -102.667 10.333 -144 31
c-42 16 -79.333 37.667 -112 65v0l-31 -147c86 -34 174 -52 264 -54c106.667 -1.33301 200.334 22 281.001 70c80 48 121.667 133.333 125 256c-2 68 -21.333 123.333 -58 166c-38 40.667 -81.667 74.667 -131 102s-93 54 -131 80c-39.333 26 -59.666 56.667 -60.999 92
c0 50.667 17 88.334 51 113.001c32.667 24.667 75 37 127 37c64 -1.33301 116.333 -13 157 -35c20.667 -10.667 38.667 -20.334 54 -29.001c12 -9.33301 21.333 -17.333 28 -24zM533.997 1145h149l234 262h-125l-164 -160v0l-100 160h-125z" />
    <glyph glyph-name="tilde" unicode="&#x178;" 
d="M420 0h170l125 653l596 760h-162l-473 -604v0l-225 604h-187l283 -760zM530 1605h183l35 180h-183zM893 1605h182l35 180h-182z" />
    <glyph glyph-name="quotesinglbase" unicode="&#x192;" horiz-adv-x="682" 
d="M55 0h152l327 881h279l35 94h-279l17 47c28.667 86 64.667 159 108 219c42.667 58.667 100.667 88.667 174 90c32.667 0 62.667 -4 90 -12s51.333 -19 72 -33l45 119c-14.667 5.33301 -38.667 12 -72 20c-34 7.33301 -74.667 11 -122 11
c-71.333 0 -131 -9.66699 -179 -29c-48.667 -20.667 -88 -48 -118 -82c-30 -32.667 -54 -68.334 -72 -107.001c-18 -39.333 -33 -76.666 -45 -111.999l-49 -131h-174l-35 -94h174z" />
    <glyph glyph-name="threequarters" unicode="&#x2c6;" horiz-adv-x="614" 
d="M285 1145h125l165 157v0l99 -157h125l-131 262h-150z" />
    <glyph glyph-name="Ccaron" unicode="&#x2c7;" horiz-adv-x="614" 
d="M416 1145h149l234 262h-125l-164 -160v0l-100 160h-125z" />
    <glyph glyph-name="gbreve" unicode="&#x2d8;" horiz-adv-x="614" 
d="M707 1419c-7.33301 -28.667 -26.002 -60.002 -56.002 -94.002c-30 -35.333 -75.667 -53.666 -137 -54.999c-32.667 0 -58 6 -76 18c-17.333 10.667 -30.333 24.334 -39 41.001c-8 18 -12.667 35 -14 51c-2.66699 15.333 -4 28.333 -4 39h-90
c-4 -24.667 -6 -47.667 -6 -69c0 -52 17 -98.667 51 -140c34 -42 86.667 -63.667 158 -65c52.667 0 98.334 11.667 137.001 35c36.667 21.333 66 46.333 88 75c24.667 31.333 43 62 55 92c12.667 28.667 20.334 52.667 23.001 72h-90z" />
    <glyph glyph-name="Idotaccent" unicode="&#x2d9;" horiz-adv-x="614" 
d="M438 1167h185l34 180h-184z" />
    <glyph glyph-name="Scedilla" unicode="&#x2da;" horiz-adv-x="614" 
d="M547 1145c50.667 0 93 17.667 127 53c31.333 31.333 47.666 72.333 48.999 123c-1.33301 49.333 -17.666 91 -48.999 125c-34 31.333 -76.333 47.666 -127 48.999c-48 -1.33301 -89 -17.666 -123 -48.999c-35.333 -34 -53 -75.667 -53 -125
c0 -50.667 17.667 -91.667 53 -123c34 -35.333 75 -53 123 -53v0zM459 1321c0 23.333 8.66699 43.666 26 60.999c16.667 15.333 37.334 23.666 62.001 24.999c26 -1.33301 47 -9.66602 63 -24.999c16.667 -17.333 25 -37.666 25 -60.999
c0 -24.667 -8.33301 -45.334 -25 -62.001c-16 -17.333 -37 -26 -63 -26c-24.667 0 -45.334 8.66699 -62.001 26c-17.333 16.667 -26 37.334 -26 62.001v0z" />
    <glyph glyph-name="cacute" unicode="&#x2db;" horiz-adv-x="614" 
d="M559 -334c-8 -5.33301 -21.668 -11.332 -41.001 -17.999s-40.333 -11 -63 -13c-53.333 2 -81.333 33 -84 93c0 32.667 8.66699 64.667 26 96c15.333 30 34 57.333 56 82c22.667 26 44.334 49 65.001 69l49 43h-88c-36.667 -24 -83.667 -65.333 -141 -124
c-24.667 -28.667 -46 -60.334 -64 -95.001c-20 -35.333 -30 -71.333 -30 -108c1.33301 -56 22.333 -93.667 63 -113c38.667 -19.333 75.667 -29 111 -29c40.667 2 81 7.66699 121 17z" />
    <glyph glyph-name="glyph130" unicode="&#x2dc;" horiz-adv-x="614" 
d="M358 1145c4.66699 14.667 11.6689 33.6689 21.002 57.002c8 23.333 22.333 35.666 43 36.999c10.667 0 24.334 -4.66699 41.001 -14c16 -10 33.667 -22.333 53 -37c19.333 -12.667 39 -24.334 59 -35.001c20.667 -12 40.667 -18 60 -18
c61.333 2.66699 103.666 32.667 126.999 90c12 26 20.667 51 26 75l15 60h-86c-1.33301 -16.667 -7 -36.667 -17 -60c-9.33301 -24 -25 -37 -47 -39c-12 0 -26.333 6.33301 -43 19c-17.333 10.667 -35.666 23.667 -54.999 39c-19.333 14.667 -39 27.667 -59 39
c-20.667 9.33301 -41.334 14 -62.001 14c-28.667 0 -51.667 -9 -69 -27c-20.667 -18.667 -37.334 -41 -50.001 -67c-12 -24.667 -20.667 -50 -26 -76c-6.66699 -24.667 -12.334 -43.667 -17.001 -57h86z" />
    <glyph glyph-name="Oacute" unicode="&#x2013;" 
d="M190 436h813l29 144h-813z" />
    <glyph glyph-name="Ocircumflex" unicode="&#x2014;" horiz-adv-x="1403" 
d="M190 436h1194l27 144h-1192z" />
    <glyph glyph-name="Uacute" unicode="&#x2018;" horiz-adv-x="418" 
d="M289 973h186l107 440h-134z" />
    <glyph glyph-name="Ucircumflex" unicode="&#x2019;" horiz-adv-x="418" 
d="M299 973h133l160 440h-187z" />
    <glyph glyph-name="Lslash" unicode="&#x201a;" horiz-adv-x="418" 
d="M84 -238h133l160 441h-187z" />
    <glyph glyph-name="apple" unicode="&#x201c;" horiz-adv-x="721" 
d="M592 973h186l107 440h-133zM289 973h186l107 440h-134z" />
    <glyph glyph-name="Ograve" unicode="&#x201d;" horiz-adv-x="721" 
d="M299 973h133l160 440h-187zM602 973h133l160 440h-186z" />
    <glyph glyph-name="lslash" unicode="&#x201e;" horiz-adv-x="721" 
d="M66 -238h133l159 441h-186zM369 -238h133l159 441h-186z" />
    <glyph glyph-name="ae" unicode="&#x2020;" 
d="M430 0h164l153 786h351l22 117h-350l98 510h-164l-98 -510h-348l-25 -117h351z" />
    <glyph glyph-name="ogonek" unicode="&#x2021;" horiz-adv-x="1063" 
d="M451 0h161l127 657h355l22 117h-356l28 148h357l22 116h-352l72 375h-162l-74 -375h-352l-23 -116h355l-29 -148h-354l-23 -117h352z" />
    <glyph glyph-name="radical" unicode="&#x2022;" 
d="M647 369c105.333 1.33301 192.668 38 262.001 110c71.333 68.667 107.666 154.667 108.999 258c-1.33301 105.333 -37 193.333 -107 264c-70.667 71.333 -158.667 107.666 -264 108.999c-105.333 -1.33301 -192 -37.666 -260 -108.999
c-72 -70.667 -109 -158.667 -111 -264c2 -103.333 39 -189.333 111 -258c71.333 -72 158 -108.667 260 -110v0z" />
    <glyph glyph-name="Aacute" unicode="&#x2026;" horiz-adv-x="1403" 
d="M115 0h186l37 190h-186zM608 0h187l36 190h-186zM1102 0h186l37 190h-186z" />
    <glyph glyph-name="Scaron" unicode="&#x2030;" horiz-adv-x="2390" 
d="M461 408c76 0 139.334 21.668 190.001 65.001c49.333 42.667 87.666 95.334 114.999 158.001c28.667 64 49 131.333 61 202c10 70 15 133 15 189c-1.33301 199.333 -85.333 299 -252 299c-74 -1.33301 -135.667 -22 -185 -62c-50 -40.667 -89.333 -92.334 -118 -155.001
s-49.334 -128.334 -62.001 -197.001c-12 -68 -18 -130.667 -18 -188c-1.33301 -209.333 83.334 -313 254.001 -311v0zM334.001 700.001c0 34.667 4.00293 82.667 12.0029 144c6.66699 58.667 19 118.667 37 180s43.333 113.333 76 156c30 42 69.333 63.667 118 65
c53.333 -1.33301 89.666 -21 108.999 -59c19.333 -40 29 -92.667 29 -158c1.33301 -82 -15 -189 -49 -321c-18 -62 -43.333 -114 -76 -156c-16.667 -20.667 -33.667 -36.334 -51 -47.001c-20.667 -14 -43.334 -21 -68.001 -21c-54.667 1.33301 -91.667 24 -111 68
c-18.667 40.667 -27.334 90.334 -26.001 149.001v0zM1329 -22.999c76.667 2 140.332 24.0029 190.999 66.0029c48.667 42 86.667 95.333 114 160c28.667 65.333 49.334 132 62.001 200c9.33301 70 14 133 14 189c-1.33301 199.333 -85.333 299.666 -252 300.999
c-74 -1.33301 -135.333 -22 -184 -62c-50.667 -40.667 -90.334 -92.334 -119.001 -155.001s-49 -128.334 -61 -197.001c-12.667 -68 -19 -130.667 -19 -188c-1.33301 -209.333 83.334 -314 254.001 -314v0zM1202 272.004c0 34.667 4.00293 82.667 12.0029 144
c7.33301 58.667 19.666 118.667 36.999 180c18 61.333 43.333 113.333 76 156c30 42 69.667 63.667 119 65c53.333 -1.33301 89.333 -21.666 108 -60.999c19.333 -40 29 -92.667 29 -158c1.33301 -82 -15 -189.333 -49 -322c-18 -61.333 -43.333 -113 -76 -155
c-16.667 -20.667 -33.667 -36.334 -51 -47.001c-20.667 -14 -43.334 -21 -68.001 -21c-54.667 1.33301 -91.334 24 -110.001 68c-19.333 40.667 -28.333 91 -27 151v0zM2050 -22.9961c76.667 2 140.001 24.0029 190.001 66.0029c49.333 42 87.666 95.333 115 160
c28.667 65.333 49 132 61 200c10 70 15 133 15 189c-1.33301 199.333 -85.333 299.666 -252 300.999c-74 -1.33301 -135.333 -22 -184 -62c-50.667 -40.667 -90.334 -92.334 -119.001 -155.001s-49.334 -128.334 -62.001 -197.001c-12 -68 -18 -130.667 -18 -188
c-1.33301 -209.333 83.334 -314 254.001 -314v0zM1923.01 272.007c0 34.667 4.00195 82.667 12.002 144c6.66699 58.667 19 118.667 37 180s43.333 113.333 76 156c30 42 69.667 63.667 119 65c52.667 -1.33301 88.667 -21.666 108 -60.999c19.333 -40 29 -92.667 29 -158
c1.33301 -82 -15 -189.333 -49 -322c-18 -61.333 -43.333 -113 -76 -155c-16.667 -20.667 -33.667 -36.334 -51 -47.001c-20.667 -14 -43.334 -21 -68.001 -21c-54.667 1.33301 -91.334 24 -110.001 68c-19.333 40.667 -28.333 91 -27 151v0zM565.008 0.00683594h115
l678 1298h-115z" />
    <glyph glyph-name="dotaccent" unicode="&#x2039;" horiz-adv-x="455" 
d="M262 121h127l-47 379l195 385h-127l-246 -385z" />
    <glyph glyph-name="ring" unicode="&#x203a;" horiz-adv-x="455" 
d="M113 121h127l245 387l-98 377h-127l47 -377z" />
    <glyph glyph-name="guillemotright" unicode="&#x2122;" horiz-adv-x="1251" 
d="M403 819h88v508h152v86h-389v-86h149v-508zM711 819h88v537h4l139 -537h109l139 537h4v-537h88v594h-164l-121 -467h-4l-123 467h-159v-594z" />
    <glyph glyph-name="glyph162" unicode="&#x2212;" horiz-adv-x="1175" 
d="M225 436h944v125h-944v-125z" />
    <glyph glyph-name="macron" unicode="&#x2215;" horiz-adv-x="575" 
d="M47 0h117l678 1298h-115z" />
    <glyph glyph-name="caron" unicode="&#x2219;" horiz-adv-x="418" 
d="M217 551h197l39 199h-197z" />
    <glyph glyph-name="cedilla" unicode="&#xf001;" horiz-adv-x="1139" 
d="M213 0h151.999l172 881h278l18 94h-278l8 47c6.66699 60 25.667 127 57 201c16.667 34 39.334 62.667 68.001 86c28.667 21.333 66.334 32 113.001 32c42 -1.33301 76 -7.33301 102 -18c24.667 -14 43.667 -26.333 57 -37l23 109c-65.333 24 -145.333 37.667 -240 41
c-66.667 -2 -120.334 -16.333 -161.001 -43c-42.667 -30.667 -75 -67.667 -97 -111c-21.333 -44 -37 -89 -47 -135l-26 -129l-9 -43h-174l-18 -94h174zM835.999 0h151l191 975h-152zM1059 1229h184l35 184h-184z" />
    <glyph glyph-name="hungarumlaut" unicode="&#xf002;" horiz-adv-x="1139" 
d="M219 0h151.998l170 881h278l19 94h-279l8 47c5.33301 28.667 13 60.667 23 96c8 35.333 20.333 70.333 37 105c17.333 34 41 62.667 71 86c28.667 21.333 64.334 32 107.001 32c42 -1.33301 76 -7.33301 102 -18c26 -14 46 -26.333 60 -37l20 109
c-65.333 24 -144.333 37.667 -237 41c-71.333 -2 -126.666 -16.333 -165.999 -43c-42.667 -30.667 -75 -67.667 -97 -111c-21.333 -44 -37 -89 -47 -135c-9.33301 -48 -17.333 -91 -24 -129l-8 -43h-175l-18 -94h174zM839.998 0h151l275 1413h-152z" />
    <glyph glyph-name="two" horiz-adv-x="0" 
 />
    <glyph glyph-name="glyph1" horiz-adv-x="0" 
 />
    </font>
</defs>
</svg>
