<?xml version="1.0" standalone="no"?>
<!DOCTYPE svg PUBLIC "-//W3C//DTD SVG 1.1//EN" "http://www.w3.org/Graphics/SVG/1.1/DTD/svg11.dtd" >
<svg>
<metadata>
Created by FontForge 20090914 at Sat Jan 26 19:19:30 2013
 By www-data
Copyright 1988-1991 Adobe Systems Inc.
</metadata>
<defs>
<font id="RotisSemiSans-Bold" horiz-adv-x="1214" >
  <font-face 
    font-family="RotisSemiSans"
    font-weight="700"
    font-stretch="normal"
    units-per-em="2048"
    panose-1="2 11 8 0 0 0 0 0 0 0"
    ascent="1638"
    descent="-410"
    x-height="975"
    cap-height="1413"
    bbox="-115.001 -499.999 2451 1951"
    underline-thickness="102"
    underline-position="-154"
    unicode-range="U+0020-U+F002"
  />
<missing-glyph horiz-adv-x="1024" 
d="M102 0v1092h820v-1092h-820zM204 102h616v888h-616v-888z" />
    <glyph glyph-name=".notdef" horiz-adv-x="1024" 
d="M102 0v1092h820v-1092h-820zM204 102h616v888h-616v-888z" />
    <glyph glyph-name="equal" unicode=" " horiz-adv-x="569" 
 />
    <glyph glyph-name="greater" unicode="!" horiz-adv-x="608" 
d="M299 403h162l43 1010h-246zM256 0h248v248h-248v-248z" />
    <glyph glyph-name="question" unicode="&#x22;" horiz-adv-x="836" 
d="M168 946h156l41 467h-238zM512 946h156l41 467h-238z" />
    <glyph glyph-name="at" unicode="#" 
d="M190 0h164l105 410h164l-105 -410h164l106 410h170l37 141h-170l49 194h170l37 142h-170l107 411h-164l-107 -411h-163l106 411h-164l-106 -411h-166l-37 -142h164l-49 -194h-164l-37 -141h164zM545 745h166l-52 -194h-163z" />
    <glyph glyph-name="A" unicode="$" horiz-adv-x="1178" 
d="M532 -201l110.999 -0.00292969v178c42.667 4.66699 87.667 12.334 135 23.001c48 12 93 29.667 135 53c42.667 24.667 77.667 60.334 105 107.001c26 44.667 39 104 39 178c-1.33301 75.333 -15.666 137.333 -42.999 186c-27.333 46.667 -63 84.334 -107 113.001
c-43.333 28.667 -88.333 51 -135 67c-48 16.667 -91 30.334 -129 41.001v516c101.333 -21.333 152.666 -88 153.999 -200h229c-15.333 173.333 -143 277 -383 311v158h-111v-158c-16 0 -34.333 -1.33301 -55 -4c-20.667 -4 -41.667 -8.66699 -63 -14
c-44 -12.667 -86.333 -32 -127 -58c-40 -24.667 -73 -59.334 -99 -104.001c-28.667 -45.333 -43 -103.333 -43 -174c0 -66 14.333 -120 43 -162c27.333 -42 61 -76.667 101 -104c42 -26 85 -46.667 129 -62c42 -16 80 -29 114 -39v-563
c-47.333 5.33301 -87.333 25.666 -120 60.999c-36 37.333 -54 84 -54 140h-229c9.33301 -93.333 45 -165.666 107 -216.999c62.667 -53.333 161.334 -85 296.001 -95v-178zM531.999 783.997c-32.667 15.333 -65.333 39.999 -98 73.999c-14.667 18 -27.667 41.333 -39 70
c-10.667 28.667 -16 63.334 -16 104.001c0 68.667 15 122 45 160c27.333 36.667 63.333 59.667 108 69v-477zM643 607.996c44 -17.333 84.334 -46.666 121.001 -87.999c19.333 -20.667 33.666 -46 42.999 -76c10.667 -31.333 16 -69.333 16 -114
c0 -75.333 -17 -131.333 -51 -168c-34 -38.667 -77 -63.334 -129 -74.001v520z" />
    <glyph glyph-name="B" unicode="%" horiz-adv-x="1747" 
d="M379 408c117.333 1.33301 201.333 47 252 137c48.667 84.667 73 191 73 319c0 128.667 -24.333 236.667 -73 324c-50.667 87.333 -134.667 131.666 -252 132.999c-114.667 -1.33301 -197.334 -45.666 -248.001 -132.999c-52 -87.333 -77.333 -195.333 -76 -324
c-1.33301 -128 24 -234.333 76 -319c50.667 -90 133.334 -135.667 248.001 -137v0zM215 864c-1.33301 102.667 9.66797 190.668 33.001 264.001c22 75.333 65.667 113.666 131 114.999c36.667 0 66 -10.333 88 -31c20.667 -20 37 -48 49 -84
c19.333 -73.333 29 -161.333 29 -264c0 -100.667 -9.66699 -188 -29 -262c-12 -35.333 -28.333 -63.333 -49 -84c-22 -22 -51.333 -33 -88 -33c-32.667 0 -59.334 11 -80.001 33c-22 20.667 -39 48.667 -51 84c-23.333 74 -34.333 161.333 -33 262v0zM1366 -22.999
c117.333 3.33301 201.333 49.333 252 138c47.333 84.667 71 191 71 319c0 130 -23.667 238.667 -71 326c-50.667 87.333 -134.667 131.666 -252 132.999c-114.667 -1.33301 -197.334 -45.666 -248.001 -132.999c-52 -87.333 -77.333 -196 -76 -326
c-1.33301 -128 24 -234.333 76 -319c50.667 -88.667 133.334 -134.667 248.001 -138v0zM1202 434.001c-1.33301 102.667 9.66699 191.335 33 266.002c22 75.333 65.667 113.666 131 114.999c35.333 0 64 -10.333 86 -31c20.667 -20 37 -48 49 -84
c19.333 -74.667 29 -163.334 29 -266.001c0 -100.667 -9.66699 -188 -29 -262c-12 -35.333 -28.333 -63.333 -49 -84c-22 -22 -50.667 -33 -86 -33c-65.333 1.33301 -109 40.333 -131 117c-23.333 74 -34.333 161.333 -33 262v0zM575.001 0.00195312h140l454 1298h-139z" />
    <glyph glyph-name="C" unicode="&#x26;" horiz-adv-x="1405" 
d="M784 127c-17.333 -8 -41 -17.002 -71 -27.002c-30 -9.33301 -69.667 -14 -119 -14c-166.667 1.33301 -249.334 99.666 -248.001 294.999c0 62.667 8.33301 113 25 151c14.667 38.667 36.334 66.667 65.001 84c28.667 20.667 63 33.667 103 39c39.333 4 82.333 6 129 6
h266v-411c0 -108 26.667 -180.333 80 -217c50 -37.333 119 -56 207 -56c57.333 2 113 7.66699 167 17v119c-32.667 -11.333 -65.334 -17 -98.001 -17c-35.333 0 -63.333 6.33301 -84 19c-20.667 9.33301 -35.667 24.333 -45 45c-14.667 42 -21.334 99.333 -20.001 172v329
h256v109h-256v539v0l-207 -129v-410h-266c-41.333 0 -79.666 3.33301 -114.999 10c-36.667 5.33301 -69.334 17 -98.001 35c-27.333 18 -48.666 44 -63.999 78c-17.333 34 -26 78.333 -26 133c-2 56 12.333 109.333 43 160c14.667 23.333 34.334 42.333 59.001 57
c24.667 14 54.667 21 90 21c52 -2 97.667 -9 137 -21c38.667 -13.333 65.334 -25 80.001 -35v131c-26 8.66699 -58.667 16.334 -98 23.001c-38.667 6.66699 -85 10 -139 10c-126 0 -225.667 -29.333 -299 -88c-75.333 -58.667 -113 -144.667 -113 -258
c0 -54.667 9 -100.334 27 -137.001c16 -37.333 37.667 -66.666 65 -87.999c27.333 -22 56 -39 86 -51c30 -14 58.667 -24.333 86 -31v-4c-35.333 -5.33301 -69.333 -15.666 -102 -30.999c-34 -13.333 -64.667 -33.666 -92 -60.999c-26 -26 -46.667 -60.333 -62 -103
c-18 -42 -27 -94.667 -27 -158c2 -147.333 48.667 -248.333 140 -303c87.333 -56 192.333 -83.333 315 -82c75.333 2 149.666 11 222.999 27v123z" />
    <glyph glyph-name="D" unicode="'" horiz-adv-x="494" 
d="M168 946h156l41 467h-238z" />
    <glyph glyph-name="E" unicode="(" horiz-adv-x="645" 
d="M596 -324v108.997c-53.333 18 -95 51.333 -125 100c-30 49.333 -53.333 111 -70 185c-26 151.333 -38 331.333 -36 540c-2 210.667 10 391.667 36 543c16.667 75.333 40 137.333 70 186c16.667 24.667 35 45.334 55 62.001c20.667 14.667 44 26.334 70 35.001v106v0
c-106.667 -12 -191.334 -45.333 -254.001 -100c-62.667 -56 -107.667 -126.333 -135 -211s-43.666 -179.667 -48.999 -285c-7.33301 -105.333 -11 -217.333 -11 -336c0 -117.333 3.66699 -228.666 11 -333.999c5.33301 -104.667 21.666 -200 48.999 -286
c27.333 -84.667 72.333 -153.667 135 -207c62.667 -56 147.334 -91.667 254.001 -107v0z" />
    <glyph glyph-name="F" unicode=")" horiz-adv-x="645" 
d="M49 -324c109.333 15.333 195.333 51.0029 258 107.003c61.333 53.333 105.666 122.333 132.999 207c27.333 86 44.333 181.333 51 286c4.66699 105.333 7 216.666 7 333.999c0 118.667 -2.33301 230.667 -7 336c-6.66699 105.333 -23.667 200.333 -51 285
s-71.666 155 -132.999 211c-62.667 54.667 -148.667 88 -258 100v0v-106c27.333 -8.66699 52 -20.334 74 -35.001c20.667 -16.667 39 -37.334 55 -62.001c31.333 -48.667 54 -110.667 68 -186c24.667 -151.333 36.334 -332.333 35.001 -543
c1.33301 -208.667 -10.334 -388.667 -35.001 -540c-14 -74 -36.667 -135.667 -68 -185c-32.667 -48.667 -75.667 -82 -129 -100v-109z" />
    <glyph glyph-name="G" unicode="*" horiz-adv-x="645" 
d="M223 840l72 122l29 72v0l26 -72l72 -122v0l110 63l-71 123l-49 63l75 -14h142v123h-142l-75 -14l47 61l73 127l-110 64v0l-74 -127l-22 -74h-4l-25 74l-74 127v0l-110 -64l73 -127l47 -59l-77 12h-140v-123h140l77 14l-49 -63l-71 -123z" />
    <glyph glyph-name="H" unicode="+" 
d="M524 0h164v428h399v164h-399v383h-164v-383h-399v-164h399v-428z" />
    <glyph glyph-name="I" unicode="," horiz-adv-x="455" 
d="M117 -217h164l92 465h-238z" />
    <glyph glyph-name="J" unicode="-" horiz-adv-x="911" 
d="M104 426h703v186h-703v-186z" />
    <glyph glyph-name="K" unicode="." horiz-adv-x="455" 
d="M104 0h248v248h-248v-248z" />
    <glyph glyph-name="L" unicode="/" horiz-adv-x="645" 
d="M12 -278h187l434 1836h-187z" />
    <glyph glyph-name="M" unicode="0" horiz-adv-x="1100" 
d="M551 -23c176 3.33301 299.667 70.333 371 201c69.333 127.333 103.333 284.333 102 471c1.33301 190 -32.667 348.333 -102 475c-71.333 128.667 -195 194.334 -371 197.001c-176 -2.66699 -299.667 -68.334 -371 -197.001c-70.667 -126.667 -105.334 -285 -104.001 -475
c-1.33301 -186.667 33.334 -343.667 104.001 -471c71.333 -130.667 195 -197.667 371 -201v0zM309 649c-1.33301 153.333 14.334 283 47.001 389c18 52 43.333 92.333 76 121c30 30 69.667 45 119 45c50.667 0 92.334 -15 125.001 -45c31.333 -28.667 55 -69 71 -121
c30.667 -106 45 -235.667 43 -389c0 -72 -2.66699 -141.667 -8 -209c-5.33301 -66.667 -17 -126 -35 -178c-16 -52 -39.667 -92.333 -71 -121c-32.667 -31.333 -74.334 -47 -125.001 -47c-49.333 0 -89 15.667 -119 47c-32.667 28.667 -58 69 -76 121
c-32.667 108 -48.334 237 -47.001 387v0z" />
    <glyph glyph-name="N" unicode="1" horiz-adv-x="1100" 
d="M487 1137v-1137h217v1321h-174l-280 -176v-158v0l237 150v0z" />
    <glyph glyph-name="O" unicode="2" horiz-adv-x="1100" 
d="M111 0l832.997 -0.000976562v154h-598l148 125c64 52.667 129.333 115.334 196 188.001c68.667 72 126 150.333 172 235c48 84.667 72.667 172.334 74 263.001c-1.33301 124 -42.333 214.667 -123 272c-79.333 56 -175 84 -287 84c-76 0 -140.667 -9.66699 -194 -29
c-53.333 -20.667 -95 -47.334 -125 -80.001c-30 -31.333 -52.667 -66 -68 -104c-14.667 -38 -24.667 -75 -30 -111h239c0 31.333 11 72.333 33 123c12 23.333 29 44 51 62c22 14.667 51.333 22 88 22c118.667 -2.66699 179.334 -66.667 182.001 -192
c-1.33301 -78 -25.666 -160.667 -72.999 -248c-49.333 -90 -108.666 -176.667 -177.999 -260c-152 -173.333 -265.333 -290 -340 -350v-154z" />
    <glyph glyph-name="P" unicode="3" horiz-adv-x="1100" 
d="M352 1022c-1.33301 46.667 9.67285 88.3281 33.0059 124.995c22 36.667 63 55.667 123 57c66.667 -1.33301 113 -23.666 139 -66.999c24.667 -45.333 37 -98.666 37 -159.999c-1.33301 -156 -67.666 -234 -198.999 -234h-39v-123h39c36 0 68.333 -2.66699 97 -8
c27.333 -8 50.333 -22.333 69 -43c19.333 -18.667 33.666 -46.667 42.999 -84c10 -36.667 15 -83.667 15 -141c0 -75.333 -16 -134.666 -48 -177.999c-32.667 -48 -82.334 -72 -149.001 -72c-42.667 0 -76 7 -100 21c-24.667 10.667 -43.334 25.667 -56.001 45
c-21.333 39.333 -31.333 80.333 -30 123h-240c2.66699 -16.667 6 -33.334 10 -50.001c4 -16 9.66699 -33.667 17 -53c13.333 -35.333 36.333 -68.666 69 -99.999c31.333 -28.667 74.333 -52.667 129 -72c53.333 -18.667 119.666 -29 198.999 -31
c282.667 -4 426.667 123 432 381c-1.33301 105.333 -26 182.666 -74 231.999c-47.333 49.333 -105.333 80 -174 92v4c52 12 102 39.333 150 82c23.333 22 41.666 50 54.999 84c12 34 18 76.333 18 127c-1.33301 118.667 -38 205.334 -110 260.001
c-72.667 54.667 -168.334 82 -287.001 82c-126.667 -1.33301 -225.667 -30.666 -297 -87.999c-70.667 -57.333 -107.334 -127.666 -110.001 -210.999h239z" />
    <glyph glyph-name="Q" unicode="4" horiz-adv-x="1100" 
d="M641 0h195v344h223v154h-223v800h-226l-536 -802v-152h567v-344zM637 1069h4v-571h-371z" />
    <glyph glyph-name="R" unicode="5" horiz-adv-x="1100" 
d="M430 1159l483.002 0.00390625v139h-684l-34 -733h204c8.66699 30 28.667 56 60 78s69.333 33.667 114 35c41.333 0 76.333 -8.33301 105 -25c26 -16 47 -39 63 -69c16.667 -27.333 27.667 -58.333 33 -93c5.33301 -35.333 8 -69.333 8 -102
c1.33301 -76.667 -13 -144.334 -43 -203.001c-16 -27.333 -38.333 -49 -67 -65c-28.667 -18 -65.667 -27 -111 -27c-124 1.33301 -186.667 65.666 -188 192.999h-240c5.33301 -36 16.333 -71.667 33 -107c14.667 -35.333 37 -68.666 67 -99.999
c32 -28.667 75 -52.667 129 -72c53.333 -18.667 119.666 -29 198.999 -31c131.333 0 239.333 32.333 324 97c86 65.333 129.667 167 131 305c0 117.333 -33 215.666 -99 294.999c-68 79.333 -167.667 119.666 -299 120.999c-62.667 -1.33301 -111 -9 -145 -23
c-16.667 -6.66699 -30.334 -13.334 -41.001 -20.001c-12 -8.66699 -22.333 -15.667 -31 -21z" />
    <glyph glyph-name="S" unicode="6" horiz-adv-x="1100" 
d="M989 1020c-4 35.333 -13 70.668 -27 106.001c-13.333 36 -34.333 68.333 -63 97s-66.334 52.334 -113.001 71.001c-47.333 18 -106 27 -176 27c-189.333 -2.66699 -317 -65.667 -383 -189c-64 -122.667 -94.667 -280.334 -92 -473.001
c-1.33301 -80 2.66699 -159.667 12 -239c10 -80.667 29.333 -154.334 58 -221.001c30 -67.333 75 -120.666 135 -159.999s142 -60 246 -62c281.333 0 425.333 138.667 432 416c-5.33301 259.333 -128.333 389 -369 389c-40.667 0 -76.667 -3.33301 -108 -10
c-30 -8 -56.667 -19 -80 -33c-22 -12 -39.667 -25.667 -53 -41c-15.333 -14.667 -27 -28.334 -35 -41.001h-4c0 34.667 1.33301 82.667 4 144c4 58.667 12.667 118.667 26 180c14 61.333 38 114 72 158c32.667 42 77 63.667 133 65c58.667 -1.33301 98.334 -21 119.001 -59
c18 -40 27 -81.667 27 -125h239zM369 422.002c0 76.667 19.001 138 57.001 184c36.667 44 87 66.667 151 68c40 0 73 -8.33301 99 -25c26 -16 47 -39 63 -69c30 -59.333 45 -124.333 45 -195c0 -76.667 -13 -143 -39 -199c-30 -60 -81 -90.667 -153 -92
c-46.667 0 -84.334 11.667 -113.001 35c-28.667 22 -51 49.333 -67 82c-16.667 34 -27.667 69.333 -33 106c-6.66699 38.667 -10 73.667 -10 105v0z" />
    <glyph glyph-name="T" unicode="7" horiz-adv-x="1100" 
d="M260 0h236l456 1159v139h-813v-139h578z" />
    <glyph glyph-name="U" unicode="8" horiz-adv-x="1100" 
d="M551 -23c130.667 0 235 30.332 313 90.999c78 61.333 117.667 156 119 284c-1.33301 105.333 -26 182.666 -74 231.999c-47.333 47.333 -106 77.333 -176 90v4c60 14.667 112.667 46 158 94c44.667 48 67.667 119 69 213c-1.33301 122.667 -42 210 -122 262
c-79.333 50.667 -175 75.334 -287 74.001c-113.333 0 -209 -26.667 -287 -80c-82 -54.667 -123.667 -140 -125 -256c0 -98 21.333 -169.667 64 -215c40.667 -45.333 93 -76 157 -92v-4c-70.667 -14 -128 -47 -172 -99c-46 -52.667 -69 -127 -69 -223
c1.33301 -133.333 42.333 -228.666 123 -285.999c77.333 -59.333 180.333 -89 309 -89v0zM373 984.999c0 62.667 13.667 114.666 41 155.999c28.667 40.667 74.334 61.667 137.001 63c61.333 -1.33301 106.333 -21.666 135 -60.999c27.333 -40 41 -92.667 41 -158
c0 -60 -11 -115.333 -33 -166c-12 -24.667 -29.667 -44.334 -53 -59.001c-23.333 -16.667 -53.333 -25 -90 -25s-66.667 8.33301 -90 25c-24.667 14.667 -43.334 34.334 -56.001 59.001c-12 26 -20 53.333 -24 82c-5.33301 28.667 -8 56.667 -8 84v0zM352 351.998
c-1.33301 60 12.333 118.668 41 176.001c15.333 27.333 36 49.333 62 66c24 16 56 24 96 24c76.667 -1.33301 130 -30 160 -86c14.667 -24 24.667 -52 30 -84c6 -32.667 9 -64.667 9 -96c0 -74.667 -15.333 -135.334 -46 -182.001c-31.333 -50.667 -82.333 -76 -153 -76
c-71.333 1.33301 -122 27.333 -152 78c-31.333 49.333 -47 109.333 -47 180v0z" />
    <glyph glyph-name="V" unicode="9" horiz-adv-x="1100" 
d="M131 279c6.66699 -33.333 17 -66.9971 31 -100.997c13.333 -35.333 34.333 -68 63 -98c28.667 -28.667 66.334 -52.667 113.001 -72c46.667 -18.667 104.667 -29 174 -31c190 3.33301 317.667 67 383 191c62.667 122.667 92.667 279.667 90 471
c0 83.333 -2.66699 165.333 -8 246c-8 80 -27.333 153 -58 219c-30 66.667 -75 120 -135 160c-60 38 -143.333 57 -250 57c-280.667 1.33301 -424.667 -137.334 -432 -416.001c6 -259.333 129 -388.333 369 -387c42 0 79.667 4.66699 113 14c31.333 8.66699 57 19 77 31
c23.333 12.667 42 26.334 56 41.001c12 15.333 22 27.666 30 36.999h5c0 -32.667 -0.666992 -78.334 -2 -137.001c-2 -28.667 -4.33301 -58.667 -7 -90c-4 -31.333 -10 -63 -18 -95c-12 -61.333 -33.333 -113 -64 -155c-30 -46.667 -72.333 -70 -127 -70
c-64 1.33301 -107.667 22.666 -131 63.999c-22.667 36.667 -33.334 77 -32.001 121h-240zM336 913.003c-1.33301 79.333 13.001 147.001 43.001 203.001c27.333 57.333 77 86.666 149 87.999c48 0 87 -11 117 -33c28.667 -20 51.334 -47.333 68.001 -82
c16 -32.667 26.667 -68 32 -106c4.66699 -36.667 7 -72.334 7 -107.001c0 -73.333 -18 -133.333 -54 -180c-36.667 -47.333 -88.334 -71 -155.001 -71c-37.333 0 -69 9.33301 -95 28c-26.667 16.667 -48.334 39.334 -65.001 68.001c-31.333 58.667 -47 122.667 -47 192v0z
" />
    <glyph glyph-name="W" unicode=":" horiz-adv-x="569" 
d="M217 727h248v248h-248v-248zM217 0h248v248h-248v-248z" />
    <glyph glyph-name="X" unicode=";" horiz-adv-x="569" 
d="M207 -217h164l92 463h-238zM223 729h248v246h-248v-246z" />
    <glyph glyph-name="Y" unicode="&#x3c;" 
d="M1104 0v160l-793 338l793 338v159v0l-993 -442v-111z" />
    <glyph glyph-name="Z" unicode="=" 
d="M125 594h962v164h-962v-164zM125 264h962v164h-962v-164z" />
    <glyph glyph-name="bracketleft" unicode="&#x3e;" 
d="M111 0l993 442v111l-993 442v0v-159l792 -338l-792 -338v-160z" />
    <glyph glyph-name="backslash" unicode="?" horiz-adv-x="911" 
d="M246 403l164.004 0.000976562v60c0 52 10 95.667 30 131c20.667 35.333 53 73 97 113c60 48.667 120.667 106.667 182 174c61.333 66.667 93.333 144.334 96 233.001c0 69.333 -15 126 -45 170c-30 42 -68.333 74 -115 96c-46 22 -94.333 37 -145 45
c-50.667 7.33301 -97 11 -139 11c-57.333 0 -107.333 -3.66699 -150 -11c-40.667 -6.66699 -82.334 -15.334 -125.001 -26.001v-207v0c26 20.667 65 43 117 67c52 23.333 110.667 35.666 176 36.999c61.333 0 109.666 -14.333 144.999 -43c36 -28.667 54.667 -68 56 -118
c0 -38.667 -8.33301 -73 -25 -103c-16 -32.667 -37.667 -64 -65 -94c-42.667 -46.667 -80.334 -85.667 -113.001 -117s-59.334 -61.333 -80.001 -90c-20.667 -27.333 -35.667 -57.333 -45 -90c-10.667 -34 -16 -76.333 -16 -127v-111zM205.004 0.000976562h248v248h-248
v-248z" />
    <glyph glyph-name="bracketright" unicode="@" horiz-adv-x="2048" 
d="M1646 29l-50.9971 -39.0029c-28.667 -22 -67.334 -46 -116.001 -72c-49.333 -24.667 -110.333 -46.334 -183 -65.001c-70.667 -19.333 -153 -29.666 -247 -30.999c-221.333 2.66699 -395 58.667 -521 168c-126.667 108 -190.667 247.333 -192 418
c4 211.333 86 397 246 557c154 162 333.333 245 538 249c174.667 -1.33301 324.334 -49.666 449.001 -144.999c124 -96.667 187.333 -234 190 -412c-4 -174.667 -53 -309.667 -147 -405c-92 -97.333 -180.333 -146 -265 -146c-42 2 -62.333 20.667 -61 56
c1.33301 27.333 17 77 47 149l78 199l172 424h-178l-45 -111v0c-8.66699 24.667 -29.334 55.334 -62.001 92.001c-17.333 18 -40.333 32.333 -69 43c-28.667 11.333 -64.334 17 -107.001 17c-65.333 -1.33301 -129.333 -22 -192 -62
c-64.667 -39.333 -121.334 -92.333 -170.001 -159c-109.333 -140.667 -165.333 -290.334 -168 -449.001c0 -95.333 27.333 -167.666 82 -216.999c52 -50.667 115.333 -76 190 -76c40 0 75 6.33301 105 19c30 10.667 55.667 23.667 77 39c23.333 14.667 42 29.667 56 45
c12 13.333 21.333 23.333 28 30c-1.33301 -27.333 7.66699 -57.333 27 -90c19.333 -35.333 59.666 -53.666 120.999 -54.999c150 1.33301 282.333 64.666 397 189.999c116 123.333 175.333 279 178 467c-2.66699 199.333 -73.667 359.333 -213 480
c-138 120 -313.333 180.667 -526 182c-252.667 -4 -467 -95 -643 -273c-181.333 -176 -273.333 -389.667 -276 -641c2.66699 -202 83 -364.333 241 -487c154.667 -125.333 356 -188.666 604 -189.999c176 4 323.667 39.333 443 106c58.667 30 106.334 58.667 143.001 86
c38 26 63.333 46.667 76 62zM756.003 232.997c1.33301 113.333 45.6689 248.667 133.002 406c39.333 74 83.666 134.667 132.999 182c48 48 96.333 72.667 145 74c41.333 -1.33301 73.666 -15 96.999 -41c20 -26 30 -56 30 -90s-14.333 -99.667 -43 -197
c-28.667 -98 -71.667 -197 -129 -297c-14.667 -30 -39 -65.333 -73 -106c-18 -19.333 -39.333 -35 -64 -47c-26 -14 -55.333 -21 -88 -21c-40.667 0 -74 11 -100 33c-27.333 22 -41 56.667 -41 104v0z" />
    <glyph glyph-name="asciicircum" unicode="A" 
d="M18 0h199l129 420h487l129 -420h234l-473 1413h-234zM590 1210h4l199 -655h-404z" />
    <glyph glyph-name="underscore" unicode="B" horiz-adv-x="1139" 
d="M158 0l320.999 -0.000976562c50.667 0 108 2 172 6c62.667 5.33301 125 19.666 187 42.999c61.333 23.333 111 62.333 149 117c38 52 57.667 125.667 59 221c-2.66699 122.667 -36 210.667 -100 264c-31.333 28.667 -65.333 50.667 -102 66c-37.333 16 -75 27 -113 33v4
c30 8 59.333 20 88 36c28.667 16.667 55.334 37.334 80.001 62.001c52 50.667 78.667 125 80 223c-1.33301 75.333 -15.666 136 -42.999 182c-28.667 45.333 -68.334 79 -119.001 101c-48 24.667 -101.333 40.334 -160 47.001c-58.667 5.33301 -118 8 -178 8h-321v-1413z
M382.999 1278h96c86 1.33301 153 -11.667 201 -39c48 -28.667 72.667 -88.667 74 -180c-1.33301 -94.667 -26 -159.667 -74 -195c-50.667 -35.333 -117.667 -52.333 -201 -51h-96v465zM382.999 677.999h96c96 1.33301 176.667 -15.667 242 -51
c31.333 -20.667 56.666 -48 75.999 -82c16 -36 24 -82.667 24 -140c0 -64 -10.333 -114.333 -31 -151c-20 -36.667 -47 -64 -81 -82c-33.333 -15.333 -69.666 -25 -108.999 -29c-40.667 -5.33301 -81 -8 -121 -8h-96v543z" />
    <glyph glyph-name="grave" unicode="C" horiz-adv-x="1139" 
d="M1065 260c-28.667 -24.667 -70.3301 -52.667 -124.997 -84c-57.333 -32.667 -129 -49.667 -215 -51c-78 0 -142.333 19 -193 57c-50 36 -89.333 85.333 -118 148c-54.667 128 -81.334 274.667 -80.001 440c0 50.667 4 107.334 12 170.001c8 61.333 21.667 120 41 176
c22 56 52.667 103 92 141c40 36 91.333 54.667 154 56c47.333 0 86.333 -9 117 -27c28.667 -16.667 51 -40 67 -70c30 -61.333 44.333 -123.333 43 -186h262c0 120 -39 217 -117 291c-77.333 74.667 -195.333 113 -354 115c-211.333 -4.66699 -357.333 -78.667 -438 -222
c-80.667 -140.667 -120.334 -301 -119.001 -481c-1.33301 -204.667 43.667 -380 135 -526c92 -148.667 245 -225.334 459 -230.001c91.333 2 167.666 11.667 228.999 29c62 18 111.333 38.667 148 62v192z" />
    <glyph glyph-name="a" unicode="D" 
d="M162 0h317.002c198 -2.66699 354.333 44.333 469 141c113.333 100 170.666 293.333 171.999 580c-1.33301 274 -59.333 459.667 -174 557c-114.667 92.667 -270.334 137.667 -467.001 135h-317v-1413zM387.002 1278h92c60 0 116 -4.66699 168 -14
c49.333 -12.667 92.333 -38 129 -76c19.333 -18 36.333 -40.667 51 -68c15.333 -28.667 27.666 -62 36.999 -100c20.667 -75.333 31 -175 31 -299c1.33301 -188.667 -24 -332.667 -76 -432c-57.333 -102.667 -170.666 -154 -339.999 -154h-92v1143z" />
    <glyph glyph-name="b" unicode="E" horiz-adv-x="987" 
d="M162 0h762v147h-537v521h492v135h-492v475h520v135h-745v-1413z" />
    <glyph glyph-name="c" unicode="F" horiz-adv-x="911" 
d="M162 0h225v668h469v135h-469v475h496v135h-721v-1413z" />
    <glyph glyph-name="d" unicode="G" horiz-adv-x="1253" 
d="M1130 809h-505.003v-135h280v-502c-43.333 -46.667 -106.666 -70.667 -189.999 -72c-147.333 1.33301 -248.333 64.333 -303 189c-53.333 118.667 -79.333 269.334 -78 452.001c0 58.667 3.33301 121 10 187c5.33301 64 18.333 125.333 39 184s52 107 94 145
c40 36 95.333 54.667 166 56c45.333 0 83 -7.66699 113 -23c30 -14.667 53 -34.334 69 -59.001c30 -53.333 44.333 -118.333 43 -195h262c-1.33301 48 -9.33301 96 -24 144c-15.333 47.333 -41.333 89.666 -78 126.999c-35.333 39.333 -84.333 70.666 -147 93.999
c-63.333 23.333 -142.666 35 -237.999 35c-208.667 -3.33301 -353.334 -71.666 -434.001 -204.999c-79.333 -132.667 -117.666 -296 -114.999 -490c-1.33301 -214 44.334 -393.333 137.001 -538c92 -147.333 245 -222.666 459 -225.999c108 2 196.667 18 266 48
c37.333 13.333 70.333 28.333 99 45c28.667 14.667 53.667 29 75 43v696z" />
    <glyph glyph-name="e" unicode="H" horiz-adv-x="1290" 
d="M164 0h225v668h514v-668h225v1413h-225v-610h-514v610h-225v-1413z" />
    <glyph glyph-name="f" unicode="I" horiz-adv-x="569" 
d="M172 0h225v1413h-225v-1413z" />
    <glyph glyph-name="g" unicode="J" horiz-adv-x="760" 
d="M618 1413h-224.999v-1012c0 -36.667 -0.666992 -71.334 -2 -104.001c-1.33301 -16.667 -4 -31.667 -8 -45c-4 -16.667 -10 -31 -18 -43c-12.667 -24.667 -32 -44.667 -58 -60c-27.333 -16 -63.333 -24 -108 -24c-46.667 0 -87.667 7.33301 -123 22
c-35.333 12.667 -60.666 22.334 -75.999 29.001v-176c44 -13.333 107.333 -21 190 -23c100 2 179.333 15 238 39c57.333 24.667 99.666 57.667 126.999 99c27.333 42 45.666 87.667 54.999 137c5.33301 48 8 97.667 8 149v1012z" />
    <glyph glyph-name="h" unicode="K" horiz-adv-x="1139" 
d="M164 0h225v686h4l477 -686h269l-553 768l497 645h-227l-463 -625h-4v625h-225v-1413z" />
    <glyph glyph-name="i" unicode="L" horiz-adv-x="911" 
d="M164 0h747v147h-522v1266h-225v-1413z" />
    <glyph glyph-name="j" unicode="M" horiz-adv-x="1708" 
d="M164 0h170v1221h4l414 -1221h172l413 1221h4v-1221h203v1413h-291l-393 -1149h-4l-391 1149h-301v-1413z" />
    <glyph glyph-name="k" unicode="N" horiz-adv-x="1329" 
d="M164 0h186v1151h4l578 -1151h233v1413h-186v-1118h-4l-561 1118h-250v-1413z" />
    <glyph glyph-name="l" unicode="O" horiz-adv-x="1290" 
d="M645 -23c198 3.33301 340 72.333 426 207c84.667 134 127 308.333 127 523c0 216.667 -42.333 391.334 -127 524.001c-86 133.333 -228 201.666 -426 204.999c-196.667 -3.33301 -338 -71.666 -424 -204.999c-86 -132.667 -128.333 -307.334 -127 -524.001
c-1.33301 -214.667 41 -389 127 -523c86 -134.667 227.333 -203.667 424 -207v0zM334 707c0 64 4 131.333 12 202c8 70 21.667 135 41 195c22 62.667 54 113 96 151c41.333 38.667 95.333 58 162 58c70 0 126 -19.333 168 -58c40.667 -38 72 -88.333 94 -151
c22 -60 36.333 -125 43 -195c5.33301 -70.667 8 -138 8 -202c0 -63.333 -2.66699 -129.666 -8 -198.999c-6.66699 -71.333 -21 -137 -43 -197c-22 -61.333 -53.333 -111 -94 -149c-42 -41.333 -98 -62 -168 -62c-66.667 0 -120.667 20.667 -162 62
c-42 38 -74 87.667 -96 149c-19.333 60 -33 125.667 -41 197c-8 69.333 -12 135.666 -12 198.999v0z" />
    <glyph glyph-name="m" unicode="P" horiz-adv-x="1026" 
d="M162 0l225 -0.000976562v623h66c54 1.33301 112.667 5.33301 176 12c62.667 5.33301 122 21 178 47c57.333 26 103.666 66.333 138.999 121c34 54.667 51.667 128.334 53 221.001c0 83.333 -13.667 151 -41 203c-27.333 51.333 -65.333 90 -114 116
c-49.333 28.667 -106.666 48 -171.999 58c-68.667 8 -141.667 12 -219 12h-291v-1413zM387 1278l66 -0.000976562c100.667 1.33301 179 -13.667 235 -45c56 -34 84.667 -103.667 86 -209c0 -58.667 -8 -105.667 -24 -141c-16.667 -37.333 -40.667 -64.666 -72 -81.999
c-28.667 -18 -62.334 -29.667 -101.001 -35c-39.333 -5.33301 -80.666 -8 -123.999 -8h-66v520z" />
    <glyph glyph-name="n" unicode="Q" horiz-adv-x="1290" 
d="M1274 0l0.00195312 196.999v0c-46.667 -23.333 -96 -41.333 -148 -54c-54.667 -13.333 -105.667 -24.666 -153 -33.999l-4 4c64 44.667 117 112.667 159 204c41.333 90.667 62.666 220.667 63.999 390c1.33301 216.667 -40.334 391.334 -125.001 524.001
c-86 133.333 -228 201.666 -426 204.999c-196.667 -3.33301 -338 -71.666 -424 -204.999c-87.333 -132.667 -130.333 -307.334 -129 -524.001c0 -209.333 45.667 -378 137 -506c88.667 -132.667 228 -199.667 418 -201h631zM328.002 706.999
c0 64 3.99902 131.332 11.999 201.999c6.66699 70 21 135 43 195c22 62.667 54 113 96 151c41.333 38.667 95.333 58 162 58c69.333 0 125.333 -19.333 168 -58c40.667 -38 71.334 -88.333 92.001 -151c22 -60 36.333 -125 43 -195c5.33301 -70.667 8 -138 8 -202
c0 -56 -2.66699 -117.667 -8 -185c-8 -66.667 -23 -130 -45 -190s-53.333 -109.333 -94 -148c-41.333 -40.667 -95.333 -61 -162 -61c-68 0 -122.667 19.667 -164 59c-42 37.333 -74 85.333 -96 144s-36.333 122 -43 190c-8 66.667 -12 130.334 -12 191.001v0z" />
    <glyph glyph-name="o" unicode="R" horiz-adv-x="1139" 
d="M164 0l225.002 -0.00195312v629h84c56 0 101 -7 135 -21c34 -14.667 61.333 -34.334 82 -59.001c20.667 -23.333 37 -49.333 49 -78c11.333 -31.333 19.666 -62.666 24.999 -93.999l80 -377h227l-76 367c-8 43.333 -16.667 83.333 -26 120
c-10 37.333 -24.333 71.666 -43 102.999c-18 31.333 -43.333 57.333 -76 78c-34 18.667 -77.667 32.334 -131 41.001v4c31.333 5.33301 64.666 16 99.999 32c35.333 14 68 33.333 98 58c32 27.333 57.333 60 76 98c19.333 39.333 29 86.333 29 141
c0 84.667 -17 152.334 -51 203.001c-34.667 50.667 -79 87.667 -133 111c-54.667 24.667 -113.667 40.334 -177 47.001c-64 6.66699 -126.667 10 -188 10h-309v-1413zM389.002 1278h84c106.667 1.33301 188 -15 244 -49c53.333 -37.333 80 -103 80 -197
c0 -54.667 -9.66699 -99 -29 -133c-20.667 -35.333 -46.667 -63.333 -78 -84c-31.333 -18 -66 -31 -104 -39c-37.333 -8 -75 -12 -113 -12h-84v514z" />
    <glyph glyph-name="p" unicode="S" horiz-adv-x="1026" 
d="M870 1399c-28.667 6.66699 -73.002 14.6689 -133.002 24.002c-61.333 6.66699 -125.333 11 -192 13c-304.667 -3.33301 -459 -124.333 -463 -363c0 -53.333 10.333 -100.333 31 -141c18.667 -42.667 43.667 -80.334 75 -113.001c32 -32.667 67.667 -61.334 107 -86.001
c39.333 -26 79.666 -50.667 120.999 -74c43.333 -21.333 85 -43 125 -65c39.333 -22 74 -46 104 -72c31.333 -24.667 56.666 -52 75.999 -82c17.333 -32.667 26 -69.334 26 -110.001c-1.33301 -71.333 -25 -123.333 -71 -156c-46.667 -32.667 -107.334 -49 -182.001 -49
c-41.333 0 -81.666 5.33301 -120.999 16c-40 10 -77.667 21 -113 33c-70.667 30 -124 55.333 -160 76v0v-219c24.667 -10 70.667 -20.333 138 -31c65.333 -13.333 139 -21 221 -23c147.333 0 268.666 33 363.999 99c97.333 64 147.333 169 150 315
c0 54.667 -9 104.667 -27 150c-19.333 42 -44.666 79.333 -75.999 112c-65.333 64.667 -141.666 118 -228.999 160l-121 68c-39.333 20 -74.666 42.333 -105.999 67s-56.666 50.667 -75.999 78c-20.667 28.667 -31 60.667 -31 96c0 54.667 20.667 98.334 62 131.001
c38 31.333 88.333 47 151 47c80.667 -1.33301 152.334 -13.333 215.001 -36c64 -23.333 109 -43.333 135 -60v195z" />
    <glyph glyph-name="q" unicode="T" horiz-adv-x="911" 
d="M342 0h225v1278h342v135h-909v-135h342v-1278z" />
    <glyph glyph-name="r" unicode="U" horiz-adv-x="1253" 
d="M1106 1413h-224.999v-911c0 -56 -1.66699 -108 -5 -156c-5.33301 -49.333 -16 -92.333 -32 -129c-16.667 -35.333 -42 -63.333 -76 -84c-34 -22 -81 -33 -141 -33c-58.667 0 -105.334 11 -140.001 33c-34 20.667 -59 48.667 -75 84c-16.667 36.667 -27 79.667 -31 129
c-5.33301 48 -8 100 -8 156v911h-226v-911c0 -64.667 5.66699 -128.334 17 -191.001c9.33301 -61.333 29.666 -117.333 60.999 -168c32.667 -48.667 81.334 -88 146.001 -118c62.667 -30 148 -46 256 -48c110.667 2 198 18 262 48s111.667 69.333 143 118
c31.333 50.667 52 106.667 62 168c8 62.667 12 126.334 12 191.001v911z" />
    <glyph glyph-name="s" unicode="V" horiz-adv-x="1102" 
d="M432 0h234l471 1413h-199l-367 -1141h-4l-368 1141h-234z" />
    <glyph glyph-name="t" unicode="W" horiz-adv-x="1784" 
d="M324 0h227l342 1098h4l340 -1098h225l266 1413h-174l-209 -1110h-4l-344 1110h-174l-346 -1110h-4l-207 1110h-211z" />
    <glyph glyph-name="u" unicode="X" horiz-adv-x="1102" 
d="M0 0h215l315 545v0l314 -545h258l-436 756l387 657h-215l-273 -483v0l-278 483h-256l397 -690z" />
    <glyph glyph-name="v" unicode="Y" horiz-adv-x="1063" 
d="M410 0h225v657l452 756h-208l-332 -555v0l-320 555h-252l435 -756v-657z" />
    <glyph glyph-name="w" unicode="Z" horiz-adv-x="987" 
d="M41 0h903v147h-649l620 1131v135h-839v-135h585l-620 -1131v-147z" />
    <glyph glyph-name="x" unicode="[" horiz-adv-x="684" 
d="M207 -291h442v133h-239v1571h239v133h-442v-1837z" />
    <glyph glyph-name="y" unicode="\" horiz-adv-x="645" 
d="M446 -278h187l-434 1836h-187z" />
    <glyph glyph-name="z" unicode="]" horiz-adv-x="684" 
d="M35 -291h442v1837h-442v-133h239v-1571h-239v-133z" />
    <glyph glyph-name="braceleft" unicode="^" horiz-adv-x="836" 
d="M131 1073h148l139 199v0l139 -199h147l-223 340h-127z" />
    <glyph glyph-name="bar" unicode="_" horiz-adv-x="1024" 
d="M0 -256h1024v102h-1024v-102z" />
    <glyph glyph-name="braceright" unicode="`" horiz-adv-x="635" 
d="M256 1145h152l-91 313h-219z" />
    <glyph glyph-name="asciitilde" unicode="a" horiz-adv-x="987" 
d="M633 0l207 0.000976562v629c0 48.667 -2.33301 95.667 -7 141c-8 44 -23 83 -45 117c-21.333 35.333 -55.333 62.666 -102 81.999c-48 18.667 -111.333 28 -190 28c-75.333 0 -137 -8 -185 -24c-48.667 -16.667 -86 -39.334 -112 -68.001s-44.667 -60.667 -56 -96
c-10.667 -35.333 -18 -72.333 -22 -111h217c2.66699 58.667 14.334 108.667 35.001 150c20 40.667 61 61.667 123 63c34 0 61 -8.66699 81 -26c18 -19.333 31 -44 39 -74c8.66699 -28.667 13.667 -58.667 15 -90c1.33301 -34 2 -64.667 2 -92v-86
c-32.667 0 -78.334 -3 -137.001 -9c-58.667 -5.33301 -119.667 -18 -183 -38c-61.333 -20.667 -113 -52.334 -155 -95.001c-46.667 -44.667 -70 -104.667 -70 -180c0 -68 26 -124.667 78 -170c49.333 -47.333 112 -72 188 -74c40 2 75 8.33301 105 19
c31.333 10.667 58 24.334 80 41.001c21.333 17.333 40.333 34.333 57 51c13.333 16.667 24.333 32.334 33 47.001h4v-135zM633 342.001c-1.33301 -82 -25.332 -141.334 -71.999 -178.001c-20.667 -19.333 -42.334 -33 -65.001 -41c-23.333 -11.333 -44.666 -17 -63.999 -17
c-32.667 0 -60 13.667 -82 41c-24.667 26 -37 61 -37 105c0 44.667 13.667 81.334 41 110.001c23.333 26 52.666 46 87.999 60c36 13.333 71.667 23 107 29c16 2.66699 31.667 4.66699 47 6h37v-115z" />
    <glyph glyph-name="Adieresis" unicode="b" horiz-adv-x="1063" 
d="M338 1413l-206.999 0.000976562v-930c0 -62.667 4.66699 -124 14 -184c8.66699 -60 26.667 -114 54 -162c27.333 -47.333 69 -85.333 125 -114c54 -28.667 128.333 -44 223 -46c281.333 -5.33301 426 163.334 434 506.001c0 150.667 -28 273.667 -84 369
c-58.667 95.333 -153 143.666 -283 144.999c-40.667 0 -75.334 -4 -104.001 -12c-30 -10.667 -55.333 -24.334 -76 -41.001s-37.667 -33.667 -51 -51l-41 -53h-4v573zM346.001 483.001c-1.33301 98.667 12.333 188.332 41 268.999c16.667 39.333 38 70.666 64 93.999
c24 22 56 33 96 33c42 0 77.333 -11.667 106 -35c28.667 -24.667 50 -57 64 -97c16 -39.333 27 -81.666 33 -126.999c4 -47.333 6 -93 6 -137c0 -103.333 -13.667 -197.333 -41 -282c-14 -41.333 -34.667 -74.333 -62 -99c-28.667 -26 -64 -39 -106 -39
c-82 4.66699 -136 44.334 -162 119.001c-27.333 76.667 -40.333 177 -39 301v0z" />
    <glyph glyph-name="Aring" unicode="c" horiz-adv-x="872" 
d="M829 123c-57.333 -24.667 -115.334 -37 -174.001 -37c-61.333 0 -113.666 16.333 -156.999 49c-44 30 -80.333 69.667 -109 119c-56 102.667 -84 216.667 -84 342c0 90 15.667 165 47 225c28.667 58.667 73 88.667 133 90
c63.333 -1.33301 103.666 -28.666 120.999 -81.999c11.333 -24 17.666 -50.333 18.999 -79c1.33301 -30.667 2 -61.667 2 -93h217c1.33301 102.667 -24 184.667 -76 246c-53.333 61.333 -144.666 92.666 -273.999 93.999c-277.333 -5.33301 -415.333 -162.333 -414 -471
c4 -364 167 -547 489 -549c88.667 2 175.334 18.667 260.001 50v96z" />
    <glyph glyph-name="Ccedilla" unicode="d" horiz-adv-x="1063" 
d="M707 0l206 -0.00292969v1413h-206v-573h-5c-5.33301 14.667 -14 31 -26 49c-11.333 17.333 -27 34.333 -47 51c-19.333 16.667 -43.333 30.334 -72 41.001c-30 10.667 -66.333 16 -109 16c-126.667 -1.33301 -219.334 -49 -278.001 -143s-88 -216.333 -88 -367
c-1.33301 -143.333 25.334 -262.666 80.001 -357.999c53.333 -98 148.666 -148.667 285.999 -152c41.333 2 76.333 9 105 21s53.334 27.667 74.001 47c20 19.333 36.333 39 49 59c12 20.667 20.667 39.334 26 56.001h5v-160zM307 486.997c-1.33301 92 11.667 178.667 39 260
c15.333 40 36 72.333 62 97c24 23.333 56 35 96 35c44.667 0 80.667 -11.667 108 -35c26 -24.667 45.333 -57 58 -97c12 -36.667 20 -78 24 -124c2.66699 -46.667 4 -92 4 -136c1.33301 -86 -9.33398 -168.333 -32.001 -247c-12.667 -38.667 -32 -69.667 -58 -93
c-26 -25.333 -60.667 -38 -104 -38c-41.333 0 -74.333 12.667 -99 38c-25.333 23.333 -45.666 54.333 -60.999 93c-13.333 38 -23 78.667 -29 122c-5.33301 44 -8 85.667 -8 125v0z" />
    <glyph glyph-name="Eacute" unicode="e" horiz-adv-x="948" 
d="M852 127c-61.333 -27.333 -123.333 -40.999 -186 -40.999c-71.333 0 -131.666 18.333 -180.999 55c-48.667 34 -87.334 77 -116.001 129c-56 113.333 -83.333 222.666 -82 327.999h583c0 48 -4 95.667 -12 143c-9.33301 48 -27.666 91 -54.999 129
c-26 40 -63.667 71.667 -113 95c-50.667 21.333 -115.334 32 -194.001 32c-152 -1.33301 -259.333 -45 -322 -131c-64 -86 -95.333 -198 -94 -336c1.33301 -194.667 49 -335 143 -421c91.333 -88 206 -132 344 -132c113.333 2 208.333 20.667 285 56v94zM293 692.001
c0 34 13.666 77.666 40.999 130.999c13.333 26 33 47.333 59 64c24.667 14.667 56 22.667 94 24c38.667 0 70.334 -7.33301 95.001 -22c24 -15.333 42.333 -34.666 55 -57.999c12 -22.667 21 -45.667 27 -69c2.66699 -24.667 4 -48 4 -70h-375z" />
    <glyph glyph-name="Ntilde" unicode="f" horiz-adv-x="727" 
d="M223 0h206.999v868h277v107h-277v117c-1.33301 55.333 9.66699 106.333 33 153c22 46.667 73.667 70.667 155 72c42.667 0 79 -5 109 -15c28.667 -9.33301 53.334 -19.333 74.001 -30v141c-52 13.333 -121 21 -207 23c-80.667 0 -145.667 -10.333 -195 -31
c-48.667 -22 -86 -50.667 -112 -86c-24.667 -34 -41 -73 -49 -117c-10 -43.333 -15 -88.333 -15 -135v-92h-170v-107h170v-868z" />
    <glyph glyph-name="Odieresis" unicode="g" horiz-adv-x="1063" 
d="M913 975l-206.001 -0.00292969v-160h-5c-10.667 36.667 -35.667 75.667 -75 117c-20.667 18.667 -45.334 34.334 -74.001 47.001c-28.667 12 -63.667 18 -105 18c-137.333 -1.33301 -232.666 -49.666 -285.999 -144.999c-54.667 -92.667 -81.334 -210.667 -80.001 -354
c0 -146 29.333 -264.333 88 -355c58.667 -94 151.334 -141.667 278.001 -143c42.667 0 79 5.33301 109 16c28.667 8.66699 52.667 20.334 72 35.001c20 15.333 35.667 30.333 47 45c12 15.333 20.667 28.333 26 39h5v-106c1.33301 -109.333 -11.667 -196.666 -39 -261.999
c-30 -68.667 -97.667 -103.667 -203 -105c-65.333 1.33301 -125.333 17 -180 47c-56 27.333 -100.333 51.333 -133 72v0v-203c35.333 -9.33301 76 -17.333 122 -24c45.333 -8.66699 98 -13.667 158 -15c98.667 0 180 13.667 244 41c62.667 24.667 111 59 145 103
c62.667 91.333 93.334 206.666 92.001 345.999v946zM306.999 497.997c0 40.667 2.66602 83.001 7.99902 127.001c6 42 15.667 81.333 29 118c15.333 37.333 35.666 67.333 60.999 90c24.667 22 57.667 33 99 33c43.333 0 78 -11.667 104 -35
c26 -22.667 46 -53.334 60 -92.001c22.667 -80.667 33.334 -164.667 32.001 -252c0 -39.333 -1.33301 -80 -4 -122c-4 -44 -12.667 -84.333 -26 -121c-12.667 -36 -32 -65.333 -58 -88c-27.333 -24.667 -63.333 -37 -108 -37c-41.333 0 -74.333 12.333 -99 37
c-25.333 22.667 -45.666 53.334 -60.999 92.001c-13.333 38 -23 79 -29 123c-5.33301 43.333 -8 85.666 -8 126.999v0z" />
    <glyph glyph-name="Udieresis" unicode="h" horiz-adv-x="1102" 
d="M152 0h206.001v403c0 33.333 5 73.666 15 120.999c8 49.333 21.667 98 41 146c20 48.667 47.333 90.334 82 125.001c32.667 31.333 74 47.666 124 48.999c52 -1.33301 86.333 -24.666 103 -69.999c13.333 -44.667 20 -99.334 20 -164.001v-610h207v713
c0 74.667 -19 140 -57 196c-40 57.333 -103 86.666 -189 87.999c-52.667 0 -98.334 -9.33301 -137.001 -28c-40.667 -19.333 -74 -42.666 -100 -69.999c-27.333 -27.333 -49.333 -54.666 -66 -81.999c-17.333 -30 -30.333 -54.667 -39 -74h-4v670h-206v-1413z" />
    <glyph glyph-name="aacute" unicode="i" horiz-adv-x="532" 
d="M162 0h207v975h-207v-975zM154 1208h223v205h-223v-205z" />
    <glyph glyph-name="agrave" unicode="j" horiz-adv-x="532" 
d="M377 975l-207 0.00195312v-1026c0 -41.333 -0.666992 -79.666 -2 -114.999c-4 -35.333 -12.333 -65.333 -25 -90c-10.667 -24.667 -28.334 -44.334 -53.001 -59.001c-26 -15.333 -61.333 -23 -106 -23c-34.667 1.33301 -67.667 7.66602 -99 18.999v-134
c18 -4 39.333 -6.66699 64 -8c130.667 -1.33301 234.334 28 311.001 88c76.667 61.333 115.667 168.666 117 321.999v1026zM162 1208h223v205h-223v-205z" />
    <glyph glyph-name="acircumflex" unicode="k" horiz-adv-x="987" 
d="M149 0h207v487h4l357 -487h264l-430 553l379 422h-236l-338 -395v0v833h-207v-1413z" />
    <glyph glyph-name="adieresis" unicode="l" horiz-adv-x="532" 
d="M162 0h207v1413h-207v-1413z" />
    <glyph glyph-name="atilde" unicode="m" horiz-adv-x="1595" 
d="M152 0l206 -0.00195312v403c0 28.667 3 67 9 115c5.33301 49.333 14.666 98 27.999 146c14 50 35.333 92 64 126c28.667 34.667 66 52.667 112 54c56 -1.33301 91 -24.666 105 -69.999c13.333 -44.667 19.333 -99.334 18 -164.001v-610h207v405
c0 33.333 3.33301 73.666 10 120.999c5.33301 46.667 16.333 94.667 33 144c16.667 48.667 38.667 90.334 66 125.001c28.667 31.333 64.667 47.666 108 48.999c50.667 -1.33301 83.334 -22.666 98.001 -63.999c14 -42 21 -92.333 21 -151v-629h207v661
c0 44 -2.66699 85.667 -8 125c-6 40 -17.667 75.667 -35 107c-18 32.667 -43.333 58.667 -76 78c-31.333 17.333 -73.666 26 -126.999 26c-46.667 0 -86.334 -8.66699 -119.001 -26c-34 -16.667 -62.667 -38 -86 -64c-22 -26 -39.667 -52.667 -53 -80l-37 -71h-4
c0 56 -19 109 -57 159c-38.667 52 -100.334 79.333 -185.001 82c-44.667 0 -84 -9.33301 -118 -28c-34.667 -19.333 -64 -42.666 -88 -69.999c-24.667 -27.333 -44 -54.666 -58 -81.999c-13.333 -30 -23.666 -54.667 -30.999 -74h-4v232h-206v-975z" />
    <glyph glyph-name="aring" unicode="n" horiz-adv-x="1102" 
d="M152 0h206.001v403c0 33.333 5 73.666 15 120.999c8 49.333 21.667 98 41 146c20 48.667 47.333 90.334 82 125.001c32.667 31.333 74 47.666 124 48.999c52 -1.33301 86.333 -24.666 103 -69.999c13.333 -44.667 20 -99.334 20 -164.001v-610h207v713
c0 74.667 -19 140 -57 196c-40 57.333 -103 86.666 -189 87.999c-52.667 0 -98.334 -9.33301 -137.001 -28c-40.667 -19.333 -74 -42.666 -100 -69.999c-27.333 -27.333 -49.333 -54.666 -66 -81.999c-17.333 -30 -30.333 -54.667 -39 -74h-4v232h-206v-975z" />
    <glyph glyph-name="ccedilla" unicode="o" horiz-adv-x="1026" 
d="M512 -23c288 3.33301 432 173.333 432 510c0 337.333 -144 507.333 -432 510c-286.667 -2.66699 -430 -172.667 -430 -510c0 -336.667 143.333 -506.667 430 -510v0zM307 487c0 46.667 2.66699 94.667 8 144c4.66699 50.667 13.667 96.334 27 137.001
c13.333 42 34.333 76.667 63 104c26 26 61.667 39 107 39c46.667 0 84.334 -13 113.001 -39c27.333 -27.333 47.666 -62 60.999 -104c14 -40.667 23.667 -86.334 29 -137.001c2.66699 -49.333 4 -97.333 4 -144c0 -43.333 -1.33301 -89.666 -4 -138.999
c-5.33301 -49.333 -15 -95.666 -29 -138.999c-13.333 -42.667 -33.666 -77 -60.999 -103c-28.667 -28.667 -66.334 -43 -113.001 -43c-45.333 0 -81 14.333 -107 43c-28.667 26 -49.667 60.333 -63 103c-13.333 43.333 -22.333 89.666 -27 138.999
c-5.33301 49.333 -8 95.666 -8 138.999v0z" />
    <glyph glyph-name="eacute" unicode="p" horiz-adv-x="1063" 
d="M152 -438h206v573h4c14 -30 39.333 -62.667 76 -98c20.667 -16.667 45.334 -30.334 74.001 -41.001s62.667 -17 102 -19c130 2 224.333 51.333 283 148c57.333 92.667 86 213.334 86 362.001c1.33301 144.667 -24.667 265 -78 361
c-54.667 96.667 -151.667 146.334 -291 149.001c-38 0 -70.667 -6 -98 -18c-28.667 -12.667 -53.334 -28.334 -74.001 -47.001c-20 -19.333 -36.333 -39.333 -49 -60c-12 -20 -22.333 -39 -31 -57h-4v160h-206v-1413zM367 487
c-1.33301 87.333 9.99805 171.332 33.998 251.999c14 38.667 34 69.334 60 92.001c26 23.333 59.333 35 100 35c42.667 0 77 -11.667 103 -35c25.333 -22.667 45 -53.334 59 -92.001c24.667 -80.667 36.334 -164.667 35.001 -252c1.33301 -90 -11 -176 -37 -258
c-14 -39.333 -34 -70.666 -60 -93.999c-25.333 -26 -58.666 -39 -99.999 -39c-42 0 -76.667 13 -104 39c-26 23.333 -46 54.666 -60 93.999c-12 40 -20 82.333 -24 127c-4 46.667 -6 90.334 -6 131.001v0z" />
    <glyph glyph-name="egrave" unicode="q" horiz-adv-x="1063" 
d="M707 -438h206v1413h-206v-160h-5c-10.667 36.667 -35.667 75.667 -75 117c-20.667 18.667 -45.334 34.334 -74.001 47.001c-28.667 12 -63.667 18 -105 18c-137.333 -2.66699 -232.666 -52.334 -285.999 -149.001c-54.667 -96 -81.334 -216.333 -80.001 -361
c0 -148.667 29.333 -269.334 88 -362.001c58.667 -96.667 151.334 -146 278.001 -148c42.667 2 79 8.33301 109 19c28.667 10.667 52.667 24.334 72 41.001c20 16 35.667 33.667 47 53c12 18 20.667 33 26 45h5v-573zM307 487
c-1.33301 87.333 10.999 171.334 36.999 252.001c15.333 38.667 35.666 69.334 60.999 92.001c24.667 23.333 57.667 35 99 35c43.333 0 78 -11.667 104 -35c26 -22.667 46 -53.334 60 -92.001c22.667 -80.667 33.334 -164.667 32.001 -252
c0 -40.667 -1.33301 -84.334 -4 -131.001c-4 -44.667 -12.667 -87 -26 -127c-12.667 -39.333 -32 -70.666 -58 -93.999c-27.333 -26 -63.333 -39 -108 -39c-41.333 0 -74.333 13 -99 39c-25.333 23.333 -45.666 54.666 -60.999 93.999c-26 82 -38.333 168 -37 258v0z" />
    <glyph glyph-name="ecircumflex" unicode="r" horiz-adv-x="721" 
d="M152 0l206.002 0.000976562v446c0 128.667 28.667 217.667 86 267c56 46 134 69 234 69v215c-42.667 -2.66699 -80.334 -11.334 -113.001 -26.001c-32.667 -16.667 -61.334 -38 -86.001 -64c-24.667 -24.667 -45.667 -52.667 -63 -84
c-19.333 -31.333 -37.333 -63.333 -54 -96h-4v248h-206v-975z" />
    <glyph glyph-name="edieresis" unicode="s" horiz-adv-x="829" 
d="M680 782v176c-18 7.33301 -46.667 15.666 -86 24.999c-20.667 4 -42.667 8 -66 12c-24.667 1.33301 -50.334 2 -77.001 2c-120.667 -1.33301 -208.334 -29.333 -263.001 -84s-81 -120 -79 -196c0 -34 6.66699 -64.667 20 -92c12 -28.667 28.333 -54 49 -76
s44.667 -42 72 -60l80 -53l84 -45c24.667 -16 47 -32.333 67 -49c22 -16.667 39 -33 51 -49c11.333 -18 17 -38.667 17 -62c0 -31.333 -13 -59.333 -39 -84c-26 -25.333 -69 -38 -129 -38c-57.333 1.33301 -108.666 13.333 -153.999 36c-46 22 -84.667 44 -116 66v0v-191
c24 -8 58 -16.667 102 -26s96.667 -15 158 -17c106 0 194 23.333 264 70c69.333 46.667 104.666 121.667 105.999 225c-1.33301 76.667 -23.666 139 -66.999 187c-45.333 46 -96.666 84.667 -153.999 116c-57.333 32 -108.333 63.667 -153 95c-20.667 16 -38 33 -52 51
c-13.333 16 -20 34.333 -20 55c0 36.667 15 63.334 45 80.001c28.667 15.333 60 23 94 23c49.333 -2 94.333 -11.667 135 -29c40 -19.333 77 -42 111 -68v0z" />
    <glyph glyph-name="iacute" unicode="t" horiz-adv-x="719" 
d="M664 111c-30.667 -11.333 -63 -17 -97 -17c-62.667 0 -103.667 17.667 -123 53c-17.333 36 -25.333 89.333 -24 160v561h266v107h-266v354v0l-207 -125v-229h-156v-107h156v-643c0 -92.667 27.333 -156.667 82 -192c53.333 -37.333 128.333 -56 225 -56
c50.667 0 98.667 5 144 15v119z" />
    <glyph glyph-name="igrave" unicode="u" horiz-adv-x="1102" 
d="M741 0h209.001v975h-207v-404c0 -30 -3.33301 -69.333 -10 -118c-8 -48 -22.333 -96.667 -43 -146c-20.667 -47.333 -47.334 -88.333 -80.001 -123c-34 -35.333 -77 -53 -129 -53c-50.667 1.33301 -83.334 25.333 -98.001 72c-18 44.667 -26.333 98.667 -25 162v610h-206
v-713c0 -35.333 5.33301 -69.333 16 -102c8 -34 22.333 -64.667 43 -92c38 -57.333 100 -87.666 186 -90.999c56 2 103.333 13 142 33c39.333 19.333 72 42.666 98 69.999c27.333 28.667 49 56.667 65 84c8.66699 13.333 16.334 26.333 23.001 39c4 10.667 8 20 12 28h4
v-231z" />
    <glyph glyph-name="icircumflex" unicode="v" horiz-adv-x="911" 
d="M379 0h180l344 975h-190l-230 -696h-4l-252 696h-219z" />
    <glyph glyph-name="idieresis" unicode="w" horiz-adv-x="1405" 
d="M338 0h180l184 659h5l206 -659h181l227 975h-174l-152 -705h-4l-203 705h-149l-193 -705h-4l-161 705h-197z" />
    <glyph glyph-name="ntilde" unicode="x" horiz-adv-x="958" 
d="M25 0h208l234 356v0l233 -356h234l-336 516l301 459h-203l-200 -303v0l-197 303h-233l301 -465z" />
    <glyph glyph-name="oacute" unicode="y" horiz-adv-x="911" 
d="M238 -438h165l502 1413h-194l-230 -696h-4l-256 696h-215l375 -985z" />
    <glyph glyph-name="ograve" unicode="z" horiz-adv-x="797" 
d="M41 0h715v135h-498l483 717v123h-669v-123h452l-483 -717v-135z" />
    <glyph glyph-name="ocircumflex" unicode="{" horiz-adv-x="1100" 
d="M860 -430c-75.333 20.667 -129.998 57.6641 -163.998 110.997c-36.667 51.333 -55 107 -55 167c0 52 4.66699 110.333 14 175c8.66699 58.667 13.667 112.334 15 161.001c0 54.667 -11 102.667 -33 144c-23.333 40.667 -52 74.667 -86 102c-34 28.667 -69 52 -105 70
l-94 41c27.333 12 58.666 27 93.999 45c36 16 71 37.667 105 65c34 28.667 62.667 63 86 103c22 40.667 33 88.334 33 143.001c-1.33301 49.333 -6.33301 103.333 -15 162c-9.33301 64 -14 122 -14 174c0 61.333 18.333 118.666 55 171.999c34 52 88.667 87.333 164 106v52
c-106.667 -6 -203.667 -40.333 -291 -103c-40.667 -31.333 -74 -67.333 -100 -108c-27.333 -41.333 -41 -87.333 -41 -138c1.33301 -70.667 9.66602 -136 24.999 -196c8 -35.333 15.333 -69.666 22 -102.999c6.66699 -32.667 10 -62.667 10 -90
c-1.33301 -66.667 -23.666 -122 -66.999 -166c-44 -44.667 -96.667 -76 -158 -94v-49c61.333 -19.333 114 -50.666 158 -93.999c43.333 -46.667 65.666 -102 66.999 -166c-2.66699 -54.667 -13.334 -119 -32.001 -193c-15.333 -58.667 -23.666 -124 -24.999 -196
c0 -49.333 13.667 -94.333 41 -135c26 -41.333 59.333 -77.666 100 -108.999c87.333 -62.667 184.333 -97.334 291 -104.001v51z" />
    <glyph glyph-name="odieresis" unicode="|" horiz-adv-x="682" 
d="M260 -291h164v1837h-164v-1837z" />
    <glyph glyph-name="otilde" unicode="}" horiz-adv-x="1100" 
d="M238 -481c107.333 6.66699 205.335 41.335 294.002 104.002c89.333 62.667 135.333 144 138 244v55c-1.33301 16.667 -3.33301 33 -6 49c-6 31.333 -12.333 62 -19 92c-6.66699 37.333 -13.334 72.333 -20.001 105c-8.66699 32.667 -13 62 -13 88
c1.33301 64 25.333 119.333 72 166c44 43.333 95.333 74.666 154 93.999v49c-58.667 18 -110 49.333 -154 94c-46.667 44 -70.667 99.333 -72 166c1.33301 54.667 12.333 119 33 193c15.333 60 23.666 125.333 24.999 196c-2.66699 101.333 -48.667 183.333 -138 246
c-88.667 62.667 -186.667 97 -294 103v-52c74.667 -18.667 130.334 -54 167.001 -106c34.667 -53.333 52 -110.666 52 -171.999c0 -52 -5 -110 -15 -174c-9.33301 -58.667 -14 -112.667 -14 -162c0 -54.667 12.333 -102.334 37 -143.001c23.333 -40 52 -74.333 86 -103
c34 -27.333 68.667 -49 104 -65c34.667 -18 64.667 -33 90 -45l-90 -41c-35.333 -18 -70 -41.333 -104 -70c-34 -27.333 -62.667 -61.333 -86 -102c-24.667 -41.333 -37 -89.333 -37 -144c0 -48.667 4.66699 -102.334 14 -161.001c10 -64.667 15 -123 15 -175
c0 -60 -17.333 -115.667 -52 -167c-36.667 -53.333 -92.334 -90.333 -167.001 -111v-51z" />
    <glyph glyph-name="uacute" unicode="~" 
d="M119 346l151.002 -0.000976562v100c0 40 5 70.333 15 91c9.33301 20 24.333 30 45 30c21.333 0 56.666 -15.667 105.999 -47l266 -155c40 -23.333 75 -41.333 105 -54c27.333 -13.333 56 -20 86 -20c134 0 199.333 78.333 196 235v146h-151v-95
c1.33301 -86 -18.334 -128 -59.001 -126c-26 0 -65 17 -117 51l-271 155c-39.333 23.333 -71.333 41.333 -96 54c-27.333 10.667 -55.333 16 -84 16c-38 0 -69.333 -6 -94 -18c-26 -15.333 -46.333 -34.666 -61 -57.999c-14 -23.333 -23.667 -49.333 -29 -78
s-8 -58.667 -8 -90v-137z" />
    <glyph glyph-name="uni00A0" unicode="&#xa0;" horiz-adv-x="569" 
 />
    <glyph glyph-name="fl" unicode="&#xa1;" horiz-adv-x="608" 
d="M104 -278h248l-43 1009h-162zM104 887h248v248h-248v-248z" />
    <glyph glyph-name="questiondown" unicode="&#xa2;" horiz-adv-x="948" 
d="M444 -201h97.0029v183c14.667 -3.33301 29 -5 43 -5c57.333 2 113.333 11.667 168 29c54 15.333 87.333 25.666 100 30.999v90c-24.667 -8 -54.667 -17 -90 -27c-36.667 -9.33301 -77 -14 -121 -14c-34 0 -67.333 4 -100 12v805v0c51.333 -18 86.666 -48.667 105.999 -92
c18 -44 27 -94.667 27 -152h202c-1.33301 106.667 -33.333 187.334 -96 242.001s-142.334 86.667 -239.001 96v164h-97v-164c-242.667 -13.333 -366 -168.333 -370 -465c1.33301 -180 38.666 -311.667 111.999 -395c71.333 -83.333 157.333 -133 258 -149v-189zM444.003 903
l0.000976562 -756v0l-51 62c-16 23.333 -31.667 50 -47 80c-31.333 61.333 -47 150 -47 266c-2.66699 195.333 45.666 311.333 144.999 348v0z" />
    <glyph glyph-name="exclamdown" unicode="&#xa3;" horiz-adv-x="987" 
d="M211 0l750.999 0.00292969v147h-544v469h272v109h-272v197c0 39.333 1.33301 78.666 4 117.999c1.33301 40 8 77 20 111c11.333 34 30 61.333 56 82c24 20.667 58.667 31 104 31c38 0 68 -6.33301 90 -19c22 -12 37.667 -28.333 47 -49
c16.667 -42.667 24.334 -86.334 23.001 -131.001h243c-5.33301 35.333 -16 71.333 -32 108c-16.667 36 -40 69 -70 99c-30 31.333 -70.333 55.666 -121 72.999c-50 18 -112.667 27 -188 27c-258 0 -385.667 -114.667 -383 -344v-303h-150v-109h150v-616z" />
    <glyph glyph-name="breve" unicode="&#xa4;" horiz-adv-x="1024" 
d="M90 170l135.001 135.001v0c83.333 -62.667 179 -94.667 287 -96c101.333 -1.33301 197 30.667 287 96v0l135 -135v0l61 63l-137 136c32.667 39.333 57.334 83.666 74.001 132.999c8 24.667 14 49 18 73c1.33301 24.667 2 48.667 2 72c0 52 -6.66699 103.333 -20 154
c-16.667 50 -42 93.667 -76 131l141 141l-65 64v0l-139 -140v0c-84.667 61.333 -178.334 93 -281.001 95c-102.667 -2 -196.334 -33.667 -281.001 -95v0l-139 140v0l-65 -64l141 -141c-64 -84.667 -96.667 -179.667 -98 -285c0 -50.667 8 -99.667 24 -147
c16.667 -49.333 40.667 -93 72 -131l-137 -136zM154.001 647.001c1.33301 102.667 36.666 188 105.999 256c68 68 152 103 252 105c101.333 -2 186 -37 254 -105c66.667 -68 100.667 -153.333 102 -256c-1.33301 -98 -35.333 -180.667 -102 -248
c-68 -69.333 -152.667 -104.666 -254 -105.999c-100 1.33301 -184 36.666 -252 105.999c-69.333 67.333 -104.666 150 -105.999 248v0z" />
    <glyph glyph-name="quotedblleft" unicode="&#xa5;" horiz-adv-x="1063" 
d="M410 659v-131h-363v-106h363v-422h225v422h381v106h-381v131l78 129h303v107h-240l311 518h-217l-323 -555v0l-314 555h-258l299 -518h-227v-107h289z" />
    <glyph glyph-name="glyph159" unicode="&#xa6;" horiz-adv-x="569" 
d="M203 -291h164v735h-164v-735zM203 811h164v735h-164v-735z" />
    <glyph glyph-name="logicalnot" unicode="&#xa7;" horiz-adv-x="987" 
d="M827 1202l0.00195312 182.001c-13.333 4 -52 13.667 -116 29c-67.333 13.333 -139 21 -215 23c-100 0 -186 -21.333 -258 -64c-75.333 -45.333 -113.666 -113 -114.999 -203c1.33301 -54.667 13.666 -96.334 36.999 -125.001c20 -30 37 -51 51 -63l-35 -29
c-14.667 -14.667 -30.334 -32.334 -47.001 -53.001s-30.334 -44.667 -41.001 -72c-12 -28.667 -18 -60.667 -18 -96c0 -36.667 6.66699 -68 20 -94c12.667 -26 29 -49.333 49 -70c23.333 -18.667 50 -36.334 80 -53.001c28.667 -16.667 60.667 -33 96 -49l232 -98
c35.333 -16.667 64.666 -35.334 87.999 -56.001c23.333 -21.333 35 -45 35 -71c0 -45.333 -18 -79.666 -54 -102.999c-35.333 -24.667 -85 -37 -149 -37c-76.667 1.33301 -141.667 17 -195 47c-27.333 12.667 -51 26.334 -71 41.001
c-20.667 12.667 -38.667 24.334 -54 35.001v0v-198c18 -6 55 -15 111 -27c54.667 -12 121 -19 199 -21c106 0 201.333 22.667 286 68c86 45.333 130.333 118.333 133 219c-1.33301 57.333 -13.333 101.666 -36 132.999c-11.333 16.667 -22.333 31 -33 43
c-12.667 12.667 -23.667 21.667 -33 27c10.667 8 24.334 19 41.001 33c15.333 12 30.333 28.333 45 49c16.667 20.667 30.334 44.334 41.001 71.001c10.667 26 16 55.667 16 89c1.33301 81.333 -41 148.666 -127 201.999c-39.333 27.333 -84.333 52 -135 74l-153 59
c-48 20.667 -88.333 43.334 -121 68.001c-34 23.333 -51 50 -51 80c1.33301 40.667 19.666 71.334 54.999 92.001c34 19.333 75.667 29 125 29c69.333 -1.33301 133.333 -15 192 -41c28.667 -11.333 54 -23 76 -35c20.667 -12.667 37 -24.334 49 -35.001v0zM520.002 592.001
c-65.333 27.333 -128.668 58 -190.001 92c-28.667 18 -52 37.667 -70 59c-20.667 20.667 -31 43.334 -31 68.001c0 27.333 9 51.333 27 72c16.667 20 29.667 34.333 39 43c22 -11.333 78 -35.333 168 -72l100 -39c34 -14.667 65.333 -30.334 94 -47.001
c30 -16.667 54.667 -35 74 -55c18 -22 27 -47.333 27 -76c-1.33301 -28.667 -9.66602 -52.667 -24.999 -72c-14.667 -20.667 -28.334 -37 -41.001 -49c-23.333 14 -80.666 39.333 -171.999 76v0z" />
    <glyph glyph-name="nonbreakingspace" unicode="&#xa8;" horiz-adv-x="635" 
d="M8 1167h223v207h-223v-207zM403 1167h224v207h-224v-207z" />
    <glyph glyph-name="guillemotleft" unicode="&#xa9;" horiz-adv-x="1024" 
d="M512 473c136.667 1.33301 250.667 49 342 143c91.333 89.333 137.666 202 138.999 338c-1.33301 136.667 -47.666 250.667 -138.999 342s-205.333 138 -342 140c-135.333 -2 -248 -48.667 -338 -140c-94 -91.333 -141.667 -205.333 -143 -342
c1.33301 -136 49 -248.667 143 -338c90 -94 202.667 -141.667 338 -143v0zM102 954c1.33301 116 41.666 213 120.999 291c76.667 78 173 117.667 289 119c116 -1.33301 213 -41 291 -119c77.333 -78 117 -175 119 -291c-2 -116 -41.667 -212 -119 -288
c-78 -79.333 -175 -119.666 -291 -120.999c-116 1.33301 -212.333 41.666 -289 120.999c-79.333 76 -119.666 172 -120.999 288v0zM678 833c-11.333 -10.667 -27.667 -22.666 -49 -35.999c-23.333 -16.667 -57 -25 -101 -25c-40.667 0 -80 16.333 -118 49
c-41.333 31.333 -62.666 78.333 -63.999 141c1.33301 62 22.666 109.333 63.999 142c39.333 32.667 81.666 49 126.999 49c36.667 -1.33301 66.667 -9 90 -23c21.333 -13.333 38.333 -27 51 -41l53 68c-12 12 -33 28.333 -63 49c-33.333 19.333 -77 29.666 -131 30.999
c-74 -1.33301 -138.333 -26.666 -193 -75.999c-57.333 -50.667 -86.666 -117 -87.999 -199c1.33301 -78.667 30 -143.334 86 -194.001c53.333 -52 118.333 -78.667 195 -80c58.667 1.33301 103.667 13 135 35c16 9.33301 29 18.333 39 27c9.33301 8 16 14 20 18z" />
    <glyph glyph-name="Ydieresis" unicode="&#xaa;" horiz-adv-x="569" 
d="M379 586l112 0.00195312v352c2 57.333 -6.66699 105.666 -26 144.999c-23.333 38.667 -77.333 58.667 -162 60c-42 0 -76 -4.33301 -102 -13c-28.667 -9.33301 -50 -22 -64 -38c-28.667 -34.667 -43.667 -73 -45 -115h125c0 30 5.33301 56.667 16 80
c10 23.333 32.667 35.666 68 36.999c35.333 -1.33301 58 -18.666 68 -51.999c6.66699 -32.667 10 -67.334 10 -104.001v-49c-45.333 1.33301 -104.666 -7.66699 -177.999 -27c-34.667 -12 -63.334 -29 -86.001 -51c-26 -24.667 -39 -58 -39 -100
c0 -37.333 14.333 -69 43 -95c26 -27.333 60.667 -41 104 -41c45.333 1.33301 81 13 107 35c24.667 20.667 39.667 37.667 45 51h4v-75zM197 727.002c0 27.333 8 47.667 24 61c14 14 30.333 25 49 33c44 12.667 80.333 19 109 19v-50c0 -21.333 -2 -39 -6 -53
c-10 -27.333 -24.333 -48.333 -43 -63c-20.667 -18 -42 -27 -64 -27c-46 1.33301 -69 28 -69 80v0z" />
    <glyph glyph-name="Acircumflex" unicode="&#xab;" horiz-adv-x="797" 
d="M248 121h168l-125 395l125 385h-168l-174 -385zM555 121h168l-123 395l123 385h-168l-172 -385z" />
    <glyph glyph-name="daggerdbl" unicode="&#xac;" 
d="M924 268h163v490h-962v-164h799v-326z" />
    <glyph glyph-name="uni00AD" unicode="&#xad;" horiz-adv-x="911" 
d="M104 426h703v186h-703v-186z" />
    <glyph glyph-name="Delta" unicode="&#xae;" horiz-adv-x="1024" 
d="M512 473c136.667 1.33301 250.667 49 342 143c91.333 89.333 137.666 202 138.999 338c-1.33301 136.667 -47.666 250.667 -138.999 342s-205.333 138 -342 140c-135.333 -2 -248 -48.667 -338 -140c-94 -91.333 -141.667 -205.333 -143 -342
c1.33301 -136 49 -248.667 143 -338c90 -94 202.667 -141.667 338 -143v0zM102 954c1.33301 116 41.666 213 120.999 291c76.667 78 173 117.667 289 119c116 -1.33301 213 -41 291 -119c77.333 -78 117 -175 119 -291c-2 -116 -41.667 -212 -119 -288
c-78 -79.333 -175 -119.666 -291 -120.999c-116 1.33301 -212.333 41.666 -289 120.999c-79.333 76 -119.666 172 -120.999 288v0zM330 713l92 0.000976562v204h110l78 -204h103l-95 219c18 6.66699 37.333 19 58 37c18.667 14.667 29 44 31 88c0 36.667 -5.66699 66 -17 88
c-12 23.333 -28.333 39.666 -49 48.999c-42.667 19.333 -89.667 28.333 -141 27h-170v-508zM422 1132h102c56 0 84.667 -22.333 86 -67c-2.66699 -44 -28.667 -66 -78 -66h-110v133z" />
    <glyph glyph-name="Gbreve" unicode="&#xaf;" horiz-adv-x="635" 
d="M27 1145h579v143h-579v-143z" />
    <glyph glyph-name="oslash" unicode="&#xb0;" horiz-adv-x="721" 
d="M360 854c67.333 0 123.333 23.333 168 70c42.667 44.667 64.667 99 66 163c-1.33301 67.333 -24 123.333 -68 168c-44.667 42.667 -100 64.667 -166 66c-64 -1.33301 -118.333 -23.333 -163 -66c-46.667 -44.667 -70 -100.667 -70 -168c0 -64 23.333 -118.333 70 -163
c44.667 -46.667 99 -70 163 -70v0zM233 1087c0 38.667 13.666 69.666 40.999 92.999c23.333 22.667 52 34 86 34c38.667 -1.33301 69.667 -13.333 93 -36c22.667 -23.333 34 -53.666 34 -90.999c0 -35.333 -11.333 -64.666 -34 -87.999c-23.333 -26 -54.333 -39 -93 -39
c-35.333 0 -64.666 13 -87.999 39c-26 23.333 -39 52.666 -39 87.999v0z" />
    <glyph glyph-name="oe" unicode="&#xb1;" 
d="M524 0h164v428h399v164h-399v383h-164v-383h-399v-164h399v-428zM125 -252h962v164h-962v-164z" />
    <glyph glyph-name="uni00B2" unicode="&#xb2;" horiz-adv-x="760" 
d="M80 414l567 0.00195312v108h-407l100 84c42 35.333 86.333 77.666 133 126.999s85.667 102.666 117 159.999s47.666 116.666 48.999 177.999c-1.33301 87.333 -28.666 151.666 -81.999 192.999c-53.333 38 -118.333 57 -195 57c-52.667 0 -96.334 -6.33301 -131.001 -19
c-34 -13.333 -62.667 -31.666 -86 -54.999c-20 -20.667 -35 -43.667 -45 -69c-9.33301 -24.667 -16 -50 -20 -76h164c0 22 7.33301 50 22 84c12.667 35.333 43.334 54.333 92.001 57c40 0 71.667 -13 95 -39c21.333 -26 32 -60 32 -102c-1.33301 -52 -18.333 -108 -51 -168
c-34 -60 -74.333 -118 -121 -174c-103.333 -117.333 -181 -196.666 -233 -237.999v-108z" />
    <glyph glyph-name="uni00B3" unicode="&#xb3;" horiz-adv-x="760" 
d="M244 1118c0 32.667 7.33496 61.999 22.002 87.999c14 23.333 42 35.666 84 36.999c46.667 -1.33301 79.334 -17.666 98.001 -48.999c16.667 -32.667 25 -69.667 25 -111c0 -34 -2.66699 -61.333 -8 -82c-8 -21.333 -19.667 -38.333 -35 -51
c-28.667 -22 -69 -32.333 -121 -31v-83c54.667 1.33301 98.334 -8.33398 131.001 -29.001c31.333 -22 47.666 -72.667 48.999 -152c0 -50 -10 -90.333 -30 -121c-22 -32.667 -57 -49 -105 -49c-54.667 1.33301 -89.334 17 -104.001 47c-16.667 26 -24.334 53.333 -23.001 82
h-164c2 -48.667 24 -94.334 66 -137.001c22 -20.667 51.333 -37 88 -49c35.333 -13.333 80.333 -20 135 -20c190 -4.66699 287 81.333 291 258c-1.33301 66.667 -17.666 117 -48.999 151c-31.333 32.667 -70.333 52.334 -117 59.001v5
c35.333 9.33301 68.666 28.333 99.999 57c32 28.667 48.667 78.334 50 149.001c-1.33301 80.667 -26 140.334 -74 179.001c-48 36.667 -113 55 -195 55c-46 0 -85.333 -5.66699 -118 -17c-34.667 -10.667 -63.334 -25.667 -86.001 -45c-44 -38 -68.667 -85 -74 -141h164z
" />
    <glyph glyph-name="ellipsis" unicode="&#xb4;" horiz-adv-x="635" 
d="M225 1145h154l155 313h-217z" />
    <glyph glyph-name="quotedblright" unicode="&#xb5;" horiz-adv-x="1100" 
d="M162 -416l193.996 -0.000976562v445c12.667 -11.333 28.334 -22.333 47.001 -33c19.333 -10.667 48 -17 86 -19c45.333 2 82.333 12.333 111 31c28.667 18 51.334 39.333 68.001 64c17.333 26 31 51 41 75c8 26 12.667 47.333 14 64h4
c-1.33301 -61.333 12.334 -114.666 41.001 -159.999c28.667 -47.333 88.667 -72 180 -74c35.333 2 70.333 11 105 27v98c-12.667 -4 -25 -6 -37 -6c-37.333 0 -61.333 15.667 -72 47c-10.667 32.667 -16 84.667 -16 156v676h-207v-330c1.33301 -164 -9 -289 -31 -375
c-24.667 -87.333 -78 -131 -160 -131c-61.333 0 -103.666 26.667 -126.999 80c-22.667 50.667 -34 119 -34 205v551h-207v-1391z" />
    <glyph glyph-name="florin" unicode="&#xb6;" horiz-adv-x="1100" 
d="M641 -438h76v1775h125v-1775h75v1775h119v76h-235c-150.667 1.33301 -288 -35.667 -412 -111c-129.333 -77.333 -196.333 -204 -201 -380c0 -82 16.667 -151.667 50 -209c30 -56 68 -102.667 114 -140c46.667 -34 96 -60.333 148 -79c50 -18 97 -30.333 141 -37v-895z
" />
    <glyph glyph-name="scedilla" unicode="&#xb8;" horiz-adv-x="635" 
d="M434 33l-101.999 0.00292969l-53 -238c18.667 4 38.334 5.33301 59.001 4c35.333 0 66 -8 92 -24c26 -18 39.667 -45.333 41 -82c0 -26 -9 -46.667 -27 -62c-18.667 -16 -40.334 -24.667 -65.001 -26c-24.667 1.33301 -48 7.33301 -70 18
c-23.333 11.333 -43 24.333 -59 39v-127c12 -6.66699 30.333 -13.334 55 -20.001c22 -8.66699 51.333 -13.667 88 -15c75.333 1.33301 131.333 22 168 62c36.667 36.667 55 81 55 133c0 34 -6 63.333 -18 88c-12 23.333 -27.667 41.666 -47 54.999
c-19.333 15.333 -39.333 25.666 -60 30.999c-20 5.33301 -39.667 8 -59 8c-10.667 0 -22.334 -1.33301 -35.001 -4z" />
    <glyph glyph-name="uni00B9" unicode="&#xb9;" horiz-adv-x="760" 
d="M338 1175v-761h147v884h-118l-193 -118v-109v0l164 104v0z" />
    <glyph glyph-name="fraction" unicode="&#xba;" horiz-adv-x="569" 
d="M285 575c160.667 1.33301 240.334 96.333 239.001 285c1.33301 186 -78.334 280.333 -239.001 283c-162.667 -2.66699 -242.667 -97 -240 -283c-2.66699 -188.667 77.333 -283.667 240 -285v0zM170 860c-1.33301 57.333 5.33398 110 20.001 158
c14 49.333 45.667 74.666 95 75.999c51.333 -1.33301 84 -26.666 98 -75.999c10.667 -48 16 -100.667 16 -158c0 -54.667 -5.33301 -106.667 -16 -156c-14 -51.333 -46.667 -77.666 -98 -78.999c-49.333 1.33301 -81 27.666 -95 78.999
c-14.667 49.333 -21.334 101.333 -20.001 156v0z" />
    <glyph glyph-name="Ecircumflex" unicode="&#xbb;" horiz-adv-x="797" 
d="M74 121h168l172 395l-172 385h-168l123 -385zM383 121h168l172 395l-172 385h-168l123 -385z" />
    <glyph glyph-name="glyph154" unicode="&#xbc;" horiz-adv-x="1745" 
d="M270 1175v-761h148v884h-119l-193 -118v-109v0l164 104v0zM485 0h140l452 1298h-137zM1360 0h133v233h151v107h-151v547h-154l-366 -547v-107h387v-233zM1356 729h4v-389h-254z" />
    <glyph glyph-name="glyph161" unicode="&#xbd;" horiz-adv-x="1745" 
d="M297 1175v-761h147v884h-118l-193 -118v-109v0l164 104v0zM487 0h140l454 1298h-139zM1024 0h569v109h-407c24.667 18.667 58 46.334 100 83.001c42.667 37.333 87 80.666 133 129.999c46.667 48.667 85.667 101.667 117 159s47.666 116 48.999 176
c-1.33301 86 -28.666 148.333 -81.999 187c-53.333 38 -118 57 -194 57c-53.333 0 -97 -6 -131 -18c-34.667 -14 -63.334 -32.667 -86.001 -56c-20.667 -22.667 -36 -46.334 -46 -71.001c-10.667 -24.667 -18 -50 -22 -76h164c0 23.333 7.33301 52 22 86
c8.66699 16 21 29.667 37 41c14 10.667 33 16 57 16c40 -1.33301 71.667 -13.666 95 -36.999c21.333 -26 32 -58 32 -96c-1.33301 -52 -18.333 -108 -51 -168c-34 -60 -74.333 -118.667 -121 -176c-103.333 -117.333 -181.666 -196.333 -234.999 -237v-109z" />
    <glyph glyph-name="glyph153" unicode="&#xbe;" horiz-adv-x="1745" 
d="M244 1118c0 34 7.33789 63.334 22.0049 88.001c14 23.333 42 35.666 84 36.999c48 -1.33301 81.667 -17 101 -47c16 -31.333 24 -67.666 24 -108.999c0 -65.333 -15 -108.333 -45 -129c-30 -20 -70.333 -30 -121 -30v-84c57.333 1.33301 102.333 -8.33398 135 -29.001
c31.333 -23.333 47 -76.666 47 -159.999c0 -48.667 -10.667 -89 -32 -121c-22 -32.667 -57 -49 -105 -49c-54.667 0 -89.334 15 -104.001 45c-8 12.667 -13.667 27 -17 43c-4 15.333 -6 29 -6 41h-164c2 -48.667 24 -94.334 66 -137.001c22 -20.667 51.333 -37 88 -49
c35.333 -13.333 80.333 -20 135 -20c191.333 -4.66699 289 81.333 293 258c-1.33301 70.667 -17.666 123 -48.999 157c-32.667 34 -72.334 54.667 -119.001 62v4c35.333 8 69.666 26.333 102.999 55c31.333 27.333 47.666 75.666 48.999 144.999
c-1.33301 80.667 -26 140.334 -74 179.001c-50.667 35.333 -116.334 53 -197.001 53c-46 0 -85.333 -5.66699 -118 -17c-34.667 -10.667 -63.334 -25.667 -86.001 -45c-44 -38 -68.667 -85 -74 -141h164zM588.005 0.000976562h139l455 1298h-140zM1427 0.000976562h133v233
h152v107h-152v547h-153l-367 -549v-105h387v-233zM1423 729.001h4v-389h-254z" />
    <glyph glyph-name="fi" unicode="&#xbf;" horiz-adv-x="911" 
d="M795 -57c-24.667 -19.333 -63 -40.6689 -115 -64.002c-52 -26 -111.333 -39.667 -178 -41c-60 1.33301 -108 16.333 -144 45c-38 28.667 -57 67.667 -57 117c0 38 9 73.333 27 106c16 33.333 37.667 63.666 65 90.999l117 122c30 32 55.333 61.667 76 89
c20 26.667 35.667 57.334 47 92.001c8 32.667 12 72.667 12 120v111h-164v-59c0 -49.333 -8.66699 -91.666 -26 -126.999c-20.667 -37.333 -54.334 -76.333 -101.001 -117l-88 -78c-31.333 -28.667 -61.333 -60 -90 -94c-28.667 -32.667 -52 -69 -70 -109
c-20 -39.333 -30 -81.666 -30 -126.999c0 -68 16.333 -123 49 -165c30 -42.667 68.333 -75.667 115 -99c46 -21.333 94.333 -36.333 145 -45c50.667 -8 95.667 -12 135 -12c58.667 1.33301 109.334 6 152.001 14c42 7.33301 83 15 123 23v207zM440 886.997h248v248h-248
v-248z" />
    <glyph glyph-name="Egrave" unicode="&#xc0;" 
d="M18 0h199l129 420h487l129 -420h234l-473 1413h-234zM590 1210h4l199 -655h-404zM559 1583h152l-91 313h-219z" />
    <glyph glyph-name="zcaron" unicode="&#xc1;" 
d="M18 0h199l129 420h487l129 -420h234l-473 1413h-234zM590 1210h4l199 -655h-404zM552 1583h154l155 313h-217z" />
    <glyph glyph-name="scaron" unicode="&#xc2;" 
d="M18 0h199l129 420h487l129 -420h234l-473 1413h-234zM590 1210h4l199 -655h-404zM330 1583h147l139 166v0l140 -166h147l-192 291h-191z" />
    <glyph glyph-name="Iacute" unicode="&#xc3;" 
d="M18 0h199l129 420h487l129 -420h234l-473 1413h-234zM590 1210h4l199 -655h-404zM462 1595c0 30 2.66992 55.333 8.00293 76c5.33301 18.667 15.666 28 30.999 28c12 0 28.333 -5.33301 49 -16l61 -41c23.333 -14.667 47.333 -27.667 72 -39
c24.667 -13.333 48.667 -20 72 -20c58.667 1.33301 96 27.333 112 78c15.333 47.333 22.333 106.666 21 177.999h-107c0 -34 -1.33301 -60.667 -4 -80c-5.33301 -20.667 -16.333 -31 -33 -31c-10.667 0 -26.334 7 -47.001 21c-20.667 12 -43 25.667 -67 41
c-24.667 17.333 -49.334 32.333 -74.001 45c-24.667 10.667 -48 16 -70 16c-57.333 -1.33301 -94 -28.666 -110 -81.999c-15.333 -49.333 -22.333 -107.333 -21 -174h107z" />
    <glyph glyph-name="ucircumflex" unicode="&#xc4;" 
d="M18 0h199l129 420h487l129 -420h234l-473 1413h-234zM590 1210h4l199 -655h-404zM308 1605h223v207h-223v-207zM703 1605h224v207h-224v-207z" />
    <glyph glyph-name="udieresis" unicode="&#xc5;" 
d="M18 0h199l129 420h487l129 -420h234l-473 1413h-234zM590 1210h4l199 -655h-404zM619 1564c54.667 0 100.665 19.332 137.998 57.999c35.333 35.333 53.666 80.333 54.999 135c-1.33301 54.667 -19.666 101 -54.999 139c-37.333 35.333 -83.333 53.666 -138 54.999
c-51.333 -1.33301 -95.666 -19.666 -132.999 -54.999c-39.333 -35.333 -59.666 -81.666 -60.999 -138.999c0 -54.667 19.667 -99.667 59 -135c36 -38.667 81 -58 135 -58v0zM528.998 1757c1.33301 57.333 31.333 87.334 90 90.001c56 -2.66699 85.333 -32.667 88 -90
c-1.33301 -24.667 -9.33301 -45.334 -24 -62.001c-16.667 -17.333 -38 -26 -64 -26c-58.667 2.66699 -88.667 32 -90 88v0z" />
    <glyph glyph-name="Atilde" unicode="&#xc6;" horiz-adv-x="1708" 
d="M6 0h215l318 594h389l49 -594h667v147h-460l-41 447h463v135h-476l-49 549h543v135h-809zM874 1225h5l38 -496h-305z" />
    <glyph glyph-name="dagger" unicode="&#xc7;" horiz-adv-x="1139" 
d="M530 -205c19.333 4 39.3389 5.33496 60.0059 4.00195c35.333 0 66 -8 92 -24c26 -18 39.667 -45.333 41 -82c0 -26 -9 -46.667 -27 -62c-18.667 -16 -40.334 -24.667 -65.001 -26c-24.667 1.33301 -48 7.33301 -70 18c-23.333 11.333 -43 24.333 -59 39v-127
c12 -6.66699 30.333 -13.334 55 -20.001c22 -8.66699 51.333 -13.667 88 -15c75.333 1.33301 131.333 22 168 62c36.667 36.667 55 81 55 133c0 34 -6 63.333 -18 88c-12.667 23.333 -28.334 41.666 -47.001 54.999c-19.333 15.333 -39.333 25.666 -60 30.999
c-20 5.33301 -39.667 8 -59 8c-10.667 0 -22.334 -1.33301 -35.001 -4l25 107c2.66699 -2 7.33398 -3 14.001 -3c91.333 2 167.666 11.667 228.999 29c62 18 111.333 38.667 148 62v192v0c-28.667 -24.667 -70.334 -52.667 -125.001 -84
c-57.333 -32.667 -129 -49.667 -215 -51c-78 0 -142.333 19 -193 57c-50 36 -89.333 85.333 -118 148c-54.667 128 -81.334 274.667 -80.001 440c0 50.667 4 107.334 12 170.001c8 61.333 21.667 120 41 176c22 56 52.667 103 92 141c40 36 91.333 54.667 154 56
c47.333 0 86.333 -9 117 -27c28.667 -16.667 51 -40 67 -70c30 -61.333 44.333 -123.333 43 -186h262c0 120 -39 217 -117 291c-77.333 74.667 -195.333 113 -354 115c-211.333 -4.66699 -357.333 -78.667 -438 -222c-80.667 -140.667 -120.334 -301 -119.001 -481
c-1.33301 -185.333 35.667 -347 111 -485c73.333 -139.333 196 -226 368 -260z" />
    <glyph glyph-name="Eth" unicode="&#xc8;" horiz-adv-x="987" 
d="M162 0h762v147h-537v521h492v135h-492v475h520v135h-745v-1413zM489 1583h152l-91 313h-219z" />
    <glyph glyph-name="degree" unicode="&#xc9;" horiz-adv-x="987" 
d="M162 0h762v147h-537v521h492v135h-492v475h520v135h-745v-1413zM472 1583h154l155 313h-217z" />
    <glyph glyph-name="Zcaron" unicode="&#xca;" horiz-adv-x="987" 
d="M162 0h762v147h-537v521h492v135h-492v475h520v135h-745v-1413zM251 1583h147l139 166v0l140 -166h147l-192 291h-191z" />
    <glyph glyph-name="brokenbar" unicode="&#xcb;" horiz-adv-x="987" 
d="M162 0h762v147h-537v521h492v135h-492v475h520v135h-745v-1413zM226 1605h223v207h-223v-207zM621 1605h224v207h-224v-207z" />
    <glyph glyph-name="Thorn" unicode="&#xcc;" horiz-adv-x="569" 
d="M172 0h225v1413h-225v-1413zM221 1583h152l-91 313h-219z" />
    <glyph glyph-name="eth" unicode="&#xcd;" horiz-adv-x="569" 
d="M172 0h225v1413h-225v-1413zM192 1583h154l155 313h-217z" />
    <glyph glyph-name="Yacute" unicode="&#xce;" horiz-adv-x="569" 
d="M172 0h225v1413h-225v-1413zM-29 1583h147l139 166v0l140 -166h147l-192 291h-191z" />
    <glyph glyph-name="yacute" unicode="&#xcf;" horiz-adv-x="569" 
d="M172 0h225v1413h-225v-1413zM-52 1605h223v207h-223v-207zM343 1605h224v207h-224v-207z" />
    <glyph glyph-name="glyph160" unicode="&#xd0;" 
d="M162 0h317.002c198 -2.66699 354.333 44.333 469 141c113.333 100 170.666 293.333 171.999 580c-1.33301 274 -59.333 459.667 -174 557c-114.667 92.667 -270.334 137.667 -467.001 135h-317v-614h-162v-119h162v-680zM387.002 680h253.999v119h-254v479h92
c58.667 0 112.667 -4.66699 162 -14c48 -12.667 89.667 -38 125 -76c36.667 -37.333 65.334 -93.333 86.001 -168c19.333 -75.333 29 -175 29 -299c2.66699 -188.667 -21.333 -332.667 -72 -432c-54.667 -102.667 -164.667 -154 -330 -154h-92v545z" />
    <glyph glyph-name="cent" unicode="&#xd1;" horiz-adv-x="1329" 
d="M164 0h186v1151h4l578 -1151h233v1413h-186v-1118h-4l-561 1118h-250v-1413zM537 1595c0 30 2.66992 55.333 8.00293 76c5.33301 18.667 15.666 28 30.999 28c12 0 28.333 -5.33301 49 -16l61 -41c23.333 -14.667 47.333 -27.667 72 -39
c24.667 -13.333 48.667 -20 72 -20c58.667 1.33301 96 27.333 112 78c15.333 47.333 22.333 106.666 21 177.999h-107c0 -34 -1.33301 -60.667 -4 -80c-5.33301 -20.667 -16.333 -31 -33 -31c-10.667 0 -26.334 7 -47.001 21c-20.667 12 -43 25.667 -67 41
c-24.667 17.333 -49.334 32.333 -74.001 45c-24.667 10.667 -48 16 -70 16c-57.333 -1.33301 -94 -28.666 -110 -81.999c-15.333 -49.333 -22.333 -107.333 -21 -174h107z" />
    <glyph glyph-name="onesuperior" unicode="&#xd2;" horiz-adv-x="1290" 
d="M645 -23c198 3.33301 340 72.333 426 207c84.667 134 127 308.333 127 523c0 216.667 -42.333 391.334 -127 524.001c-86 133.333 -228 201.666 -426 204.999c-196.667 -3.33301 -338 -71.666 -424 -204.999c-86 -132.667 -128.333 -307.334 -127 -524.001
c-1.33301 -214.667 41 -389 127 -523c86 -134.667 227.333 -203.667 424 -207v0zM334 707c0 64 4 131.333 12 202c8 70 21.667 135 41 195c22 62.667 54 113 96 151c41.333 38.667 95.333 58 162 58c70 0 126 -19.333 168 -58c40.667 -38 72 -88.333 94 -151
c22 -60 36.333 -125 43 -195c5.33301 -70.667 8 -138 8 -202c0 -63.333 -2.66699 -129.666 -8 -198.999c-6.66699 -71.333 -21 -137 -43 -197c-22 -61.333 -53.333 -111 -94 -149c-42 -41.333 -98 -62 -168 -62c-66.667 0 -120.667 20.667 -162 62
c-42 38 -74 87.667 -96 149c-19.333 60 -33 125.667 -41 197c-8 69.333 -12 135.666 -12 198.999v0zM593 1583h152l-91 313h-219z" />
    <glyph glyph-name="thorn" unicode="&#xd3;" horiz-adv-x="1290" 
d="M645 -23c198 3.33301 340 72.333 426 207c84.667 134 127 308.333 127 523c0 216.667 -42.333 391.334 -127 524.001c-86 133.333 -228 201.666 -426 204.999c-196.667 -3.33301 -338 -71.666 -424 -204.999c-86 -132.667 -128.333 -307.334 -127 -524.001
c-1.33301 -214.667 41 -389 127 -523c86 -134.667 227.333 -203.667 424 -207v0zM334 707c0 64 4 131.333 12 202c8 70 21.667 135 41 195c22 62.667 54 113 96 151c41.333 38.667 95.333 58 162 58c70 0 126 -19.333 168 -58c40.667 -38 72 -88.333 94 -151
c22 -60 36.333 -125 43 -195c5.33301 -70.667 8 -138 8 -202c0 -63.333 -2.66699 -129.666 -8 -198.999c-6.66699 -71.333 -21 -137 -43 -197c-22 -61.333 -53.333 -111 -94 -149c-42 -41.333 -98 -62 -168 -62c-66.667 0 -120.667 20.667 -162 62
c-42 38 -74 87.667 -96 149c-19.333 60 -33 125.667 -41 197c-8 69.333 -12 135.666 -12 198.999v0zM566 1583h154l155 313h-217z" />
    <glyph glyph-name="minus" unicode="&#xd4;" horiz-adv-x="1290" 
d="M645 -23c198 3.33301 340 72.333 426 207c84.667 134 127 308.333 127 523c0 216.667 -42.333 391.334 -127 524.001c-86 133.333 -228 201.666 -426 204.999c-196.667 -3.33301 -338 -71.666 -424 -204.999c-86 -132.667 -128.333 -307.334 -127 -524.001
c-1.33301 -214.667 41 -389 127 -523c86 -134.667 227.333 -203.667 424 -207v0zM334 707c0 64 4 131.333 12 202c8 70 21.667 135 41 195c22 62.667 54 113 96 151c41.333 38.667 95.333 58 162 58c70 0 126 -19.333 168 -58c40.667 -38 72 -88.333 94 -151
c22 -60 36.333 -125 43 -195c5.33301 -70.667 8 -138 8 -202c0 -63.333 -2.66699 -129.666 -8 -198.999c-6.66699 -71.333 -21 -137 -43 -197c-22 -61.333 -53.333 -111 -94 -149c-42 -41.333 -98 -62 -168 -62c-66.667 0 -120.667 20.667 -162 62
c-42 38 -74 87.667 -96 149c-19.333 60 -33 125.667 -41 197c-8 69.333 -12 135.666 -12 198.999v0zM344 1583h147l139 166v0l140 -166h147l-192 291h-191z" />
    <glyph glyph-name="Icircumflex" unicode="&#xd5;" horiz-adv-x="1290" 
d="M645 -23c198 3.33301 340 72.333 426 207c84.667 134 127 308.333 127 523c0 216.667 -42.333 391.334 -127 524.001c-86 133.333 -228 201.666 -426 204.999c-196.667 -3.33301 -338 -71.666 -424 -204.999c-86 -132.667 -128.333 -307.334 -127 -524.001
c-1.33301 -214.667 41 -389 127 -523c86 -134.667 227.333 -203.667 424 -207v0zM334 707c0 64 4 131.333 12 202c8 70 21.667 135 41 195c22 62.667 54 113 96 151c41.333 38.667 95.333 58 162 58c70 0 126 -19.333 168 -58c40.667 -38 72 -88.333 94 -151
c22 -60 36.333 -125 43 -195c5.33301 -70.667 8 -138 8 -202c0 -63.333 -2.66699 -129.666 -8 -198.999c-6.66699 -71.333 -21 -137 -43 -197c-22 -61.333 -53.333 -111 -94 -149c-42 -41.333 -98 -62 -168 -62c-66.667 0 -120.667 20.667 -162 62
c-42 38 -74 87.667 -96 149c-19.333 60 -33 125.667 -41 197c-8 69.333 -12 135.666 -12 198.999v0zM473 1595c0 30 2.66992 55.333 8.00293 76c5.33301 18.667 15.666 28 30.999 28c12 0 28.333 -5.33301 49 -16l61 -41c23.333 -14.667 47.333 -27.667 72 -39
c24.667 -13.333 48.667 -20 72 -20c58.667 1.33301 96 27.333 112 78c15.333 47.333 22.333 106.666 21 177.999h-107c0 -34 -1.33301 -60.667 -4 -80c-5.33301 -20.667 -16.333 -31 -33 -31c-10.667 0 -26.334 7 -47.001 21c-20.667 12 -43 25.667 -67 41
c-24.667 17.333 -49.334 32.333 -74.001 45c-24.667 10.667 -48 16 -70 16c-57.333 -1.33301 -94 -28.666 -110 -81.999c-15.333 -49.333 -22.333 -107.333 -21 -174h107z" />
    <glyph glyph-name="sterling" unicode="&#xd6;" horiz-adv-x="1290" 
d="M645 -23c198 3.33301 340 72.333 426 207c84.667 134 127 308.333 127 523c0 216.667 -42.333 391.334 -127 524.001c-86 133.333 -228 201.666 -426 204.999c-196.667 -3.33301 -338 -71.666 -424 -204.999c-86 -132.667 -128.333 -307.334 -127 -524.001
c-1.33301 -214.667 41 -389 127 -523c86 -134.667 227.333 -203.667 424 -207v0zM334 707c0 64 4 131.333 12 202c8 70 21.667 135 41 195c22 62.667 54 113 96 151c41.333 38.667 95.333 58 162 58c70 0 126 -19.333 168 -58c40.667 -38 72 -88.333 94 -151
c22 -60 36.333 -125 43 -195c5.33301 -70.667 8 -138 8 -202c0 -63.333 -2.66699 -129.666 -8 -198.999c-6.66699 -71.333 -21 -137 -43 -197c-22 -61.333 -53.333 -111 -94 -149c-42 -41.333 -98 -62 -168 -62c-66.667 0 -120.667 20.667 -162 62
c-42 38 -74 87.667 -96 149c-19.333 60 -33 125.667 -41 197c-8 69.333 -12 135.666 -12 198.999v0zM342 1605h223v207h-223v-207zM737 1605h224v207h-224v-207z" />
    <glyph glyph-name="multiply" unicode="&#xd7;" 
d="M254 -12l352 370v0l352 -370v0l127 114l-352 381l352 387l-127 115v0l-352 -375v0l-352 375v0l-127 -115l352 -385l-352 -383z" />
    <glyph glyph-name="Otilde" unicode="&#xd8;" horiz-adv-x="1290" 
d="M360 397c-18.667 105.333 -27.334 208.668 -26.001 310.001c0 64 4 131.333 12 202c8 70 21.667 135 41 195c22 62.667 54 113 96 151c41.333 38.667 95.333 58 162 58c92.667 -2.66699 162.334 -38.334 209.001 -107.001zM209 -81.998l100 167.999v0
c83.333 -70.667 195.333 -107 336 -109c198 3.33301 340 72.333 426 207c84.667 134 127 308.333 127 523c1.33301 242.667 -53.334 432.334 -164.001 569.001l96 160l-94 71v0l-92 -153v0c-78 54.667 -177.667 82 -299 82c-196.667 -3.33301 -338 -71.666 -424 -204.999
c-86 -132.667 -128.333 -307.334 -127 -524.001c-1.33301 -221.333 42.334 -398.333 131.001 -531l-119 -199zM913 1077c31.333 -122.667 46.333 -246.001 45 -370.001c0 -63.333 -2.66699 -129.666 -8 -198.999c-6.66699 -71.333 -21 -137 -43 -197
c-22 -61.333 -53.333 -111 -94 -149c-42 -41.333 -98 -62 -168 -62c-112 1.33301 -190.333 52 -235 152z" />
    <glyph glyph-name="onehalf" unicode="&#xd9;" horiz-adv-x="1253" 
d="M1106 1413h-224.999v-911c0 -56 -1.66699 -108 -5 -156c-5.33301 -49.333 -16 -92.333 -32 -129c-16.667 -35.333 -42 -63.333 -76 -84c-34 -22 -81 -33 -141 -33c-58.667 0 -105.334 11 -140.001 33c-34 20.667 -59 48.667 -75 84c-16.667 36.667 -27 79.667 -31 129
c-5.33301 48 -8 100 -8 156v911h-226v-911c0 -64.667 5.66699 -128.334 17 -191.001c9.33301 -61.333 29.666 -117.333 60.999 -168c32.667 -48.667 81.334 -88 146.001 -118c62.667 -30 148 -46 256 -48c110.667 2 198 18 262 48s111.667 69.333 143 118
c31.333 50.667 52 106.667 62 168c8 62.667 12 126.334 12 191.001v911zM573.001 1583h152l-91 313h-219z" />
    <glyph glyph-name="twosuperior" unicode="&#xda;" horiz-adv-x="1253" 
d="M1106 1413h-224.999v-911c0 -56 -1.66699 -108 -5 -156c-5.33301 -49.333 -16 -92.333 -32 -129c-16.667 -35.333 -42 -63.333 -76 -84c-34 -22 -81 -33 -141 -33c-58.667 0 -105.334 11 -140.001 33c-34 20.667 -59 48.667 -75 84c-16.667 36.667 -27 79.667 -31 129
c-5.33301 48 -8 100 -8 156v911h-226v-911c0 -64.667 5.66699 -128.334 17 -191.001c9.33301 -61.333 29.666 -117.333 60.999 -168c32.667 -48.667 81.334 -88 146.001 -118c62.667 -30 148 -46 256 -48c110.667 2 198 18 262 48s111.667 69.333 143 118
c31.333 50.667 52 106.667 62 168c8 62.667 12 126.334 12 191.001v911zM546.001 1583h154l155 313h-217z" />
    <glyph glyph-name="threesuperior" unicode="&#xdb;" horiz-adv-x="1253" 
d="M1106 1413h-224.999v-911c0 -56 -1.66699 -108 -5 -156c-5.33301 -49.333 -16 -92.333 -32 -129c-16.667 -35.333 -42 -63.333 -76 -84c-34 -22 -81 -33 -141 -33c-58.667 0 -105.334 11 -140.001 33c-34 20.667 -59 48.667 -75 84c-16.667 36.667 -27 79.667 -31 129
c-5.33301 48 -8 100 -8 156v911h-226v-911c0 -64.667 5.66699 -128.334 17 -191.001c9.33301 -61.333 29.666 -117.333 60.999 -168c32.667 -48.667 81.334 -88 146.001 -118c62.667 -30 148 -46 256 -48c110.667 2 198 18 262 48s111.667 69.333 143 118
c31.333 50.667 52 106.667 62 168c8 62.667 12 126.334 12 191.001v911zM324.001 1583h147l139 166v0l140 -166h147l-192 291h-191z" />
    <glyph glyph-name="section" unicode="&#xdc;" horiz-adv-x="1253" 
d="M1106 1413h-224.999v-911c0 -56 -1.66699 -108 -5 -156c-5.33301 -49.333 -16 -92.333 -32 -129c-16.667 -35.333 -42 -63.333 -76 -84c-34 -22 -81 -33 -141 -33c-58.667 0 -105.334 11 -140.001 33c-34 20.667 -59 48.667 -75 84c-16.667 36.667 -27 79.667 -31 129
c-5.33301 48 -8 100 -8 156v911h-226v-911c0 -64.667 5.66699 -128.334 17 -191.001c9.33301 -61.333 29.666 -117.333 60.999 -168c32.667 -48.667 81.334 -88 146.001 -118c62.667 -30 148 -46 256 -48c110.667 2 198 18 262 48s111.667 69.333 143 118
c31.333 50.667 52 106.667 62 168c8 62.667 12 126.334 12 191.001v911zM322.001 1605h223v207h-223v-207zM717.001 1605h224v207h-224v-207z" />
    <glyph glyph-name="glyph203" unicode="&#xdd;" horiz-adv-x="1063" 
d="M410 0h225v657l452 756h-208l-332 -555v0l-320 555h-252l435 -756v-657zM455 1583h154l155 313h-217z" />
    <glyph glyph-name="glyph158" unicode="&#xde;" horiz-adv-x="1253" 
d="M170 0h224.998v317h303c61.333 0 120 5.66699 176 17c56 9.33301 104.667 28.333 146 57c42 30 74.667 73 98 129c23.333 54.667 35 127 35 217c0 96 -11.667 172 -35 228s-56.666 97.333 -99.999 124c-41.333 27.333 -90 46 -146 56
c-57.333 6.66699 -118.666 10 -183.999 10h-293v258h-225v-1413zM394.998 1020h213c41.333 0 80.333 -2 117 -6c35.333 -6 67.333 -17.667 96 -35c28.667 -18 51.334 -46 68.001 -84c16 -38 24 -90.667 24 -158c0 -62.667 -8 -113 -24 -151c-16.667 -38.667 -40 -68 -70 -88
c-28.667 -18 -61.334 -29.667 -98.001 -35c-38 -6.66699 -79 -10 -123 -10h-203v567z" />
    <glyph glyph-name="approxequal" unicode="&#xdf;" horiz-adv-x="1102" 
d="M154 0l205.999 -0.000976562v928c-1.33301 116 9 215 31 297c12.667 39.333 31 70 55 92c23.333 22 54.333 33 93 33c61.333 -2 106.333 -30 135 -84c26 -56 39 -121 39 -195c2.66699 -176 -61.666 -263.333 -192.999 -262v-94c41.333 0 78.333 -2.66699 111 -8
c32.667 -8.66699 60.667 -24 84 -46c23.333 -21.333 41 -54 53 -98c5.33301 -22 10 -47.333 14 -76c1.33301 -30 2 -63.333 2 -100c1.33301 -86 -11 -159 -37 -219c-28.667 -62.667 -86.667 -94.667 -174 -96c-28.667 0 -53 4.66699 -73 14
c-20.667 6.66699 -37 12.667 -49 18v-104c36.667 -13.333 91.667 -21 165 -23c49.333 0 98 6.33301 146 19c23.333 5.33301 45.666 14.333 66.999 27c20.667 10.667 40 22.667 58 36c78.667 58.667 119.667 168 123 328c0 78 -9 140.667 -27 188
c-18 46.667 -42.667 83 -74 109c-28.667 26 -60.667 44.333 -96 55c-36.667 12.667 -73 20.334 -109 23.001v4c52 14.667 103.333 43.334 154 86.001c23.333 22 42.333 51.333 57 88c15.333 34 23 77.667 23 131c-1.33301 121.333 -39 212.666 -113 273.999
c-73.333 60.667 -166.666 91 -279.999 91c-166.667 -2 -274.667 -51.333 -324 -148c-26 -46.667 -43.667 -100 -53 -160c-9.33301 -61.333 -14 -128 -14 -200v-928z" />
    <glyph glyph-name="paragraph" unicode="&#xe0;" horiz-adv-x="987" 
d="M633 0l207 0.000976562v629c0 48.667 -2.33301 95.667 -7 141c-8 44 -23 83 -45 117c-21.333 35.333 -55.333 62.666 -102 81.999c-48 18.667 -111.333 28 -190 28c-75.333 0 -137 -8 -185 -24c-48.667 -16.667 -86 -39.334 -112 -68.001s-44.667 -60.667 -56 -96
c-10.667 -35.333 -18 -72.333 -22 -111h217c2.66699 58.667 14.334 108.667 35.001 150c20 40.667 61 61.667 123 63c34 0 61 -8.66699 81 -26c18 -19.333 31 -44 39 -74c8.66699 -28.667 13.667 -58.667 15 -90c1.33301 -34 2 -64.667 2 -92v-86
c-32.667 0 -78.334 -3 -137.001 -9c-58.667 -5.33301 -119.667 -18 -183 -38c-61.333 -20.667 -113 -52.334 -155 -95.001c-46.667 -44.667 -70 -104.667 -70 -180c0 -68 26 -124.667 78 -170c49.333 -47.333 112 -72 188 -74c40 2 75 8.33301 105 19
c31.333 10.667 58 24.334 80 41.001c21.333 17.333 40.333 34.333 57 51c13.333 16.667 24.333 32.334 33 47.001h4v-135zM633 342.001c-1.33301 -82 -25.332 -141.334 -71.999 -178.001c-20.667 -19.333 -42.334 -33 -65.001 -41c-23.333 -11.333 -44.666 -17 -63.999 -17
c-32.667 0 -60 13.667 -82 41c-24.667 26 -37 61 -37 105c0 44.667 13.667 81.334 41 110.001c23.333 26 52.666 46 87.999 60c36 13.333 71.667 23 107 29c16 2.66699 31.667 4.66699 47 6h37v-115zM437.001 1145h152l-91 313h-219z" />
    <glyph glyph-name="bullet" unicode="&#xe1;" horiz-adv-x="987" 
d="M633 0l207 0.000976562v629c0 48.667 -2.33301 95.667 -7 141c-8 44 -23 83 -45 117c-21.333 35.333 -55.333 62.666 -102 81.999c-48 18.667 -111.333 28 -190 28c-75.333 0 -137 -8 -185 -24c-48.667 -16.667 -86 -39.334 -112 -68.001s-44.667 -60.667 -56 -96
c-10.667 -35.333 -18 -72.333 -22 -111h217c2.66699 58.667 14.334 108.667 35.001 150c20 40.667 61 61.667 123 63c34 0 61 -8.66699 81 -26c18 -19.333 31 -44 39 -74c8.66699 -28.667 13.667 -58.667 15 -90c1.33301 -34 2 -64.667 2 -92v-86
c-32.667 0 -78.334 -3 -137.001 -9c-58.667 -5.33301 -119.667 -18 -183 -38c-61.333 -20.667 -113 -52.334 -155 -95.001c-46.667 -44.667 -70 -104.667 -70 -180c0 -68 26 -124.667 78 -170c49.333 -47.333 112 -72 188 -74c40 2 75 8.33301 105 19
c31.333 10.667 58 24.334 80 41.001c21.333 17.333 40.333 34.333 57 51c13.333 16.667 24.333 32.334 33 47.001h4v-135zM633 342.001c-1.33301 -82 -25.332 -141.334 -71.999 -178.001c-20.667 -19.333 -42.334 -33 -65.001 -41c-23.333 -11.333 -44.666 -17 -63.999 -17
c-32.667 0 -60 13.667 -82 41c-24.667 26 -37 61 -37 105c0 44.667 13.667 81.334 41 110.001c23.333 26 52.666 46 87.999 60c36 13.333 71.667 23 107 29c16 2.66699 31.667 4.66699 47 6h37v-115zM410.001 1145h154l155 313h-217z" />
    <glyph glyph-name="germandbls" unicode="&#xe2;" horiz-adv-x="987" 
d="M633 0l207 0.000976562v629c0 48.667 -2.33301 95.667 -7 141c-8 44 -23 83 -45 117c-21.333 35.333 -55.333 62.666 -102 81.999c-48 18.667 -111.333 28 -190 28c-75.333 0 -137 -8 -185 -24c-48.667 -16.667 -86 -39.334 -112 -68.001s-44.667 -60.667 -56 -96
c-10.667 -35.333 -18 -72.333 -22 -111h217c2.66699 58.667 14.334 108.667 35.001 150c20 40.667 61 61.667 123 63c34 0 61 -8.66699 81 -26c18 -19.333 31 -44 39 -74c8.66699 -28.667 13.667 -58.667 15 -90c1.33301 -34 2 -64.667 2 -92v-86
c-32.667 0 -78.334 -3 -137.001 -9c-58.667 -5.33301 -119.667 -18 -183 -38c-61.333 -20.667 -113 -52.334 -155 -95.001c-46.667 -44.667 -70 -104.667 -70 -180c0 -68 26 -124.667 78 -170c49.333 -47.333 112 -72 188 -74c40 2 75 8.33301 105 19
c31.333 10.667 58 24.334 80 41.001c21.333 17.333 40.333 34.333 57 51c13.333 16.667 24.333 32.334 33 47.001h4v-135zM633 342.001c-1.33301 -82 -25.332 -141.334 -71.999 -178.001c-20.667 -19.333 -42.334 -33 -65.001 -41c-23.333 -11.333 -44.666 -17 -63.999 -17
c-32.667 0 -60 13.667 -82 41c-24.667 26 -37 61 -37 105c0 44.667 13.667 81.334 41 110.001c23.333 26 52.666 46 87.999 60c36 13.333 71.667 23 107 29c16 2.66699 31.667 4.66699 47 6h37v-115zM189.001 1145h147l139 166v0l140 -166h147l-192 291h-191z" />
    <glyph glyph-name="copyright" unicode="&#xe3;" horiz-adv-x="987" 
d="M633 0l207 0.000976562v629c0 48.667 -2.33301 95.667 -7 141c-8 44 -23 83 -45 117c-21.333 35.333 -55.333 62.666 -102 81.999c-48 18.667 -111.333 28 -190 28c-75.333 0 -137 -8 -185 -24c-48.667 -16.667 -86 -39.334 -112 -68.001s-44.667 -60.667 -56 -96
c-10.667 -35.333 -18 -72.333 -22 -111h217c2.66699 58.667 14.334 108.667 35.001 150c20 40.667 61 61.667 123 63c34 0 61 -8.66699 81 -26c18 -19.333 31 -44 39 -74c8.66699 -28.667 13.667 -58.667 15 -90c1.33301 -34 2 -64.667 2 -92v-86
c-32.667 0 -78.334 -3 -137.001 -9c-58.667 -5.33301 -119.667 -18 -183 -38c-61.333 -20.667 -113 -52.334 -155 -95.001c-46.667 -44.667 -70 -104.667 -70 -180c0 -68 26 -124.667 78 -170c49.333 -47.333 112 -72 188 -74c40 2 75 8.33301 105 19
c31.333 10.667 58 24.334 80 41.001c21.333 17.333 40.333 34.333 57 51c13.333 16.667 24.333 32.334 33 47.001h4v-135zM633 342.001c-1.33301 -82 -25.332 -141.334 -71.999 -178.001c-20.667 -19.333 -42.334 -33 -65.001 -41c-23.333 -11.333 -44.666 -17 -63.999 -17
c-32.667 0 -60 13.667 -82 41c-24.667 26 -37 61 -37 105c0 44.667 13.667 81.334 41 110.001c23.333 26 52.666 46 87.999 60c36 13.333 71.667 23 107 29c16 2.66699 31.667 4.66699 47 6h37v-115zM340.001 1157c0 30 2.66992 55.333 8.00293 76
c5.33301 18.667 15.666 28 30.999 28c12 0 28.333 -5.33301 49 -16l61 -41c23.333 -14.667 47.333 -27.667 72 -39c24.667 -13.333 48.667 -20 72 -20c58.667 1.33301 96 27.333 112 78c15.333 47.333 22.333 106.666 21 177.999h-107c0 -34 -1.33301 -60.667 -4 -80
c-5.33301 -20.667 -16.333 -31 -33 -31c-10.667 0 -26.334 7 -47.001 21c-20.667 12 -43 25.667 -67 41c-24.667 17.333 -49.334 32.333 -74.001 45c-24.667 10.667 -48 16 -70 16c-57.333 -1.33301 -94 -28.666 -110 -81.999c-15.333 -49.333 -22.333 -107.333 -21 -174
h107z" />
    <glyph glyph-name="registered" unicode="&#xe4;" horiz-adv-x="987" 
d="M633 0l207 0.000976562v629c0 48.667 -2.33301 95.667 -7 141c-8 44 -23 83 -45 117c-21.333 35.333 -55.333 62.666 -102 81.999c-48 18.667 -111.333 28 -190 28c-75.333 0 -137 -8 -185 -24c-48.667 -16.667 -86 -39.334 -112 -68.001s-44.667 -60.667 -56 -96
c-10.667 -35.333 -18 -72.333 -22 -111h217c2.66699 58.667 14.334 108.667 35.001 150c20 40.667 61 61.667 123 63c34 0 61 -8.66699 81 -26c18 -19.333 31 -44 39 -74c8.66699 -28.667 13.667 -58.667 15 -90c1.33301 -34 2 -64.667 2 -92v-86
c-32.667 0 -78.334 -3 -137.001 -9c-58.667 -5.33301 -119.667 -18 -183 -38c-61.333 -20.667 -113 -52.334 -155 -95.001c-46.667 -44.667 -70 -104.667 -70 -180c0 -68 26 -124.667 78 -170c49.333 -47.333 112 -72 188 -74c40 2 75 8.33301 105 19
c31.333 10.667 58 24.334 80 41.001c21.333 17.333 40.333 34.333 57 51c13.333 16.667 24.333 32.334 33 47.001h4v-135zM633 342.001c-1.33301 -82 -25.332 -141.334 -71.999 -178.001c-20.667 -19.333 -42.334 -33 -65.001 -41c-23.333 -11.333 -44.666 -17 -63.999 -17
c-32.667 0 -60 13.667 -82 41c-24.667 26 -37 61 -37 105c0 44.667 13.667 81.334 41 110.001c23.333 26 52.666 46 87.999 60c36 13.333 71.667 23 107 29c16 2.66699 31.667 4.66699 47 6h37v-115zM187.001 1167h223v207h-223v-207zM582.001 1167h224v207h-224v-207z" />
    <glyph glyph-name="trademark" unicode="&#xe5;" horiz-adv-x="987" 
d="M633 0l207 0.000976562v629c0 48.667 -2.33301 95.667 -7 141c-8 44 -23 83 -45 117c-21.333 35.333 -55.333 62.666 -102 81.999c-48 18.667 -111.333 28 -190 28c-75.333 0 -137 -8 -185 -24c-48.667 -16.667 -86 -39.334 -112 -68.001s-44.667 -60.667 -56 -96
c-10.667 -35.333 -18 -72.333 -22 -111h217c2.66699 58.667 14.334 108.667 35.001 150c20 40.667 61 61.667 123 63c34 0 61 -8.66699 81 -26c18 -19.333 31 -44 39 -74c8.66699 -28.667 13.667 -58.667 15 -90c1.33301 -34 2 -64.667 2 -92v-86
c-32.667 0 -78.334 -3 -137.001 -9c-58.667 -5.33301 -119.667 -18 -183 -38c-61.333 -20.667 -113 -52.334 -155 -95.001c-46.667 -44.667 -70 -104.667 -70 -180c0 -68 26 -124.667 78 -170c49.333 -47.333 112 -72 188 -74c40 2 75 8.33301 105 19
c31.333 10.667 58 24.334 80 41.001c21.333 17.333 40.333 34.333 57 51c13.333 16.667 24.333 32.334 33 47.001h4v-135zM633 342.001c-1.33301 -82 -25.332 -141.334 -71.999 -178.001c-20.667 -19.333 -42.334 -33 -65.001 -41c-23.333 -11.333 -44.666 -17 -63.999 -17
c-32.667 0 -60 13.667 -82 41c-24.667 26 -37 61 -37 105c0 44.667 13.667 81.334 41 110.001c23.333 26 52.666 46 87.999 60c36 13.333 71.667 23 107 29c16 2.66699 31.667 4.66699 47 6h37v-115zM500.001 1126c54.667 0 100.665 19.332 137.998 57.999
c35.333 35.333 53.666 80.333 54.999 135c-1.33301 54.667 -19.666 101 -54.999 139c-37.333 35.333 -83.333 53.666 -138 54.999c-51.333 -1.33301 -95.666 -19.666 -132.999 -54.999c-39.333 -35.333 -59.666 -81.666 -60.999 -138.999c0 -54.667 19.667 -99.667 59 -135
c36 -38.667 81 -58 135 -58v0zM409.999 1319c1.33301 57.333 31.333 87.334 90 90.001c56 -2.66699 85.333 -32.667 88 -90c-1.33301 -24.667 -9.33301 -45.334 -24 -62.001c-16.667 -17.333 -38 -26 -64 -26c-58.667 2.66699 -88.667 32 -90 88v0z" />
    <glyph glyph-name="guilsinglleft" unicode="&#xe6;" horiz-adv-x="1481" 
d="M1384 133c-17.333 -6.66699 -39.0029 -16.334 -65.0029 -29.001c-28.667 -12 -64.334 -18 -107.001 -18c-77.333 1.33301 -139.333 19.666 -186 54.999c-49.333 34 -87 75.667 -113 125s-43.667 95.666 -53 138.999c-9.33301 42.667 -15.333 74.334 -18 95.001h559
c0 46 -2 97.667 -6 155c-7.33301 56 -23.333 110 -48 162c-22.667 52 -58.667 95 -108 129c-50.667 34 -119 51 -205 51c-88.667 -1.33301 -154.667 -19 -198 -53c-22 -14.667 -41.333 -30.334 -58 -47.001c-16 -19.333 -29.667 -37 -41 -53v0
c-12 40.667 -36.333 76 -73 106c-37.333 30 -99 45.667 -185 47c-64 0 -118.667 -7.33301 -164 -22c-43.333 -15.333 -79.333 -36.666 -108 -63.999c-27.333 -24.667 -47.333 -52.667 -60 -84c-13.333 -32.667 -22 -64.667 -26 -96h217c-1.33301 39.333 9 79 31 119
c20 38 58 57.667 114 59c42.667 -1.33301 75.667 -13.666 99 -36.999c21.333 -22.667 37 -52 47 -88c10.667 -34 16.667 -68 18 -102c1.33301 -35.333 2 -64.666 2 -87.999c-23.333 0 -63.666 -0.666992 -120.999 -2c-57.333 -2.66699 -120 -13.667 -188 -33
c-65.333 -18 -122.666 -49.333 -171.999 -94c-50.667 -46.667 -76.667 -112.334 -78 -197.001c0 -87.333 29.333 -157 88 -209c57.333 -52.667 132.333 -80 225 -82c53.333 2 98 9 134 21c36.667 10.667 67.334 25 92.001 43c26 19.333 47.667 40.333 65 63
c16.667 20.667 30.334 41.334 41.001 62.001v0c24.667 -36.667 67 -76.334 127 -119.001c58.667 -43.333 142 -66.666 250 -69.999c68 2 127.333 10.333 178 25c50.667 14 82 23.667 94 29v102zM648.997 426c0 -40.667 -1.33301 -80.334 -4 -119.001
c-4 -39.333 -12.333 -74.666 -25 -105.999c-12 -31.333 -30.333 -56.666 -55 -75.999c-26 -19.333 -59.333 -29 -100 -29c-48 1.33301 -84.333 20 -109 56c-27.333 34 -41 74 -41 120c0 57.333 15 101.666 45 132.999c28.667 32 63 54.667 103 68
c39.333 14 76.666 22.333 111.999 25c34.667 1.33301 59.334 2 74.001 2v-74zM839.997 594c-1.33301 54.667 12.333 119.331 41 193.998c16 36 37 65.333 63 88c26 23.333 59.333 35 100 35c36 0 64.667 -9.33301 86 -28c20.667 -19.333 35.667 -44.666 45 -75.999
c10 -31.333 17 -64.666 21 -99.999c1.33301 -37.333 2 -75 2 -113h-358z" />
    <glyph glyph-name="acute" unicode="&#xe7;" horiz-adv-x="872" 
d="M393 -205c19.333 4 39.333 5.33594 60 4.00293c35.333 0 66 -8 92 -24c26 -18 39.667 -45.333 41 -82c0 -26 -9 -46.667 -27 -62c-19.333 -16 -41 -24.667 -65 -26c-24.667 1.33301 -48 7.33301 -70 18c-23.333 11.333 -43 24.333 -59 39v-127
c12 -6.66699 30.333 -13.334 55 -20.001c22 -8.66699 51.333 -13.667 88 -15c74.667 1.33301 130.667 22 168 62c36.667 36.667 55 81 55 133c0 34 -6 63.333 -18 88c-12.667 23.333 -28.334 41.666 -47.001 54.999c-19.333 15.333 -39.333 25.666 -60 30.999
s-40.334 8 -59.001 8c-11.333 0 -23 -1.33301 -35 -4l25 107c10.667 -2 21.334 -3 32.001 -3c88.667 2 175.334 18.667 260.001 50v96c-57.333 -24.667 -115.333 -37 -174 -37c-61.333 0 -113.666 16.333 -156.999 49c-44 30 -80.333 69.667 -109 119
c-56 102.667 -84 216.667 -84 342c0 90 15.667 165 47 225c28.667 58.667 73 88.667 133 90c63.333 -1.33301 103.666 -28.666 120.999 -81.999c11.333 -24 17.666 -50.333 18.999 -79c1.33301 -30.667 2 -61.667 2 -93h217c1.33301 102.667 -24 184.667 -76 246
c-53.333 61.333 -144.666 92.666 -273.999 93.999c-277.333 -5.33301 -415.333 -162.333 -414 -471c2.66699 -308.667 122 -486.667 358 -534z" />
    <glyph glyph-name="notequal" unicode="&#xe8;" horiz-adv-x="948" 
d="M852 127c-61.333 -27.333 -123.333 -40.999 -186 -40.999c-71.333 0 -131.666 18.333 -180.999 55c-48.667 34 -87.334 77 -116.001 129c-56 113.333 -83.333 222.666 -82 327.999h583c0 48 -4 95.667 -12 143c-9.33301 48 -27.666 91 -54.999 129
c-26 40 -63.667 71.667 -113 95c-50.667 21.333 -115.334 32 -194.001 32c-152 -1.33301 -259.333 -45 -322 -131c-64 -86 -95.333 -198 -94 -336c1.33301 -194.667 49 -335 143 -421c91.333 -88 206 -132 344 -132c113.333 2 208.333 20.667 285 56v94zM293 692.001
c0 34 13.666 77.666 40.999 130.999c13.333 26 33 47.333 59 64c24.667 14.667 56 22.667 94 24c38.667 0 70.334 -7.33301 95.001 -22c24 -15.333 42.333 -34.666 55 -57.999c12 -22.667 21 -45.667 27 -69c2.66699 -24.667 4 -48 4 -70h-375zM416.999 1145h152l-91 313
h-219z" />
    <glyph glyph-name="dieresis" unicode="&#xe9;" horiz-adv-x="948" 
d="M852 127c-61.333 -27.333 -123.333 -40.999 -186 -40.999c-71.333 0 -131.666 18.333 -180.999 55c-48.667 34 -87.334 77 -116.001 129c-56 113.333 -83.333 222.666 -82 327.999h583c0 48 -4 95.667 -12 143c-9.33301 48 -27.666 91 -54.999 129
c-26 40 -63.667 71.667 -113 95c-50.667 21.333 -115.334 32 -194.001 32c-152 -1.33301 -259.333 -45 -322 -131c-64 -86 -95.333 -198 -94 -336c1.33301 -194.667 49 -335 143 -421c91.333 -88 206 -132 344 -132c113.333 2 208.333 20.667 285 56v94zM293 692.001
c0 34 13.666 77.666 40.999 130.999c13.333 26 33 47.333 59 64c24.667 14.667 56 22.667 94 24c38.667 0 70.334 -7.33301 95.001 -22c24 -15.333 42.333 -34.666 55 -57.999c12 -22.667 21 -45.667 27 -69c2.66699 -24.667 4 -48 4 -70h-375zM389.999 1145h154l155 313
h-217z" />
    <glyph glyph-name="AE" unicode="&#xea;" horiz-adv-x="948" 
d="M852 127c-61.333 -27.333 -123.333 -40.999 -186 -40.999c-71.333 0 -131.666 18.333 -180.999 55c-48.667 34 -87.334 77 -116.001 129c-56 113.333 -83.333 222.666 -82 327.999h583c0 48 -4 95.667 -12 143c-9.33301 48 -27.666 91 -54.999 129
c-26 40 -63.667 71.667 -113 95c-50.667 21.333 -115.334 32 -194.001 32c-152 -1.33301 -259.333 -45 -322 -131c-64 -86 -95.333 -198 -94 -336c1.33301 -194.667 49 -335 143 -421c91.333 -88 206 -132 344 -132c113.333 2 208.333 20.667 285 56v94zM293 692.001
c0 34 13.666 77.666 40.999 130.999c13.333 26 33 47.333 59 64c24.667 14.667 56 22.667 94 24c38.667 0 70.334 -7.33301 95.001 -22c24 -15.333 42.333 -34.666 55 -57.999c12 -22.667 21 -45.667 27 -69c2.66699 -24.667 4 -48 4 -70h-375zM210.999 1145h147l139 166v0
l140 -166h147l-192 291h-191z" />
    <glyph glyph-name="Oslash" unicode="&#xeb;" horiz-adv-x="948" 
d="M852 127c-61.333 -27.333 -123.333 -40.999 -186 -40.999c-71.333 0 -131.666 18.333 -180.999 55c-48.667 34 -87.334 77 -116.001 129c-56 113.333 -83.333 222.666 -82 327.999h583c0 48 -4 95.667 -12 143c-9.33301 48 -27.666 91 -54.999 129
c-26 40 -63.667 71.667 -113 95c-50.667 21.333 -115.334 32 -194.001 32c-152 -1.33301 -259.333 -45 -322 -131c-64 -86 -95.333 -198 -94 -336c1.33301 -194.667 49 -335 143 -421c91.333 -88 206 -132 344 -132c113.333 2 208.333 20.667 285 56v94zM293 692.001
c0 34 13.666 77.666 40.999 130.999c13.333 26 33 47.333 59 64c24.667 14.667 56 22.667 94 24c38.667 0 70.334 -7.33301 95.001 -22c24 -15.333 42.333 -34.666 55 -57.999c12 -22.667 21 -45.667 27 -69c2.66699 -24.667 4 -48 4 -70h-375zM166.999 1167h223v207h-223
v-207zM561.999 1167h224v207h-224v-207z" />
    <glyph glyph-name="plusminus" unicode="&#xec;" horiz-adv-x="532" 
d="M162 0h207v975h-207v-975zM201 1145h152l-91 313h-219z" />
    <glyph glyph-name="infinity" unicode="&#xed;" horiz-adv-x="532" 
d="M162 0h207v975h-207v-975zM174 1145h154l155 313h-217z" />
    <glyph glyph-name="lessequal" unicode="&#xee;" horiz-adv-x="532" 
d="M162 0h207v975h-207v-975zM-25 1145h147l139 166v0l140 -166h147l-192 291h-191z" />
    <glyph glyph-name="greaterequal" unicode="&#xef;" horiz-adv-x="532" 
d="M162 0h207v975h-207v-975zM-50 1167h223v207h-223v-207zM345 1167h224v207h-224v-207z" />
    <glyph glyph-name="glyph164" unicode="&#xf0;" horiz-adv-x="1063" 
d="M811 1216l-33.001 88v0l-174 -63c-23.333 16.667 -53.333 36.334 -90 59.001h-338v-6c28.667 -1.33301 69 -14.333 121 -39c50.667 -24.667 95.667 -49 135 -73l-139 -50l31 -92v0l206 74v0c68.667 -54.667 124 -117.334 166 -188.001l-4 -4
c-17.333 18.667 -41.333 35.667 -72 51c-30 14.667 -68.667 22.667 -116 24c-268 -2.66699 -402 -172.667 -402 -510c0 -336.667 144 -506.667 432 -510c285.333 3.33301 429 173.333 431 510c-3.33301 182 -33 329.667 -89 443c-57.333 112 -116.666 193 -177.999 243z
M327.999 487c0 46.667 2.66699 94.667 8 144c4 50.667 12.667 96.334 26 137.001c14 42 35.333 76.667 64 104c28.667 26 64.667 39 108 39c45.333 0 82.333 -13 111 -39c26 -27.333 45.667 -62 59 -104c15.333 -40.667 25.666 -86.334 30.999 -137.001
c2.66699 -49.333 4 -97.333 4 -144c0 -43.333 -1.33301 -89.666 -4 -138.999c-5.33301 -49.333 -15.666 -95.666 -30.999 -138.999c-13.333 -42.667 -33 -77 -59 -103c-28.667 -28.667 -65.667 -43 -111 -43c-43.333 0 -79.333 14.333 -108 43
c-28.667 26 -50 60.333 -64 103c-13.333 43.333 -22 89.666 -26 138.999c-5.33301 49.333 -8 95.666 -8 138.999v0z" />
    <glyph glyph-name="yen" unicode="&#xf1;" horiz-adv-x="1102" 
d="M152 0h206.001v403c0 33.333 5 73.666 15 120.999c8 49.333 21.667 98 41 146c20 48.667 47.333 90.334 82 125.001c32.667 31.333 74 47.666 124 48.999c52 -1.33301 86.333 -24.666 103 -69.999c13.333 -44.667 20 -99.334 20 -164.001v-610h207v713
c0 74.667 -19 140 -57 196c-40 57.333 -103 86.666 -189 87.999c-52.667 0 -98.334 -9.33301 -137.001 -28c-40.667 -19.333 -74 -42.666 -100 -69.999c-27.333 -27.333 -49.333 -54.666 -66 -81.999c-17.333 -30 -30.333 -54.667 -39 -74h-4v232h-206v-975zM378.001 1157
c0 30 2.66992 55.333 8.00293 76c5.33301 18.667 15.666 28 30.999 28c12 0 28.333 -5.33301 49 -16l61 -41c23.333 -14.667 47.333 -27.667 72 -39c24.667 -13.333 48.667 -20 72 -20c58.667 1.33301 96 27.333 112 78c15.333 47.333 22.333 106.666 21 177.999h-107
c0 -34 -1.33301 -60.667 -4 -80c-5.33301 -20.667 -16.333 -31 -33 -31c-10.667 0 -26.334 7 -47.001 21c-20.667 12 -43 25.667 -67 41c-24.667 17.333 -49.334 32.333 -74.001 45c-24.667 10.667 -48 16 -70 16c-57.333 -1.33301 -94 -28.666 -110 -81.999
c-15.333 -49.333 -22.333 -107.333 -21 -174h107z" />
    <glyph glyph-name="partialdiff" unicode="&#xf2;" horiz-adv-x="1026" 
d="M512 -23c288 3.33301 432 173.333 432 510c0 337.333 -144 507.333 -432 510c-286.667 -2.66699 -430 -172.667 -430 -510c0 -336.667 143.333 -506.667 430 -510v0zM307 487c0 46.667 2.66699 94.667 8 144c4.66699 50.667 13.667 96.334 27 137.001
c13.333 42 34.333 76.667 63 104c26 26 61.667 39 107 39c46.667 0 84.334 -13 113.001 -39c27.333 -27.333 47.666 -62 60.999 -104c14 -40.667 23.667 -86.334 29 -137.001c2.66699 -49.333 4 -97.333 4 -144c0 -43.333 -1.33301 -89.666 -4 -138.999
c-5.33301 -49.333 -15 -95.666 -29 -138.999c-13.333 -42.667 -33.666 -77 -60.999 -103c-28.667 -28.667 -66.334 -43 -113.001 -43c-45.333 0 -81 14.333 -107 43c-28.667 26 -49.667 60.333 -63 103c-13.333 43.333 -22.333 89.666 -27 138.999
c-5.33301 49.333 -8 95.666 -8 138.999v0zM460 1145h152l-91 313h-219z" />
    <glyph glyph-name="mu" unicode="&#xf3;" horiz-adv-x="1026" 
d="M512 -23c288 3.33301 432 173.333 432 510c0 337.333 -144 507.333 -432 510c-286.667 -2.66699 -430 -172.667 -430 -510c0 -336.667 143.333 -506.667 430 -510v0zM307 487c0 46.667 2.66699 94.667 8 144c4.66699 50.667 13.667 96.334 27 137.001
c13.333 42 34.333 76.667 63 104c26 26 61.667 39 107 39c46.667 0 84.334 -13 113.001 -39c27.333 -27.333 47.666 -62 60.999 -104c14 -40.667 23.667 -86.334 29 -137.001c2.66699 -49.333 4 -97.333 4 -144c0 -43.333 -1.33301 -89.666 -4 -138.999
c-5.33301 -49.333 -15 -95.666 -29 -138.999c-13.333 -42.667 -33.666 -77 -60.999 -103c-28.667 -28.667 -66.334 -43 -113.001 -43c-45.333 0 -81 14.333 -107 43c-28.667 26 -49.667 60.333 -63 103c-13.333 43.333 -22.333 89.666 -27 138.999
c-5.33301 49.333 -8 95.666 -8 138.999v0zM433 1145h154l155 313h-217z" />
    <glyph glyph-name="summation" unicode="&#xf4;" horiz-adv-x="1026" 
d="M512 -23c288 3.33301 432 173.333 432 510c0 337.333 -144 507.333 -432 510c-286.667 -2.66699 -430 -172.667 -430 -510c0 -336.667 143.333 -506.667 430 -510v0zM307 487c0 46.667 2.66699 94.667 8 144c4.66699 50.667 13.667 96.334 27 137.001
c13.333 42 34.333 76.667 63 104c26 26 61.667 39 107 39c46.667 0 84.334 -13 113.001 -39c27.333 -27.333 47.666 -62 60.999 -104c14 -40.667 23.667 -86.334 29 -137.001c2.66699 -49.333 4 -97.333 4 -144c0 -43.333 -1.33301 -89.666 -4 -138.999
c-5.33301 -49.333 -15 -95.666 -29 -138.999c-13.333 -42.667 -33.666 -77 -60.999 -103c-28.667 -28.667 -66.334 -43 -113.001 -43c-45.333 0 -81 14.333 -107 43c-28.667 26 -49.667 60.333 -63 103c-13.333 43.333 -22.333 89.666 -27 138.999
c-5.33301 49.333 -8 95.666 -8 138.999v0zM231 1145h147l139 166v0l140 -166h147l-192 291h-191z" />
    <glyph glyph-name="pi" unicode="&#xf5;" horiz-adv-x="1026" 
d="M512 -23c288 3.33301 432 173.333 432 510c0 337.333 -144 507.333 -432 510c-286.667 -2.66699 -430 -172.667 -430 -510c0 -336.667 143.333 -506.667 430 -510v0zM307 487c0 46.667 2.66699 94.667 8 144c4.66699 50.667 13.667 96.334 27 137.001
c13.333 42 34.333 76.667 63 104c26 26 61.667 39 107 39c46.667 0 84.334 -13 113.001 -39c27.333 -27.333 47.666 -62 60.999 -104c14 -40.667 23.667 -86.334 29 -137.001c2.66699 -49.333 4 -97.333 4 -144c0 -43.333 -1.33301 -89.666 -4 -138.999
c-5.33301 -49.333 -15 -95.666 -29 -138.999c-13.333 -42.667 -33.666 -77 -60.999 -103c-28.667 -28.667 -66.334 -43 -113.001 -43c-45.333 0 -81 14.333 -107 43c-28.667 26 -49.667 60.333 -63 103c-13.333 43.333 -22.333 89.666 -27 138.999
c-5.33301 49.333 -8 95.666 -8 138.999v0zM362 1157c0 30 2.66992 55.333 8.00293 76c5.33301 18.667 15.666 28 30.999 28c12 0 28.333 -5.33301 49 -16l61 -41c23.333 -14.667 47.333 -27.667 72 -39c24.667 -13.333 48.667 -20 72 -20c58.667 1.33301 96 27.333 112 78
c15.333 47.333 22.333 106.666 21 177.999h-107c0 -34 -1.33301 -60.667 -4 -80c-5.33301 -20.667 -16.333 -31 -33 -31c-10.667 0 -26.334 7 -47.001 21c-20.667 12 -43 25.667 -67 41c-24.667 17.333 -49.334 32.333 -74.001 45c-24.667 10.667 -48 16 -70 16
c-57.333 -1.33301 -94 -28.666 -110 -81.999c-15.333 -49.333 -22.333 -107.333 -21 -174h107z" />
    <glyph glyph-name="product" unicode="&#xf6;" horiz-adv-x="1026" 
d="M512 -23c288 3.33301 432 173.333 432 510c0 337.333 -144 507.333 -432 510c-286.667 -2.66699 -430 -172.667 -430 -510c0 -336.667 143.333 -506.667 430 -510v0zM307 487c0 46.667 2.66699 94.667 8 144c4.66699 50.667 13.667 96.334 27 137.001
c13.333 42 34.333 76.667 63 104c26 26 61.667 39 107 39c46.667 0 84.334 -13 113.001 -39c27.333 -27.333 47.666 -62 60.999 -104c14 -40.667 23.667 -86.334 29 -137.001c2.66699 -49.333 4 -97.333 4 -144c0 -43.333 -1.33301 -89.666 -4 -138.999
c-5.33301 -49.333 -15 -95.666 -29 -138.999c-13.333 -42.667 -33.666 -77 -60.999 -103c-28.667 -28.667 -66.334 -43 -113.001 -43c-45.333 0 -81 14.333 -107 43c-28.667 26 -49.667 60.333 -63 103c-13.333 43.333 -22.333 89.666 -27 138.999
c-5.33301 49.333 -8 95.666 -8 138.999v0zM209 1167h223v207h-223v-207zM604 1167h224v207h-224v-207z" />
    <glyph glyph-name="Ugrave" unicode="&#xf7;" 
d="M500 0h213v215h-213v-215zM500 760h213v215h-213v-215zM125 405h962v164h-962v-164z" />
    <glyph glyph-name="guilsinglright" unicode="&#xf8;" horiz-adv-x="1026" 
d="M170 -106l94 147v0c65.333 -40.667 148 -62 248 -64c288 3.33301 432 173.333 432 510c0 187.333 -45.667 323.333 -137 408l82 131l-78 53v0l-82 -129c-58.667 31.333 -131 47 -217 47c-286.667 -2.66699 -430 -172.667 -430 -510c0 -167.333 36.667 -295 110 -383
l-102 -159zM319 303c-9.33301 64 -13.333 125.331 -12 183.998c0 46.667 2.66699 94.667 8 144c4.66699 50.667 13.667 96.334 27 137.001c13.333 42 34.333 76.667 63 104c26 26 61.667 39 107 39c64 -1.33301 111 -28.666 141 -81.999zM694 720.998
c10 -36.667 17 -75.001 21 -115.001c2.66699 -40.667 4 -80.334 4 -119.001c0 -43.333 -1.33301 -89.666 -4 -138.999c-5.33301 -49.333 -15 -95.666 -29 -138.999c-13.333 -42.667 -33.666 -77 -60.999 -103c-28.667 -28.667 -66.334 -43 -113.001 -43
c-38 0 -70.667 11.667 -98 35c-26 22 -46.667 49.333 -62 82z" />
    <glyph glyph-name="ordfeminine" unicode="&#xf9;" horiz-adv-x="1102" 
d="M741 0h209.001v975h-207v-404c0 -30 -3.33301 -69.333 -10 -118c-8 -48 -22.333 -96.667 -43 -146c-20.667 -47.333 -47.334 -88.333 -80.001 -123c-34 -35.333 -77 -53 -129 -53c-50.667 1.33301 -83.334 25.333 -98.001 72c-18 44.667 -26.333 98.667 -25 162v610h-206
v-713c0 -35.333 5.33301 -69.333 16 -102c8 -34 22.333 -64.667 43 -92c38 -57.333 100 -87.666 186 -90.999c56 2 103.333 13 142 33c39.333 19.333 72 42.666 98 69.999c27.333 28.667 49 56.667 65 84c8.66699 13.333 16.334 26.333 23.001 39c4 10.667 8 20 12 28h4
v-231zM495.001 1145h152l-91 313h-219z" />
    <glyph glyph-name="integral" unicode="&#xfa;" horiz-adv-x="1102" 
d="M741 0h209.001v975h-207v-404c0 -30 -3.33301 -69.333 -10 -118c-8 -48 -22.333 -96.667 -43 -146c-20.667 -47.333 -47.334 -88.333 -80.001 -123c-34 -35.333 -77 -53 -129 -53c-50.667 1.33301 -83.334 25.333 -98.001 72c-18 44.667 -26.333 98.667 -25 162v610h-206
v-713c0 -35.333 5.33301 -69.333 16 -102c8 -34 22.333 -64.667 43 -92c38 -57.333 100 -87.666 186 -90.999c56 2 103.333 13 142 33c39.333 19.333 72 42.666 98 69.999c27.333 28.667 49 56.667 65 84c8.66699 13.333 16.334 26.333 23.001 39c4 10.667 8 20 12 28h4
v-231zM468.001 1145h154l155 313h-217z" />
    <glyph glyph-name="ordmasculine" unicode="&#xfb;" horiz-adv-x="1102" 
d="M741 0h209.001v975h-207v-404c0 -30 -3.33301 -69.333 -10 -118c-8 -48 -22.333 -96.667 -43 -146c-20.667 -47.333 -47.334 -88.333 -80.001 -123c-34 -35.333 -77 -53 -129 -53c-50.667 1.33301 -83.334 25.333 -98.001 72c-18 44.667 -26.333 98.667 -25 162v610h-206
v-713c0 -35.333 5.33301 -69.333 16 -102c8 -34 22.333 -64.667 43 -92c38 -57.333 100 -87.666 186 -90.999c56 2 103.333 13 142 33c39.333 19.333 72 42.666 98 69.999c27.333 28.667 49 56.667 65 84c8.66699 13.333 16.334 26.333 23.001 39c4 10.667 8 20 12 28h4
v-231zM247.001 1145h147l139 166v0l140 -166h147l-192 291h-191z" />
    <glyph glyph-name="Omega" unicode="&#xfc;" horiz-adv-x="1102" 
d="M741 0h209.001v975h-207v-404c0 -30 -3.33301 -69.333 -10 -118c-8 -48 -22.333 -96.667 -43 -146c-20.667 -47.333 -47.334 -88.333 -80.001 -123c-34 -35.333 -77 -53 -129 -53c-50.667 1.33301 -83.334 25.333 -98.001 72c-18 44.667 -26.333 98.667 -25 162v610h-206
v-713c0 -35.333 5.33301 -69.333 16 -102c8 -34 22.333 -64.667 43 -92c38 -57.333 100 -87.666 186 -90.999c56 2 103.333 13 142 33c39.333 19.333 72 42.666 98 69.999c27.333 28.667 49 56.667 65 84c8.66699 13.333 16.334 26.333 23.001 39c4 10.667 8 20 12 28h4
v-231zM245.001 1167h223v207h-223v-207zM640.001 1167h224v207h-224v-207z" />
    <glyph glyph-name="glyph176" unicode="&#xfd;" horiz-adv-x="911" 
d="M238 -438h165l502 1413h-194l-230 -696h-4l-256 696h-215l375 -985zM375 1145h154l155 313h-217z" />
    <glyph glyph-name="glyph167" unicode="&#xfe;" horiz-adv-x="1063" 
d="M141 -438h206.999v573h4c14 -30 39.333 -62.667 76 -98c20.667 -16.667 45.334 -30.334 74.001 -41.001s63.334 -17 104.001 -19c128.667 2 223 51.333 283 148c57.333 92.667 86 213.334 86 362.001c1.33301 144.667 -24.667 265 -78 361
c-54.667 96.667 -151.667 146.334 -291 149.001c-38 0 -71.333 -6 -100 -18c-28.667 -12.667 -53.334 -28.334 -74.001 -47.001c-20.667 -19.333 -37 -39.333 -49 -60c-12 -20 -22.333 -39 -31 -57h-4v598h-207v-1851zM355.999 487
c-1.33301 87.333 10.333 171.332 35 251.999c14 38.667 34 69.334 60 92.001c25.333 23.333 58.666 35 99.999 35c43.333 0 78 -11.667 104 -35c26 -22.667 46 -53.334 60 -92.001c24.667 -80.667 36.334 -164.667 35.001 -252c1.33301 -90 -11 -176 -37 -258
c-14 -39.333 -34 -70.666 -60 -93.999c-26 -26 -60 -39 -102 -39c-44 0 -79 13 -105 39c-25.333 23.333 -45 54.666 -59 93.999c-12 40 -20.333 82.333 -25 127c-4 46.667 -6 90.334 -6 131.001v0z" />
    <glyph glyph-name="circumflex" unicode="&#xff;" horiz-adv-x="911" 
d="M238 -438h165l502 1413h-194l-230 -696h-4l-256 696h-215l375 -985zM151 1167h223v207h-223v-207zM546 1167h224v207h-224v-207z" />
    <glyph glyph-name="onequarter" unicode="&#x131;" horiz-adv-x="532" 
d="M162 0h207v975h-207v-975z" />
    <glyph glyph-name="glyph142" unicode="&#x141;" horiz-adv-x="911" 
d="M164 549v-549h747v147h-522v584l264 213v148v0l-264 -213v0v534h-225v-717l-164 -131v-147v0l164 131v0z" />
    <glyph glyph-name="glyph148" unicode="&#x142;" horiz-adv-x="532" 
d="M162 590v-590h207v758l151 123v131v0l-151 -123v0v524h-207v-690l-152 -123v-131v0l152 121v0z" />
    <glyph glyph-name="Idieresis" unicode="&#x152;" horiz-adv-x="1823" 
d="M975 0l784.001 -0.000976562v147h-559v525h514v135h-514v471h543v135h-768v-192h-4c-12.667 24 -27.667 48.333 -45 73c-20.667 26 -45.334 49.333 -74.001 70c-27.333 20.667 -61.333 38.334 -102 53.001c-41.333 12.667 -90 19 -146 19
c-182.667 -3.33301 -313 -71.666 -391 -204.999c-80.667 -132.667 -120.334 -307.334 -119.001 -524.001c-1.33301 -214.667 38.334 -389 119.001 -523c78 -134.667 208.333 -203.667 391 -207c110.667 3.33301 194 29.333 250 78c28.667 23.333 52.667 47.333 72 72
c17.333 24.667 32.333 48.667 45 72h4v-199zM334.001 706.999c0 64 4.00098 131.336 12.001 202.003c6.66699 70 21 135 43 195c22 62.667 54 113 96 151c42.667 38.667 99.334 58 170.001 58c70 -1.33301 126 -21.333 168 -60c42.667 -39.333 74.667 -90.333 96 -153
c22 -63.333 37.333 -130.333 46 -201c6.66699 -72.667 10 -142.334 10 -209.001c1.33301 -132.667 -19.334 -261.667 -62.001 -387c-21.333 -58.667 -53.333 -106.334 -96 -143.001c-42 -40 -96 -60 -162 -60c-70.667 0 -127.334 20.667 -170.001 62
c-42 38 -74 87.667 -96 149c-22 60 -36.333 125.667 -43 197c-8 69.333 -12 135.666 -12 198.999v0z" />
    <glyph glyph-name="Igrave" unicode="&#x153;" horiz-adv-x="1595" 
d="M307 487c0 46.667 2.66699 94.667 8 144c4.66699 50.667 13.667 96.334 27 137.001c13.333 42 34.333 76.667 63 104c26 26 61.667 39 107 39c50.667 0 91 -13 121 -39c31.333 -26 53.666 -60.667 66.999 -104c16.667 -40.667 27.667 -86.334 33 -137.001
c2.66699 -49.333 4 -97.333 4 -144c0 -43.333 -1.33301 -89.666 -4 -138.999c-5.33301 -49.333 -16.333 -95.666 -33 -138.999c-13.333 -42.667 -35.666 -77 -66.999 -103c-30 -28.667 -70.333 -43 -121 -43c-45.333 0 -81 14.333 -107 43
c-28.667 26 -49.667 60.333 -63 103c-13.333 43.333 -22.333 89.666 -27 138.999c-5.33301 49.333 -8 95.666 -8 138.999v0zM1501 133c-18 -6.66699 -39.666 -16.3311 -64.999 -28.998c-28.667 -12 -64.334 -18 -107.001 -18c-82 1.33301 -148.333 19.666 -199 54.999
c-51.333 34 -91.333 75.667 -120 125s-48 95.666 -58 138.999c-12 42.667 -18.667 74.334 -20 95.001h585c0 46 -2 97.667 -6 155c-6.66699 56 -22.334 110 -47.001 162c-23.333 52 -59.333 95 -108 129c-50.667 34 -119 51 -205 51c-92.667 -1.33301 -163 -18.333 -211 -51
c-24.667 -14.667 -45 -31.667 -61 -51c-16.667 -19.333 -31 -38.333 -43 -57v0c-72.667 104.667 -180.667 157.667 -324 159c-286.667 -2.66699 -430 -172.667 -430 -510c0 -336.667 143.333 -506.667 430 -510c150 0 258 63.667 324 191v0
c14.667 -20.667 33 -41.334 55 -62.001c20.667 -22.667 46.667 -43.667 78 -63c62.667 -40.667 149.334 -62.667 260.001 -66c68 2 127.333 10.333 178 25c50.667 14 82 23.667 94 29v102zM932.001 594.003c-1.33301 54.667 13 119.331 43 193.998
c16 36 37.667 65.333 65 88c27.333 23.333 62.333 35 105 35c38 0 69.333 -9.33301 94 -28c23.333 -19.333 39.666 -44.666 48.999 -75.999c12.667 -31.333 20.334 -64.666 23.001 -99.999c2.66699 -37.333 4 -75 4 -113h-383z" />
    <glyph glyph-name="glyph208" unicode="&#x160;" horiz-adv-x="1026" 
d="M870 1399c-28.667 6.66699 -73.002 14.6689 -133.002 24.002c-61.333 6.66699 -125.333 11 -192 13c-304.667 -3.33301 -459 -124.333 -463 -363c0 -53.333 10.333 -100.333 31 -141c18.667 -42.667 43.667 -80.334 75 -113.001c32 -32.667 67.667 -61.334 107 -86.001
c39.333 -26 79.666 -50.667 120.999 -74c43.333 -21.333 85 -43 125 -65c39.333 -22 74 -46 104 -72c31.333 -24.667 56.666 -52 75.999 -82c17.333 -32.667 26 -69.334 26 -110.001c-1.33301 -71.333 -25 -123.333 -71 -156c-46.667 -32.667 -107.334 -49 -182.001 -49
c-41.333 0 -81.666 5.33301 -120.999 16c-40 10 -77.667 21 -113 33c-70.667 30 -124 55.333 -160 76v0v-219c24.667 -10 70.667 -20.333 138 -31c65.333 -13.333 139 -21 221 -23c147.333 0 268.666 33 363.999 99c97.333 64 147.333 169 150 315
c0 54.667 -9 104.667 -27 150c-19.333 42 -44.666 79.333 -75.999 112c-65.333 64.667 -141.666 118 -228.999 160l-121 68c-39.333 20 -74.666 42.333 -105.999 67s-56.666 50.667 -75.999 78c-20.667 28.667 -31 60.667 -31 96c0 54.667 20.667 98.334 62 131.001
c38 31.333 88.333 47 151 47c80.667 -1.33301 152.334 -13.333 215.001 -36c64 -23.333 109 -43.333 135 -60v195zM420.998 1583h191l192 291h-147l-140 -166v0l-139 166h-147z" />
    <glyph glyph-name="glyph181" unicode="&#x161;" horiz-adv-x="829" 
d="M680 782v176c-18 7.33301 -46.667 15.666 -86 24.999c-20.667 4 -42.667 8 -66 12c-24.667 1.33301 -50.334 2 -77.001 2c-120.667 -1.33301 -208.334 -29.333 -263.001 -84s-81 -120 -79 -196c0 -34 6.66699 -64.667 20 -92c12 -28.667 28.333 -54 49 -76
s44.667 -42 72 -60l80 -53l84 -45c24.667 -16 47 -32.333 67 -49c22 -16.667 39 -33 51 -49c11.333 -18 17 -38.667 17 -62c0 -31.333 -13 -59.333 -39 -84c-26 -25.333 -69 -38 -129 -38c-57.333 1.33301 -108.666 13.333 -153.999 36c-46 22 -84.667 44 -116 66v0v-191
c24 -8 58 -16.667 102 -26s96.667 -15 158 -17c106 0 194 23.333 264 70c69.333 46.667 104.666 121.667 105.999 225c-1.33301 76.667 -23.666 139 -66.999 187c-45.333 46 -96.666 84.667 -153.999 116c-57.333 32 -108.333 63.667 -153 95c-20.667 16 -38 33 -52 51
c-13.333 16 -20 34.333 -20 55c0 36.667 15 63.334 45 80.001c28.667 15.333 60 23 94 23c49.333 -2 94.333 -11.667 135 -29c40 -19.333 77 -42 111 -68v0zM316 1145h191l192 291h-147l-140 -166v0l-139 166h-147z" />
    <glyph glyph-name="tilde" unicode="&#x178;" horiz-adv-x="1063" 
d="M410 0h225v657l452 756h-208l-332 -555v0l-320 555h-252l435 -756v-657zM231 1605h223v207h-223v-207zM626 1605h224v207h-224v-207z" />
    <glyph glyph-name="quotesinglbase" unicode="&#x192;" horiz-adv-x="872" 
d="M137 0l206.997 0.00390625l152 868h274l18 107h-274l8 53c4 23.333 9.66699 50.666 17 81.999c5.33301 31.333 15.333 62.666 30 93.999c16.667 31.333 40 57.333 70 78c30 19.333 71 29.666 123 30.999c40.667 0 75.334 -5 104.001 -15
c27.333 -10.667 50 -21.334 68 -32.001l24 141c-21.333 6.66699 -48.666 13.334 -81.999 20.001c-16 2.66699 -33 4.66699 -51 6c-20 2 -42.333 3 -67 3c-92 0 -165 -13 -219 -39c-56 -27.333 -99 -62.333 -129 -105c-28.667 -40.667 -50 -84.334 -64 -131.001
c-13.333 -48 -23.666 -92.333 -30.999 -133l-8 -53h-172l-18 -107h172z" />
    <glyph glyph-name="threequarters" unicode="&#x2c6;" horiz-adv-x="635" 
d="M31 1145h147l139 166v0l140 -166h147l-192 291h-191z" />
    <glyph glyph-name="Ccaron" unicode="&#x2c7;" horiz-adv-x="635" 
d="M221 1145h191l192 291h-147l-140 -166v0l-139 166h-147z" />
    <glyph glyph-name="gbreve" unicode="&#x2d8;" horiz-adv-x="635" 
d="M487 1436c-4 -26 -17.666 -54.667 -40.999 -86c-24 -36 -67.667 -54.667 -131 -56c-60 1.33301 -101.667 20 -125 56c-12 14.667 -20.667 30.334 -26 47.001c-6.66699 14.667 -12.334 27.667 -17.001 39h-116c-1.33301 -67.333 21 -131.666 67 -192.999
c23.333 -28.667 53.333 -52 90 -70c37.333 -18.667 81 -28 131 -28c60.667 0 110 12.333 148 37c36.667 21.333 64.667 47.666 84 78.999c20.667 33.333 35 65.666 43 96.999s11.333 57.333 10 78h-117z" />
    <glyph glyph-name="Idotaccent" unicode="&#x2d9;" horiz-adv-x="635" 
d="M203 1167h229v213h-229v-213z" />
    <glyph glyph-name="Scedilla" unicode="&#x2da;" horiz-adv-x="635" 
d="M317 1126c54.667 0 100.665 19.332 137.998 57.999c35.333 35.333 53.666 80.333 54.999 135c-1.33301 54.667 -19.666 101 -54.999 139c-37.333 35.333 -83.333 53.666 -138 54.999c-51.333 -1.33301 -95.666 -19.666 -132.999 -54.999
c-39.333 -35.333 -59.666 -81.666 -60.999 -138.999c0 -54.667 19.667 -99.667 59 -135c36 -38.667 81 -58 135 -58v0zM226.998 1319c1.33301 57.333 31.333 87.334 90 90.001c56 -2.66699 85.333 -32.667 88 -90c-1.33301 -24.667 -9.33301 -45.334 -24 -62.001
c-16.667 -17.333 -38 -26 -64 -26c-58.667 2.66699 -88.667 32 -90 88v0z" />
    <glyph glyph-name="cacute" unicode="&#x2db;" horiz-adv-x="635" 
d="M588 -348l-36.998 -18.998c-14 -6.66699 -32.333 -10 -55 -10c-30 1.33301 -54.667 14.333 -74 39c-22 23.333 -33 54.666 -33 93.999c1.33301 61.333 19 114.666 53 159.999c31.333 44 59.333 77.333 84 100h-106c-22 -16 -55.667 -51.333 -101 -106
c-20 -27.333 -37.667 -57.333 -53 -90c-16 -34 -24 -71 -24 -111c1.33301 -60 23.666 -107 66.999 -141c41.333 -35.333 92 -53 152 -53c43.333 1.33301 85.666 8 126.999 20v117z" />
    <glyph glyph-name="glyph130" unicode="&#x2dc;" horiz-adv-x="635" 
d="M158 1157c0 30 2.66992 55.333 8.00293 76c5.33301 18.667 15.666 28 30.999 28c12 0 28.333 -5.33301 49 -16l61 -41c23.333 -14.667 47.333 -27.667 72 -39c24.667 -13.333 48.667 -20 72 -20c58.667 1.33301 96 27.333 112 78
c15.333 47.333 22.333 106.666 21 177.999h-107c0 -34 -1.33301 -60.667 -4 -80c-5.33301 -20.667 -16.333 -31 -33 -31c-10.667 0 -26.334 7 -47.001 21c-20.667 12 -43 25.667 -67 41c-24.667 17.333 -49.334 32.333 -74.001 45c-24.667 10.667 -48 16 -70 16
c-57.333 -1.33301 -94 -28.666 -110 -81.999c-15.333 -49.333 -22.333 -107.333 -21 -174h107z" />
    <glyph glyph-name="Oacute" unicode="&#x2013;" horiz-adv-x="1100" 
d="M104 426h889v186h-889v-186z" />
    <glyph glyph-name="Ocircumflex" unicode="&#x2014;" horiz-adv-x="1442" 
d="M104 426h1235v186h-1235v-186z" />
    <glyph glyph-name="Uacute" unicode="&#x2018;" horiz-adv-x="455" 
d="M92 948h238l20 465h-164z" />
    <glyph glyph-name="Ucircumflex" unicode="&#x2019;" horiz-adv-x="455" 
d="M109 948h163l93 465h-238z" />
    <glyph glyph-name="Lslash" unicode="&#x201a;" horiz-adv-x="455" 
d="M109 -217h163l93 465h-238z" />
    <glyph glyph-name="apple" unicode="&#x201c;" horiz-adv-x="797" 
d="M432 948h238l20 465h-164zM90 948h238l20 465h-164z" />
    <glyph glyph-name="Ograve" unicode="&#x201d;" horiz-adv-x="797" 
d="M109 948h163l93 465h-238zM451 948h163l95 465h-238z" />
    <glyph glyph-name="lslash" unicode="&#x201e;" horiz-adv-x="797" 
d="M109 -217h163l93 465h-238zM451 -217h163l95 465h-238z" />
    <glyph glyph-name="ae" unicode="&#x2020;" horiz-adv-x="1100" 
d="M444 0h211v770h381v149h-381v494h-211v-494h-381v-149h381v-770z" />
    <glyph glyph-name="ogonek" unicode="&#x2021;" horiz-adv-x="1139" 
d="M465 0h211v618h381v150h-381v154h381v149h-381v342h-211v-342h-381v-149h381v-154h-381v-150h381v-618z" />
    <glyph glyph-name="radical" unicode="&#x2022;" horiz-adv-x="1100" 
d="M551 336c105.333 1.33301 192.667 38 262 110c70.667 68.667 107 154.667 109 258c-2 105.333 -37.667 193.666 -107 264.999c-70.667 70.667 -158.667 106.667 -264 108c-105.333 -1.33301 -192 -37.333 -260 -108c-72.667 -71.333 -109.667 -159.666 -111 -264.999
c1.33301 -103.333 38.333 -189.333 111 -258c68 -72 154.667 -108.667 260 -110v0z" />
    <glyph glyph-name="Aacute" unicode="&#x2026;" horiz-adv-x="1481" 
d="M133 0h217v217h-217v-217zM631 0h217v217h-217v-217zM1128 0h217v217h-217v-217z" />
    <glyph glyph-name="Scaron" unicode="&#x2030;" horiz-adv-x="2505" 
d="M379 408c117.333 1.33301 201.333 47 252 137c48.667 84.667 73 191 73 319c0 128.667 -24.333 236.667 -73 324c-50.667 87.333 -134.667 131.666 -252 132.999c-114.667 -1.33301 -197.334 -45.666 -248.001 -132.999c-52 -87.333 -77.333 -195.333 -76 -324
c-1.33301 -128 24 -234.333 76 -319c50.667 -90 133.334 -135.667 248.001 -137v0zM215 864c-1.33301 102.667 9.66797 190.668 33.001 264.001c22 75.333 65.667 113.666 131 114.999c36.667 0 66 -10.333 88 -31c20.667 -20 37 -48 49 -84
c19.333 -73.333 29 -161.333 29 -264c0 -100.667 -9.66699 -188 -29 -262c-12 -35.333 -28.333 -63.333 -49 -84c-22 -22 -51.333 -33 -88 -33c-32.667 0 -59.334 11 -80.001 33c-22 20.667 -39 48.667 -51 84c-23.333 74 -34.333 161.333 -33 262v0zM1366 -22.999
c117.333 3.33301 201.333 49.333 252 138c47.333 84.667 71 191 71 319c0 130 -23.667 238.667 -71 326c-50.667 87.333 -134.667 131.666 -252 132.999c-114.667 -1.33301 -197.334 -45.666 -248.001 -132.999c-52 -87.333 -77.333 -196 -76 -326
c-1.33301 -128 24 -234.333 76 -319c50.667 -88.667 133.334 -134.667 248.001 -138v0zM1202 434.001c-1.33301 102.667 9.66699 191.335 33 266.002c22 75.333 65.667 113.666 131 114.999c35.333 0 64 -10.333 86 -31c20.667 -20 37 -48 49 -84
c19.333 -74.667 29 -163.334 29 -266.001c0 -100.667 -9.66699 -188 -29 -262c-12 -35.333 -28.333 -63.333 -49 -84c-22 -22 -50.667 -33 -86 -33c-65.333 1.33301 -109 40.333 -131 117c-23.333 74 -34.333 161.333 -33 262v0zM2126 -22.998
c117.333 3.33301 201.333 49.333 252 138c48.667 84.667 73 191 73 319c0 130 -24.333 238.667 -73 326c-50.667 87.333 -134.667 131.666 -252 132.999c-114.667 -1.33301 -197.334 -45.666 -248.001 -132.999c-52 -87.333 -77.333 -196 -76 -326
c-1.33301 -128 24 -234.333 76 -319c50.667 -88.667 133.334 -134.667 248.001 -138v0zM1962 434.002c-1.33301 102.667 9.66699 191.335 33 266.002c21.333 75.333 65 113.666 131 114.999c36.667 0 66 -10.333 88 -31c20 -20 36.333 -48 49 -84
c19.333 -74.667 29 -163.334 29 -266.001c0 -100.667 -9.66699 -188 -29 -262c-12.667 -35.333 -29 -63.333 -49 -84c-22 -22 -51.333 -33 -88 -33c-66 1.33301 -109.667 40.333 -131 117c-23.333 74 -34.333 161.333 -33 262v0zM575.001 0.00292969h140l454 1298h-139z" />
    <glyph glyph-name="dotaccent" unicode="&#x2039;" horiz-adv-x="494" 
d="M248 121h168l-123 395l123 385h-168l-172 -385z" />
    <glyph glyph-name="ring" unicode="&#x203a;" horiz-adv-x="494" 
d="M76 121h166l174 395l-174 385h-166l125 -385z" />
    <glyph glyph-name="guillemotright" unicode="&#x2122;" horiz-adv-x="1253" 
d="M231 819h88v508h152v86h-389v-86h149v-508zM539 819h88v537h4l139 -537h109l139 537h4v-537h88v594h-164l-121 -467h-4l-123 467h-159v-594z" />
    <glyph glyph-name="glyph162" unicode="&#x2212;" 
d="M125 428h962v164h-962v-164z" />
    <glyph glyph-name="macron" unicode="&#x2215;" horiz-adv-x="473" 
d="M-59 0h139l454 1298h-139z" />
    <glyph glyph-name="caron" unicode="&#x2219;" horiz-adv-x="494" 
d="M133 534h227v230h-227v-230z" />
    <glyph glyph-name="cedilla" unicode="&#xf001;" 
d="M223 0h206.999v868h277v107h-277v117c-1.33301 55.333 9.66699 106.333 33 153c22 46.667 73.667 70.667 155 72c42.667 0 79 -5 109 -15c28.667 -9.33301 53.334 -19.333 74.001 -30v141c-52 13.333 -121 21 -207 23c-80.667 0 -145.667 -10.333 -195 -31
c-48.667 -22 -86 -50.667 -112 -86c-24.667 -34 -41 -73 -49 -117c-10 -43.333 -15 -88.333 -15 -135v-92h-170v-107h170v-868zM845.999 0h207v975h-207v-975zM837.999 1208h223v205h-223v-205z" />
    <glyph glyph-name="hungarumlaut" unicode="&#xf002;" 
d="M223 0h206.999v868h277v107h-277v117c-1.33301 55.333 9.66699 106.333 33 153c22 46.667 73.667 70.667 155 72c42.667 0 79 -5 109 -15c28.667 -9.33301 53.334 -19.333 74.001 -30v141c-52 13.333 -121 21 -207 23c-80.667 0 -145.667 -10.333 -195 -31
c-48.667 -22 -86 -50.667 -112 -86c-24.667 -34 -41 -73 -49 -117c-10 -43.333 -15 -88.333 -15 -135v-92h-170v-107h170v-868zM845.999 0h207v1413h-207v-1413z" />
    <glyph glyph-name="two" horiz-adv-x="0" 
 />
    <glyph glyph-name="glyph1" horiz-adv-x="0" 
 />
    </font>
</defs>
</svg>
